<svg xmlns="http://www.w3.org/2000/svg" id="Layer_1" data-name="Layer 1" viewBox="0 0 350 350"><defs><style>.cls-2{fill:#c4aa9f}.cls-4{fill:#824f41}.cls-5{fill:#5a2f24}.cls-6{fill:#dccdd2}.cls-7{fill:#996452}.cls-9{fill:#bd8264}.cls-11{fill:#ceaa96}.cls-13{fill:#40547b}.cls-14{fill:#f2ac6c}.cls-15{fill:#374c6d}.cls-17{fill:#38874d}.cls-19{fill:#1f7173}.cls-20{fill:#635a5e}.cls-21{fill:#b28044}.cls-24{fill:#a0664d}.cls-25{fill:#9e817a}</style></defs><path style="fill:#af948b" d="m313.32 267.24-14.11-1.5.51-105.74 13.6 8.86v98.38z"/><path class="cls-2" d="m302 81.49-2.31 152.64-.01 1.09-.11 6.82-.01.86-.17 11.04-.02 1.58-.16 10.22-14.97.13-.68.01-18.18.14-.74.01-11.7.1-.7.01-14.69.11-1.2.02-17.74.15-.65.01-14.23.12h-.74l-14.73.12-.88.01-11.89.1-.71.01-13.59.11-1.04.01-12.54.11h-1.25l-13.84.12-1 .01-17.87.15-.79.01-14.6.12-.68.01-13.99.11-.67.01-12.92.11h-.73l-18.19.15-.44.01-16.91.14.58-20.75.02-.46.24-8.67.02-.47 4.44-156.63 262.97.5z"/><path style="fill:#edc9b7" d="M310.6 111.36H34.38V86.1l275.55 1.53.67 23.73z"/><path class="cls-4" d="m176.73 221.79-52.3-1.49 1.18-97.28h52.13l-1.01 98.77z"/><path class="cls-5" d="m125.61 123 9.78 56.73s3.56 4.88 7.85 2.81 4-2.66 4-2.66 4.28 5.91 8.13 3.17 3.85-3.47 3.85-3.47 3.85 5.72 7 4.19 3.18-4.49 3.29-4 1.85 3.26 7.65 3.26l-3-60Z"/><path class="cls-6" d="m177.11 220.67-52.32-.41-.17-19.75 52.11 1.71.38 18.45z"/><path class="cls-7" d="m38.09 115.32 263.78-3.96H38.19l-.1 3.96zM198.66 126.22h86.81v138.71h-86.81z"/><path d="M177.13 183a3.52 3.52 0 0 0 2.73-3.16 3.9 3.9 0 0 0 4.69 2.54c3.12-.52 2.86-4.44 2.86-4.44L174.11 123s3.29 61 3.02 60Z" style="fill:#a0857c"/><path class="cls-4" d="M201.6 129.71h80.94v135.34H201.6z"/><path class="cls-9" d="M201.68 186.4c6 1.83 17.49 9.64 17.49 9.64s2.66 30.71 2.23 30.22-19.17 0-19.72 0 0-39.86 0-39.86ZM259.87 163.22c-.07-.87-.59-1.45-1.16-1-2.2 1.74-3.71 5.34-5 8.45a53.7 53.7 0 0 0-1.71 5.11 32.65 32.65 0 0 0-1 4.33h-35.7a.91.91 0 0 0 0-.33c-.08-1.4 0-2.86 0-4.26s.06-3 .1-4.45c.08-2.73.32-5.59-.46-8.15a.52.52 0 0 0-1-.19 75 75 0 0 0-4.51 9 37.65 37.65 0 0 0-1.53 4.75 28.16 28.16 0 0 0-.68 3.67h-.46V184l53.45.68s.13-15.92-.34-21.46ZM214 171.43a184.1 184.1 0 0 0-.14 4.09 40.45 40.45 0 0 0 0 4.12 2.15 2.15 0 0 0 .12.47h-5.65a27.9 27.9 0 0 1 .54-3 33.2 33.2 0 0 1 1.65-4.75 62.08 62.08 0 0 1 3.64-7 53.38 53.38 0 0 1-.16 6.07Zm38.27 7.68c.24-.82.49-1.63.76-2.43.53-1.62 1.14-3.17 1.77-4.7a26.28 26.28 0 0 1 3.61-6.74c.12 2.23.2 4.47.19 6.71 0 2.73-.17 5.44-.3 8.16H252c.12-.34.2-.67.3-1Z"/><path d="M235.63 171.11c0-.26.05-.51.06-.77a6.82 6.82 0 0 0-.42-3.11.21.21 0 0 0-.38.05 7.14 7.14 0 0 0-.13 1.53c0 .49 0 1-.08 1.47l-.06.83h-1.38c-.11-.46-.21-.92-.31-1.38-.24-1-.47-2-.72-3.07a23.31 23.31 0 0 0-.69-3 .22.22 0 0 0-.42 0 6.75 6.75 0 0 0 .12 2.86c.18 1 .41 2 .63 3.08.11.5.22 1 .32 1.51H231c-.06-.22-.12-.45-.19-.67-.18-.63-.35-1.26-.54-1.89a10.4 10.4 0 0 0-.7-2 .4.4 0 0 0-.75.21 11.67 11.67 0 0 0 .48 2.32c.16.66.35 1.33.53 2h-2.08l1.82 8.66h10.53l2.05-8.66Z" style="fill:#e4a46d"/><path class="cls-9" d="M249.59 192.59h2.96v27.83h-2.96z"/><path class="cls-9" d="M250.02 202.85h32.87v1.38h-32.87z"/><path class="cls-11" d="m254.55 196.8 2.45 6.61h7.41l2.44-6.02-12.3-.59z"/><path class="cls-11" d="M256 197.56c-.3-.68-1.31-2.31 0-3s3.86-.65 4.13-2.53 0-2 0-2 5.3 3.61 5.61 5.16c.54 2.71-1.24 2.79-1.39 2.7s-8.35-.33-8.35-.33ZM281 179.52l-.24-.56s-.36-.47-.37-.47l-.47-.37s-.53-.23-.56-.24l-.62-.08-.62.08-.56.23-.47.37-.36.47a2.61 2.61 0 0 0-.12.29 1.51 1.51 0 0 0-.12.28v.31c0 .1 0 .21-.05.31s.08.6.09.62.23.55.24.56l.37.47.4.31c-.48 1.85-.92 3.71-1.24 5.6-.09.48-.16 1-.24 1.46h-2.18q.42-5.9.61-11.8a1.8 1.8 0 0 0 .79-.19 1.89 1.89 0 0 0 .74-.48l.37-.48a2.38 2.38 0 0 0 .31-1.17l-.08-.62a2.29 2.29 0 0 0-.6-1v-.06a1.86 1.86 0 0 0-.75-.48 2.08 2.08 0 0 0-1.78 0 1.86 1.86 0 0 0-.75.48l-.36.48a2.39 2.39 0 0 0-.32 1.17l.09.62a2.36 2.36 0 0 0 .59 1l.06.06a1.89 1.89 0 0 0 .74.48 2 2 0 0 0 .58.17q-.19 5.91-.61 11.82h-2.01c-.17-1.18-.33-2.35-.49-3.53-.07-.47-.13-.94-.2-1.41 0-.15 0-.3-.05-.45a1.24 1.24 0 0 0 .2-.1 1.63 1.63 0 0 0 .65-.6 1.69 1.69 0 0 0 .42-.79l.08-.62a2.34 2.34 0 0 0-.31-1.18l-.37-.47a2 2 0 0 0-.23-.18 2 2 0 0 0-.45-.42 1.71 1.71 0 0 0-.86-.27 1.73 1.73 0 0 0-.93 0l-.55.23a2.3 2.3 0 0 0-.83.84l-.24.56a2.37 2.37 0 0 0 0 1.24 2.89 2.89 0 0 0 .68 1.17 2.75 2.75 0 0 0 1.16.69 1.7 1.7 0 0 0 .92 0 1.87 1.87 0 0 0 .25 0l.15 1.13.31 2.2.27 1.92H269v13.63h9.85v-13.53h-2.49c0-.23.07-.46.11-.7.16-1 .35-2 .55-2.93s.49-2.17.77-3.24l.28.11a1.69 1.69 0 0 0 .92 0 1.65 1.65 0 0 0 .86-.27s.07-.08.11-.1a2.41 2.41 0 0 0 .8-.82l.24-.55a2.37 2.37 0 0 0 0-1.2Z"/><path class="cls-5" d="M198.66 220.34h86.81v10.44h-86.81z"/><path style="fill:#d89f5b" d="m299.34 267.1-265.41-.28 1.33-35.56h264.79l-.71 35.84z"/><path class="cls-5" d="M1.26 266.18H318.6v2.83H1.26zM205.86 211.32h4.45v18.04h-4.45zM219.17 211.32h4.45v18.04h-4.45zM232.22 211.32h4.45v18.04h-4.45zM245.21 211.32h4.45v18.04h-4.45zM258.2 211.32h4.45v18.04h-4.45zM271.27 211.32h4.45v18.04h-4.45z"/><path class="cls-5" d="M201.68 211.32h81.21v1.14h-81.21z"/><path class="cls-13" d="M299.87 156.14c0 1.8 1.38 14.68 6.8 12.66s4.95-4.84 4.95-4.84Z"/><path class="cls-13" d="M321 173.31c-.33.91-2.31 3.81-7.35 2.84-4.67-.89-3.43-12.19-3.43-12.19Z"/><path class="cls-13" d="M331.4 181.14c-.25.93-1.08 3.51-6.18 3-4.73-.51-4.42-11.87-4.42-11.87Z"/><path class="cls-5" transform="rotate(30 321.76 225.565)" d="M320.96 181.47h1.58v88.18h-1.58z"/><path class="cls-13" d="m300.1 150.35 48.26 40.33s.86 4.41 0 6.26c-1.43 3.09-5 3.16-6-6.26L300 156.23Z"/><path class="cls-13" d="M341.77 189.31c-.33.91-2.4 4.07-7.45 3.1-4.67-.9-3.43-12.19-3.43-12.19Z"/><path class="cls-5" d="M124.43 123.02h1.5v97.01h-1.5zM175.98 123.9h1.5v97.01h-1.5z"/><path class="cls-13" d="M125.61 123h52.13s13.32 49 13.32 49.92-55-1.27-55-1.27Z"/><path class="cls-14" d="M136.1 171.67a5.61 5.61 0 0 0 5.07 5.26c4.89.6 6.07-4.84 6.07-4.84ZM179.85 172.57c-.17.62-1.55 5.34-6.25 4.78a5.52 5.52 0 0 1-4.69-3.89c-.12-.47-.22-1-.31-1.36-1.37-5.3-12.28-49.08-12.28-49.08h10.86l12.64 49.48Z"/><path class="cls-14" d="M158.33 172.19s.18 4.67 4.72 5.26 5.65-4.85 5.65-4.85ZM179.85 172.64a5.62 5.62 0 0 0 5.08 5.26c4.88.59 6.07-4.84 6.07-4.84ZM158.33 171.76v.6c-.27 1-1.71 5.16-6 4.64a5.61 5.61 0 0 1-5.06-5.27S136 123.6 135.39 123h7.9Z"/><path class="cls-15" d="M158.39 172.18a.74.74 0 0 1-.06.18c-.27 1-1.71 5.16-6 4.64a5.61 5.61 0 0 1-5.06-5.27l11.08.42Z"/><path class="cls-4" d="m103.33 220.8-51.73.64-1.4-97 52.13-1.07 1 97.43z"/><path class="cls-5" d="m50.76 124.43 11 56.52s3.66 4.81 7.91 2.65 4-2.75 4-2.75 4.41 5.82 8.2 3 3.77-3.55 3.77-3.55 4 5.64 7 4.05 3.08-4.56 3.2-4.12 1.92 3.22 7.71 3.1l-4.25-59.91Z"/><path class="cls-5" transform="rotate(-1.19 77.66 172.225)" d="M76.43 123.88h3v98.11h-3z"/><path class="cls-4" d="M103.51 183.34a3.5 3.5 0 0 0 2.67-3.21 3.9 3.9 0 0 0 4.74 2.44c3.12-.58 2.77-4.5 2.77-4.5l-14.43-54.64s4.55 60.89 4.25 59.91Z"/><path class="cls-15" d="M106 172.79a.42.42 0 0 1 0 .07c-.15.61-1.43 5.36-6.15 4.9a5.53 5.53 0 0 1-4.85-3.48 6 6 0 0 1-.42-1.67h.23l11.23.18Z"/><path class="cls-6" d="m103.92 222.13-52.32-.41-.17-19.74 52.11 1.7.38 18.45z"/><path class="cls-5" transform="rotate(-1.19 51.176 172.431)" d="M50.59 124.43h1.5v97.01h-1.5z"/><path style="fill:#b5877f" d="M77.05 202.93h2.98v17.61h-2.98z"/><path class="cls-5" transform="rotate(-1.19 102.702 172.003)" d="M102.15 124.25h1.5v97.01h-1.5z"/><path class="cls-13" d="m50.76 124.43 52.13-1.08s14.33 48.76 14.35 49.64-55-.13-55-.13Z"/><path class="cls-14" d="M106 172.86c-.15.61-1.43 5.36-6.15 4.9a5.53 5.53 0 0 1-4.85-3.48 7.18 7.18 0 0 0 0-1.12l-.15-.55c-1.48-5.27-13.29-48.81-13.29-48.81l10.86-.23L106 172.79ZM62.26 172.86a5.63 5.63 0 0 0 5.18 5.14c4.9.49 6-5 6-5Z"/><path class="cls-14" d="M84.49 172.49s.27 4.67 4.81 5.17 5.53-5 5.53-5ZM106 172.92a5.62 5.62 0 0 0 5.18 5.16c4.9.49 6-5 6-5ZM84.49 172.49v.6c-.26 1-1.61 5.19-5.92 4.76a5.62 5.62 0 0 1-5.18-5.16s-12.24-47.89-12.84-48.46l7.9-.16Z"/><path class="cls-15" d="M84.56 172.91a1 1 0 0 1 0 .18c-.26 1-1.61 5.19-5.92 4.76a5.62 5.62 0 0 1-5.18-5.16l11.09.19ZM106 172.79a1.35 1.35 0 0 1 0 .18c-.27 1-1.66 5.19-6.08 4.76a5.67 5.67 0 0 1-5.31-5.16l11.38.19ZM179.84 172.73a.88.88 0 0 1-.06.19c-.26 1-1.61 5.2-5.9 4.77a5.62 5.62 0 0 1-5.16-5.16l11.05.18Z"/><path class="cls-5" d="m104.67 222.14-53.07-.42-.03-1.47 53.07.53.03 1.36z"/><path class="cls-17" d="M71.37 204.22c-.65 2.72-1.35 5.32-1.73 6.93a8 8 0 0 0-.28 1.56H68s0-.61.06-1.63c.05-1.6.19-4.2.46-6.93.48-5.06 1.44-10.58 3.3-11 2.02-.4.87 5.59-.45 11.07ZM67.08 212.72l-.93.69s-.13-.93-.3-2.44c-.2-1.71-.48-4.18-.71-6.89-.58-6.4-1-14.15.07-16.37 1.25-2.62 1.63 8.17 1.77 16.42 0 2.81.06 5.31.07 6.9.01.88.01 1.49.03 1.69ZM64.55 211.83l-1.7.89s-.26-.74-.65-1.91c-.56-1.67-1.38-4.24-2-6.83-1-4.09-1.65-8.25-.25-9 1.68-1 2.92 4.22 3.7 9.12.43 2.76.72 5.44.85 6.86.01.38.04.7.05.87Z"/><path d="m71.83 211.26-2.24 9.3-6.74-.29c-.06-.26-2.35-9-2.24-9.53l1.6.08c-.56-1.67-1.76-5.85-2.41-8.43l3.53.09c.43 2.76 1 7 1.15 8.44l1.38.06c-.2-1.71-.64-5.78-.87-8.48l2 .08c0 2.81.07 6.87.08 8.46l1 .06c.05-1.6.28-5.65.55-8.38l3 .23c-.65 2.72-1.65 6.61-2 8.22Z" style="fill:#819e63"/><path class="cls-19" d="m59.8 210.37 12.03.55-2.4 9.65-7.22-.3-2.41-9.9z"/><path class="cls-20" d="m102.63 203.46-38.76-1.06-11-.29c-.18 0-.18.28 0 .29l38.76 1 11 .3a.15.15 0 0 0 0-.24Z"/><path class="cls-2" d="M90.07 210.38h1.21v10.25h-1.21z"/><path class="cls-2" d="M81.47 211.54h19.58v1.18H81.47zM85.88 219.48h9.58v1.1h-9.58z"/><path class="cls-2" d="m84.81 204.63 2.56 7.14h7.78l2.56-6.5-12.9-.64z"/><path class="cls-2" d="M96.26 205.2a1.28 1.28 0 0 1-1.23.6c-.16-.09-8.75-.36-8.75-.36l-.36-.75a3.09 3.09 0 0 1-.31-1.59 1.23 1.23 0 0 1 .66-.86c1.38-.78 4-.7 4.34-2.73.22-1.64.09-2 0-2.09.4.27 5.53 3.93 5.86 5.54 0 .21.07.39.08.57a2.56 2.56 0 0 1-.29 1.67Z"/><path class="cls-21" d="M33.93 230.78h265.28v1.28H33.93z"/><path class="cls-5" d="m226.6 105.33-3.41 48.66 73.14-3.95 5.08-5.14-74.81-39.57z"/><path style="fill:#fae8da" d="m299.21 147.18-73.44 1.17.83-43.02 1.99-2.87 72.75.01.07 42.43-2.2 2.28z"/><path class="cls-19" d="M261.92 114.58h-3.44v-2.23a4 4 0 0 0-.11-1.21.47.47 0 0 0-.48-.24c-.29 0-.47.09-.54.29a4.17 4.17 0 0 0-.12 1.27v6a3.87 3.87 0 0 0 .12 1.22.58.58 0 0 0 1 0 4.47 4.47 0 0 0 .12-1.34v-1.62h3.44v.5a9.7 9.7 0 0 1-.29 2.83 2.93 2.93 0 0 1-1.28 1.46 4.48 4.48 0 0 1-2.45.63 5.25 5.25 0 0 1-2.49-.53 2.69 2.69 0 0 1-1.3-1.47 9.55 9.55 0 0 1-.31-2.83v-3.75a17.62 17.62 0 0 1 .09-2.08 2.9 2.9 0 0 1 .59-1.34 3.33 3.33 0 0 1 1.34-1 5.14 5.14 0 0 1 2-.37 4.86 4.86 0 0 1 2.51.58 2.72 2.72 0 0 1 1.3 1.42 8.46 8.46 0 0 1 .31 2.64ZM266 115.38h-3.1v-.7a4.87 4.87 0 0 1 .29-1.88 2.58 2.58 0 0 1 1.17-1.17 4.46 4.46 0 0 1 2.27-.51 4.56 4.56 0 0 1 2.52.57 2.31 2.31 0 0 1 1 1.42 21.93 21.93 0 0 1 .17 3.44v5.28h-3.21v-.94a2.08 2.08 0 0 1-.78.85 2.19 2.19 0 0 1-1.14.28 2.87 2.87 0 0 1-1.58-.47c-.48-.32-.73-1-.73-2.07v-.86a2.45 2.45 0 0 1 .39-1.61 5.31 5.31 0 0 1 1.9-1 5.64 5.64 0 0 0 1.74-.83 2.31 2.31 0 0 0 .11-.87 3.06 3.06 0 0 0-.12-1.08.46.46 0 0 0-.42-.25q-.35 0-.42.21a4 4 0 0 0-.08 1.09Zm1 1.45a2.42 2.42 0 0 0-.92.94 3.81 3.81 0 0 0-.12 1.09 3 3 0 0 0 .11 1.06.43.43 0 0 0 .43.24.42.42 0 0 0 .5-.16 3 3 0 0 0 .09-1ZM278.57 111.31l-1.33 4.19 1.73 6.33h-3.17l-1-4.59v4.59h-3.3V109h3.3v5.39l1-3.07ZM286.93 116.76h-4.27V119a2.44 2.44 0 0 0 .11.92.42.42 0 0 0 .41.21.48.48 0 0 0 .5-.28 3 3 0 0 0 .13-1.06v-1.38h3.12v.77a7.15 7.15 0 0 1-.12 1.5 3.17 3.17 0 0 1-.6 1.12 2.83 2.83 0 0 1-1.18.89 4.61 4.61 0 0 1-1.79.3 5.47 5.47 0 0 1-1.84-.29 3 3 0 0 1-1.25-.81 2.87 2.87 0 0 1-.61-1.12 6.85 6.85 0 0 1-.17-1.79v-3.07a5.08 5.08 0 0 1 .38-2.18 2.62 2.62 0 0 1 1.26-1.22 5.19 5.19 0 0 1 4.29.09 2.82 2.82 0 0 1 1.27 1.36 6.2 6.2 0 0 1 .36 2.37Zm-3.3-1.72v-.77a3.75 3.75 0 0 0-.09-1 .36.36 0 0 0-.37-.24c-.23 0-.37.07-.43.2a4.38 4.38 0 0 0-.08 1.09v.68ZM294.74 114.67h-2.92v-.57a2.78 2.78 0 0 0-.09-.92c-.05-.13-.2-.2-.42-.2a.49.49 0 0 0-.42.18.89.89 0 0 0-.14.54 2.54 2.54 0 0 0 .07.71 1.18 1.18 0 0 0 .42.49 9.29 9.29 0 0 0 1.42.79 5.16 5.16 0 0 1 1.89 1.28 2.9 2.9 0 0 1 .45 1.75 4.28 4.28 0 0 1-.35 1.94 2.28 2.28 0 0 1-1.14 1 4.94 4.94 0 0 1-1.94.35 5.51 5.51 0 0 1-2.15-.38 2.3 2.3 0 0 1-1.23-1 4.49 4.49 0 0 1-.34-2v-.5h2.93v.66a3.2 3.2 0 0 0 .11 1.1.43.43 0 0 0 .43.26.6.6 0 0 0 .49-.17 1.3 1.3 0 0 0 .14-.72 1.53 1.53 0 0 0-.18-.94 13.42 13.42 0 0 0-1.92-1.13 4.27 4.27 0 0 1-1.77-1.44 3.45 3.45 0 0 1-.32-1.53 3.85 3.85 0 0 1 .35-1.86 2.22 2.22 0 0 1 1.16-.93 5.31 5.31 0 0 1 1.91-.32 5.81 5.81 0 0 1 1.83.26 2.91 2.91 0 0 1 1.16.71 1.89 1.89 0 0 1 .49.81 6.25 6.25 0 0 1 .08 1.16ZM267.59 134.15h-2.92v-.57a3.29 3.29 0 0 0-.08-.92c-.06-.13-.2-.19-.43-.19a.51.51 0 0 0-.42.17.89.89 0 0 0-.14.54 2.92 2.92 0 0 0 .07.71 1.12 1.12 0 0 0 .42.49 8.48 8.48 0 0 0 1.42.79 5.16 5.16 0 0 1 1.89 1.28 2.93 2.93 0 0 1 .45 1.76 4.23 4.23 0 0 1-.35 1.93 2.2 2.2 0 0 1-1.14 1 4.74 4.74 0 0 1-1.94.35 5.34 5.34 0 0 1-2.15-.38 2.26 2.26 0 0 1-1.23-1 4.5 4.5 0 0 1-.33-2v-.51h2.92v.67a3.24 3.24 0 0 0 .11 1.1.42.42 0 0 0 .43.25.6.6 0 0 0 .49-.17 1.17 1.17 0 0 0 .14-.72 1.55 1.55 0 0 0-.18-.94 14.59 14.59 0 0 0-1.92-1.13 4.19 4.19 0 0 1-1.77-1.44 3.45 3.45 0 0 1-.31-1.53 3.87 3.87 0 0 1 .34-1.86 2.16 2.16 0 0 1 1.16-.92 5.09 5.09 0 0 1 1.91-.33 5.43 5.43 0 0 1 1.83.27 2.9 2.9 0 0 1 1.16.7 1.89 1.89 0 0 1 .49.81 6.4 6.4 0 0 1 .08 1.16ZM272 128.48v2.89a3 3 0 0 1 .92-.58 3.07 3.07 0 0 1 1.06-.19 2.5 2.5 0 0 1 1.47.43 1.74 1.74 0 0 1 .75 1 10.26 10.26 0 0 1 .13 2v7.25h-3.3v-7.4a4.65 4.65 0 0 0-.09-1.18.39.39 0 0 0-.42-.26.4.4 0 0 0-.41.27 3.43 3.43 0 0 0-.11 1.07v7.5h-3.29v-12.8ZM284.94 134.49v2.57a10.67 10.67 0 0 1-.14 2.09 2.89 2.89 0 0 1-.63 1.23 2.74 2.74 0 0 1-1.24.85 5.11 5.11 0 0 1-1.73.27 6.18 6.18 0 0 1-1.85-.23 2.51 2.51 0 0 1-1.18-.71 2.71 2.71 0 0 1-.6-1.14 8.25 8.25 0 0 1-.18-2v-2.69a6.6 6.6 0 0 1 .32-2.29 2.7 2.7 0 0 1 1.18-1.33 4.25 4.25 0 0 1 2.17-.5 5.23 5.23 0 0 1 1.91.32 3.14 3.14 0 0 1 1.22.84 2.82 2.82 0 0 1 .59 1.06 6.29 6.29 0 0 1 .16 1.66Zm-3.29-.8a3.36 3.36 0 0 0-.09-1 .38.38 0 0 0-.39-.21.4.4 0 0 0-.39.21 3.24 3.24 0 0 0-.1 1v4.75a3.11 3.11 0 0 0 .1 1 .38.38 0 0 0 .39.23.37.37 0 0 0 .38-.21 2.33 2.33 0 0 0 .1-.88ZM289.38 130.79l-.05.93a3 3 0 0 1 1-.84 2.52 2.52 0 0 1 1.16-.28 2.24 2.24 0 0 1 1.32.4 1.66 1.66 0 0 1 .7.93 7.94 7.94 0 0 1 .14 1.77v4.43a8.13 8.13 0 0 1-.18 2.05 1.66 1.66 0 0 1-.71 1 2.34 2.34 0 0 1-1.31.36 2.46 2.46 0 0 1-1.14-.27 3 3 0 0 1-.95-.83v2.41H286v-12Zm.94 3.06a5.23 5.23 0 0 0-.07-1.18c-.05-.14-.19-.2-.41-.2a.4.4 0 0 0-.42.23 4.36 4.36 0 0 0-.09 1.15v4.36a4.53 4.53 0 0 0 .09 1.19.42.42 0 0 0 .43.24c.21 0 .34-.07.39-.22a3.79 3.79 0 0 0 .08-1.06ZM232.77 129.32l4.95 13.38h15l4.93-12.18-24.88-1.2z"/><path class="cls-19" d="M235.61 130.85c-.62-1.37-2.66-4.67 0-6.14s7.79-1.31 8.35-5.13 0-4 0-4 10.71 7.29 11.34 10.44c1.1 5.47-2.5 5.63-2.81 5.47s-16.88-.64-16.88-.64Z"/><path class="cls-5" d="M301.41 144.9c-9.79-.42-19.58-.05-29.36.3-4.85.17-9.7.33-14.55.37s-9.68-.09-14.53-.23a80.35 80.35 0 0 0-15.58.67c.45-11.31 1.09-22.64 1.22-34q.06-4.78 0-9.57a.15.15 0 0 0-.29 0c.19 11.3-.35 22.57-.81 33.85q-.18 4.84-.38 9.68a.11.11 0 0 0 0 .06.12.12 0 0 0 0 .07 16.76 16.76 0 0 1-1.31 1.85.14.14 0 0 0 0 .2.14.14 0 0 0 .21 0 17.79 17.79 0 0 0 1.34-1.88 74.1 74.1 0 0 1 14.28-.73c4.78.12 9.56.31 14.35.29 9.7 0 19.39-.59 29.08-.8 5.47-.12 10.94-.13 16.41.11.11.06.11-.23-.08-.24Z"/><path class="cls-2" d="M146.18 215h.95v5.03h-.95z"/><path class="cls-2" transform="rotate(2.4 130.155 216.972)" d="M129.79 214.32h.75v5.71h-.75z"/><path class="cls-2" transform="rotate(2.4 138.474 215.126)" d="M129.91 214.65h17.26v1.12h-17.26z"/><path class="cls-11" d="m132.36 209.23 2.13 5.76h6.47l2.11-5.24-10.71-.52z"/><path class="cls-11" d="M133.58 209.89c-.26-.59-1.14-2 0-2.65s3.36-.56 3.6-2.2 0-1.72 0-1.72 4.61 3.15 4.89 4.5c.47 2.36-1.08 2.43-1.22 2.36s-7.27-.29-7.27-.29Z"/><path class="cls-2" d="M169.77 207.82c0 .8-22 .07-23.07 0-.87-.07-.53-3.7-.21-6.59.08-.68.15-1.32.21-1.85.19-1.81 21-.4 22.24-.36.51 0 .74 1.4.83 3.08.13 2.34 0 5.24 0 5.72Z"/><path class="cls-9" d="m166 199.32-15.24-.86v-2.52a25.63 25.63 0 0 1 .22-4.79c.15-.87 12.54.14 14 0 .91-.08 1.02 5.91 1.02 8.17Z"/><path class="cls-9" d="M154.08 187.83c-.1-.67-.37.21-.74.5-.88.71-2 2.38-.67 2.7 2.46.57 3.45-.63 2.44-1.73s-.89-.6-1.03-1.47ZM158.41 187.83c-.1-.67-.37.21-.74.5-.88.71-2 2.38-.67 2.7 2.46.57 3.45-.63 2.44-1.73s-.89-.6-1.03-1.47ZM162.75 188.23c-.11-.67-.38.21-.74.51-.89.71-2 2.38-.68 2.7 2.46.57 3.45-.63 2.44-1.74s-.89-.59-1.02-1.47Z"/><path class="cls-2" d="M156.72 205.9h1.65v14.01h-1.65z"/><path class="cls-2" d="M144.96 207.49h26.75v1.61h-26.75zM164.09 220.25l-13.1-.42v-1.5h13.1v1.92z"/><path class="cls-9" d="m169.77 202.1-23.28-.87c.08-.68.15-1.32.21-1.85.19-1.81 21-.4 22.24-.36.51-.02.74 1.4.83 3.08Z"/><path class="cls-20" d="m175.91 203.37-37.8-.85-10.56-.23a.15.15 0 0 0-.2-.13 19.07 19.07 0 0 0-1.41-1.29.15.15 0 0 0-.21 0 .14.14 0 0 0 0 .2 18.64 18.64 0 0 1 1.54 1.41c.26 5.45.7 10.94.44 16.4 0 .19.28.19.29 0 .26-5.44-.18-10.91-.44-16.34l37.63.85 10.72.24a.12.12 0 1 0 0-.26Z"/><path class="cls-5" d="m177.48 221.82-53.05-1.52v-1.47l53.05 1.63v1.36z"/><path class="cls-9" d="m96.58 203.45-11-.35a1.23 1.23 0 0 1 .66-.86c1.38-.78 4-.7 4.34-2.73.22-1.64.09-2 0-2.09.4.27 5.53 3.93 5.86 5.54.09.13.13.31.14.49Z"/><path class="cls-20" d="m102.63 204.84-37.8-.84-10.56-.24a.14.14 0 0 0-.19-.12 19.16 19.16 0 0 0-1.42-1.3.15.15 0 0 0-.21.21 16.92 16.92 0 0 1 1.54 1.4c.26 5.45.7 10.94.44 16.4a.15.15 0 0 0 .29 0c.26-5.43-.18-10.9-.44-16.34l37.63.85 10.72.24a.12.12 0 1 0 0-.26Z"/><path class="cls-5" d="M160.55 254.61c-1.28 0-4.27-.06-4.27 0h-1.13c-.64 0-5.7.1-5.7.11s.43 2.35.57 3.36.34 2.29.52 3.43a45.29 45.29 0 0 0 .9 4.73c.1 0 1.29.06 1.65.1l2.09.22c.28 0 1.36.19 1.36.16l.67.08 1.07.13c.19 0 .83.26 1.13-.16a15.72 15.72 0 0 0 .23-2c.12-1.12.24-2.24.35-3.37s.21-2.24.31-3.36c.05-.59.46-3.47.25-3.43Zm-10 4c0-.23-.07-.45-.1-.67-.16-.94-.33-1.6-.44-2.63h2.94V258.71h-.33l-1.25-.09c-.22-.06-.6-.19-.85-.04Zm.43 2.75c-.13-.81-.25-1.62-.38-2.42a2.16 2.16 0 0 0 .82.11l1.19.1h.4c0 .62 0 1.23.05 1.85v1.19a7.71 7.71 0 0 0-2 .05c-.06-.31-.06-.61-.06-.91Zm2.2 4.43h-1a1.61 1.61 0 0 0-.49 0c-.16-1.06-.33-2.11-.5-3.16a9.15 9.15 0 0 0 2 .14c0 1 .09 2.05.14 3.07Zm2.82.21-.78-.08-1.52-.12c-.06-1-.12-2.07-.17-3.1l1.79.05h.71c-.03 1.11-.03 2.18-.03 3.25Zm.06-5.18v1.42H153.53c0-.35 0-.69-.05-1 0-.66 0-1.33-.07-2l1.74.09h1Zm0-3.18v1.18h-1l-1.76-.11v-.95l-.06-1.7v-.75c1 0 1.94.05 2.91.05v.66c-.01.54-.01 1.09-.02 1.63Zm3.07 7c-.06.56-.12 1.12-.19 1.68v.08c-.16-.15-.4-.12-.6-.14l-1-.13-.85-.09v-3.26h2.08c.26 0 .6.12.82-.08Zm.37-3.36c0 .39-.08.77-.13 1.16-.2-.25-.53-.16-.79-.16h-2.08v-3H159.46a.48.48 0 0 0 .3-.05Zm.39-3.44c0 .37-.09.73-.13 1.09-.07-.07-.13-.06-.26-.06h-3.02v-3.54c1.23 0 2.47 0 3.7-.07-.06.33-.07.68-.1 1-.01.54-.08 1.07-.08 1.6ZM24.41 232.07h2.28v21.11h-2.28z"/><path class="cls-17" d="M28.66 238.76c-15.53 1.85-26.19-15.37-21.27-15.57s10.15 1.77 8.82-1.38-10-10.26-6.66-14.31 9.67 9.27 10.27 5-5.73-25.14-1.58-26.06 7.4 22.58 8.14 19.41S35 182.5 35.7 189.32s-7.79 28.92-3.05 24.1 12-9.29 9.47-2.82-7.67 18.14-3 15c10.82-7.26 3.38 11.51-10.46 13.16Z"/><path style="fill:#442320" d="M8.49 249.18H44.5v17H8.49z"/><path class="cls-24" d="M6.42 237.84h4.15v29.79H6.42zM42.43 237.84h4.15v29.79h-4.15z"/><path class="cls-9" d="M5.42 257.29h42.55v7.51H5.42zM5.42 247.57h42.55v7.51H5.42zM5.42 237.84h42.55v7.51H5.42z"/><path class="cls-13" transform="rotate(-180 101.575 257.49)" d="M57 255.99h89.15v2.99H57z"/><path class="cls-13" d="M144.26 258.2c0 .78-1.42 8.34-1.42 8.34a9.28 9.28 0 0 1-2 0c0-.16-3.62-9.13-3.31-8.34s6-.05 6-.05ZM65.73 258.2c0 .78-1.41 8.34-1.41 8.34a9.37 9.37 0 0 1-2 0c0-.16-3.62-9.13-3.3-8.34s6-.05 6-.05Z"/><path class="cls-13" transform="matrix(-.98 .17 -.17 -.98 315.74 469.09)" d="M136.85 240.33h1.24v15.89h-1.24z"/><path class="cls-13" transform="matrix(-.98 .17 -.17 -.98 156.14 484.55)" d="M56.38 241.11h1.24V257h-1.24z"/><path class="cls-13" transform="rotate(-180 97.285 246.805)" d="M54.4 246.13h85.77v1.36H54.4z"/><path class="cls-13" transform="rotate(-180 96.655 243.925)" d="M53.77 243.25h85.77v1.36H53.77z"/><path class="cls-13" transform="rotate(-180 97.98 249.665)" d="M55.1 248.98h85.77v1.36H55.1z"/><path class="cls-13" transform="rotate(-180 98.925 252.795)" d="M56.04 252.11h85.77v1.36H56.04z"/><path class="cls-21" d="M274.17 255.31h21.12v8.85h-21.12zM247.43 255.27h20.08v8.7h-20.08zM182.86 235.42h20.94v8.28h-20.94zM260.54 242.62h22v9.35h-22zM198.44 245.48h20.74v8.88h-20.74z"/><path class="cls-25" d="M285.48 147.4v3.23l10.85-.59 2.88-2.86-13.73.22z"/><path class="cls-4" d="M282.54 147.45v3.34l2.94-.16v-3.23l-2.94.05zM225.13 126.22h1.06l-.06 3.49h-1.24l.24-3.49z"/><path class="cls-25" d="m226.6 105.33-.41 20.89h-1.06l1.47-20.89z"/></svg>