<svg xmlns="http://www.w3.org/2000/svg" height="1024" preserveAspectRatio="none" style="display: block;" version="1.1" viewBox="0 0 2048 2048" width="1024">
<defs>
	<linearGradient gradientUnits="userSpaceOnUse" id="Gradient1" x1="191.68" x2="193.056" y1="1230.18" y2="1225.1">
		<stop class="stop0" offset="0" stop-color="rgb(149,195,186)" stop-opacity="1"></stop>
		<stop class="stop1" offset="1" stop-color="rgb(187,225,212)" stop-opacity="1"></stop>
	</linearGradient>
	<linearGradient gradientUnits="userSpaceOnUse" id="Gradient2" x1="554.357" x2="557.201" y1="1417.88" y2="1413.2">
		<stop class="stop0" offset="0" stop-color="rgb(150,190,179)" stop-opacity="1"></stop>
		<stop class="stop1" offset="1" stop-color="rgb(187,227,210)" stop-opacity="1"></stop>
	</linearGradient>
</defs>
<path d="M 0 0 L 727.52 0 L 999.003 0 L 2048 0 L 2048 375.873 L 2048 393.943 L 2048 407.226 L 2048 430.01 L 2048 468.329 L 2048 503.077 L 2048 628.256 L 2048 640.687 L 2048 668.217 L 2048 822.014 L 2048 846.8 L 2048 858.505 L 2048 860.041 L 2048 897.607 L 2048 899.273 L 2048 907.232 L 2048 910.073 L 2048 1116.86 L 2048 1123.88 L 2048 1207.9 L 2048 1527.35 L 2048 2048 L 1317.89 2048 L 724.689 2048 L 0 2048 L 0 1202.88 L 0 687.872 L 0 0 z" fill="rgb(206,234,218)" transform="translate(0,0)"></path>
<path d="M 999.003 0 L 2048 0 L 2048 375.873 L 2048 393.943 L 2048 407.226 L 2048 430.01 L 2048 468.329 L 2048 503.077 L 2048 628.256 L 2048 640.687 L 2048 668.217 L 2048 822.014 L 2048 846.8 L 2048 858.505 L 2048 860.041 L 2048 897.607 L 2048 899.273 L 2048 907.232 L 2048 910.073 L 2048 1116.86 C 2006.55 1145.15 1964.14 1172 1920.84 1197.38 C 1910.71 1203.25 1894.31 1213.52 1884.28 1218.41 C 1883.27 1221.58 1882.19 1224.73 1881.44 1227.97 C 1877.79 1236.33 1873.82 1249.51 1870.57 1258.65 C 1866.71 1269.52 1858.43 1286.71 1855.65 1296.94 C 1853.73 1301.75 1853.05 1303.04 1852.3 1308.04 C 1848.59 1315.6 1846.41 1321.96 1843.56 1329.91 C 1842.22 1332.9 1837.89 1342.87 1836.12 1344.3 C 1822.23 1355.59 1783.07 1384.82 1768.98 1391.65 C 1762.54 1397.75 1748.53 1406.64 1740.67 1411.92 L 1693.36 1443.56 C 1660.56 1465.71 1627.56 1487.57 1594.37 1509.14 C 1579.44 1518.93 1564.45 1529.69 1549.21 1538.81 C 1530 1551.54 1510.91 1564.45 1491.93 1577.53 C 1479.37 1586.23 1432.98 1623.15 1420.29 1608.55 C 1419.73 1602.53 1430.39 1597.39 1431.45 1590.13 C 1436.29 1584.8 1456.17 1495.54 1457.53 1481.75 L 1458.78 1476.35 C 1460.33 1468.73 1463.48 1454.59 1463.29 1447.17 L 1464.51 1440.86 C 1468 1432.92 1478.52 1354.45 1479.53 1341.95 C 1480.14 1340.35 1480.37 1336.91 1480.59 1335.04 C 1480.06 1323.63 1482.6 1311.32 1482.51 1300.31 C 1482.37 1283.3 1485.62 1255.84 1482.09 1239.57 L 1482.39 1236.25 C 1480.98 1215.3 1477.44 1166.78 1469.7 1148.78 L 1469.27 1146.22 C 1469.02 1138.21 1460.09 1113.73 1456.94 1105.77 C 1452.81 1096.9 1447.7 1089.69 1441.02 1082.62 C 1437.6 1079.18 1433.47 1075.64 1429.82 1072.36 C 1414.51 1060.06 1399.57 1049.91 1383.3 1038.9 C 1355.32 1019.26 1324.92 1000.29 1296.23 981.21 L 1124.12 865.635 C 1030.19 801.994 931.742 731.201 836.391 670.512 C 821.479 660.794 805.805 651.213 790.702 641.715 C 783.439 637 775.371 632.338 767.913 627.844 C 764.753 625.936 760.688 623.855 757.386 622.042 C 752.213 618.988 746.363 616.257 740.95 613.574 C 737.758 611.665 732.72 609.56 729.212 607.967 L 714.25 600.837 C 731.09 589.283 764.61 572.263 783.51 562.273 C 844.892 526.025 909.937 493.686 972.027 458.444 C 991.896 447.166 1012.47 435.897 1032.62 425.124 C 1044.53 416.375 1061.51 409.458 1075.78 398.737 C 1088.42 388.204 1116.88 370.477 1131.55 360.797 C 1044.79 239.334 1012.28 148.426 999.003 0 z" fill="rgb(251,170,170)" transform="translate(0,0)"></path>
<path d="M 999.003 0 L 2048 0 L 2048 375.873 L 2048 393.943 L 2048 407.226 L 2048 430.01 L 2048 468.329 C 2021.12 449.646 1970.45 422.448 1940.57 406.375 C 1854.01 359.265 1764.72 317.375 1673.16 280.931 C 1649.96 271.862 1625.05 264.337 1601.38 255.593 C 1593.43 261.626 1585.13 267.196 1576.53 272.276 C 1526.18 302.261 1456.92 324.417 1398.58 309.654 C 1350.19 342.442 1303.15 377.073 1253.88 408.629 C 1232.96 422.028 1212.89 436.03 1191.34 448.539 C 1176.54 441.711 1161.68 434.997 1146.78 428.399 L 1122.07 417.72 L 1114.62 414.768 L 1100.68 408.63 C 1098.48 407.888 1093.21 405.362 1090.84 404.314 C 1085.85 402.111 1080.93 400.512 1075.78 398.737 C 1088.42 388.204 1116.88 370.477 1131.55 360.797 C 1044.79 239.334 1012.28 148.426 999.003 0 z" fill="rgb(241,83,48)" transform="translate(0,0)"></path>
<path d="M 1438.04 137.731 C 1519.74 151.835 1604.84 173.208 1683.03 201.235 C 1759.24 228.548 1834.45 262.966 1907.03 298.791 C 1940.16 315.141 1972.85 332.376 2005.06 350.478 C 2017.99 357.79 2035.78 367.659 2048 375.873 L 2048 393.943 L 2048 407.226 L 2048 430.01 L 2048 468.329 C 2021.12 449.646 1970.45 422.448 1940.57 406.375 C 1854.01 359.265 1764.72 317.375 1673.16 280.931 C 1649.96 271.862 1625.05 264.337 1601.38 255.593 C 1593.43 261.626 1585.13 267.196 1576.53 272.276 C 1526.18 302.261 1456.92 324.417 1398.58 309.654 C 1350.19 342.442 1303.15 377.073 1253.88 408.629 C 1232.96 422.028 1212.89 436.03 1191.34 448.539 C 1176.54 441.711 1161.68 434.997 1146.78 428.399 L 1122.07 417.72 L 1114.62 414.768 L 1100.68 408.63 C 1098.48 407.888 1093.21 405.362 1090.84 404.314 C 1085.85 402.111 1080.93 400.512 1075.78 398.737 C 1088.42 388.204 1116.88 370.477 1131.55 360.797 C 1145.67 353.421 1167.26 336.887 1181.57 327.713 C 1251.51 282.507 1319.38 234.187 1384.99 182.9 C 1403.48 168.284 1420.34 151.933 1438.04 137.731 z" fill="rgb(206,234,218)" transform="translate(0,0)"></path>
<path d="M 1596.01 219.62 C 1687.33 248.961 1773.28 287.349 1859.48 329.079 C 1923.25 359.951 1988.36 391.395 2048 430.01 L 2048 468.329 C 2021.12 449.646 1970.45 422.448 1940.57 406.375 C 1854.01 359.265 1764.72 317.375 1673.16 280.931 C 1649.96 271.862 1625.05 264.337 1601.38 255.593 C 1593.43 261.626 1585.13 267.196 1576.53 272.276 C 1526.18 302.261 1456.92 324.417 1398.58 309.654 C 1350.19 342.442 1303.15 377.073 1253.88 408.629 C 1232.96 422.028 1212.89 436.03 1191.34 448.539 C 1176.54 441.711 1161.68 434.997 1146.78 428.399 C 1160.98 417.385 1181.14 404.821 1196.49 394.713 L 1267.05 347.727 L 1349.64 291.921 C 1363.54 282.516 1377.57 272.263 1391.83 263.565 C 1395.95 271.562 1402.2 276.447 1410.92 278.892 C 1471.51 295.878 1553.09 262.124 1596.01 219.62 z" fill="rgb(151,211,176)" transform="translate(0,0)"></path>
<path d="M 1438.04 137.731 C 1519.74 151.835 1604.84 173.208 1683.03 201.235 C 1759.24 228.548 1834.45 262.966 1907.03 298.791 C 1940.16 315.141 1972.85 332.376 2005.06 350.478 C 2017.99 357.79 2035.78 367.659 2048 375.873 L 2048 393.943 L 2048 407.226 C 2007.89 382.441 1966.57 361.138 1925.49 338.094 C 1919.96 334.992 1914.15 331.439 1908.45 328.676 C 1805.13 278.642 1698.78 230.87 1588.77 197.565 C 1543.56 183.88 1493.96 172.658 1447.76 163.707 C 1364.21 238.687 1269.51 296.351 1177.05 359.358 C 1152.92 375.803 1123.71 391.414 1100.68 408.63 C 1098.48 407.888 1093.21 405.362 1090.84 404.314 C 1085.85 402.111 1080.93 400.512 1075.78 398.737 C 1088.42 388.204 1116.88 370.477 1131.55 360.797 C 1145.67 353.421 1167.26 336.887 1181.57 327.713 C 1251.51 282.507 1319.38 234.187 1384.99 182.9 C 1403.48 168.284 1420.34 151.933 1438.04 137.731 z" fill="rgb(206,234,218)" transform="translate(0,0)"></path>
<path d="M 1444.3 153.19 C 1495.69 163.943 1541.45 173.393 1592.01 188.227 C 1658.09 207.616 1717.25 230.958 1780.26 258.039 C 1872.52 297.156 1961.97 342.564 2048 393.943 L 2048 407.226 C 2007.89 382.441 1966.57 361.138 1925.49 338.094 C 1919.96 334.992 1914.15 331.439 1908.45 328.676 C 1805.13 278.642 1698.78 230.87 1588.77 197.565 C 1543.56 183.88 1493.96 172.658 1447.76 163.707 C 1364.21 238.687 1269.51 296.351 1177.05 359.358 C 1152.92 375.803 1123.71 391.414 1100.68 408.63 C 1098.48 407.888 1093.21 405.362 1090.84 404.314 C 1121.49 386.026 1150.92 364.853 1180.83 345.41 C 1233.24 311.64 1284.76 276.51 1335.34 240.053 C 1370.8 214.474 1412.74 183.477 1444.3 153.19 z" fill="rgb(151,211,176)" transform="translate(0,0)"></path>
<path d="M 1114.62 414.768 C 1129.38 403.031 1145.45 393.208 1161.25 382.933 C 1179.23 371.156 1197.14 359.269 1214.98 347.274 C 1292.09 295.729 1370.5 243.743 1442.33 184.804 C 1445.38 182.298 1450.83 180.437 1454.7 179.757 L 1456.76 180.432 C 1456.06 191.282 1364 255.569 1350.56 265.027 C 1293.49 304.538 1235.97 343.387 1178 381.566 C 1159.91 393.593 1139.34 405.205 1122.07 417.72 L 1114.62 414.768 z" fill="rgb(151,211,176)" transform="translate(0,0)"></path>
<path d="M 1483.4 189.864 C 1488.07 189.791 1511.6 196.989 1517.34 198.66 C 1502.35 212.441 1487.9 221.988 1474.12 234.372 C 1489.7 226.725 1510.15 210.943 1523.19 199.663 C 1527.9 200.818 1532.89 201.777 1537.66 202.777 C 1521.32 216.317 1501.46 232.654 1483.39 243.306 C 1506.19 236.785 1528.35 220.685 1545.86 205.08 L 1560.48 209.504 C 1570.46 212.418 1578.72 215.008 1588.57 218.526 C 1548.25 252.12 1491.99 272.677 1439.38 271.201 C 1430.76 270.444 1419.8 269.091 1414.12 262.008 C 1404.03 249.44 1421.45 236.671 1430.74 229.831 C 1448.39 216.836 1465.48 202.606 1483.4 189.864 z" fill="rgb(151,211,176)" transform="translate(0,0)"></path>
<path d="M 1601.38 255.593 C 1625.05 264.337 1649.96 271.862 1673.16 280.931 C 1764.72 317.375 1854.01 359.265 1940.57 406.375 C 1970.45 422.448 2021.12 449.646 2048 468.329 L 2048 503.077 C 2034.48 508.441 2023.39 516.35 2017.53 530.283 C 2012.93 541.074 2012.89 553.269 2017.42 564.09 C 2021.29 573.477 2025.3 577.47 2031.73 584.78 C 1959.06 609.99 1890.75 646.328 1829.23 692.497 C 1805.43 710.608 1787.71 726.789 1765.4 745.735 C 1753.71 740.293 1725.58 723.266 1713.55 716.499 C 1675.84 695.218 1637.89 674.356 1599.72 653.918 C 1465.12 582.459 1328.96 513.982 1191.34 448.539 C 1212.89 436.03 1232.96 422.028 1253.88 408.629 C 1303.15 377.073 1350.19 342.442 1398.58 309.654 C 1456.92 324.417 1526.18 302.261 1576.53 272.276 C 1585.13 267.196 1593.43 261.626 1601.38 255.593 z" fill="rgb(206,234,218)" transform="translate(0,0)"></path>
<path d="M 1605.59 433.384 C 1630.16 429.416 1676.75 440.236 1696.12 456.129 C 1756.85 505.955 1718.41 554.374 1653.24 561.664 C 1611.46 566.122 1537.48 543.29 1531.91 494.607 C 1530.47 482.945 1533.9 471.205 1541.39 462.151 C 1556.25 443.971 1583.07 435.766 1605.59 433.384 z" fill="rgb(151,211,176)" transform="translate(0,0)"></path>
<path d="M 1075.78 398.737 C 1080.93 400.512 1085.85 402.111 1090.84 404.314 C 1093.21 405.362 1098.48 407.888 1100.68 408.63 L 1114.62 414.768 L 1122.07 417.72 L 1146.78 428.399 C 1161.68 434.997 1176.54 441.711 1191.34 448.539 C 1328.96 513.982 1465.12 582.459 1599.72 653.918 C 1637.89 674.356 1675.84 695.218 1713.55 716.499 C 1725.58 723.266 1753.71 740.293 1765.4 745.735 C 1787.71 726.789 1805.43 710.608 1829.23 692.497 C 1890.75 646.328 1959.06 609.99 2031.73 584.78 C 2025.3 577.47 2021.29 573.477 2017.42 564.09 C 2012.89 553.269 2012.93 541.074 2017.53 530.283 C 2023.39 516.35 2034.48 508.441 2048 503.077 L 2048 628.256 L 2048 640.687 L 2048 668.217 L 2048 822.014 L 2048 846.8 L 2048 858.505 L 2048 860.041 L 2048 897.607 L 2048 899.273 L 2048 907.232 L 2048 910.073 L 2048 1116.86 C 2006.55 1145.15 1964.14 1172 1920.84 1197.38 C 1910.71 1203.25 1894.31 1213.52 1884.28 1218.41 C 1883.27 1221.58 1882.19 1224.73 1881.44 1227.97 C 1877.79 1236.33 1873.82 1249.51 1870.57 1258.65 C 1866.71 1269.52 1858.43 1286.71 1855.65 1296.94 C 1853.73 1301.75 1853.05 1303.04 1852.3 1308.04 C 1848.59 1315.6 1846.41 1321.96 1843.56 1329.91 C 1842.22 1332.9 1837.89 1342.87 1836.12 1344.3 C 1822.23 1355.59 1783.07 1384.82 1768.98 1391.65 C 1830.73 1272.12 1867.05 1133.08 1843.96 998.502 C 1834.86 945.452 1814.09 894.388 1773.62 857.544 C 1726.82 814.938 1671.61 782.593 1617.49 750.257 C 1569.11 721.099 1520.35 692.571 1471.23 664.68 C 1327.14 581.013 1180.89 501.134 1032.62 425.124 C 1044.53 416.375 1061.51 409.458 1075.78 398.737 z" fill="rgb(241,83,48)" transform="translate(0,0)"></path>
<path d="M 2048 503.077 L 2048 628.256 L 2048 640.687 L 2048 668.217 L 2048 822.014 L 2048 846.8 C 2017.49 869.558 1986.74 891.98 1955.73 914.059 C 1950.86 917.549 1924.43 937.383 1921.04 939.298 C 1920.11 930.47 1918.98 922.957 1917.51 914.188 C 1913.42 891.925 1907.7 869.993 1900.38 848.574 L 1897.59 843.609 C 1894.68 839.156 1892.18 834.447 1889.6 829.789 L 1886.06 825.445 C 1877.44 814.985 1869.92 807.622 1858.88 799.92 C 1847.13 791.774 1835.06 784.114 1822.68 776.958 L 1812.29 771.233 C 1796.91 763.406 1780.1 754.699 1765.4 745.735 C 1787.71 726.789 1805.43 710.608 1829.23 692.497 C 1890.75 646.328 1959.06 609.99 2031.73 584.78 C 2025.3 577.47 2021.29 573.477 2017.42 564.09 C 2012.89 553.269 2012.93 541.074 2017.53 530.283 C 2023.39 516.35 2034.48 508.441 2048 503.077 z" fill="rgb(151,211,176)" transform="translate(0,0)"></path>
<path d="M 1858.88 799.92 C 1914.16 750.331 1984.66 707.547 2048 668.217 L 2048 822.014 L 2048 846.8 C 2017.49 869.558 1986.74 891.98 1955.73 914.059 C 1950.86 917.549 1924.43 937.383 1921.04 939.298 C 1920.11 930.47 1918.98 922.957 1917.51 914.188 C 1913.42 891.925 1907.7 869.993 1900.38 848.574 L 1897.59 843.609 C 1894.68 839.156 1892.18 834.447 1889.6 829.789 L 1886.06 825.445 C 1877.44 814.985 1869.92 807.622 1858.88 799.92 z" fill="rgb(206,234,218)" transform="translate(0,0)"></path>
<path d="M 2048 822.014 L 2048 846.8 C 2017.49 869.558 1986.74 891.98 1955.73 914.059 C 1950.86 917.549 1924.43 937.383 1921.04 939.298 C 1920.11 930.47 1918.98 922.957 1917.51 914.188 C 1931.21 906.698 1956.24 887.632 1969.76 878.09 C 1995.78 859.717 2022.39 840.93 2048 822.014 z" fill="rgb(58,125,105)" transform="translate(0,0)"></path>
<path d="M 1886.06 825.445 C 1896.4 815.262 1988.64 743.37 1997.14 741.56 L 1998.15 742.86 C 1995.69 752.246 1957.21 777.514 1948.07 784.01 C 1927.86 798.326 1908.34 813.603 1889.6 829.789 L 1886.06 825.445 z" fill="rgb(5,21,48)" transform="translate(0,0)"></path>
<path d="M 1897.59 843.609 C 1909.15 832.937 1987.59 771.646 1997.52 769.347 L 1999.04 770.141 C 1998.96 772.72 1998.73 773.339 1996.09 775.541 C 1979.56 789.354 1961.77 801.796 1944.28 814.256 C 1929.26 825.188 1914.62 836.634 1900.38 848.574 L 1897.59 843.609 z" fill="rgb(5,21,48)" transform="translate(0,0)"></path>
<path d="M 2048 640.687 L 2048 668.217 C 1984.66 707.547 1914.16 750.331 1858.88 799.92 C 1847.13 791.774 1835.06 784.114 1822.68 776.958 C 1845.81 759.919 1868.67 740.577 1892.38 724.406 C 1940.31 691.713 1993.85 661.46 2048 640.687 z" fill="rgb(151,211,176)" transform="translate(0,0)"></path>
<path d="M 1812.29 771.233 C 1871.53 722.928 1929.06 680.636 1998.98 648.356 C 2015.06 640.935 2031.58 634.874 2048 628.256 L 2048 640.687 C 1993.85 661.46 1940.31 691.713 1892.38 724.406 C 1868.67 740.577 1845.81 759.919 1822.68 776.958 L 1812.29 771.233 z" fill="rgb(206,234,218)" transform="translate(0,0)"></path>
<path d="M 2048 846.8 L 2048 858.505 L 2048 860.041 L 2048 897.607 L 2048 899.273 L 2048 907.232 L 2048 910.073 L 2048 1116.86 C 2006.55 1145.15 1964.14 1172 1920.84 1197.38 C 1910.71 1203.25 1894.31 1213.52 1884.28 1218.41 C 1885.99 1211.79 1887.07 1207.32 1889.68 1200.99 C 1890.36 1197.58 1890.71 1193.11 1893.11 1190.97 C 1892.65 1189.99 1892.62 1189.32 1892.4 1188.22 C 1894.01 1182.08 1906.99 1129.54 1908.12 1127.93 C 1906.42 1123.56 1907.62 1121.3 1910.07 1117.76 C 1910.47 1111.22 1911.93 1102.23 1913.96 1096.02 L 1914.75 1089.35 C 1916.23 1068.14 1920.38 1044.74 1922.08 1021.48 C 1922 1018.63 1922.41 1016.67 1922.85 1013.89 C 1922.33 1007.85 1922.9 998.883 1923.11 992.577 L 1923.3 985.207 C 1922.7 969.897 1921.94 954.594 1921.04 939.298 C 1924.43 937.383 1950.86 917.549 1955.73 914.059 C 1986.74 891.98 2017.49 869.558 2048 846.8 z" fill="rgb(206,234,218)" transform="translate(0,0)"></path>
<path d="M 1922.85 1013.89 C 1960.02 991.291 1995.55 965.619 2031.49 941.166 C 2033.73 939.642 2035.8 939.007 2038.41 938.449 L 2040.16 938.902 C 2038.09 948.001 1943.54 1008.13 1928.58 1017.5 C 1926.42 1018.85 1924.26 1020.17 1922.08 1021.48 C 1922 1018.63 1922.41 1016.67 1922.85 1013.89 z" fill="rgb(5,21,48)" transform="translate(0,0)"></path>
<path d="M 1902.59 1185.75 C 1911.37 1180.44 1990.76 1131.52 1991.95 1131.31 L 1994.89 1132.25 C 1995.26 1134.39 1995.55 1133.63 1994.31 1135.29 C 1989.62 1141.56 1901.74 1195.01 1889.68 1200.99 C 1890.36 1197.58 1890.71 1193.11 1893.11 1190.97 L 1902.59 1185.75 z" fill="rgb(5,21,48)" transform="translate(0,0)"></path>
<path d="M 1923.3 985.207 C 1954.3 966.089 1984.06 944.795 2013.78 923.786 C 2016.21 922.069 2019.49 920.57 2022.4 919.857 L 2023.75 920.673 L 2022.97 919.913 C 2023.64 921.922 2024.02 921.671 2022.95 923.746 C 2019 931.366 1936.27 984.404 1923.11 992.577 L 1923.3 985.207 z" fill="rgb(5,21,48)" transform="translate(0,0)"></path>
<path d="M 1939.17 1097.69 C 1944.02 1094.68 1949.52 1090.37 1955.1 1091.05 C 1954.58 1097.4 1915.38 1123.46 1908.12 1127.93 C 1906.42 1123.56 1907.62 1121.3 1910.07 1117.76 C 1913.37 1115.52 1915.19 1114.32 1918.14 1111.69 C 1924.24 1108.37 1933.74 1101.98 1939.17 1097.69 z" fill="rgb(5,21,48)" transform="translate(0,0)"></path>
<path d="M 1914.75 1089.35 C 1926.47 1081.75 1937.42 1072.8 1949.09 1065.65 C 1951.52 1067.35 1950.56 1066.2 1951.25 1069.85 C 1949.48 1074.27 1934.18 1083.33 1928.99 1086.8 C 1924.58 1089.7 1919.25 1092.92 1915.32 1096.33 L 1913.96 1096.02 L 1914.75 1089.35 z" fill="rgb(5,21,48)" transform="translate(0,0)"></path>
<path d="M 2048 899.273 C 2044.27 902.66 2026.85 914.5 2022.43 915.158 C 2030.37 908.333 2039.07 903.046 2048 897.607 L 2048 899.273 z" fill="rgb(151,211,176)" transform="translate(0,0)"></path>
<path d="M 2048 860.041 C 2045.05 862.631 2028.61 875.054 2025.74 875.983 C 2027.23 871.451 2043.53 861.103 2048 858.505 L 2048 860.041 z" fill="rgb(151,211,176)" transform="translate(0,0)"></path>
<path d="M 2048 910.073 C 2040.6 914.531 2035.6 917.578 2027.78 921.057 L 2027.34 920.692 C 2034.66 915.544 2040.26 911.643 2048 907.232 L 2048 910.073 z" fill="rgb(151,211,176)" transform="translate(0,0)"></path>
<path d="M 1892.4 1188.22 C 1895.55 1185.17 1897.53 1180.84 1901.8 1180.28 C 1902.96 1182.77 1902.7 1182.92 1902.59 1185.75 L 1893.11 1190.97 C 1892.65 1189.99 1892.62 1189.32 1892.4 1188.22 z" fill="rgb(151,211,176)" transform="translate(0,0)"></path>
<path d="M 1982.76 1095.02 L 1983.34 1095.44 L 1982.54 1097.11 L 1983.6 1098.15 C 1982.78 1099.73 1932.33 1130.66 1927.28 1133.55 L 1925.69 1133.66 C 1926.44 1131.02 1974.83 1102.37 1982.76 1095.02 z" fill="rgb(151,211,176)" transform="translate(0,0)"></path>
<path d="M 714.25 600.837 C 731.09 589.283 764.61 572.263 783.51 562.273 C 811.174 574.991 841.286 591.768 868.071 606.344 C 913.007 630.499 957.467 655.529 1001.43 681.419 C 1098.12 737.528 1194.07 794.893 1289.27 853.5 C 1335.19 881.747 1380.91 910.338 1426.4 939.27 C 1462.63 962.359 1496.3 983.86 1529.69 1010.99 C 1583.24 1054.49 1592.22 1099.08 1596.75 1164.55 C 1602.19 1252.34 1595.79 1340.47 1577.71 1426.56 C 1571.19 1458.8 1564.27 1490.34 1554.26 1521.68 C 1552.52 1527.13 1550.61 1533.29 1549.21 1538.81 C 1530 1551.54 1510.91 1564.45 1491.93 1577.53 C 1479.37 1586.23 1432.98 1623.15 1420.29 1608.55 C 1419.73 1602.53 1430.39 1597.39 1431.45 1590.13 C 1436.29 1584.8 1456.17 1495.54 1457.53 1481.75 L 1458.78 1476.35 C 1460.33 1468.73 1463.48 1454.59 1463.29 1447.17 L 1464.51 1440.86 C 1468 1432.92 1478.52 1354.45 1479.53 1341.95 C 1480.14 1340.35 1480.37 1336.91 1480.59 1335.04 C 1480.06 1323.63 1482.6 1311.32 1482.51 1300.31 C 1482.37 1283.3 1485.62 1255.84 1482.09 1239.57 L 1482.39 1236.25 C 1480.98 1215.3 1477.44 1166.78 1469.7 1148.78 L 1469.27 1146.22 C 1469.02 1138.21 1460.09 1113.73 1456.94 1105.77 C 1452.81 1096.9 1447.7 1089.69 1441.02 1082.62 C 1437.6 1079.18 1433.47 1075.64 1429.82 1072.36 C 1414.51 1060.06 1399.57 1049.91 1383.3 1038.9 C 1355.32 1019.26 1324.92 1000.29 1296.23 981.21 L 1124.12 865.635 C 1030.19 801.994 931.742 731.201 836.391 670.512 C 821.479 660.794 805.805 651.213 790.702 641.715 C 783.439 637 775.371 632.338 767.913 627.844 C 764.753 625.936 760.688 623.855 757.386 622.042 C 752.213 618.988 746.363 616.257 740.95 613.574 C 737.758 611.665 732.72 609.56 729.212 607.967 L 714.25 600.837 z" fill="rgb(241,83,48)" transform="translate(0,0)"></path>
<path d="M 2048 1116.86 L 2048 1123.88 L 2048 1207.9 L 2048 1527.35 L 2048 2048 L 1317.89 2048 L 724.689 2048 C 726.279 2027.39 729.575 2007.54 730.701 1986.05 C 733.759 1932.15 730.676 1878.08 721.511 1824.88 C 717.31 1801.65 712.22 1782.74 707.126 1760.19 C 770.379 1810.62 831.589 1863.74 898.737 1909.24 C 920.637 1924.08 944.773 1939.9 971.342 1944.1 C 985.235 1946.27 999.443 1945.17 1012.84 1940.89 C 1108.41 1910.94 1284.07 1739.33 1358.89 1664.14 C 1375.22 1647.58 1391.41 1630.89 1407.47 1614.07 C 1413.63 1607.63 1424.72 1594.57 1431.45 1590.13 C 1430.39 1597.39 1419.73 1602.53 1420.29 1608.55 C 1432.98 1623.15 1479.37 1586.23 1491.93 1577.53 C 1510.91 1564.45 1530 1551.54 1549.21 1538.81 C 1564.45 1529.69 1579.44 1518.93 1594.37 1509.14 C 1627.56 1487.57 1660.56 1465.71 1693.36 1443.56 L 1740.67 1411.92 C 1748.53 1406.64 1762.54 1397.75 1768.98 1391.65 C 1783.07 1384.82 1822.23 1355.59 1836.12 1344.3 C 1837.89 1342.87 1842.22 1332.9 1843.56 1329.91 C 1846.41 1321.96 1848.59 1315.6 1852.3 1308.04 C 1853.05 1303.04 1853.73 1301.75 1855.65 1296.94 C 1858.43 1286.71 1866.71 1269.52 1870.57 1258.65 C 1873.82 1249.51 1877.79 1236.33 1881.44 1227.97 C 1882.19 1224.73 1883.27 1221.58 1884.28 1218.41 C 1894.31 1213.52 1910.71 1203.25 1920.84 1197.38 C 1964.14 1172 2006.55 1145.15 2048 1116.86 z" fill="rgb(241,83,48)" transform="translate(0,0)"></path>
<path d="M 2048 1116.86 L 2048 1123.88 L 2048 1207.9 L 2048 1527.35 C 2008.05 1523.01 1966.49 1520.61 1926.29 1522.59 C 1787.53 1529.6 1654.42 1579.74 1545.51 1666 C 1426.81 1761.34 1341.81 1896.8 1317.89 2048 L 724.689 2048 C 726.279 2027.39 729.575 2007.54 730.701 1986.05 C 733.759 1932.15 730.676 1878.08 721.511 1824.88 C 717.31 1801.65 712.22 1782.74 707.126 1760.19 C 770.379 1810.62 831.589 1863.74 898.737 1909.24 C 920.637 1924.08 944.773 1939.9 971.342 1944.1 C 985.235 1946.27 999.443 1945.17 1012.84 1940.89 C 1108.41 1910.94 1284.07 1739.33 1358.89 1664.14 C 1375.22 1647.58 1391.41 1630.89 1407.47 1614.07 C 1413.63 1607.63 1424.72 1594.57 1431.45 1590.13 C 1430.39 1597.39 1419.73 1602.53 1420.29 1608.55 C 1432.98 1623.15 1479.37 1586.23 1491.93 1577.53 C 1510.91 1564.45 1530 1551.54 1549.21 1538.81 C 1564.45 1529.69 1579.44 1518.93 1594.37 1509.14 C 1627.56 1487.57 1660.56 1465.71 1693.36 1443.56 L 1740.67 1411.92 C 1748.53 1406.64 1762.54 1397.75 1768.98 1391.65 C 1783.07 1384.82 1822.23 1355.59 1836.12 1344.3 C 1837.89 1342.87 1842.22 1332.9 1843.56 1329.91 C 1846.41 1321.96 1848.59 1315.6 1852.3 1308.04 C 1853.05 1303.04 1853.73 1301.75 1855.65 1296.94 C 1858.43 1286.71 1866.71 1269.52 1870.57 1258.65 C 1873.82 1249.51 1877.79 1236.33 1881.44 1227.97 C 1882.19 1224.73 1883.27 1221.58 1884.28 1218.41 C 1894.31 1213.52 1910.71 1203.25 1920.84 1197.38 C 1964.14 1172 2006.55 1145.15 2048 1116.86 z" fill="rgb(5,21,48)" transform="translate(0,0)"></path>
<path d="M 2048 1116.86 L 2048 1123.88 L 2048 1207.9 C 2005.08 1237.01 1952.25 1267.52 1907.12 1293.53 L 1866.81 1316.6 C 1860.31 1320.35 1850.02 1326.81 1843.56 1329.91 C 1846.41 1321.96 1848.59 1315.6 1852.3 1308.04 C 1853.05 1303.04 1853.73 1301.75 1855.65 1296.94 C 1858.43 1286.71 1866.71 1269.52 1870.57 1258.65 C 1873.82 1249.51 1877.79 1236.33 1881.44 1227.97 C 1882.19 1224.73 1883.27 1221.58 1884.28 1218.41 C 1894.31 1213.52 1910.71 1203.25 1920.84 1197.38 C 1964.14 1172 2006.55 1145.15 2048 1116.86 z" fill="rgb(206,234,218)" transform="translate(0,0)"></path>
<path d="M 2048 1116.86 L 2048 1123.88 C 2010.14 1150.42 1971.75 1174.98 1931.96 1198.55 C 1918.74 1206.38 1894.73 1221.72 1881.44 1227.97 C 1882.19 1224.73 1883.27 1221.58 1884.28 1218.41 C 1894.31 1213.52 1910.71 1203.25 1920.84 1197.38 C 1964.14 1172 2006.55 1145.15 2048 1116.86 z" fill="rgb(5,21,48)" transform="translate(0,0)"></path>
<path d="M 1855.65 1296.94 C 1890.3 1275.37 1925.72 1255.02 1960.09 1233 C 1965.16 1229.75 1971.08 1225.34 1976.25 1222.59 C 1978.6 1224.3 1977.88 1223.95 1979.46 1226.81 C 1976.65 1231.71 1865.08 1299.59 1852.3 1308.04 C 1853.05 1303.04 1853.73 1301.75 1855.65 1296.94 z" fill="rgb(5,21,48)" transform="translate(0,0)"></path>
<path d="M 845.505 1948.37 C 852.283 1946.65 859.159 1950.79 860.811 1957.59 C 862.463 1964.38 858.256 1971.22 851.447 1972.8 C 844.729 1974.37 838.005 1970.23 836.376 1963.53 C 834.746 1956.83 838.819 1950.06 845.505 1948.37 z" fill="rgb(95,114,188)" transform="translate(0,0)"></path>
<path d="M 1949.32 1346.6 C 1955.62 1344.33 1962.57 1347.61 1964.82 1353.92 C 1967.08 1360.23 1963.78 1367.17 1957.46 1369.4 C 1951.17 1371.62 1944.27 1368.34 1942.03 1362.06 C 1939.78 1355.78 1943.04 1348.87 1949.32 1346.6 z" fill="rgb(95,114,188)" transform="translate(0,0)"></path>
<path d="M 1472.62 1652.35 C 1476.31 1650.86 1480.52 1651.47 1483.63 1653.96 C 1486.74 1656.45 1488.26 1660.43 1487.6 1664.36 C 1486.94 1668.29 1484.21 1671.55 1480.46 1672.89 C 1474.83 1674.91 1468.62 1672.05 1466.48 1666.46 C 1464.35 1660.87 1467.08 1654.6 1472.62 1652.35 z" fill="rgb(95,114,188)" transform="translate(0,0)"></path>
<path d="M 1217.14 1981.42 C 1222.46 1979.72 1228.17 1982.64 1229.9 1987.96 C 1231.63 1993.28 1228.75 1999 1223.44 2000.76 C 1218.09 2002.54 1212.31 1999.63 1210.56 1994.26 C 1208.81 1988.9 1211.76 1983.14 1217.14 1981.42 z" fill="rgb(95,114,188)" transform="translate(0,0)"></path>
<path d="M 0 1202.88 C 44.3153 1207.3 89.0688 1211.31 132.394 1221.83 L 126.157 1225.77 C 124.283 1229.18 122.24 1231.91 122.481 1235.73 L 124.871 1238.15 C 126.768 1240.42 129.593 1243.12 130.078 1245.82 C 125.743 1248.5 126.776 1249.95 126.747 1255.06 C 126.594 1263.78 129.385 1263.95 136.373 1268.2 C 124.31 1274.34 112.735 1279.06 100.225 1284.16 C 198.497 1354.02 295.075 1426.23 389.876 1500.74 C 497.979 1584.3 603.769 1670.82 707.126 1760.19 C 712.22 1782.74 717.31 1801.65 721.511 1824.88 C 730.676 1878.08 733.759 1932.15 730.701 1986.05 C 729.575 2007.54 726.279 2027.39 724.689 2048 L 0 2048 L 0 1202.88 z" fill="rgb(241,83,48)" transform="translate(0,0)"></path>
<path d="M 0 0 L 727.52 0 C 728.782 39.27 728.328 74.2293 723.623 113.349 C 706.435 250.617 646.061 378.868 551.223 479.582 C 429.292 607.933 261.734 683.123 84.7942 688.886 C 55.94 689.797 28.8234 690.405 0 687.872 L 0 0 z" fill="rgb(241,83,48)" transform="translate(0,0)"></path>
<path d="M 727.52 0 L 999.003 0 C 1012.28 148.426 1044.79 239.334 1131.55 360.797 C 1116.88 370.477 1088.42 388.204 1075.78 398.737 C 1061.51 409.458 1044.53 416.375 1032.62 425.124 C 1012.47 435.897 991.896 447.166 972.027 458.444 C 909.937 493.686 844.892 526.025 783.51 562.273 C 764.61 572.263 731.09 589.283 714.25 600.837 C 688.414 616.523 658.293 629.031 631.344 642.103 C 505.788 703.008 377.183 753.403 238.31 773.729 C 212.091 777.567 179.615 783.332 153.925 789.718 C 157.388 792.573 173.468 805.508 175.272 808.297 C 250.488 871.246 326.06 933.767 401.985 995.858 C 443.611 1030.45 485.1 1066.73 526.899 1100.94 C 583.295 1146.63 640.924 1190.77 699.723 1233.31 L 771.501 1285.06 C 780.91 1291.81 798.244 1304.89 807.868 1310.36 L 809.418 1311.59 C 814.771 1317.23 837.326 1328.79 840.611 1337.35 C 836.202 1342.89 792.172 1308.38 783.994 1302.54 C 709.305 1250.31 636.04 1196.08 564.28 1139.89 C 507.32 1094.38 453.478 1045.78 397.559 999.986 L 268.344 894.454 C 236.461 868.525 202.572 841.502 171.662 814.739 C 161.139 808.252 157.941 811.345 147.15 815.882 C 158.105 826.624 170.196 833.977 180.264 843.512 L 366.112 994.679 C 406.761 1028.08 455.636 1067.88 494.069 1103.63 C 482.743 1099.2 445.821 1066 433.876 1056.28 C 396.687 1026.5 359.667 996.515 322.818 966.318 C 272.818 925.831 221.136 886.826 171.81 845.504 C 167.817 843.174 167.836 842.837 162.62 844.364 C 149.216 848.287 136.444 854.737 123.158 859.007 C 151.196 885.506 191.717 919.554 222.316 944.128 C 247.888 964.24 304.894 1011.08 329.122 1030.05 C 361.449 1055.37 607.278 1250.02 609.787 1271.66 C 608.282 1272.73 608.693 1272.89 606.949 1272.59 C 600.517 1271.5 555.922 1228.9 547.513 1221.78 C 492.659 1175.33 438.229 1128.64 381.842 1084.03 C 340.781 1051.92 300.151 1019.26 259.964 986.057 C 249.604 977.375 223.451 956.037 215.055 946.151 L 213.797 944.653 C 202.664 944.094 175.697 952.926 164.086 957.012 C 224.936 997.404 285.098 1038.82 344.547 1081.25 C 361.439 1093.49 378.338 1107.27 395.235 1119.83 C 442.724 1154.46 489.064 1190.64 534.181 1228.3 C 542.141 1235.06 565.141 1253.14 568.749 1260.75 L 568.326 1262.35 C 564.931 1262.57 517.514 1221.71 510.724 1216.22 C 437.215 1157.9 362.051 1101.71 285.322 1047.7 C 262.996 1032.08 240.429 1016.81 217.628 1001.89 C 206.81 994.69 189.932 982.761 179.21 977.07 C 174.592 979.305 169.843 981.489 165.405 984.04 C 171.873 989.327 187.456 999.194 191.148 1002.56 C 252.277 1041.7 313.745 1087.57 371.913 1131.16 C 418.789 1166.29 474.044 1205.32 517.694 1243.69 L 516.411 1244.91 C 508.053 1241.77 464.101 1206.66 453.554 1198.75 C 410.723 1166.56 367.674 1134.67 324.41 1103.07 C 295.784 1082.65 267.053 1062.37 238.217 1042.25 C 220.664 1030.21 203.031 1019.28 185.962 1006.46 C 182.316 1004.59 182.129 1004.45 178.977 1001.82 C 164.452 1006.99 150.04 1012.46 135.752 1018.25 L 471.192 1289.15 C 503.133 1315.24 534.623 1341.87 565.648 1369.04 C 577.62 1379.51 604.857 1403.32 614.312 1415.14 L 614.189 1417.01 C 612.356 1417.95 611.972 1418.2 609.872 1417.6 C 601.257 1415.14 483.322 1311.33 465.326 1296.4 L 319.823 1177.73 C 283.448 1148.06 242.698 1113.87 205.869 1085.6 C 200.953 1081.88 197.032 1078.79 191.679 1075.7 C 183.422 1078.39 172.531 1081.85 164.807 1085.5 C 158.532 1087.5 152.794 1089.25 146.708 1091.79 C 179.22 1115.53 214.127 1135.77 247.344 1158.51 C 252.602 1162.11 274.693 1175.81 277.448 1179.4 C 312.18 1199.77 567.66 1390.78 578.069 1412.32 C 570.397 1412.2 526.97 1373.76 517.366 1365.94 C 438.793 1302.99 358.064 1242.78 275.325 1185.41 C 268.577 1181.78 256.046 1172.98 249.26 1168.48 L 193.75 1132.01 C 182.898 1124.94 168.052 1114.72 156.766 1109.27 L 141.361 1115 C 149.564 1121.64 160.506 1128.77 169.308 1134.99 C 264.505 1192.39 359.446 1265.43 448.262 1332.29 C 467.172 1346.57 485.782 1361.25 504.08 1376.31 C 511.604 1382.4 528.88 1396.91 536.854 1401.89 L 532.216 1402.46 C 521.255 1396.77 492.355 1372.88 481.479 1364.32 C 455.556 1344.11 429.437 1324.15 403.126 1304.44 C 336.461 1255.04 268.354 1207.02 198.613 1162.09 C 187.075 1154.65 175.574 1147.21 164.134 1139.62 C 162.978 1139.1 161.549 1138.45 159.847 1137.67 C 151.254 1138.43 136.657 1144.48 128.842 1147.4 C 124.958 1148.88 121.057 1150.32 117.14 1151.71 C 126.801 1161.16 144.775 1172.71 153.721 1180.31 C 185.888 1207.64 242.963 1250.36 272.717 1273.74 C 306.164 1300.03 600.461 1538.24 604.245 1556.6 L 602.707 1558.43 C 594.868 1559.11 576.439 1539.27 569.418 1533.2 C 542.557 1510.18 515.822 1487.02 489.212 1463.72 C 472.272 1449.08 454.419 1434.89 437.251 1420.4 C 385.562 1376.21 332.859 1333.21 279.185 1291.45 C 263.507 1279.33 247.952 1267.05 232.521 1254.61 C 227.891 1250.93 213.95 1239.47 209.208 1236.59 L 202.606 1231.51 L 195.858 1226.56 C 188.592 1220.74 179.335 1212.61 171.098 1208.02 C 168.294 1206.46 166.841 1207.92 164.156 1209.27 C 157.296 1212.27 139.029 1220.46 132.394 1221.83 C 89.0688 1211.31 44.3153 1207.3 0 1202.88 L 0 687.872 C 28.8234 690.405 55.94 689.797 84.7942 688.886 C 261.734 683.123 429.292 607.933 551.223 479.582 C 646.061 378.868 706.435 250.617 723.623 113.349 C 728.328 74.2293 728.782 39.27 727.52 0 z" fill="rgb(5,21,48)" transform="translate(0,0)"></path>
<path d="M 956.895 298.43 C 975.212 295.382 992.513 307.82 995.458 326.154 C 998.402 344.488 985.868 361.718 967.517 364.56 C 949.312 367.379 932.248 354.965 929.327 336.776 C 926.405 318.588 938.723 301.455 956.895 298.43 z" fill="rgb(95,114,188)" transform="translate(0,0)"></path>
<path d="M 601.758 496.02 C 616.225 492.746 630.606 501.825 633.871 516.295 C 637.135 530.764 628.047 545.139 613.576 548.395 C 599.117 551.648 584.758 542.57 581.495 528.113 C 578.233 513.656 587.303 499.291 601.758 496.02 z" fill="rgb(95,114,188)" transform="translate(0,0)"></path>
<path d="M 66.4781 989.479 C 73.2669 988.364 79.6977 992.893 80.9336 999.661 C 82.1696 1006.43 77.7548 1012.94 71.0099 1014.3 C 66.5389 1015.19 61.9309 1013.61 58.9578 1010.15 C 55.9847 1006.69 55.1093 1001.9 56.6683 997.615 C 58.2273 993.329 61.978 990.219 66.4781 989.479 z" fill="rgb(95,114,188)" transform="translate(0,0)"></path>
<path d="M 790.088 324.683 C 796.051 323.114 802.177 326.585 803.897 332.506 C 805.617 338.427 802.303 344.64 796.427 346.509 C 792.491 347.761 788.186 346.78 785.181 343.947 C 782.177 341.113 780.945 336.873 781.965 332.871 C 782.984 328.869 786.094 325.734 790.088 324.683 z" fill="rgb(95,114,188)" transform="translate(0,0)"></path>
<path d="M 937.544 103.472 C 940.889 102.659 944.411 103.726 946.743 106.258 C 949.074 108.79 949.848 112.388 948.763 115.654 C 947.677 118.921 944.905 121.341 941.521 121.974 C 936.479 122.918 931.603 119.674 930.525 114.659 C 929.447 109.644 932.559 104.683 937.544 103.472 z" fill="rgb(95,114,188)" transform="translate(0,0)"></path>
<path d="M 68.3826 751.439 C 72.8937 750.738 77.1458 753.747 77.9856 758.234 C 78.8254 762.722 75.9492 767.065 71.49 768.042 C 68.4805 768.702 65.3503 767.672 63.3213 765.353 C 61.2923 763.035 60.686 759.796 61.7392 756.9 C 62.7925 754.005 65.3381 751.912 68.3826 751.439 z" fill="rgb(95,114,188)" transform="translate(0,0)"></path>
<path d="M 841.914 40.721 C 845.265 38.8916 849.464 40.1388 851.273 43.5004 C 853.081 46.862 851.809 51.0536 848.436 52.8417 C 845.092 54.6143 840.945 53.3548 839.152 50.0222 C 837.359 46.6896 838.593 42.5345 841.914 40.721 z" fill="rgb(95,114,188)" transform="translate(0,0)"></path>
<path d="M 836.391 670.512 C 931.742 731.201 1030.19 801.994 1124.12 865.635 L 1296.23 981.21 C 1324.92 1000.29 1355.32 1019.26 1383.3 1038.9 C 1376.47 1043.22 1359.15 1057.55 1351.95 1063.2 L 1289.9 1111.86 C 1224.38 1163.19 1158.22 1213.7 1091.43 1263.38 L 1090.3 1263.02 C 1036.68 1246.11 965.991 1259.82 916.9 1285.54 C 903.457 1278.34 884.94 1265.43 872.024 1256.77 C 849.567 1241.9 827.3 1226.75 805.228 1211.32 C 680.05 1124.53 560.963 1029.28 448.806 926.214 C 495.92 912.253 579.433 878.363 548.32 814.218 C 574.859 800.486 606.736 786.919 634.223 773.937 C 675.34 754.378 716.165 734.209 756.684 713.438 C 782.542 700.359 812.104 685.939 836.391 670.512 z" fill="rgb(206,234,218)" transform="translate(0,0)"></path>
<path d="M 865.929 903.423 C 912.913 899.875 997.072 938.438 1001.32 991.683 C 1002.23 1002.4 998.733 1013.02 991.629 1021.09 C 976.812 1038.24 953.315 1041.84 932.029 1042.96 C 809.087 1042.24 727.916 912.67 865.929 903.423 z" fill="rgb(151,211,176)" transform="translate(0,0)"></path>
<path d="M 790.702 641.715 C 805.805 651.213 821.479 660.794 836.391 670.512 C 812.104 685.939 782.542 700.359 756.684 713.438 C 716.165 734.209 675.34 754.378 634.223 773.937 C 606.736 786.919 574.859 800.486 548.32 814.218 C 579.433 878.363 495.92 912.253 448.806 926.214 C 560.963 1029.28 680.05 1124.53 805.228 1211.32 C 827.3 1226.75 849.567 1241.9 872.024 1256.77 C 884.94 1265.43 903.457 1278.34 916.9 1285.54 C 965.991 1259.82 1036.68 1246.11 1090.3 1263.02 L 1091.43 1263.38 C 1158.22 1213.7 1224.38 1163.19 1289.9 1111.86 L 1351.95 1063.2 C 1359.15 1057.55 1376.47 1043.22 1383.3 1038.9 C 1399.57 1049.91 1414.51 1060.06 1429.82 1072.36 C 1412.88 1086.7 1394.24 1101.04 1376.92 1115.17 C 1322.9 1159.09 1268.6 1202.65 1214.01 1245.85 C 1186.87 1267.36 1157.61 1289.63 1131.26 1311.81 C 1117.24 1296.17 1090.42 1287.9 1070.19 1285.65 C 1010.86 1279.03 958.222 1296.43 911.596 1332.24 C 855.857 1299.08 793.125 1255.26 740.918 1217.06 C 674.774 1168.95 610.13 1118.81 547.081 1066.71 C 487.176 1016.39 427.656 965.616 368.525 914.392 C 399.774 907.265 420.517 900.866 449.98 887.222 C 495.095 866.328 508.763 822.589 459.147 794.546 C 559.541 760.369 658.206 712.049 751.996 662.42 C 764.283 655.919 779.379 649.384 790.702 641.715 z" fill="rgb(151,211,176)" transform="translate(0,0)"></path>
<path d="M 1441.02 1082.62 C 1447.7 1089.69 1452.81 1096.9 1456.94 1105.77 C 1435.4 1122.85 1414.51 1143.71 1393.61 1161.96 C 1310.35 1234.67 1225.26 1303.78 1135.2 1367.97 C 1113.15 1383.7 1091.26 1400.3 1068.64 1415.18 C 1053.65 1410.7 1045.83 1407.16 1032.04 1400.34 C 1127.28 1333.33 1216.09 1260.85 1307.37 1188.64 L 1395.53 1118.58 C 1407.69 1109 1430.44 1092.61 1441.02 1082.62 z" fill="rgb(151,211,176)" transform="translate(0,0)"></path>
<path d="M 729.212 607.967 C 732.72 609.56 737.758 611.665 740.95 613.574 C 717.688 629.183 673.762 649.713 647.766 662.339 C 588.27 691.234 523.768 721.637 461.844 744.3 C 406.391 764.419 349.603 780.648 291.892 792.866 C 280.665 795.334 229.465 807.464 223.675 798.91 L 223.918 797.804 C 224.186 796.585 224.174 795.796 225.48 795.497 C 246.236 790.75 276.534 785.861 296.491 781.793 C 417.115 757.205 530.141 708.855 640.159 654.916 C 663.464 643.49 707.029 622.853 728.21 608.651 L 729.212 607.967 z" fill="rgb(151,211,176)" transform="translate(0,0)"></path>
<path d="M 757.386 622.042 C 760.688 623.855 764.753 625.936 767.913 627.844 C 752.508 637.149 719.716 651.71 702.191 660.529 C 643.791 689.917 581.37 722.145 521.551 747.895 C 491.174 760.757 460.366 772.576 429.18 783.332 C 406.499 791.109 274.439 832.161 257.325 824.025 C 255.784 823.292 256.019 822.814 255.541 821.35 C 255.976 820.505 256.412 819.661 256.848 818.816 C 281.697 812.951 326.666 803.141 349.067 797.437 C 465.932 767.679 572.958 716.341 679.693 661.953 L 728.06 637.224 C 737.111 632.672 749.112 627.594 757.386 622.042 z" fill="rgb(151,211,176)" transform="translate(0,0)"></path>
<path d="M 126.157 1225.77 C 212.25 1279 295.764 1336.29 376.417 1397.45 C 424.813 1433.41 473.852 1469.16 519.561 1508.55 C 530.603 1518.07 558.648 1540.55 565.665 1550.75 C 553.646 1544.83 538.084 1531.01 527.386 1522.25 C 510.784 1508.45 494.004 1494.87 477.049 1481.5 C 394.139 1416.38 308.87 1354.32 221.412 1295.45 C 207.215 1285.94 159.017 1252.87 144.487 1246.32 C 138.069 1247.15 134.929 1248.61 130.078 1245.82 C 129.593 1243.12 126.768 1240.42 124.871 1238.15 L 122.481 1235.73 C 122.24 1231.91 124.283 1229.18 126.157 1225.77 z" fill="rgb(5,21,48)" transform="translate(0,0)"></path>
<path d="M 124.871 1238.15 C 133.041 1240.12 137.225 1241.39 144.487 1246.32 C 138.069 1247.15 134.929 1248.61 130.078 1245.82 C 129.593 1243.12 126.768 1240.42 124.871 1238.15 z" fill="rgb(151,211,176)" transform="translate(0,0)"></path>
<path d="M 126.747 1255.06 C 145.547 1262.32 200.457 1299.22 219.162 1312.35 C 289.127 1361.46 362.298 1411.96 429.309 1464.84 C 446.982 1478.65 464.537 1492.61 481.97 1506.72 C 488.033 1511.69 507.22 1528.26 512.514 1531.62 L 513.26 1534.74 C 505.684 1534.72 456.889 1492.31 446.804 1484.78 C 346.989 1410.24 244.067 1330.61 136.373 1268.2 C 129.385 1263.95 126.594 1263.78 126.747 1255.06 z" fill="rgb(5,21,48)" transform="translate(0,0)"></path>
<path d="M 1463.29 1447.17 C 1456.9 1453.54 1450.15 1460.96 1444.2 1467.74 C 1376.17 1545.27 1303.86 1618.61 1227.91 1688.4 C 1221.87 1693.94 1193.45 1721.25 1187.61 1724.03 L 1185.7 1722.89 L 1185.91 1720.92 C 1192.36 1713.18 1221.46 1687.54 1230.43 1679.26 C 1258.74 1653.19 1286.57 1626.59 1313.88 1599.47 C 1343 1570.35 1371.56 1540.67 1399.54 1510.45 C 1410.28 1498.67 1454.79 1445.78 1464.51 1440.86 L 1463.29 1447.17 z" fill="rgb(5,21,48)" transform="translate(0,0)"></path>
<path d="M 1229.72 1580.02 C 1244.57 1568.87 1280.51 1533.52 1294.09 1520.32 C 1333.44 1482.78 1372.19 1444.61 1410.32 1405.83 C 1429.08 1386.81 1461.51 1351.51 1480.59 1335.04 C 1480.37 1336.91 1480.14 1340.35 1479.53 1341.95 C 1461.34 1359.97 1443.97 1378.7 1425.97 1396.83 C 1366.59 1456.63 1307.02 1516.54 1244.97 1573.56 C 1241.8 1576.48 1236.64 1581.76 1232.99 1583.75 C 1230.43 1583.45 1230.58 1583.35 1228.42 1581.86 L 1229.72 1580.02 z" fill="rgb(5,21,48)" transform="translate(0,0)"></path>
<path d="M 1469.27 1146.22 L 1469.7 1148.78 C 1465.05 1156.98 1449.47 1170.45 1442.06 1177.56 C 1425.18 1193.82 1408.16 1209.95 1391.02 1225.94 L 1343.87 1270.41 C 1336.86 1277.07 1312.39 1302.41 1304.9 1302.69 C 1306.47 1296.08 1322.49 1283.45 1328.22 1278.22 C 1342.75 1265.04 1357.12 1251.69 1371.34 1238.18 C 1394.95 1215.58 1418.91 1193.37 1442.17 1170.41 C 1450.48 1162.21 1459.69 1152.83 1469.27 1146.22 z" fill="rgb(5,21,48)" transform="translate(0,0)"></path>
<path d="M 1482.09 1239.57 C 1473.45 1249.57 1389.4 1334.9 1383.43 1335.65 L 1382.32 1334.38 C 1384.04 1329.83 1406.47 1308.31 1411.07 1304.63 C 1429.4 1289.92 1463.27 1245.73 1482.39 1236.25 L 1482.09 1239.57 z" fill="rgb(5,21,48)" transform="translate(0,0)"></path>
<path d="M 1228.42 1581.86 C 1220.07 1585.39 1195.34 1608.72 1186.69 1615.7 C 1153.45 1642.55 1117.64 1672.02 1078.58 1689.73 C 1073.04 1692.24 1068.29 1695.63 1062.5 1697 L 1062.14 1696.06 C 1059.87 1698.06 1117.66 1666.03 1114.61 1667.21 C 1135.78 1659 1215.87 1582.82 1229.72 1580.02 L 1228.42 1581.86 z" fill="rgb(151,211,176)" transform="translate(0,0)"></path>
<path d="M 1458.78 1476.35 L 1457.53 1481.75 C 1442.97 1495.44 1417.83 1526.91 1403.34 1534.57 C 1408.03 1524.89 1449.13 1480.48 1458.78 1476.35 z" fill="rgb(5,21,48)" transform="translate(0,0)"></path>
<path d="M 536.854 1401.89 C 538.644 1402.3 540.059 1401.89 541.565 1403.07 C 547.514 1407.71 554.815 1410.59 560.997 1414.98 C 561.195 1416.21 561.392 1417.43 561.59 1418.66 C 565.471 1421.02 570.027 1425.05 573.04 1427.97 L 572.884 1428.63 C 562.678 1423.64 539.326 1404.93 532.216 1402.46 L 536.854 1401.89 z" fill="url(#Gradient2)" transform="translate(0,0)"></path>
<path d="M 186.022 1224.76 C 190.829 1224.24 191.211 1224.64 195.858 1226.56 L 202.606 1231.51 C 192.135 1231.87 193.265 1231.04 183.563 1228.28 C 186.112 1228.12 188.362 1228.21 190.702 1227.4 C 188.895 1226.49 187.753 1225.8 186.022 1224.76 z" fill="url(#Gradient1)" transform="translate(0,0)"></path>
<path d="M 512.514 1531.62 C 519.659 1533.14 521.265 1536.89 525.656 1542.87 C 522.317 1540.45 516.873 1536.12 513.26 1534.74 L 512.514 1531.62 z" fill="rgb(151,211,176)" transform="translate(0,0)"></path>
<path d="M 434.563 802.956 C 435.496 802.764 436.464 802.831 437.362 803.149 C 444.48 805.64 460.829 822.376 463.177 829.195 C 479.916 877.825 390.067 893.932 360.656 905.32 L 359.39 905.817 C 353.635 899.9 346.688 894.134 340.409 888.684 C 322.372 873.011 305.164 858.245 288.036 841.63 C 327.189 833.571 398.689 816.016 434.563 802.956 z" fill="rgb(151,211,176)" transform="translate(0,0)"></path>
<path d="M 1033.61 1301.42 C 1062.91 1298.4 1090.95 1308.4 1115.53 1323.47 C 1085.08 1344.81 1048.88 1372.07 1019.09 1394.51 L 1010.45 1389.68 C 980.934 1373.52 951.746 1356.78 922.901 1339.45 C 932.678 1334.79 943.263 1328.37 953.255 1323.4 C 978.266 1310.69 1005.61 1303.21 1033.61 1301.42 z" fill="rgb(151,211,176)" transform="translate(0,0)"></path>
<path d="M 1423.46 1570.69 C 1426.08 1571.26 1425.06 1570.54 1426.79 1572.53 C 1424.14 1579.98 1313.73 1688.84 1299 1703.42 C 1296.7 1702.33 1297.38 1702.89 1295.89 1700.91 C 1297.24 1696.58 1335.91 1659.79 1342.07 1653.6 L 1423.46 1570.69 z" fill="rgb(5,21,48)" transform="translate(0,0)"></path>
<path d="M 983.315 1409.53 C 989.162 1415.45 1004.08 1425.86 1011.56 1430.73 C 1036.26 1446.82 1066.44 1469.83 1097.48 1461.04 C 1106.52 1458.48 1125.67 1447.37 1130.27 1447.58 L 1130.56 1449.15 L 1128.48 1451.74 C 1084.45 1483.43 1053.66 1464.84 1013.15 1438.12 C 1002.03 1430.78 991.404 1423.75 980.822 1415.53 C 980.262 1413.15 981.542 1412.42 983.315 1409.53 z" fill="rgb(5,21,48)" transform="translate(0,0)"></path>
<path d="M 936.52 1525.73 C 940.839 1527.12 951.876 1535.65 956.187 1538.65 C 980.74 1555.76 1002.31 1574.42 1031.55 1582.72 C 1053.07 1588.82 1069.79 1575.58 1076.49 1576.86 C 1077.73 1579.22 1077.5 1577.99 1076.8 1580.67 C 1049.77 1592.55 1035.51 1594.19 1008.17 1579.3 C 983.145 1565.67 957.856 1549.06 936.682 1530.06 C 935.395 1528.91 936.229 1527.44 936.52 1525.73 z" fill="rgb(5,21,48)" transform="translate(0,0)"></path>
<path d="M 920.888 1661.58 C 925.442 1663.32 933.765 1671.39 938.35 1674.75 C 960.919 1691.3 990.549 1717.21 1019.97 1716.4 C 1028.4 1716.12 1036.71 1714.3 1044.49 1711.04 C 1050.12 1708.64 1055.78 1704.6 1061.46 1704.32 L 1062.59 1705.53 L 1061.43 1708.06 C 1015.09 1738.44 981.9 1713.81 943.07 1684.65 C 935.012 1678.6 927.403 1673.72 919.66 1666.84 C 918.774 1663.82 918.913 1665.44 920.888 1661.58 z" fill="rgb(5,21,48)" transform="translate(0,0)"></path>
<path d="M 919.453 1803.4 C 924.857 1805.16 930.396 1811.23 935.645 1814.84 C 959.466 1831.24 975.992 1846.03 1005.41 1848.54 C 1026.86 1850.37 1050.23 1832.1 1055.66 1832.7 L 1056.2 1834.39 L 1054.39 1836.84 C 1050.48 1839.65 1046.39 1842.22 1042.15 1844.52 C 1024.16 1854.07 1007.19 1857.29 987.479 1851.08 C 980.309 1848.76 973.389 1845.72 966.823 1842.01 C 960.584 1838.57 920.882 1812.21 918.139 1807.02 L 919.453 1803.4 z" fill="rgb(5,21,48)" transform="translate(0,0)"></path>
<path d="M 180.166 1086.55 C 184.421 1086.72 188.567 1088.06 191.761 1090.96 C 197.499 1091.15 197.908 1091.09 203.444 1089.08 C 209.224 1094.11 230.275 1108.45 230.963 1113.38 L 229.628 1114.42 C 210.318 1109.22 205.674 1103.9 188.735 1095.95 C 184.472 1094.15 183.566 1093.98 180.124 1091.06 C 179.324 1087.88 179.171 1089.34 180.166 1086.55 z" fill="rgb(151,211,176)" transform="translate(0,0)"></path>
<path d="M 1361 1198.75 L 1362.4 1198.96 L 1362.66 1200.3 C 1338.24 1226.24 1298.5 1254.92 1271.61 1282.4 L 1269.88 1281.45 C 1273.08 1274.88 1348.73 1211.79 1361 1198.75 z" fill="rgb(151,211,176)" transform="translate(0,0)"></path>
<path d="M 153.634 857.703 C 159.722 858.484 192.342 884.488 200.731 890.234 L 200.333 891.677 L 198.57 891.603 L 197.989 892.373 C 198.817 894.52 198.636 894.002 198.961 896.285 L 197.806 896.363 C 186.686 887.686 165.101 868.183 153.634 857.703 z" fill="rgb(151,211,176)" transform="translate(0,0)"></path>
<path d="M 201.91 956.047 C 210.277 955.904 234.713 969.197 237.261 976.101 C 230.785 973.111 224.973 972.275 219.552 969.209 C 214.82 966.224 211.674 964.042 207.22 960.722 C 208.99 960.844 221.639 968.306 224.189 969.744 L 224.13 966.757 C 214.985 962.519 213.356 959.177 201.91 956.047 z" fill="rgb(151,211,176)" transform="translate(0,0)"></path>
<path d="M 652.804 1453.75 C 655.436 1455.93 656.478 1456.37 657.326 1459.68 C 656.343 1463.07 654.659 1463.76 651.757 1465.87 C 647.889 1463.83 648.056 1464.72 646.574 1461.56 C 647.413 1458.08 650.071 1456.31 652.804 1453.75 z" fill="rgb(5,21,48)" transform="translate(0,0)"></path>
<path d="M 1039.17 1559.11 C 1046.14 1559.16 1056.66 1562.72 1065.03 1562.36 C 1070.79 1562.11 1084.01 1558.59 1088.33 1559.74 C 1072.71 1565.07 1054.54 1565.57 1039.17 1559.11 z" fill="rgb(151,211,176)" transform="translate(0,0)"></path>
<path d="M 986.565 1818.69 C 990.094 1818.91 993.163 1821.57 993.954 1825.04 L 990.699 1826.31 L 989.66 1827.18 C 985.421 1824.73 985.244 1825.54 983.443 1821.92 C 984.294 1819.56 983.893 1820.61 986.565 1818.69 z" fill="rgb(151,211,176)" transform="translate(0,0)"></path>
<path d="M 1025.09 1894.19 L 1025.64 1895.32 C 1014.43 1900.43 1008.13 1900.51 996.217 1899.69 L 996.021 1897.06 L 997.335 1896.72 C 1007.18 1900.4 1015.52 1897.74 1025.09 1894.19 z" fill="rgb(151,211,176)" transform="translate(0,0)"></path>
<path d="M 199.864 970.874 C 203.089 972.332 214.806 980.401 217.934 982.87 C 209.421 981.483 205.098 977.415 199.864 970.874 z" fill="rgb(151,211,176)" transform="translate(0,0)"></path>
<path d="M 162.436 851.521 C 170.638 852.493 174.308 857.544 180.477 863.405 C 176.536 862.566 166.462 854.422 162.436 851.521 z" fill="rgb(151,211,176)" transform="translate(0,0)"></path>
<path d="M 1069.16 1434.81 C 1069.37 1434.75 1084.12 1435.74 1086.64 1435.63 L 1087.57 1436.71 C 1082.35 1438.31 1073.43 1438.49 1069.16 1434.81 z" fill="rgb(151,211,176)" transform="translate(0,0)"></path>
<path d="M 236.413 1050.64 C 243.619 1052.32 247.35 1055.96 252.423 1061.44 C 247.655 1060.71 240.612 1054.09 236.413 1050.64 z" fill="rgb(151,211,176)" transform="translate(0,0)"></path>
<path d="M 226.487 828.604 C 230.113 830.966 236.57 834.405 237.961 837.913 L 237.013 838.889 C 231.603 833.691 232.374 836.294 226.487 828.604 z" fill="rgb(151,211,176)" transform="translate(0,0)"></path>
<path d="M 129.38 1283.72 C 135.625 1284.85 140.695 1290.1 145.494 1294.3 C 139.522 1292.58 134.495 1287.71 129.38 1283.72 z" fill="rgb(151,211,176)" transform="translate(0,0)"></path>
<path d="M 570.717 1268.18 L 572.363 1267.59 C 575.803 1268.96 578.816 1272.72 581.488 1275.5 C 577.924 1275.06 572.849 1270.89 570.717 1268.18 z" fill="rgb(151,211,176)" transform="translate(0,0)"></path>
<path d="M 382.352 1059.7 C 384.811 1060.88 392.626 1065.74 394.265 1067.8 L 392.992 1068.3 C 388.022 1066.47 385.506 1063.78 382.352 1059.7 z" fill="rgb(151,211,176)" transform="translate(0,0)"></path>
<path d="M 185.754 869.206 L 186.779 869.127 C 191.356 872.886 195.431 877.455 199.531 881.765 L 198.799 881.898 C 194.997 879.286 189.21 872.818 185.754 869.206 z" fill="rgb(151,211,176)" transform="translate(0,0)"></path>
<path d="M 259.715 847.508 C 264.899 849.416 268.832 854.44 272.392 858.545 C 266.556 856.537 264.135 851.87 259.715 847.508 z" fill="rgb(151,211,176)" transform="translate(0,0)"></path>
<path d="M 161.808 1298.48 C 166.778 1299.89 168.519 1302.45 171.196 1306.57 C 166.206 1304.67 165.286 1302.66 161.808 1298.48 z" fill="rgb(151,211,176)" transform="translate(0,0)"></path>
<path d="M 246.443 1073.63 C 249.713 1075.36 252.999 1077.53 254.27 1080.85 C 249.816 1077.21 250.02 1078.92 246.443 1073.63 z" fill="rgb(151,211,176)" transform="translate(0,0)"></path>
<path d="M 614.619 1197.6 C 619.625 1199.51 620.686 1200.59 624.492 1204.35 C 618.975 1202.74 618.915 1202.01 614.619 1197.6 z" fill="rgb(151,211,176)" transform="translate(0,0)"></path>
<path d="M 1019.86 1669 L 1021.56 1668.59 C 1024.65 1669.56 1024.95 1669.05 1026.45 1671.16 L 1025.94 1671.4 C 1023.01 1671.24 1022.4 1670.53 1019.86 1669 z" fill="rgb(151,211,176)" transform="translate(0,0)"></path>
<path d="M 684.622 1211.6 C 689.317 1213.39 690.767 1215 694.564 1218.33 C 689.014 1216.86 688.975 1216.05 684.622 1211.6 z" fill="rgb(151,211,176)" transform="translate(0,0)"></path>
<path d="M 205.51 810.5 C 208.964 811.141 210.114 813.028 212.557 815.641 C 209.175 815.361 208.672 813.622 205.51 810.5 z" fill="rgb(151,211,176)" transform="translate(0,0)"></path>
<path d="M 347.241 921.801 C 350.208 923.069 351.581 923.873 352.853 926.423 L 352.229 926.908 C 349.316 925.666 349.437 924.781 347.241 921.801 z" fill="rgb(151,211,176)" transform="translate(0,0)"></path>
<path d="M 1059.8 1420.42 C 1063.87 1420.18 1064.98 1419.75 1068.14 1421.4 C 1064.28 1422.48 1063.29 1421.87 1059.8 1420.42 z" fill="rgb(151,211,176)" transform="translate(0,0)"></path>
<path d="M 214.202 1034.86 C 218.601 1036.65 218.907 1037.11 222.576 1040.31 C 217.663 1039.05 217.338 1038.76 214.202 1034.86 z" fill="rgb(151,211,176)" transform="translate(0,0)"></path>
<path d="M 331.646 916.567 C 335.146 917.805 336.25 918.516 337.371 921.798 C 334.644 920.382 333.809 918.928 331.646 916.567 z" fill="rgb(151,211,176)" transform="translate(0,0)"></path>
<path d="M 198.347 1045.69 C 201.842 1047.28 202.344 1047.44 203.38 1050.77 L 202.591 1050.72 L 198.347 1045.69 z" fill="rgb(151,211,176)" transform="translate(0,0)"></path>
<path d="M 218.423 821.644 C 222.166 823.599 222.244 823.916 223.347 826.795 L 222.422 826.709 L 218.423 821.644 z" fill="rgb(151,211,176)" transform="translate(0,0)"></path>
<metadata><recraft-signature>{"signed_by": "recraft", "signature_b64": "rzv5FUBFLVTCXFEjLjhvvi8Ce331vMRrox75562tssHD8JKdwYnsFVTIVDTL2dnMXqYdPuLMnxxCyGoQw4djCg==", "signing_algo": "Ed25519", "generation_timestamp": 1771601332, "identifier": "e164d1fb-ddcc-4c84-9bbf-31b8d73dbc86"}</recraft-signature></metadata></svg>