<svg xmlns="http://www.w3.org/2000/svg" height="1024" preserveAspectRatio="none" style="display: block;" version="1.1" viewBox="0 0 2048 2048" width="1024">
<defs>
	<linearGradient gradientUnits="userSpaceOnUse" id="Gradient1" x1="1695.07" x2="893.999" y1="1516.99" y2="1915.27">
		<stop class="stop0" offset="0" stop-color="rgb(145,15,38)" stop-opacity="1"></stop>
		<stop class="stop1" offset="1" stop-color="rgb(90,10,68)" stop-opacity="1"></stop>
	</linearGradient>
</defs>
<path d="M 0 0 L 611.898 0 L 1259.26 0 L 1994.85 0 L 2013.73 0 L 2048 0 L 2048 515.369 L 2048 524.011 L 2048 736.187 L 2048 1037.03 L 2048 2048 L 1433.87 2048 L 955.596 2048 L 704.254 2048 L 602.11 2048 L 593.28 2048 L 549.146 2048 L 508.195 2048 L 384.537 2048 L 323.412 2048 L 0 2048 L 0 1295.62 L 0 1003.66 L 0 0 z" fill="rgb(254,253,253)" transform="translate(0,0)"></path>
<path d="M 0 0 L 611.898 0 L 1259.26 0 C 1264.26 40.7959 1274.1 80.8522 1288.56 119.324 C 1293.49 132.394 1304.56 156.044 1308.12 167.794 C 1222.38 206.901 1136.95 246.696 1051.85 287.174 L 986.428 318.332 C 977.314 322.679 963.425 328.812 954.835 333.472 C 959.201 335.884 978.25 346.608 981.894 347.397 C 994.371 347.317 1045.3 368.338 1059.07 373.269 C 1066.33 375.867 1079.7 382.639 1087.12 382.428 C 1117.46 397.777 1145.38 411.732 1176.24 426.33 C 1170.58 428.543 1167.03 430.424 1162.89 435.017 C 1160.61 437.877 1159.29 440.046 1155.77 441.348 C 1153.61 446.111 1145.22 459.068 1142.03 464.337 C 1133.16 478.723 1124.62 493.307 1116.4 508.078 C 1072.52 586.518 1028.06 664.641 983.045 742.438 L 615.249 1388.85 C 593.828 1373.99 571.447 1360.56 548.253 1348.66 C 386.005 1263.44 175.432 1241.07 0 1295.62 L 0 1003.66 L 0 0 z" fill="rgb(74,0,28)" transform="translate(0,0)"></path>
<path d="M 0 0 L 611.898 0 C 645.077 130.286 653.995 272.517 616.82 403.168 C 551.37 401.893 488.448 413.351 439.718 460.638 C 381.568 517.066 364.573 583.323 364.325 661.52 C 364.219 695.088 368.061 727.174 378.651 759.29 C 382.465 770.856 386.921 779.665 391.119 790.535 C 296.866 896.043 137.808 976.376 0 1003.66 L 0 0 z" fill="rgb(223,78,107)" transform="translate(0,0)"></path>
<path d="M 281.995 540.547 C 285.595 539.533 289.357 541.523 290.545 545.069 C 291.733 548.615 289.929 552.469 286.445 553.829 C 284.035 554.769 281.304 554.306 279.338 552.625 C 277.373 550.943 276.493 548.316 277.048 545.79 C 277.604 543.264 279.506 541.249 281.995 540.547 z" fill="rgb(254,253,253)" transform="translate(0,0)"></path>
<path d="M 140.026 436.509 C 142.46 436.035 144.96 436.906 146.572 438.79 C 148.184 440.673 148.66 443.278 147.817 445.609 C 146.974 447.941 144.943 449.639 142.499 450.056 C 138.781 450.69 135.244 448.215 134.567 444.504 C 133.89 440.794 136.324 437.229 140.026 436.509 z" fill="rgb(254,253,253)" transform="translate(0,0)"></path>
<path d="M 136.2 742.616 C 139.487 741.91 142.749 743.91 143.61 747.159 C 144.471 750.409 142.628 753.762 139.423 754.776 C 137.21 755.476 134.791 754.902 133.129 753.283 C 131.467 751.663 130.83 749.261 131.472 747.03 C 132.114 744.8 133.931 743.104 136.2 742.616 z" fill="rgb(254,253,253)" transform="translate(0,0)"></path>
<path d="M 616.82 403.168 C 691.841 409.185 760.194 431.284 811.218 490.46 C 819.423 499.976 835.773 521.714 840.718 532.195 L 846.515 540.354 C 853.032 550.914 859.429 560.99 864.518 572.396 C 892.504 635.362 895.109 707.977 879.85 774.503 C 865.948 835.111 831.745 887.617 778.087 919.976 C 712.843 959.322 631.45 963.664 561.782 934.181 C 543.33 926.942 522.241 910.232 508.313 896.503 C 461.792 879.736 414.995 833.535 391.119 790.535 C 386.921 779.665 382.465 770.856 378.651 759.29 C 368.061 727.174 364.219 695.088 364.325 661.52 C 364.573 583.323 381.568 517.066 439.718 460.638 C 488.448 413.351 551.37 401.893 616.82 403.168 z" fill="rgb(254,253,253)" transform="translate(0,0)"></path>
<path d="M 616.82 403.168 C 691.841 409.185 760.194 431.284 811.218 490.46 C 819.423 499.976 835.773 521.714 840.718 532.195 C 834.59 528.994 830.265 525.508 823.932 527.338 C 816.51 522.369 811.593 516.317 804.241 511.382 C 800.503 505.196 790.929 495.018 785.584 489.951 C 711.781 419.978 587.16 405.331 499.03 456.81 C 399.48 514.96 380.446 646.749 407.377 750.1 C 418.209 791.669 434.546 825.855 464.441 856.844 C 475.072 867.863 503.982 884.166 508.313 896.503 C 461.792 879.736 414.995 833.535 391.119 790.535 C 386.921 779.665 382.465 770.856 378.651 759.29 C 368.061 727.174 364.219 695.088 364.325 661.52 C 364.573 583.323 381.568 517.066 439.718 460.638 C 488.448 413.351 551.37 401.893 616.82 403.168 z" fill="rgb(214,93,116)" transform="translate(0,0)"></path>
<path d="M 804.241 511.382 C 811.593 516.317 816.51 522.369 823.932 527.338 L 824.806 528.103 C 862.496 561.575 878.131 628.818 880.767 677.518 C 884.54 745.465 867.753 823.423 820.455 874.709 C 741.691 960.112 599.717 970.993 513.048 891.828 C 536.247 903.574 561.56 914.424 587.588 917.85 C 648.17 925.825 711.046 914.199 760.692 877.804 C 810.758 841.1 836.986 786.405 845.23 726.056 C 855.023 654.374 848.619 570.893 804.241 511.382 z" fill="rgb(151,17,39)" transform="translate(0,0)"></path>
<path d="M 436.419 628.907 C 444.72 523.341 530.071 454.376 634.361 462.993 C 685.71 467.236 737.475 487.921 771.669 527.961 C 811.471 578.37 815.036 649.285 809.838 710.964 C 805.538 761.99 786.464 808.471 746.024 841.661 C 667.857 905.813 543.628 896.685 478.917 817.878 C 450.469 783.232 437.897 736.081 436.077 691.946 C 436.135 691.486 436.194 691.026 436.253 690.566 C 433.717 678.211 434.985 642.042 436.419 628.907 z" fill="rgb(120,215,226)" transform="translate(0,0)"></path>
<path d="M 436.419 628.907 C 437.207 636.286 437.712 684.587 436.253 690.566 C 433.717 678.211 434.985 642.042 436.419 628.907 z" fill="rgb(83,147,167)" transform="translate(0,0)"></path>
<path d="M 628.996 788.254 C 614.988 787.787 602.115 788.899 588.817 783.469 C 567.619 774.814 553.482 757.933 544.908 736.911 C 527.176 693.436 523.397 641.448 540.847 597.282 C 549.065 577.004 562.964 559.251 583.816 551.1 C 603.509 543.403 627.002 543.19 646.488 551.706 C 671.24 562.524 685.391 586.537 695.014 610.582 L 696.276 611.192 C 713.693 671.278 709.817 762.967 639.576 788.114 C 636.99 789.04 631.859 789.824 629.289 789.099 L 628.996 788.254 z" fill="rgb(254,253,253)" transform="translate(0,0)"></path>
<path d="M 695.014 610.582 L 696.276 611.192 C 713.693 671.278 709.817 762.967 639.576 788.114 C 636.99 789.04 631.859 789.824 629.289 789.099 L 628.996 788.254 C 632.519 787.641 636.011 786.858 639.459 785.908 C 660.678 780.138 675.576 764.754 686.246 746.075 C 708.315 707.443 706.757 652.181 695.014 610.582 z" fill="rgb(56,97,109)" transform="translate(0,0)"></path>
<path d="M 615.719 749.673 C 608.144 717.847 592.166 636.607 633.196 614.56 C 650.478 605.274 654.927 617.815 659.719 632.102 C 666.872 664.581 664.256 715.616 638.51 740.222 C 631.754 746.426 624.439 747.507 615.719 749.673 z" fill="rgb(151,17,39)" transform="translate(0,0)"></path>
<path d="M 659.719 632.102 C 666.872 664.581 664.256 715.616 638.51 740.222 C 636.18 708.688 629.622 652.048 659.719 632.102 z" fill="rgb(214,93,116)" transform="translate(0,0)"></path>
<path d="M 612.624 584.16 C 623.17 583.585 651.132 593.011 648.977 605.937 C 644.539 608.151 641.361 603.869 637.968 604.959 C 585.832 621.718 597.288 699.789 605.526 737.864 L 609.259 749.307 C 590.31 742.373 578.765 724.551 575.145 705.401 C 567.387 664.354 560.099 596.683 612.624 584.16 z" fill="rgb(212,45,76)" transform="translate(0,0)"></path>
<path d="M 846.515 540.354 C 863.216 544.787 888.166 582.137 897.114 597.568 C 961.84 709.187 941.434 893.715 818.83 958.544 C 760.677 989.294 702.603 998.826 638.757 979.178 C 617.192 972.894 576.859 956.046 562.434 938.897 C 561.732 936.165 561.769 936.958 561.782 934.181 C 631.45 963.664 712.843 959.322 778.087 919.976 C 831.745 887.617 865.948 835.111 879.85 774.503 C 895.109 707.977 892.504 635.362 864.518 572.396 C 859.429 560.99 853.032 550.914 846.515 540.354 z" fill="rgb(151,17,39)" transform="translate(0,0)"></path>
<path d="M 981.894 347.397 C 994.371 347.317 1045.3 368.338 1059.07 373.269 C 1066.33 375.867 1079.7 382.639 1087.12 382.428 C 1117.46 397.777 1145.38 411.732 1176.24 426.33 C 1170.58 428.543 1167.03 430.424 1162.89 435.017 C 1143.41 427.792 1116.86 413.889 1097.66 404.448 L 981.894 347.397 z" fill="rgb(151,17,39)" transform="translate(0,0)"></path>
<path d="M 954.835 333.472 C 959.201 335.884 978.25 346.608 981.894 347.397 L 1097.66 404.448 C 1116.86 413.889 1143.41 427.792 1162.89 435.017 C 1160.61 437.877 1159.29 440.046 1155.77 441.348 C 1131.44 430.993 1101.31 414.845 1076.82 403.056 C 1045.44 388.024 1014.17 372.769 983.005 357.293 C 974.975 353.241 952.937 342.633 947.405 337.825 C 949.415 335.611 951.946 334.856 954.835 333.472 z" fill="rgb(254,253,253)" transform="translate(0,0)"></path>
<path d="M 2048 1037.03 L 2048 2048 L 1433.87 2048 C 1429.49 2038.61 1422.76 2011.04 1420.08 2000.4 C 1398.22 1913.43 1397.78 1841.26 1404.28 1752.92 C 1462.35 1749.29 1507.5 1734.56 1552.93 1696.85 C 1610.31 1649.21 1635.87 1583.92 1641.97 1511.31 C 1645.99 1463.45 1639.85 1405.39 1619.97 1361.18 C 1611.93 1343.3 1594.6 1319.19 1581.59 1303.82 C 1599.61 1285.71 1617.95 1266.71 1636.93 1249.7 C 1727.14 1168.43 1832.67 1106 1947.33 1066.07 C 1983.45 1053.66 2011.94 1046.89 2048 1037.03 z" fill="rgb(244,69,103)" transform="translate(0,0)"></path>
<path d="M 1453.74 1952.11 C 1470.74 1953 1473.29 1971.99 1456.04 1978.54 C 1436.42 1976.5 1433.58 1957.17 1453.74 1952.11 z" fill="rgb(223,78,107)" transform="translate(0,0)"></path>
<path d="M 1760.1 1698.96 C 1775.72 1698.45 1784.95 1713.44 1768.74 1722.39 C 1752.16 1724.76 1744.15 1709.14 1760.1 1698.96 z" fill="rgb(223,78,107)" transform="translate(0,0)"></path>
<path d="M 1533.35 1777.52 C 1538.65 1776.34 1543.92 1779.54 1545.31 1784.79 C 1546.7 1790.03 1543.7 1795.43 1538.52 1797.02 C 1534.98 1798.11 1531.13 1797.17 1528.49 1794.58 C 1525.84 1791.99 1524.83 1788.16 1525.84 1784.6 C 1526.86 1781.04 1529.74 1778.32 1533.35 1777.52 z" fill="rgb(223,78,107)" transform="translate(0,0)"></path>
<path d="M 1199.96 1178.54 C 1271.51 1150.78 1351.15 1152.52 1421.43 1183.36 C 1455.69 1198.74 1475.34 1215.46 1496.14 1246.26 C 1506.41 1251.23 1511.65 1256.58 1520.21 1264.22 C 1535.48 1261.93 1571.11 1293.1 1581.59 1303.82 C 1594.6 1319.19 1611.93 1343.3 1619.97 1361.18 C 1639.85 1405.39 1645.99 1463.45 1641.97 1511.31 C 1635.87 1583.92 1610.31 1649.21 1552.93 1696.85 C 1507.5 1734.56 1462.35 1749.29 1404.28 1752.92 C 1397.78 1841.26 1398.22 1913.43 1420.08 2000.4 C 1422.76 2011.04 1429.49 2038.61 1433.87 2048 L 955.596 2048 C 958.805 2030.33 962.357 2012.04 964.477 1994.26 C 975.158 1905.46 965.56 1815.4 936.404 1730.85 C 930.441 1713.15 922.348 1695.96 915.633 1678.44 C 916.223 1676.3 1050.38 1441.8 1054.94 1436.59 C 1052.75 1329.71 1099.48 1225.69 1199.96 1178.54 z" fill="url(#Gradient1)" transform="translate(0,0)"></path>
<path d="M 1199.96 1178.54 C 1271.51 1150.78 1351.15 1152.52 1421.43 1183.36 C 1455.69 1198.74 1475.34 1215.46 1496.14 1246.26 C 1494.83 1253.09 1504.58 1260.73 1509.24 1265.03 C 1509.87 1270.11 1518.09 1283.62 1520.39 1291.29 C 1528.8 1309.97 1535.96 1327.71 1540.32 1347.9 C 1553.94 1411.13 1548.87 1481.17 1525.62 1541.44 C 1505.34 1594.02 1474.91 1631.47 1423 1653.91 C 1373.51 1675.29 1326.19 1680.78 1272.96 1672.32 C 1262.19 1670.61 1247.23 1667.95 1237.33 1664.36 C 1232.89 1666.75 1222.07 1663.62 1217.45 1661.99 C 1188.13 1650.89 1166.83 1643.16 1142.09 1622.44 C 1092.87 1581.23 1060.31 1499.68 1054.94 1436.59 C 1052.75 1329.71 1099.48 1225.69 1199.96 1178.54 z" fill="rgb(254,253,253)" transform="translate(0,0)"></path>
<path d="M 1199.96 1178.54 C 1271.51 1150.78 1351.15 1152.52 1421.43 1183.36 C 1455.69 1198.74 1475.34 1215.46 1496.14 1246.26 C 1494.83 1253.09 1504.58 1260.73 1509.24 1265.03 C 1509.87 1270.11 1518.09 1283.62 1520.39 1291.29 C 1514.64 1285.45 1510.75 1278.23 1505.78 1271.73 C 1498.21 1261.83 1490.12 1252.22 1481.64 1243.08 C 1444.17 1205.36 1379.4 1180.3 1326.37 1179.09 C 1260.35 1177.57 1207.97 1193.89 1160.1 1239.32 C 1109.22 1287.6 1089.81 1356.09 1086.98 1424 C 1084.37 1486.66 1103.28 1564.43 1147.35 1610.13 C 1173.37 1637.12 1202.72 1651.47 1237.33 1664.36 C 1232.89 1666.75 1222.07 1663.62 1217.45 1661.99 C 1188.13 1650.89 1166.83 1643.16 1142.09 1622.44 C 1092.87 1581.23 1060.31 1499.68 1054.94 1436.59 C 1052.75 1329.71 1099.48 1225.69 1199.96 1178.54 z" fill="rgb(214,93,116)" transform="translate(0,0)"></path>
<path d="M 1327.43 1216.05 C 1331.15 1216.05 1351.4 1218.24 1353.93 1219.89 C 1364.7 1221.53 1382.79 1226.13 1392.24 1231.34 C 1397.9 1232.66 1408.4 1238.05 1413.84 1241.05 C 1441.88 1256.5 1467.07 1277.5 1484.09 1304.89 C 1486.64 1308.99 1494.29 1323.24 1494.66 1327.65 C 1509.08 1355.58 1512.2 1425.8 1505.61 1457.5 C 1506.82 1482.11 1480.8 1567.93 1462.02 1579.19 C 1458.57 1584.55 1449.61 1593.88 1444.15 1596.95 C 1440.67 1601.56 1430.93 1606.53 1425.86 1609.6 C 1334.88 1664.46 1174.13 1641.73 1140.63 1527.18 C 1137.91 1517.9 1133.95 1510.14 1132.43 1500.28 C 1124.38 1464.14 1123.82 1412.77 1130.69 1376.91 C 1130.73 1354.23 1157.92 1292.99 1175.06 1278.65 C 1178.59 1272.76 1190.83 1260.94 1196.71 1257.07 C 1204.21 1246.82 1247.75 1224.74 1259.58 1224.85 C 1272.34 1217.86 1311.88 1215.99 1327.43 1216.05 z" fill="rgb(120,215,226)" transform="translate(0,0)"></path>
<path d="M 1259.58 1224.85 C 1272.34 1217.86 1311.88 1215.99 1327.43 1216.05 L 1323.9 1219.48 C 1307.69 1221.37 1291.62 1222.49 1275.58 1225.61 C 1270.91 1226.52 1266.08 1227.45 1261.33 1227.22 L 1260.35 1226.34 L 1259.58 1224.85 z" fill="rgb(254,253,253)" transform="translate(0,0)"></path>
<path d="M 1259.58 1224.85 C 1272.34 1217.86 1311.88 1215.99 1327.43 1216.05 L 1323.9 1219.48 C 1323.53 1219.3 1319.99 1217.58 1319.99 1217.58 C 1303.93 1218.66 1274.63 1219.68 1260.35 1226.34 L 1259.58 1224.85 z" fill="rgb(73,129,151)" transform="translate(0,0)"></path>
<path d="M 1494.66 1327.65 C 1509.08 1355.58 1512.2 1425.8 1505.61 1457.5 C 1504.12 1449.1 1507.44 1431.29 1507.68 1421.11 C 1508.51 1386.68 1502.17 1360.63 1494.66 1327.65 z" fill="rgb(83,147,167)" transform="translate(0,0)"></path>
<path d="M 1130.69 1376.91 C 1131.09 1386.28 1128.92 1398.82 1128.39 1408.6 C 1127.55 1424.08 1128.12 1440.24 1128.03 1455.48 C 1127.97 1464.47 1133.76 1494.64 1132.43 1500.28 C 1124.38 1464.14 1123.82 1412.77 1130.69 1376.91 z" fill="rgb(73,129,151)" transform="translate(0,0)"></path>
<path d="M 1175.06 1278.65 C 1178.59 1272.76 1190.83 1260.94 1196.71 1257.07 C 1193.19 1261.62 1179.53 1275.54 1175.06 1278.65 z" fill="rgb(83,147,167)" transform="translate(0,0)"></path>
<path d="M 1238.66 1354.26 C 1249.97 1337.23 1252.83 1326 1272.35 1313.93 C 1290.23 1302.84 1311.77 1299.25 1332.28 1303.94 C 1355.24 1309.39 1364.66 1321.03 1376.32 1340.13 C 1384.31 1346.42 1386.57 1380.59 1389.06 1386 C 1394.54 1395.33 1392.88 1436.41 1390.47 1448.23 C 1390.4 1442.35 1390.79 1436.44 1388.92 1430.95 C 1387.43 1437.38 1387.64 1443.64 1387.07 1450.28 C 1384.68 1477.88 1378.43 1509.88 1354.47 1527.14 C 1352.27 1528.73 1340.74 1535.34 1339.84 1536.32 C 1333.11 1541.54 1321.96 1543.18 1313.69 1543.34 L 1313.07 1542.26 C 1273.69 1539.33 1258.04 1531.71 1238.62 1496.73 L 1237.37 1495.69 C 1225.29 1466.97 1223.46 1432.29 1226.73 1401.55 C 1227.7 1392.35 1232.22 1360.71 1238.66 1354.26 z" fill="rgb(254,253,253)" transform="translate(0,0)"></path>
<path d="M 1238.62 1496.73 L 1237.37 1495.69 C 1225.29 1466.97 1223.46 1432.29 1226.73 1401.55 C 1227.7 1392.35 1232.22 1360.71 1238.66 1354.26 C 1236.7 1361.8 1232.9 1371.8 1231.47 1379.08 C 1226.05 1406.62 1225.78 1434.52 1229.72 1462.21 C 1230.77 1469.56 1238.44 1494.45 1238.62 1496.73 z" fill="rgb(83,147,167)" transform="translate(0,0)"></path>
<path d="M 1376.32 1340.13 C 1384.31 1346.42 1386.57 1380.59 1389.06 1386 C 1389.15 1399.03 1391.61 1418.46 1389.16 1430.19 C 1387.61 1423.09 1387.68 1402.24 1387.34 1393.76 C 1386.47 1372.36 1382.43 1360.51 1376.32 1340.13 z" fill="rgb(83,147,167)" transform="translate(0,0)"></path>
<path d="M 1313.07 1542.26 C 1324.32 1540.85 1329.15 1539.91 1339.84 1536.32 C 1333.11 1541.54 1321.96 1543.18 1313.69 1543.34 L 1313.07 1542.26 z" fill="rgb(83,147,167)" transform="translate(0,0)"></path>
<path d="M 1341.65 1357.76 C 1345.78 1367.89 1347.65 1379.15 1349.73 1389.9 C 1352.73 1416.65 1353.45 1488.37 1323.89 1500.08 C 1319.79 1501.51 1315.41 1502.44 1311.12 1501.66 C 1309.87 1500.52 1308.48 1498.71 1308.06 1497.04 C 1297.28 1454.09 1290.08 1376.94 1341.65 1357.76 z" fill="rgb(212,45,76)" transform="translate(0,0)"></path>
<path d="M 1349.73 1389.9 C 1352.73 1416.65 1353.45 1488.37 1323.89 1500.08 C 1321.54 1473.65 1327.26 1436.44 1337.96 1411.71 C 1340.95 1404.8 1348.68 1396.52 1349.73 1389.9 z" fill="rgb(251,152,170)" transform="translate(0,0)"></path>
<path d="M 1307.18 1341.18 C 1320.62 1340.26 1327.19 1342.92 1337.44 1350.59 C 1282.73 1373.93 1288.82 1450.97 1299.82 1498.57 L 1299.77 1500.38 L 1298.08 1500.91 C 1282.46 1496.84 1273.21 1482.22 1270.89 1466.57 C 1265.87 1432.66 1263.55 1388.37 1281.07 1357.7 C 1286.88 1347.52 1296.43 1343.39 1307.18 1341.18 z" fill="rgb(212,45,76)" transform="translate(0,0)"></path>
<path d="M 1509.24 1265.03 C 1556.1 1307.4 1575.51 1361.35 1578.68 1423.39 C 1582.19 1492.16 1564.48 1573.67 1517.53 1625.54 C 1452.86 1697.01 1334.2 1719.56 1246.94 1679.51 C 1239.21 1675.96 1222.44 1664.61 1215.47 1664.23 L 1217.45 1661.99 C 1222.07 1663.62 1232.89 1666.75 1237.33 1664.36 C 1247.23 1667.95 1262.19 1670.61 1272.96 1672.32 C 1326.19 1680.78 1373.51 1675.29 1423 1653.91 C 1474.91 1631.47 1505.34 1594.02 1525.62 1541.44 C 1548.87 1481.17 1553.94 1411.13 1540.32 1347.9 C 1535.96 1327.71 1528.8 1309.97 1520.39 1291.29 C 1518.09 1283.62 1509.87 1270.11 1509.24 1265.03 z" fill="rgb(151,17,39)" transform="translate(0,0)"></path>
<path d="M 1509.24 1265.03 C 1504.58 1260.73 1494.83 1253.09 1496.14 1246.26 C 1506.41 1251.23 1511.65 1256.58 1520.21 1264.22 C 1572.67 1319.95 1589.02 1378.09 1587.37 1454.05 C 1585.89 1522.2 1562.71 1594.47 1512.06 1641.94 C 1464.08 1687.13 1397.48 1709.84 1331.94 1706.96 C 1297.93 1705.47 1263.59 1697.32 1233.96 1680.07 C 1228.67 1676.99 1216.79 1671.01 1215.14 1664.96 L 1215.47 1664.23 C 1222.44 1664.61 1239.21 1675.96 1246.94 1679.51 C 1334.2 1719.56 1452.86 1697.01 1517.53 1625.54 C 1564.48 1573.67 1582.19 1492.16 1578.68 1423.39 C 1575.51 1361.35 1556.1 1307.4 1509.24 1265.03 z" fill="rgb(254,253,253)" transform="translate(0,0)"></path>
<path d="M 1481.49 202.161 C 1486.6 231.537 1499.13 277.073 1506.37 307.599 L 1547.7 484.586 C 1553.44 509.225 1560.08 534.206 1565.41 558.839 C 1527.64 538.07 1490.64 519.107 1451.9 500.164 C 1433.04 490.941 1413.76 479.236 1394.85 469.894 C 1364.26 528.186 1334.33 580.989 1302.61 638.034 C 1238.03 755.233 1172.26 871.771 1105.3 987.63 L 729.04 1657.33 L 572.097 1934.93 L 528.894 2011.42 C 523.083 2021.65 512.934 2037.92 508.195 2048 L 384.537 2048 L 323.412 2048 C 323.552 2041.7 322.111 2038.18 324.404 2032.04 C 329.845 2026.88 345.91 1996.29 351.012 1987.2 L 401.212 1897.32 L 605.401 1534.15 L 1024.33 799.965 L 1149.33 580.223 L 1199.68 491.49 C 1213.35 467.802 1228.85 442.552 1241.25 418.266 C 1237.63 415.761 1215.07 404.868 1209.47 402.092 C 1185.4 390.158 1161.13 376.98 1136.81 365.795 C 1145.8 360.283 1170.36 349.179 1180.81 344.148 C 1211.75 329.171 1242.81 314.419 1273.96 299.893 L 1415.35 233.389 C 1436.58 223.416 1460.22 211.236 1481.49 202.161 z" fill="rgb(120,215,226)" transform="translate(0,0)"></path>
<path d="M 1241.25 418.266 C 1254.62 426.568 1279.42 437.996 1293.97 445.185 L 659.193 1559.54 L 485.55 1868.39 L 419.486 1984.84 C 407.955 2005.3 395.079 2027.15 384.537 2048 L 323.412 2048 C 323.552 2041.7 322.111 2038.18 324.404 2032.04 C 329.845 2026.88 345.91 1996.29 351.012 1987.2 L 401.212 1897.32 L 605.401 1534.15 L 1024.33 799.965 L 1149.33 580.223 L 1199.68 491.49 C 1213.35 467.802 1228.85 442.552 1241.25 418.266 z" fill="rgb(244,69,103)" transform="translate(0,0)"></path>
<path d="M 976.187 1073.11 C 1031.58 1070.98 976.424 1186.24 940.004 1200.43 C 889.276 1210.27 933.057 1092.34 976.187 1073.11 z" fill="rgb(254,253,253)" transform="translate(0,0)"></path>
<path d="M 977.429 1087.73 C 1005.49 1088.36 959.057 1174.89 938.862 1185.85 C 927.087 1186.7 930.593 1172.69 932.453 1165.17 C 938.623 1140.21 955 1101.74 977.429 1087.73 z" fill="rgb(120,215,226)" transform="translate(0,0)"></path>
<path d="M 1176.57 726.08 C 1229.15 721.973 1174.91 835.154 1137.89 847.872 C 1088.33 858.101 1131.2 741.592 1176.57 726.08 z" fill="rgb(254,253,253)" transform="translate(0,0)"></path>
<path d="M 1177.68 740.559 C 1181.81 740.704 1180.05 740.063 1183.27 742.155 C 1188.65 751.976 1176.61 778.384 1171.59 787.906 C 1162.67 804.85 1152.84 823.189 1135.59 832.803 C 1132.14 833.017 1133.69 833.41 1130.77 831.629 C 1126.21 822.519 1133.28 803.327 1137 794.519 C 1145.86 773.533 1159.44 754.359 1177.68 740.559 z" fill="rgb(120,215,226)" transform="translate(0,0)"></path>
<path d="M 783.004 1431.19 C 789.737 1430.37 799.577 1431.89 801.939 1438.38 C 815.648 1476.06 768.22 1544.39 740.447 1559.62 C 717.663 1565.7 717.396 1540.92 721.896 1526.2 C 731.084 1496.13 755.69 1447.62 783.004 1431.19 z" fill="rgb(254,253,253)" transform="translate(0,0)"></path>
<path d="M 785.859 1445.59 C 793.006 1445.77 793.131 1453.41 791.894 1458.67 C 785.189 1487.19 762.745 1527.76 738.46 1544.68 C 738.048 1544.88 736.122 1545.41 735.609 1545.57 C 733.802 1543.59 733.746 1542.7 734.069 1539.48 C 736.667 1513.61 766.967 1461.06 785.859 1445.59 z" fill="rgb(120,215,226)" transform="translate(0,0)"></path>
<path d="M 0 1295.62 C 175.432 1241.07 386.005 1263.44 548.253 1348.66 C 571.447 1360.56 593.828 1373.99 615.249 1388.85 L 382.008 1799.11 L 310.882 1923.46 C 296.829 1947.75 270.868 1991.5 259.351 2016.4 C 269.342 2018.67 281.037 2021.64 291.016 2023.3 C 302.207 2025.98 313.339 2028.89 324.404 2032.04 C 322.111 2038.18 323.552 2041.7 323.412 2048 L 0 2048 L 0 1295.62 z" fill="rgb(230,37,71)" transform="translate(0,0)"></path>
<path d="M 43.4611 1541.75 C 47.0873 1540.96 50.6716 1543.24 51.4923 1546.86 C 52.313 1550.48 50.0633 1554.09 46.4515 1554.94 C 42.7946 1555.8 39.1353 1553.52 38.3044 1549.85 C 37.4734 1546.19 39.7895 1542.55 43.4611 1541.75 z" fill="rgb(254,253,253)" transform="translate(0,0)"></path>
<path d="M 367.243 1475.7 C 369.586 1475.08 372.08 1475.78 373.764 1477.52 C 375.449 1479.26 376.062 1481.78 375.368 1484.1 C 374.673 1486.42 372.78 1488.18 370.416 1488.71 C 366.853 1489.51 363.305 1487.31 362.44 1483.76 C 361.576 1480.22 363.712 1476.63 367.243 1475.7 z" fill="rgb(254,253,253)" transform="translate(0,0)"></path>
<path d="M 115.878 1684.91 C 119.261 1683.45 123.19 1685 124.658 1688.38 C 126.126 1691.76 124.578 1695.69 121.198 1697.17 C 117.813 1698.64 113.875 1697.09 112.404 1693.7 C 110.934 1690.32 112.49 1686.38 115.878 1684.91 z" fill="rgb(254,253,253)" transform="translate(0,0)"></path>
<path d="M 143.901 1905.53 C 147.213 1904.36 150.852 1906.06 152.08 1909.35 C 153.308 1912.64 151.671 1916.31 148.402 1917.59 C 146.237 1918.44 143.78 1918.06 141.977 1916.59 C 140.174 1915.12 139.305 1912.79 139.704 1910.5 C 140.103 1908.2 141.707 1906.31 143.901 1905.53 z" fill="rgb(254,253,253)" transform="translate(0,0)"></path>
<path d="M 1503.21 640.914 C 1584.67 672.692 1665.57 705.872 1745.88 740.439 C 1742.28 725.126 1733.73 692.523 1731.76 678.329 C 1763.8 688.918 1795.51 699.732 1828.09 708.623 C 1902.7 728.987 1970.91 736.624 2048 736.187 L 2048 1037.03 C 2011.94 1046.89 1983.45 1053.66 1947.33 1066.07 C 1832.67 1106 1727.14 1168.43 1636.93 1249.7 C 1617.95 1266.71 1599.61 1285.71 1581.59 1303.82 C 1571.11 1293.1 1535.48 1261.93 1520.21 1264.22 C 1511.65 1256.58 1506.41 1251.23 1496.14 1246.26 C 1475.34 1215.46 1455.69 1198.74 1421.43 1183.36 C 1351.15 1152.52 1271.51 1150.78 1199.96 1178.54 C 1210.28 1157.21 1229.68 1124.75 1241.62 1104.17 L 1294.3 1012 L 1428.15 774.754 C 1453.55 730.357 1478.58 685.742 1503.21 640.914 z" fill="rgb(74,0,28)" transform="translate(0,0)"></path>
<path d="M 1259.26 0 L 1994.85 0 L 2013.73 0 L 2048 0 L 2048 515.369 L 2048 524.011 L 2048 736.187 C 1970.91 736.624 1902.7 728.987 1828.09 708.623 C 1795.51 699.732 1763.8 688.918 1731.76 678.329 C 1705.49 569.081 1678.56 459.994 1650.97 351.072 C 1639.5 305.393 1627.72 259.848 1616.9 213.993 C 1615.41 207.638 1613.58 201.163 1611.61 194.938 C 1588.6 173.829 1566.19 147.674 1543.28 126.08 C 1538.41 121.492 1525.43 107.147 1521.41 104.304 C 1518.55 102.718 1516.39 101.872 1513.4 100.644 L 1515.45 100.369 L 1510.8 97.132 L 1505.25 78.0452 C 1441.46 106.209 1370.54 137.657 1308.12 167.794 C 1304.56 156.044 1293.49 132.394 1288.56 119.324 C 1274.1 80.8522 1264.26 40.7959 1259.26 0 z" fill="rgb(244,69,103)" transform="translate(0,0)"></path>
<path d="M 2048 524.011 C 2044.22 526.558 2043.78 526.886 2039.37 527.114 C 2028.37 522.671 2034.69 505.88 2048 515.369 L 2048 524.011 z" fill="rgb(255,236,245)" transform="translate(0,0)"></path>
<path d="M 1757.63 82.6655 C 1760.39 82.2596 1763.16 83.3841 1764.86 85.6035 C 1766.55 87.8228 1766.92 90.7881 1765.8 93.3503 C 1764.69 95.9126 1762.27 97.6691 1759.49 97.9393 C 1755.33 98.3432 1751.61 95.3571 1751.1 91.2109 C 1750.6 87.0647 1753.49 83.2723 1757.63 82.6655 z" fill="rgb(214,93,116)" transform="translate(0,0)"></path>
<path d="M 1870.9 494.588 C 1873.46 494.081 1876.09 494.991 1877.78 496.97 C 1879.48 498.948 1879.98 501.688 1879.08 504.136 C 1878.19 506.583 1876.04 508.359 1873.47 508.78 C 1869.59 509.416 1865.91 506.821 1865.21 502.948 C 1864.51 499.075 1867.04 495.355 1870.9 494.588 z" fill="rgb(254,253,253)" transform="translate(0,0)"></path>
<path d="M 2013.05 568.606 C 2016.53 567.141 2020.55 568.651 2022.21 572.046 C 2023.87 575.44 2022.59 579.54 2019.29 581.386 C 2016.99 582.677 2014.16 582.588 2011.94 581.154 C 2009.72 579.72 2008.48 577.177 2008.71 574.546 C 2008.94 571.916 2010.61 569.629 2013.05 568.606 z" fill="rgb(254,253,253)" transform="translate(0,0)"></path>
<path d="M 1816.21 575.542 C 1818.51 574.5 1821.2 574.795 1823.22 576.312 C 1825.24 577.829 1826.28 580.327 1825.92 582.829 C 1825.56 585.331 1823.87 587.439 1821.5 588.329 C 1818 589.644 1814.1 587.948 1812.67 584.496 C 1811.24 581.045 1812.81 577.082 1816.21 575.542 z" fill="rgb(254,253,253)" transform="translate(0,0)"></path>
<path d="M 1685.44 318.551 C 1688.86 316.922 1692.94 318.349 1694.6 321.748 C 1696.26 325.147 1694.87 329.247 1691.48 330.933 C 1688.05 332.638 1683.9 331.224 1682.22 327.785 C 1680.54 324.346 1681.99 320.199 1685.44 318.551 z" fill="rgb(254,253,253)" transform="translate(0,0)"></path>
<path d="M 1975.23 468.577 C 1978.72 467.13 1982.72 468.778 1984.17 472.262 C 1985.63 475.745 1983.99 479.75 1980.51 481.214 C 1977.02 482.683 1973 481.038 1971.54 477.542 C 1970.07 474.046 1971.73 470.029 1975.23 468.577 z" fill="rgb(254,253,253)" transform="translate(0,0)"></path>
<path d="M 1929.92 352.403 C 1932.32 352.055 1934.72 353.039 1936.19 354.971 C 1937.66 356.903 1937.97 359.481 1936.99 361.701 C 1936.01 363.922 1933.9 365.437 1931.48 365.657 C 1927.88 365.986 1924.67 363.384 1924.25 359.791 C 1923.83 356.198 1926.34 352.922 1929.92 352.403 z" fill="rgb(254,253,253)" transform="translate(0,0)"></path>
<path d="M 1513.4 100.644 C 1516.39 101.872 1518.55 102.718 1521.41 104.304 C 1525.43 107.147 1538.41 121.492 1543.28 126.08 C 1566.19 147.674 1588.6 173.829 1611.61 194.938 C 1613.58 201.163 1615.41 207.638 1616.9 213.993 C 1627.72 259.848 1639.5 305.393 1650.97 351.072 C 1678.56 459.994 1705.49 569.081 1731.76 678.329 C 1733.73 692.523 1742.28 725.126 1745.88 740.439 C 1665.57 705.872 1584.67 672.692 1503.21 640.914 C 1478.58 685.742 1453.55 730.357 1428.15 774.754 L 1294.3 1012 L 1241.62 1104.17 C 1229.68 1124.75 1210.28 1157.21 1199.96 1178.54 C 1099.48 1225.69 1052.75 1329.71 1054.94 1436.59 C 1050.38 1441.8 916.223 1676.3 915.633 1678.44 C 922.348 1695.96 930.441 1713.15 936.404 1730.85 C 965.56 1815.4 975.158 1905.46 964.477 1994.26 C 962.357 2012.04 958.805 2030.33 955.596 2048 L 704.254 2048 L 602.11 2048 L 593.28 2048 C 608.54 2018.69 626.317 1988.18 642.612 1959.29 C 673.849 1903.58 705.461 1848.07 737.447 1792.79 L 945.277 1425.37 L 1302.96 793.415 C 1348.18 713.799 1392.18 630.976 1438.57 552.28 C 1449.75 556.935 1462.28 563.304 1473.62 568.424 C 1514.44 586.898 1555.08 605.766 1595.54 625.025 C 1613.31 633.338 1631.62 642.683 1649.68 649.975 C 1629.44 574.252 1610.27 498.249 1592.16 421.989 C 1566.53 320.842 1541.45 219.559 1516.91 118.144 L 1514.53 109.573 C 1513.41 105.472 1513.45 104.96 1513.4 100.644 z" fill="rgb(151,17,39)" transform="translate(0,0)"></path>
<path d="M 704.254 2048 C 708.305 2041.98 712.203 2034.92 715.71 2028.52 C 750.233 1965.56 787.961 1904.51 822.308 1841.46 C 839.272 1810.31 856.883 1778.99 875.323 1748.72 C 889.093 1726.12 901.022 1700.18 915.633 1678.44 C 922.348 1695.96 930.441 1713.15 936.404 1730.85 C 965.56 1815.4 975.158 1905.46 964.477 1994.26 C 962.357 2012.04 958.805 2030.33 955.596 2048 L 704.254 2048 z" fill="rgb(230,37,71)" transform="translate(0,0)"></path>
<path d="M 1513.4 100.644 C 1516.39 101.872 1518.55 102.718 1521.41 104.304 L 1601.13 424.931 C 1620.5 505.515 1640.8 585.876 1662 665.998 C 1613.24 642.597 1564.25 619.66 1515.04 597.19 C 1493.86 587.265 1461.3 573.111 1441.84 561.828 L 859.297 1593.02 L 695.846 1882.03 L 640.471 1979.35 C 630.96 1995.81 609.491 2031.57 602.11 2048 L 593.28 2048 C 608.54 2018.69 626.317 1988.18 642.612 1959.29 C 673.849 1903.58 705.461 1848.07 737.447 1792.79 L 945.277 1425.37 L 1302.96 793.415 C 1348.18 713.799 1392.18 630.976 1438.57 552.28 C 1449.75 556.935 1462.28 563.304 1473.62 568.424 C 1514.44 586.898 1555.08 605.766 1595.54 625.025 C 1613.31 633.338 1631.62 642.683 1649.68 649.975 C 1629.44 574.252 1610.27 498.249 1592.16 421.989 C 1566.53 320.842 1541.45 219.559 1516.91 118.144 L 1514.53 109.573 C 1513.41 105.472 1513.45 104.96 1513.4 100.644 z" fill="rgb(254,253,253)" transform="translate(0,0)"></path>
<path d="M 1499.32 127.173 C 1507.75 125.405 1509.78 123.093 1516.91 118.144 C 1541.45 219.559 1566.53 320.842 1592.16 421.989 C 1610.27 498.249 1629.44 574.252 1649.68 649.975 C 1631.62 642.683 1613.31 633.338 1595.54 625.025 C 1555.08 605.766 1514.44 586.898 1473.62 568.424 C 1462.28 563.304 1449.75 556.935 1438.57 552.28 C 1392.18 630.976 1348.18 713.799 1302.96 793.415 L 945.277 1425.37 L 737.447 1792.79 C 705.461 1848.07 673.849 1903.58 642.612 1959.29 C 626.317 1988.18 608.54 2018.69 593.28 2048 L 549.146 2048 C 562.808 2020.13 580.797 1990.61 596.359 1963.58 L 647.237 1873.24 L 826.007 1557.81 L 1409.94 518.978 C 1427.23 527.076 1444.14 536.59 1461.43 544.555 C 1512.92 568.261 1563.5 597.93 1615.65 619.774 C 1614.38 612.069 1612.73 604.224 1610.85 596.642 C 1595.39 534.264 1580.92 471.566 1565.95 409.089 L 1523.74 229.262 C 1515.85 195.537 1508.13 160.554 1499.32 127.173 z" fill="rgb(151,17,39)" transform="translate(0,0)"></path>
<path d="M 1176.24 426.33 C 1181.91 428.157 1186.63 431.246 1191.58 434.526 C 1181.93 454.12 1167.71 477.778 1156.7 497.261 L 1094.51 607.344 L 862.746 1011.72 L 291.016 2023.3 C 281.037 2021.64 269.342 2018.67 259.351 2016.4 C 270.868 1991.5 296.829 1947.75 310.882 1923.46 L 382.008 1799.11 L 615.249 1388.85 L 983.045 742.438 C 1028.06 664.641 1072.52 586.518 1116.4 508.078 C 1124.62 493.307 1133.16 478.723 1142.03 464.337 C 1145.22 459.068 1153.61 446.111 1155.77 441.348 C 1159.29 440.046 1160.61 437.877 1162.89 435.017 C 1167.03 430.424 1170.58 428.543 1176.24 426.33 z" fill="rgb(251,152,170)" transform="translate(0,0)"></path>
<path d="M 1076.92 335.767 C 1115.21 318.58 1153.99 298.987 1192.01 280.9 L 1372.74 196.731 C 1402.05 183.259 1440.45 164.042 1469.39 152.477 C 1472.46 169.258 1476.5 185.847 1481.49 202.161 C 1460.22 211.236 1436.58 223.416 1415.35 233.389 L 1273.96 299.893 C 1242.81 314.419 1211.75 329.171 1180.81 344.148 C 1170.36 349.179 1145.8 360.283 1136.81 365.795 C 1129.18 363.378 1085.33 340.321 1076.92 335.767 z" fill="rgb(244,69,103)" transform="translate(0,0)"></path>
<path d="M 1505.25 78.0452 L 1510.8 97.132 L 1515.45 100.369 L 1513.4 100.644 C 1513.45 104.96 1513.41 105.472 1514.53 109.573 L 1516.91 118.144 C 1509.78 123.093 1507.75 125.405 1499.32 127.173 C 1499 125.554 1497.86 122.229 1497.33 120.507 C 1496.33 115.417 1495.28 110.338 1494.16 105.271 C 1452.79 120.159 1401.62 145.587 1361.6 164.314 L 1216.3 230.894 L 1071.04 300.046 C 1050.44 309.917 1017.53 324.225 998.477 335.105 C 1021.36 346.554 1044.07 357.089 1066.13 370.168 C 1071.56 373.391 1082.51 378.866 1087.12 382.428 C 1079.7 382.639 1066.33 375.867 1059.07 373.269 C 1045.3 368.338 994.371 347.317 981.894 347.397 C 978.25 346.608 959.201 335.884 954.835 333.472 C 963.425 328.812 977.314 322.679 986.428 318.332 L 1051.85 287.174 C 1136.95 246.696 1222.38 206.901 1308.12 167.794 C 1370.54 137.657 1441.46 106.209 1505.25 78.0452 z" fill="rgb(251,152,170)" transform="translate(0,0)"></path>
<path d="M 1514.53 109.573 L 1516.91 118.144 C 1509.78 123.093 1507.75 125.405 1499.32 127.173 C 1499 125.554 1497.86 122.229 1497.33 120.507 C 1507.99 116.325 1500.93 111.813 1514.53 109.573 z" fill="rgb(244,69,103)" transform="translate(0,0)"></path>
<path d="M 1510.8 97.132 L 1515.45 100.369 L 1513.4 100.644 C 1513.45 104.96 1513.41 105.472 1514.53 109.573 C 1500.93 111.813 1507.99 116.325 1497.33 120.507 C 1498.77 117.193 1508.12 102.037 1510.8 97.132 z" fill="rgb(230,37,71)" transform="translate(0,0)"></path>
<metadata><recraft-signature>{"signed_by": "recraft", "signature_b64": "RFor4WDb3ZxIeF2/YWef0CPH1a2S8oLvyhnJPID5TAZ2Fskrkr7SkUpd8OLWnsYZjz8BNoOas5Uve2JRNZYvCg==", "signing_algo": "Ed25519", "generation_timestamp": 1771601341, "identifier": "6fa6841e-b078-48d2-bbaf-a96173107371"}</recraft-signature></metadata></svg>