<svg xmlns="http://www.w3.org/2000/svg" height="1024" preserveAspectRatio="none" style="display: block;" version="1.1" viewBox="0 0 2048 2048" width="1024">
<defs>
	<linearGradient gradientUnits="userSpaceOnUse" id="Gradient1" x1="1135.58" x2="1173.84" y1="897.248" y2="949.286">
		<stop class="stop0" offset="0" stop-color="rgb(0,0,0)" stop-opacity="1"></stop>
		<stop class="stop1" offset="1" stop-color="rgb(3,20,9)" stop-opacity="1"></stop>
	</linearGradient>
</defs>
<path d="M 0 0 L 1059.93 0 L 1064.58 0 L 1131.56 0 C 1144.38 72.0054 1156.93 118.75 1189.83 185.526 C 1207.91 213.132 1221.95 238.518 1245.46 263.149 C 1304.6 325.137 1393.37 367.451 1468.04 406.548 C 1480.46 412.957 1492.57 419.945 1504.34 427.487 C 1521.74 438.846 1537.54 451.241 1556.94 458.878 C 1561.47 460.661 1567.63 462.756 1571.84 464.854 C 1583.78 464.813 1617.98 451.314 1631.72 446.627 C 1676.49 431.356 1721.16 415.79 1765.73 399.928 C 1783.61 393.408 1801.17 385.906 1819.05 379.493 C 1861.86 364.039 1905.23 350.093 1948.17 335.053 C 1981.43 323.405 2014.45 311.562 2048 300.708 L 2048 1162.66 L 2048 1168.91 L 2048 1195.78 L 2048 1201.95 L 2048 1240.45 L 2048 1246.16 L 2048 1271.87 L 2048 2048 L 1505.89 2048 L 1176.17 2048 L 1167.57 2048 L 1131.18 2048 L 1123.47 2048 L 335.024 2048 L 326.776 2048 L 243.506 2048 L 0 2048 L 0 1212.66 L 0 412.372 L 0 342.497 L 0 335.669 L 0 0 z" fill="rgb(8,138,61)" transform="translate(0,0)"></path>
<path d="M 0 0 L 1059.93 0 L 1064.58 0 L 1131.56 0 C 1144.38 72.0054 1156.93 118.75 1189.83 185.526 C 1207.91 213.132 1221.95 238.518 1245.46 263.149 C 1304.6 325.137 1393.37 367.451 1468.04 406.548 C 1480.46 412.957 1492.57 419.945 1504.34 427.487 C 1521.74 438.846 1537.54 451.241 1556.94 458.878 C 1561.47 460.661 1567.63 462.756 1571.84 464.854 C 1535.44 566.933 1516.42 687.191 1554.08 791.29 C 1572.59 842.471 1593.21 894.082 1593.32 949.829 C 1593.8 964.964 1595.35 995.829 1592.57 1009.83 C 1579.41 994.784 1562.49 975.131 1547.14 962.388 C 1543.45 958.383 1538.19 954.113 1534 950.479 C 1526.79 944.103 1515.94 934.473 1508.23 929.163 C 1504.7 924.297 1484.47 907.949 1479.46 903.588 C 1426.01 857.062 1359.46 828.396 1291.18 811.477 C 1269.86 806.193 1241.38 803.352 1219.23 801.382 C 1098.7 790.658 987.906 821.024 885.305 884.051 L 876.035 879.361 C 847.342 862.72 826.057 854.179 792.423 852.542 C 766.429 850.198 718.537 846.954 697.642 863.6 C 679.146 878.335 669.988 933.491 668.085 957.064 C 664.907 996.43 666.159 1046.27 672.52 1085.12 C 671.245 1091.65 662.106 1107.96 658.708 1114.72 C 651.617 1128.57 644.903 1142.6 638.572 1156.8 C 609.471 1223.03 581.567 1328.84 583.095 1401.4 C 524.394 1429.7 452.708 1466.19 413.96 1519.8 C 382.672 1568.6 376.818 1624.81 377.678 1681.55 C 377.815 1690.6 377.1 1700.3 376.961 1709.49 C 376.431 1744.49 379.343 1780.41 369.385 1814.42 C 355.558 1861.65 322.927 1899.86 296.413 1940.27 C 272.783 1975.86 256.981 2007.27 243.506 2048 L 0 2048 L 0 1212.66 L 0 412.372 L 0 342.497 L 0 335.669 L 0 0 z" fill="rgb(225,40,26)" transform="translate(0,0)"></path>
<path d="M 1189.83 185.526 C 1207.91 213.132 1221.95 238.518 1245.46 263.149 C 1304.6 325.137 1393.37 367.451 1468.04 406.548 C 1480.46 412.957 1492.57 419.945 1504.34 427.487 C 1521.74 438.846 1537.54 451.241 1556.94 458.878 C 1561.47 460.661 1567.63 462.756 1571.84 464.854 C 1535.44 566.933 1516.42 687.191 1554.08 791.29 C 1572.59 842.471 1593.21 894.082 1593.32 949.829 C 1593.8 964.964 1595.35 995.829 1592.57 1009.83 C 1579.41 994.784 1562.49 975.131 1547.14 962.388 C 1543.45 958.383 1538.19 954.113 1534 950.479 C 1526.79 944.103 1515.94 934.473 1508.23 929.163 C 1504.7 924.297 1484.47 907.949 1479.46 903.588 C 1426.01 857.062 1359.46 828.396 1291.18 811.477 C 1269.86 806.193 1241.38 803.352 1219.23 801.382 C 1098.7 790.658 987.906 821.024 885.305 884.051 L 876.035 879.361 L 876.009 729.586 C 876.032 710.622 874.166 634.657 880.071 621.782 C 861.753 563.285 857.515 484.747 877.255 426.6 C 880.932 409.249 894.874 387.434 906.279 373.898 C 936.041 332.224 971.172 329.516 1018.11 325.008 C 1028.06 324.053 1043.6 320.456 1053.02 321.052 C 1077.79 322.619 1104.95 336.444 1124.88 350.411 C 1146.9 311.446 1165.7 275.524 1178.37 232.354 C 1182.91 216.892 1185.83 201.148 1189.83 185.526 z" fill="rgb(232,63,74)" transform="translate(0,0)"></path>
<path d="M 906.279 373.898 C 936.041 332.224 971.172 329.516 1018.11 325.008 C 1028.06 324.053 1043.6 320.456 1053.02 321.052 C 1077.79 322.619 1104.95 336.444 1124.88 350.411 C 1135.49 360.643 1148.67 369.481 1158.02 381.201 C 1202.86 437.378 1226.48 512.194 1228.1 583.289 C 1229.3 635.785 1216.86 694.473 1179.27 732.588 C 1151.92 760.311 1128.62 764.78 1092.88 774.987 C 1075.26 780.02 1064.38 785.241 1045.11 785.225 C 1010.18 785.197 975.459 767.171 951.52 742.452 C 940.709 731.289 925.861 713.83 918.319 700.057 C 911.92 693.484 899.224 668.407 895.112 659.845 C 889.682 647.417 885.724 634.503 880.071 621.782 C 861.753 563.285 857.515 484.747 877.255 426.6 C 880.932 409.249 894.874 387.434 906.279 373.898 z" fill="rgb(252,223,8)" transform="translate(0,0)"></path>
<path d="M 994.501 434.007 C 1006.31 431.09 1025.37 436.422 1035.91 443.016 C 1069.44 463.991 1084.6 498.224 1094.28 535.806 C 1106.5 583.26 1105.11 670.98 1046.53 688.471 C 1028.04 693.992 1005.34 683.488 990.756 671.436 C 974.937 656.704 964.078 641.308 954.025 622.289 C 950.543 619.048 950.712 615.076 950.221 610.339 C 950.087 610.1 949.952 609.86 949.818 609.621 C 930.174 560.592 922.373 485.972 967.347 447.97 C 973.824 442.497 981.479 439.079 988.441 435.769 C 990.685 434.029 991.623 434.276 994.501 434.007 z" fill="rgb(254,254,253)" transform="translate(0,0)"></path>
<path d="M 994.501 434.007 C 1006.31 431.09 1025.37 436.422 1035.91 443.016 C 1069.44 463.991 1084.6 498.224 1094.28 535.806 C 1106.5 583.26 1105.11 670.98 1046.53 688.471 C 1028.04 693.992 1005.34 683.488 990.756 671.436 C 974.937 656.704 964.078 641.308 954.025 622.289 C 969.742 629.646 974.822 630.513 992.034 633.116 C 991.451 645.122 992.503 657.358 991.963 667.779 L 992.58 670.541 C 996.435 674.505 1005.22 673.993 1011.04 674.288 C 1011.28 660.708 1011.13 646.705 1011.13 633.089 L 1025.11 632.529 C 1026.54 639.816 1028.82 647.027 1030.92 654.162 C 1038.01 653.275 1043.63 651.685 1050.53 649.898 C 1048.58 639.177 1045.92 631.853 1041.85 621.832 C 1065.85 592.599 1047.75 561.032 1021.45 542.064 C 1011.72 535.046 998.81 528.211 991.149 519.159 C 996.482 513.634 1001.51 500.656 1008.69 499.989 C 1015.36 499.37 1026.91 507.365 1032.24 511.477 C 1039.29 500.613 1043.15 488.507 1050.52 476.802 C 1040.12 468.121 1033.25 463.346 1019.81 459.888 C 1016.35 458.998 1010.65 458.685 1008.25 456.975 C 1008.54 449.384 1008.74 445.626 1007.55 438.154 L 1007.29 436.598 C 1003.36 435.566 998.557 434.781 994.501 434.007 z" fill="rgb(8,138,61)" transform="translate(0,0)"></path>
<path d="M 950.221 610.339 C 950.087 610.1 949.952 609.86 949.818 609.621 C 930.174 560.592 922.373 485.972 967.347 447.97 C 973.824 442.497 981.479 439.079 988.441 435.769 C 985.899 443.891 984.06 450.474 982.103 458.753 C 937.898 475.68 936.248 530.714 972.527 556.435 C 981.668 562.917 996.431 571.175 999.23 582.355 C 999.837 584.637 1001.53 587.262 1002.78 589.334 C 984.801 589.069 970.512 586.651 953.167 582.119 C 951.661 592.152 951.467 600.871 950.221 610.339 z" fill="rgb(8,138,61)" transform="translate(0,0)"></path>
<path d="M 910.359 376.013 C 933.499 352.378 949.855 339.611 985.264 338.004 C 1016.76 336.574 1054.09 357.98 1075.45 380.711 C 1131.64 440.515 1158.75 522.92 1158.39 604.282 C 1158.17 653.94 1144.47 707.709 1109.17 744.169 C 1093.44 760.417 1067.91 769.104 1045.84 771.662 L 1044.74 769.731 C 1149.24 748.435 1162.75 598.861 1140.48 514.223 C 1121.23 441.095 1059.77 328.386 968.737 347.395 C 942.093 352.959 915.003 381.737 901.947 404.295 C 903.027 403.759 904.123 403.255 905.232 402.784 C 921.174 396.122 936.4 406.198 941.948 421.353 C 944.404 428.06 944.025 435.478 940.897 441.9 C 934.904 454.448 920.435 461.335 907.436 454.689 C 896.691 449.195 892.55 440.481 888.807 429.687 C 866.451 511.2 875.876 598.16 915.177 672.99 C 937.556 714.965 973.432 755.404 1020.26 769.496 L 1019.9 771.184 L 1018.05 770.806 C 970.078 760.659 943.774 730.74 918.326 691.228 C 909.697 677.711 904.283 668.18 897.697 653.797 C 868.238 576.83 859.843 517.451 879.412 436.173 C 886.535 413.161 895.359 395.161 910.359 376.013 z" fill="rgb(254,254,253)" transform="translate(0,0)"></path>
<path d="M 1119.51 357.949 C 1123.94 363.822 1127.95 367.837 1133.06 373.122 C 1146.56 383.936 1157.42 390.315 1163.9 407.533 C 1164.23 408.409 1164.32 408.44 1164.87 409.259 C 1184.14 436.886 1187.97 450.511 1199.48 479.682 C 1219.15 527.648 1227.93 579.875 1218.75 631.378 C 1212.85 664.45 1202.06 699.001 1179.34 724.705 C 1177.03 727.328 1170.72 734.427 1167.74 735.286 C 1170.83 729.607 1174.9 724.816 1178.71 719.63 C 1208.81 678.7 1220.92 618.789 1216.36 568.791 L 1215.56 562.783 L 1214.37 554.363 L 1214.4 550.416 L 1213.15 543.62 L 1211.72 536.392 L 1211.78 533.804 C 1210.25 526.533 1208.25 518.819 1206.51 511.551 C 1205.89 508.826 1204.79 506.146 1203.83 503.511 C 1202.61 500.118 1201.6 496.934 1200.53 493.49 C 1199.9 491.261 1199.01 489.598 1198.04 487.492 C 1196.74 484.72 1195.41 481.106 1194.25 478.211 C 1191.98 470.927 1189.88 466.516 1186.65 459.55 L 1182.56 449.765 C 1179.48 439.366 1168.94 423.204 1163.41 412.572 L 1162.63 413.247 C 1151.63 457.13 1086.69 425.076 1108.73 386.946 C 1112.97 379.604 1125.3 378.885 1133.27 377.399 C 1127.95 372.328 1124.11 366.614 1118.1 361.362 L 1119.51 357.949 z" fill="rgb(254,254,253)" transform="translate(0,0)"></path>
<path d="M 1206.51 511.551 C 1208.25 518.819 1210.25 526.533 1211.78 533.804 L 1211.72 536.392 L 1213.15 543.62 C 1198.48 545.885 1179.67 549.286 1165.21 550.453 C 1162.75 548.408 1163.18 548.305 1161.94 545.072 L 1162.24 540.772 L 1157.53 520.429 C 1173.79 517.917 1190.54 515.376 1206.51 511.551 z" fill="rgb(8,138,61)" transform="translate(0,0)"></path>
<path d="M 1211.78 533.804 L 1211.72 536.392 L 1213.15 543.62 C 1198.48 545.885 1179.67 549.286 1165.21 550.453 C 1162.75 548.408 1163.18 548.305 1161.94 545.072 L 1162.24 540.772 C 1177.96 539.003 1196.49 534.482 1211.78 533.804 z" fill="rgb(8,138,61)" transform="translate(0,0)"></path>
<path d="M 1211.78 533.804 L 1211.72 536.392 C 1205.68 535.712 1164.29 542.356 1161.94 545.072 L 1162.24 540.772 C 1177.96 539.003 1196.49 534.482 1211.78 533.804 z" fill="rgb(246,232,33)" transform="translate(0,0)"></path>
<path d="M 1044.78 345.075 C 1041.55 344.347 1040.3 344.26 1037.43 342.505 L 1037.56 341.051 C 1057.03 339.948 1076.19 331.953 1092.94 342.254 L 1093.13 343.39 C 1097.09 343.458 1097.73 344.249 1100.99 346.425 C 1103.38 347.996 1103.85 348.563 1106.54 349.49 L 1111.98 352.615 C 1116.31 356.205 1118.61 351.988 1119.51 357.949 L 1118.1 361.362 L 1117.28 360.996 C 1107.74 360.89 1103 362.629 1094.27 363.371 C 1086.59 365.483 1079.74 367.031 1072.71 362.696 L 1067.96 359.274 C 1063.48 357.907 1062.89 357.638 1059.11 354.893 L 1056.02 351.679 C 1055.33 350.964 1052.51 348.859 1051.57 348.119 C 1048.43 347.628 1047.45 346.74 1044.78 345.075 z" fill="rgb(8,138,61)" transform="translate(0,0)"></path>
<path d="M 1044.78 345.075 C 1041.55 344.347 1040.3 344.26 1037.43 342.505 L 1037.56 341.051 C 1057.03 339.948 1076.19 331.953 1092.94 342.254 L 1093.13 343.39 C 1081.58 344.365 1062.57 345.752 1051.57 348.119 C 1048.43 347.628 1047.45 346.74 1044.78 345.075 z" fill="rgb(8,138,61)" transform="translate(0,0)"></path>
<path d="M 1044.78 345.075 C 1065.73 344.052 1070.83 339.295 1092.94 342.254 L 1093.13 343.39 C 1081.58 344.365 1062.57 345.752 1051.57 348.119 C 1048.43 347.628 1047.45 346.74 1044.78 345.075 z" fill="rgb(254,254,253)" transform="translate(0,0)"></path>
<path d="M 1111.98 352.615 C 1116.31 356.205 1118.61 351.988 1119.51 357.949 L 1118.1 361.362 L 1117.28 360.996 C 1107.74 360.89 1103 362.629 1094.27 363.371 C 1086.59 365.483 1079.74 367.031 1072.71 362.696 L 1067.96 359.274 C 1075.66 358.921 1105.9 355.494 1111.98 352.615 z" fill="rgb(8,138,61)" transform="translate(0,0)"></path>
<path d="M 1111.98 352.615 C 1116.31 356.205 1118.61 351.988 1119.51 357.949 L 1118.1 361.362 L 1117.28 360.996 C 1111.77 354.162 1097.66 358.609 1089.51 359.888 C 1083 360.621 1079.14 361.073 1072.71 362.696 L 1067.96 359.274 C 1075.66 358.921 1105.9 355.494 1111.98 352.615 z" fill="rgb(226,238,128)" transform="translate(0,0)"></path>
<path d="M 1106.54 349.49 L 1111.98 352.615 C 1105.9 355.494 1075.66 358.921 1067.96 359.274 C 1063.48 357.907 1062.89 357.638 1059.11 354.893 C 1065.81 354.022 1071.76 353.039 1078.41 351.833 C 1083.8 350.754 1099.62 350.143 1106.54 349.49 z" fill="rgb(8,138,61)" transform="translate(0,0)"></path>
<path d="M 1100.99 346.425 C 1103.38 347.996 1103.85 348.563 1106.54 349.49 C 1099.62 350.143 1083.8 350.754 1078.41 351.833 L 1076.12 349.273 C 1084.99 347.889 1092.02 347.152 1100.99 346.425 z" fill="rgb(246,232,33)" transform="translate(0,0)"></path>
<path d="M 1056.02 351.679 C 1063.73 351.53 1068.58 350.676 1076.12 349.273 L 1078.41 351.833 C 1071.76 353.039 1065.81 354.022 1059.11 354.893 L 1056.02 351.679 z" fill="rgb(254,254,253)" transform="translate(0,0)"></path>
<path d="M 1200.53 493.49 C 1201.6 496.934 1202.61 500.118 1203.83 503.511 C 1197.38 506.611 1165.28 512.08 1155.68 513.997 L 1151.65 502.073 C 1167.91 499.475 1184.48 497.03 1200.53 493.49 z" fill="rgb(8,138,61)" transform="translate(0,0)"></path>
<path d="M 1182.56 449.765 L 1186.65 459.55 C 1179.52 461.914 1150.8 465.682 1139.93 468.282 L 1136.6 456.681 C 1151.51 453.76 1167.4 450.5 1182.56 449.765 z" fill="rgb(8,138,61)" transform="translate(0,0)"></path>
<path d="M 1194.25 478.211 C 1195.41 481.106 1196.74 484.72 1198.04 487.492 C 1190.4 490.323 1153.88 497.13 1147.65 491.481 C 1147.23 488.203 1147.01 489.775 1148.59 486.644 C 1158.35 483.074 1182.97 479.975 1194.25 478.211 z" fill="rgb(8,138,61)" transform="translate(0,0)"></path>
<path d="M 1215.56 562.783 L 1216.36 568.791 C 1210.19 570.154 1173.5 576.014 1168.2 575.296 L 1167.22 573.899 L 1167.97 572.184 C 1179.17 568.802 1202.34 565.549 1215.56 562.783 z" fill="rgb(8,138,61)" transform="translate(0,0)"></path>
<path d="M 1214.37 554.363 C 1205.13 557.156 1195.1 558.236 1185.66 560.379 C 1179.18 561.847 1170.9 566.149 1165.06 561.466 C 1168 558.909 1204.18 553.808 1214.4 550.416 L 1214.37 554.363 z" fill="rgb(8,138,61)" transform="translate(0,0)"></path>
<path d="M 1199.34 600.294 C 1201.31 599.973 1205.92 599.464 1207.58 600.417 C 1200.98 602.761 1193.19 603.903 1186.22 605.158 C 1182.57 605.827 1182.24 605.843 1178.52 605.761 L 1178.71 604.921 C 1186.19 602.303 1191.47 601.603 1199.34 600.294 z" fill="rgb(8,138,61)" transform="translate(0,0)"></path>
<path d="M 1541.15 898.571 L 1543.77 894.733 C 1544.45 899.176 1545.09 903.811 1545.94 908.209 C 1549.62 909.187 1552.28 909.427 1554.89 912.103 L 1555.48 913.695 L 1558.22 916.761 C 1559.42 912.591 1560.15 909.096 1561.01 904.839 L 1562.58 903.39 C 1564.03 904.768 1565 914.147 1566.09 917.592 C 1568.74 925.894 1584.81 950.564 1593.32 949.829 C 1593.8 964.964 1595.35 995.829 1592.57 1009.83 C 1579.41 994.784 1562.49 975.131 1547.14 962.388 C 1543.45 958.383 1538.19 954.113 1534 950.479 C 1534.61 949.927 1538.33 946.527 1538.41 946.024 C 1541.25 928.826 1543.4 916.045 1541.15 898.571 z" fill="rgb(252,223,8)" transform="translate(0,0)"></path>
<path d="M 1561.01 904.839 C 1561.61 913.217 1565.07 929.741 1559.46 935.888 C 1558.37 937.083 1554.85 938.305 1553.18 938.908 C 1551.33 935.395 1551.91 933.483 1552.3 929.554 C 1555.64 924.14 1555.03 920.383 1555.48 913.695 L 1558.22 916.761 C 1559.42 912.591 1560.15 909.096 1561.01 904.839 z" fill="rgb(244,180,10)" transform="translate(0,0)"></path>
<path d="M 1555.48 913.695 L 1558.22 916.761 C 1557.48 923.457 1555.43 932.566 1553.18 938.908 C 1551.33 935.395 1551.91 933.483 1552.3 929.554 C 1555.64 924.14 1555.03 920.383 1555.48 913.695 z" fill="rgb(226,238,128)" transform="translate(0,0)"></path>
<path d="M 1545.94 908.209 C 1549.62 909.187 1552.28 909.427 1554.89 912.103 L 1555.48 913.695 C 1555.03 920.383 1555.64 924.14 1552.3 929.554 C 1550.11 922.46 1547.99 915.345 1545.94 908.209 z" fill="rgb(246,232,33)" transform="translate(0,0)"></path>
<path d="M 1571.37 966.419 L 1573.16 967.383 C 1574.47 971.049 1573.55 975.612 1573.15 979.62 L 1571.41 979.332 C 1570.19 975.326 1571.01 970.723 1571.37 966.419 z" fill="rgb(226,238,128)" transform="translate(0,0)"></path>
<path d="M 1541.15 898.571 C 1540.26 889.908 1539.47 885.24 1541.08 876.547 L 1541.97 877.736 L 1541.17 876.968 L 1541 878.511 L 1542.37 879.168 C 1542.96 884.344 1543.42 889.534 1543.77 894.733 L 1541.15 898.571 z" fill="rgb(244,180,10)" transform="translate(0,0)"></path>
<path d="M 1448.17 732.657 C 1451.11 732.066 1454.02 733.821 1454.86 736.7 C 1455.71 739.58 1454.22 742.631 1451.43 743.73 C 1449.39 744.534 1447.07 744.117 1445.44 742.652 C 1443.8 741.188 1443.14 738.928 1443.72 736.812 C 1444.29 734.697 1446.02 733.088 1448.17 732.657 z" fill="rgb(254,254,253)" transform="translate(0,0)"></path>
<path d="M 1276.7 598.871 C 1277.85 599.085 1278.82 599.696 1279.95 600.235 L 1279.84 602.033 C 1276.23 604.852 1274.8 604.912 1270.24 606.176 C 1268.05 606.094 1269.01 606.469 1267.35 605.045 C 1269.41 602.255 1273.51 600.563 1276.7 598.871 z" fill="rgb(254,254,253)" transform="translate(0,0)"></path>
<path d="M 0 1212.66 C 17.4257 1204.21 31.1466 1197.84 49.5964 1191.35 C 116.598 1167.76 205.391 1168.26 272.841 1190.38 C 273.388 1220.63 278.742 1239.55 282.883 1268.01 C 298.784 1377.28 338.511 1442.1 413.96 1519.8 C 382.672 1568.6 376.818 1624.81 377.678 1681.55 C 377.815 1690.6 377.1 1700.3 376.961 1709.49 C 376.431 1744.49 379.343 1780.41 369.385 1814.42 C 355.558 1861.65 322.927 1899.86 296.413 1940.27 C 272.783 1975.86 256.981 2007.27 243.506 2048 L 0 2048 L 0 1212.66 z" fill="rgb(8,138,61)" transform="translate(0,0)"></path>
<path d="M 46.9979 1837.03 C 55.929 1836.42 62.9046 1839.02 67.4582 1847.28 C 70.2979 1852.36 70.7845 1858.41 68.7908 1863.88 C 66.5983 1869.86 62.329 1872.29 56.9747 1874.97 C 33.0095 1876.11 23.7286 1848.65 46.9979 1837.03 z" fill="rgb(254,254,253)" transform="translate(0,0)"></path>
<path d="M 143.904 1280.47 C 145.242 1282.04 144.669 1281.46 145.093 1284.04 C 144.546 1284.62 143.999 1285.19 143.452 1285.77 C 130.926 1288.52 103.241 1294.87 92.6834 1297.25 C 69.3185 1302.5 47.9259 1308.46 25.3216 1313.05 C 23.7834 1309.62 23.719 1311.19 24.3244 1308.13 C 32.7927 1303.55 131.318 1282.17 143.904 1280.47 z" fill="rgb(254,254,253)" transform="translate(0,0)"></path>
<path d="M 137.736 1230.37 L 139.991 1230.3 L 141.518 1232.14 L 141.052 1234.08 C 133.051 1238.68 116.641 1240.71 107.32 1243.19 C 83.1697 1249.61 49.1807 1254.59 26.479 1263.6 C 24.3379 1263.58 23.4984 1262.21 22.5227 1260.71 L 23.2809 1258.82 C 30.8773 1253.8 123.697 1232.07 137.736 1230.37 z" fill="rgb(254,254,253)" transform="translate(0,0)"></path>
<path d="M 141.669 1731.02 C 142.889 1732.12 142.589 1732.2 143.248 1734.03 C 140.805 1738.58 128.848 1743.03 123.54 1745.41 C 122.988 1743.65 122.149 1742.4 122.797 1741.17 C 124.96 1737.08 136.947 1732.95 141.669 1731.02 z" fill="rgb(254,254,253)" transform="translate(0,0)"></path>
<path d="M 141.028 1903.84 C 142.536 1903.92 141.619 1903.77 143.678 1904.71 L 143.549 1906.68 C 140.083 1910.51 131.414 1914.58 126.414 1917.28 C 124.217 1916.34 125.044 1916.82 123.415 1914.77 L 123.822 1912.98 C 126.774 1910.49 136.484 1906.26 141.028 1903.84 z" fill="rgb(254,254,253)" transform="translate(0,0)"></path>
<path d="M 280.498 1741.91 C 283.379 1741.83 282.076 1741.47 284.531 1743.05 L 284.163 1744.77 C 279.754 1748.68 273.597 1751.89 268.417 1754.91 L 265.512 1754.58 L 264.74 1753.34 C 266.457 1748.84 276.008 1744.42 280.498 1741.91 z" fill="rgb(254,254,253)" transform="translate(0,0)"></path>
<path d="M 254.966 1624.87 C 257.638 1626.77 257.412 1627.72 256.588 1630.3 C 253.036 1633.89 247.987 1636.01 243.394 1638.38 L 241.7 1637.29 L 241.224 1635.08 C 242.88 1632.75 251.651 1627.29 254.966 1624.87 z" fill="rgb(254,254,253)" transform="translate(0,0)"></path>
<path d="M 0 412.372 C 49.304 422.356 89.8184 439.514 137.14 453.549 C 206.755 473.459 278.052 486.934 350.133 493.805 C 337.16 570.648 355.338 644.237 388.706 713.84 C 407.782 753.628 450.976 814.265 448.782 859.645 C 447.727 881.458 429.881 911.181 418.285 929.637 C 405.969 949.44 392.976 968.814 379.331 987.726 C 343.598 1036.9 305.158 1084.4 283.033 1142.56 C 277.453 1157.23 274.886 1174.77 272.841 1190.38 C 205.391 1168.26 116.598 1167.76 49.5964 1191.35 C 31.1466 1197.84 17.4257 1204.21 0 1212.66 L 0 412.372 z" fill="rgb(252,223,8)" transform="translate(0,0)"></path>
<path d="M 67.3213 979.66 C 77.2655 977.33 87.273 983.278 89.9774 993.128 C 92.6817 1002.98 87.1152 1013.2 77.3752 1016.28 C 70.7391 1018.37 63.4889 1016.67 58.4768 1011.84 C 53.4647 1007.01 51.4929 999.833 53.337 993.123 C 55.1811 986.413 60.5461 981.248 67.3213 979.66 z" fill="rgb(254,254,253)" transform="translate(0,0)"></path>
<path d="M 227.038 775.238 C 237.249 774.175 246.425 781.499 247.652 791.691 C 248.88 801.884 241.706 811.177 231.534 812.569 C 224.807 813.49 218.105 810.713 214.002 805.302 C 209.899 799.892 209.031 792.69 211.732 786.46 C 214.434 780.23 220.284 775.94 227.038 775.238 z" fill="rgb(254,254,253)" transform="translate(0,0)"></path>
<path d="M 142.985 869.039 C 144.969 870.758 144.431 869.987 145.26 872.477 C 142.439 877.606 130.902 880.864 125.285 882.932 C 124.336 882.645 123.348 881.856 122.441 881.264 L 122.142 879.424 C 124.904 874.994 137.556 871.076 142.985 869.039 z" fill="rgb(254,254,253)" transform="translate(0,0)"></path>
<path d="M 209.011 661.947 C 210.54 661.793 209.587 661.791 211.839 662.363 L 211.944 664.528 C 209.203 669.126 196.855 673.875 191.714 676.142 C 188.9 674.549 189.72 675.679 188.863 672.888 C 191.014 668.474 203.788 664.127 209.011 661.947 z" fill="rgb(254,254,253)" transform="translate(0,0)"></path>
<path d="M 147.012 1051.12 L 149.053 1051.05 C 150.621 1053.37 150.335 1052.12 149.909 1054.92 C 145.801 1059.88 137.575 1060.79 131.234 1062.09 C 129.249 1060.96 129.405 1061.02 128.41 1058.95 C 131.108 1054.57 141.527 1052.7 147.012 1051.12 z" fill="rgb(254,254,253)" transform="translate(0,0)"></path>
<path d="M 0 335.669 C 5.5406 338.732 32.8328 352.451 36.438 355.027 C 54.9282 368.239 155.919 388.134 163.161 395.905 L 162.875 397.078 C 154.644 398.305 136.905 392.056 128.152 389.914 C 77.6225 377.551 45.4974 368.372 0 342.497 L 0 335.669 z" fill="rgb(254,254,253)" transform="translate(0,0)"></path>
<path d="M 1059.93 0 L 1064.58 0 C 1059.86 18.7589 1050.56 50.9509 1049.47 69.9116 C 1048.93 79.2164 1070.45 139.991 1067.68 146.866 L 1066.07 147.108 C 1065.61 146.759 1064.16 145.757 1064.05 145.263 C 1058.67 122.744 1050.06 96.932 1045.36 74.836 C 1041.97 58.8943 1055.68 16.4083 1059.93 0 z" fill="rgb(254,254,253)" transform="translate(0,0)"></path>
<path d="M 420.451 524.64 C 428.997 526.779 442.024 556.001 446.909 563.981 C 489.417 633.427 511.44 713.88 520.643 794.364 C 516.737 794.075 518.079 794.867 515.39 792.989 C 504.664 699.452 477.782 616.352 425.999 537.257 C 423.36 533.225 420.525 529.349 420.451 524.64 z" fill="rgb(254,254,253)" transform="translate(0,0)"></path>
<path d="M 660.888 205.44 C 671.292 204.456 680.526 212.089 681.519 222.493 C 682.511 232.896 674.886 242.137 664.483 243.138 C 654.068 244.14 644.814 236.505 643.821 226.088 C 642.827 215.672 650.471 206.425 660.888 205.44 z" fill="rgb(254,254,253)" transform="translate(0,0)"></path>
<path d="M 547.486 600.561 C 557.236 598.315 566.954 604.421 569.16 614.18 C 571.366 623.939 565.219 633.632 555.451 635.798 C 545.74 637.95 536.116 631.847 533.923 622.145 C 531.73 612.444 537.793 602.795 547.486 600.561 z" fill="rgb(254,254,253)" transform="translate(0,0)"></path>
<path d="M 394.228 1203.72 C 395.568 1204.65 395.447 1204.75 396.513 1206.05 C 398.093 1215.7 397.736 1226.18 398.187 1236.22 C 399.634 1268.51 397.864 1302.77 402.283 1334.76 C 405.081 1355.01 417.158 1375.87 422.787 1395.37 C 423.216 1396.85 422.607 1399.12 422.254 1400.53 C 420.263 1399.19 420.165 1399.56 419.082 1397.01 C 417.065 1392.27 415.716 1385.72 413.723 1381.07 C 409.323 1370.8 400.771 1349.34 398.695 1339.29 C 395.024 1321.52 390.495 1214.36 394.228 1203.72 z" fill="rgb(254,254,253)" transform="translate(0,0)"></path>
<path d="M 471.398 946.194 C 473.945 947.276 472.866 946.542 474.478 948.678 C 473.82 981.99 416.436 1066.88 392.689 1091.86 L 390.626 1091.78 C 388.586 1087.21 400.499 1075.24 404.499 1070.19 C 437.29 1028.73 454.624 995.984 471.398 946.194 z" fill="rgb(254,254,253)" transform="translate(0,0)"></path>
<path d="M 1091.63 41.4295 C 1093.72 42.4264 1094.93 42.913 1095.92 45.5406 C 1100.82 59.9771 1108.53 82.6455 1112.13 96.6653 C 1115.88 111.261 1144.78 192.21 1141.98 200.372 C 1141.47 200.146 1139.87 199.701 1139.58 198.836 C 1122.92 149.428 1107.3 98.5643 1092.38 48.4917 C 1091.44 45.336 1091.46 44.0303 1091.63 41.4295 z" fill="rgb(254,254,253)" transform="translate(0,0)"></path>
<path d="M 78.1843 314.556 C 84.2457 314.923 110.766 326.44 118.968 329.096 C 149.529 338.992 179.372 349.724 211.007 356.074 C 213.175 356.509 212.764 359.378 212.948 361.233 C 208.148 360.983 183.8 356.127 174.729 353.077 C 144.88 343.039 107.28 332.416 78.5196 319.16 C 77.5937 318.733 78.1144 316.182 78.1843 314.556 z" fill="rgb(254,254,253)" transform="translate(0,0)"></path>
<path d="M 424.08 631.383 C 442.269 637.063 474.162 733.012 474.132 755.1 C 474.123 761.389 476.793 770.03 476.654 776.647 C 472.473 775.878 473.898 776.909 471.535 774.448 C 467.289 745.996 463.751 718.461 453.152 691.487 C 445.195 671.24 435.274 653.539 424.228 634.907 C 423.746 634.094 423.988 632.252 424.08 631.383 z" fill="rgb(254,254,253)" transform="translate(0,0)"></path>
<path d="M 367.927 545.285 L 370.022 545.969 C 373.688 548.906 373.619 554.661 374.441 559.033 C 382.804 603.488 401.462 646.323 421.058 686.245 C 420.618 686.351 420.178 686.457 419.738 686.563 C 417.981 686.278 417.574 687.491 416.27 685.919 C 411.696 680.407 407.878 669.597 404.746 663.325 C 393.068 639.942 366.756 569.882 367.927 545.285 z" fill="rgb(254,254,253)" transform="translate(0,0)"></path>
<path d="M 322.488 175.628 C 329.874 173.076 337.945 176.898 340.651 184.229 C 343.357 191.559 339.706 199.708 332.434 202.568 C 327.592 204.473 322.099 203.609 318.074 200.311 C 314.05 197.013 312.124 191.796 313.04 186.675 C 313.956 181.553 317.57 177.327 322.488 175.628 z" fill="rgb(254,254,253)" transform="translate(0,0)"></path>
<path d="M 451.579 926.53 C 452.657 927.489 454.018 928.107 454.136 929.653 C 455.146 942.808 395.936 1030.33 384.247 1046.59 L 382.128 1045.7 L 381.301 1043.58 C 382.329 1040.2 400.046 1016.11 403.48 1010.54 C 420.428 983.003 438.318 956.142 451.579 926.53 z" fill="rgb(254,254,253)" transform="translate(0,0)"></path>
<path d="M 467.296 1034.48 C 470.35 1037.34 469.746 1035.74 470.32 1039 C 456.462 1066.47 413.793 1122.35 392.537 1145.34 L 390.913 1145.72 L 389.905 1144.57 C 390.453 1139.32 399.24 1130.39 403.134 1125.82 C 427.228 1097.37 448.703 1066.8 467.296 1034.48 z" fill="rgb(254,254,253)" transform="translate(0,0)"></path>
<path d="M 329.747 1191.51 L 332.166 1193.44 C 334.855 1202.66 336.003 1218.03 337.066 1227.97 L 342.916 1282.74 C 343.838 1291.03 348.127 1316.03 346.216 1321.78 L 343.545 1320.59 C 340.469 1314.54 328.007 1198.55 329.747 1191.51 z" fill="rgb(254,254,253)" transform="translate(0,0)"></path>
<path d="M 1033.51 177.219 L 1036.98 178.152 C 1039.69 180.789 1043.48 197.914 1044.78 202.482 L 1064.71 272.342 C 1066.91 280.179 1072.74 298.03 1073.13 305.314 C 1071.33 304.642 1071.21 304.369 1069.59 303.261 C 1065.87 296.084 1034.04 185.093 1033.51 177.219 z" fill="rgb(254,254,253)" transform="translate(0,0)"></path>
<path d="M 1084.62 177.323 C 1088.45 177.941 1087.12 176.994 1089.42 179.276 C 1093.67 195.45 1117.27 272.031 1117.17 283.201 C 1114.66 283.005 1115.89 283.319 1113.51 282.197 C 1111.33 277.551 1105.35 256.494 1103.88 250.573 C 1098.98 230.874 1086.83 196.61 1084.62 177.323 z" fill="rgb(254,254,253)" transform="translate(0,0)"></path>
<path d="M 76.6355 179.966 L 78.6752 181.147 L 78.6354 183.265 C 75.0274 188.035 67.7912 190.324 62.2219 192.36 C 60.5243 191.463 61.151 191.822 59.98 189.947 L 60.6352 188.061 C 65.0445 184.497 71.3055 182.264 76.6355 179.966 z" fill="rgb(254,254,253)" transform="translate(0,0)"></path>
<path d="M 753.387 710.072 C 757.579 710.556 756.314 709.57 758.363 711.927 L 757.517 713.69 C 753.029 716.912 750.544 717.043 745.233 718.049 C 743.67 717.696 742.492 716.897 740.989 716.12 L 740.732 714.745 C 743.921 712.324 749.361 711.211 753.387 710.072 z" fill="rgb(254,254,253)" transform="translate(0,0)"></path>
<path d="M 734.788 372.799 C 742.221 373.396 749.757 372.296 751.864 380.355 C 746.282 379.896 739.169 380.06 735.025 376.425 L 734.788 372.799 z" fill="rgb(254,254,253)" transform="translate(0,0)"></path>
<path d="M 821.456 209.115 C 824.206 209.621 823.421 209.533 826.004 211.052 L 825.753 212.84 C 822.191 215.433 819.479 215.552 815.085 216.409 C 812.253 216.317 812.456 216.309 810.005 214.844 L 810.362 213.231 C 814.815 210.114 815.929 210.224 821.456 209.115 z" fill="rgb(254,254,253)" transform="translate(0,0)"></path>
<path d="M 877.358 270.783 C 880.504 271.784 879.232 270.945 881.417 273.232 L 880.794 274.815 C 877.069 277.5 873.68 278.123 869.258 279.431 C 867.497 279.934 868.528 279.802 866.139 279.468 L 866.498 277.564 C 870.583 273.7 872.357 273.166 877.358 270.783 z" fill="rgb(254,254,253)" transform="translate(0,0)"></path>
<path d="M 762.846 607.626 C 766.562 608.751 768.013 609.141 770.444 612.193 C 771.635 615.801 771.129 616.448 769.959 620.033 L 766.682 619.444 C 764.455 616.936 763.58 611.141 762.846 607.626 z" fill="rgb(254,254,253)" transform="translate(0,0)"></path>
<path d="M 1571.84 464.854 C 1583.78 464.813 1617.98 451.314 1631.72 446.627 C 1676.49 431.356 1721.16 415.79 1765.73 399.928 C 1783.61 393.408 1801.17 385.906 1819.05 379.493 C 1861.86 364.039 1905.23 350.093 1948.17 335.053 C 1981.43 323.405 2014.45 311.562 2048 300.708 L 2048 1162.66 L 2048 1168.91 L 2048 1195.78 L 2048 1201.95 L 2048 1240.45 L 2048 1246.16 L 2048 1271.87 L 1965.14 1292.05 C 1948.79 1296.09 1917.76 1304.45 1901.42 1306.01 C 1878.18 1306.68 1858.4 1308.9 1833.81 1309.16 C 1805.76 1309.74 1745.33 1302.65 1721.54 1309.64 C 1716.01 1310.23 1713.83 1310.63 1709.11 1313.72 C 1701.49 1325.92 1687.22 1354.34 1679.71 1363.26 C 1677.9 1349.95 1679.77 1313.82 1678.63 1297.79 C 1676.3 1297.21 1674.03 1296.39 1671.86 1295.35 C 1667.02 1293.03 1663.48 1288.63 1661.94 1283.51 C 1660.48 1278.51 1661.13 1273.13 1663.74 1268.62 C 1667.37 1262.33 1671.74 1260.08 1678.32 1258.1 C 1676.71 1166.8 1649.99 1081.57 1592.57 1009.83 C 1595.35 995.829 1593.8 964.964 1593.32 949.829 C 1593.21 894.082 1572.59 842.471 1554.08 791.29 C 1516.42 687.191 1535.44 566.933 1571.84 464.854 z" fill="rgb(225,40,26)" transform="translate(0,0)"></path>
<path d="M 2048 1201.95 C 1991.33 1216.19 1933.04 1225.46 1876.5 1240.65 C 1873.4 1241.48 1867.02 1241.83 1865.24 1238.73 C 1869.21 1234.13 1916.56 1224.76 1925.75 1222.69 L 2048 1195.78 L 2048 1201.95 z" fill="rgb(254,254,253)" transform="translate(0,0)"></path>
<path d="M 1678.32 1258.1 C 1690.38 1259.38 1698.66 1267.41 1696.94 1280.05 C 1696.22 1285.61 1693.21 1290.63 1688.63 1293.88 C 1685.46 1296.09 1682.33 1296.82 1678.63 1297.79 C 1676.3 1297.21 1674.03 1296.39 1671.86 1295.35 C 1667.02 1293.03 1663.48 1288.63 1661.94 1283.51 C 1660.48 1278.51 1661.13 1273.13 1663.74 1268.62 C 1667.37 1262.33 1671.74 1260.08 1678.32 1258.1 z" fill="rgb(254,254,253)" transform="translate(0,0)"></path>
<path d="M 2048 1162.66 L 2048 1168.91 C 2017.71 1175.17 1986.99 1182.78 1956.89 1189.98 C 1953.64 1190.75 1951.62 1189.36 1950.42 1186.63 C 1954.47 1181.45 1965.84 1181.51 1972.48 1179.78 C 1997.15 1173.33 2023.56 1169.64 2048 1162.66 z" fill="rgb(254,254,253)" transform="translate(0,0)"></path>
<path d="M 2048 1246.16 C 2031.03 1251.05 2012.85 1254.32 1995.61 1258.86 C 1984.76 1261.72 1961.8 1269.85 1951.6 1266.58 C 1952.35 1265.44 1952.79 1264.3 1954.08 1263.87 C 1984.16 1253.75 2017.84 1249.6 2048 1240.45 L 2048 1246.16 z" fill="rgb(254,254,253)" transform="translate(0,0)"></path>
<path d="M 1825.6 780.635 C 1833.13 778.915 1841 781.449 1846.12 787.241 C 1851.23 793.033 1852.76 801.156 1850.12 808.415 C 1847.48 815.674 1841.08 820.907 1833.44 822.056 C 1822.22 823.743 1811.68 816.261 1809.58 805.118 C 1807.47 793.976 1814.55 783.161 1825.6 780.635 z" fill="rgb(254,254,253)" transform="translate(0,0)"></path>
<path d="M 1911.53 376.917 C 1914.47 377.097 1913.08 376.754 1915.59 378.453 L 1915.33 380.528 C 1910.64 385.046 1738.42 447.403 1717.27 454.565 L 1714.59 454.817 C 1712.64 452.449 1713.06 453.776 1713.33 450.698 C 1713.82 449.991 1714.47 448.902 1715.32 448.599 C 1780.81 425.129 1846.12 400.573 1911.53 376.917 z" fill="rgb(254,254,253)" transform="translate(0,0)"></path>
<path d="M 1606.05 593.134 C 1609.51 594.186 1608.42 593.134 1610.11 595.596 C 1607.55 612.351 1602.62 629.258 1600.56 645.993 C 1593.67 701.841 1591.61 758.144 1592.5 814.387 C 1592.6 820.683 1593.23 829.94 1592.09 835.925 C 1587.23 830.215 1587.45 827.348 1587.38 820.083 C 1586.83 764.92 1587.6 709.919 1594.7 655.148 C 1597.44 634.025 1599.53 613.457 1606.05 593.134 z" fill="rgb(254,254,253)" transform="translate(0,0)"></path>
<path d="M 1966.44 401.05 C 1966.91 401.082 1968.88 401.693 1969.41 401.846 L 1969.94 403.542 C 1967.81 407.645 1924.21 421.381 1915.62 424.51 L 1815.23 462.053 C 1814.1 461.905 1813.33 461.472 1812.22 461.032 L 1811.68 459.143 C 1817.19 452.576 1950.91 405.383 1966.44 401.05 z" fill="rgb(254,254,253)" transform="translate(0,0)"></path>
<path d="M 1586.37 516.107 L 1589.86 517.25 C 1591.46 520.386 1581.76 547.628 1580.39 553.26 C 1575.33 574.019 1558.17 645.428 1562.07 662.618 C 1559.41 662.986 1559.33 663.214 1556.83 662.437 C 1555.28 657.998 1558 643.503 1558.63 638.344 C 1563.96 594.765 1572.37 557.588 1586.37 516.107 z" fill="rgb(254,254,253)" transform="translate(0,0)"></path>
<path d="M 1645.85 593.221 L 1648.26 594.199 C 1652.11 599.906 1650.43 694.774 1649.84 705.049 C 1646.56 704.628 1647.87 705.35 1645.46 703.544 C 1645.81 680.471 1645.92 657.395 1645.8 634.32 C 1645.73 623.55 1644.93 603.278 1645.85 593.221 z" fill="rgb(254,254,253)" transform="translate(0,0)"></path>
<path d="M 1619.57 718.456 C 1620.36 718.714 1624.12 720.374 1624.24 720.922 C 1628.27 740.594 1621.6 778.823 1626.84 797.045 C 1625.41 799.814 1624.73 799.796 1621.97 800.393 L 1620.57 798.976 C 1620 794.289 1619.64 786.941 1619.98 782.234 C 1621.41 762.351 1617.9 737.886 1619.57 718.456 z" fill="rgb(254,254,253)" transform="translate(0,0)"></path>
<path d="M 1737.13 1156.79 L 1739.48 1158.4 L 1739.88 1160.53 C 1737.11 1165.23 1720.99 1171.2 1714.97 1174.01 C 1712.59 1172.26 1713.48 1173.36 1712.38 1170.47 C 1713.8 1167.07 1732.52 1159.11 1737.13 1156.79 z" fill="rgb(254,254,253)" transform="translate(0,0)"></path>
<path d="M 1953.58 620.994 C 1955.45 621.586 1956.23 622.36 1957.95 623.514 L 1958.01 625.083 C 1954.41 627.848 1951.45 628.861 1947.32 630.649 C 1945.21 631.015 1946.04 630.759 1943.3 629.077 C 1942.76 627.04 1942.65 627.916 1943.17 626.429 C 1946 623.496 1949.69 622.529 1953.58 620.994 z" fill="rgb(254,254,253)" transform="translate(0,0)"></path>
<path d="M 1873.9 953.988 C 1876.02 954.517 1877.06 955.569 1877.91 957.396 C 1876.41 960.357 1870.55 962.916 1867.14 964.891 C 1865.78 963.101 1864.55 961.279 1863.27 959.434 L 1863.84 957.934 C 1868.48 957.01 1869.81 956.387 1873.9 953.988 z" fill="rgb(254,254,253)" transform="translate(0,0)"></path>
<path d="M 1718.12 1038.28 L 1719.64 1038.43 L 1722.31 1041.98 C 1721.03 1044.63 1714.41 1046.27 1711.22 1047.38 L 1709.57 1047.84 C 1707.34 1045.78 1708.24 1046.95 1707.27 1044.03 C 1708.76 1041.59 1715.08 1039.58 1718.12 1038.28 z" fill="rgb(254,254,253)" transform="translate(0,0)"></path>
<path d="M 1933.43 1149.8 C 1935.68 1150.54 1935 1150.39 1936.94 1152.14 L 1936.82 1153.9 C 1934.35 1156.93 1930.03 1158.95 1926.53 1160.94 C 1924.63 1160.41 1924.9 1160.16 1923.2 1158.57 L 1923.42 1156.64 C 1926.29 1153.41 1929.63 1151.94 1933.43 1149.8 z" fill="rgb(254,254,253)" transform="translate(0,0)"></path>
<path d="M 1978.58 860.053 C 1981.65 860.774 1981.46 860.649 1983.61 862.951 C 1982.42 866.522 1976.22 867.771 1972.89 868.673 L 1971.92 869.445 C 1969.59 867.447 1970.3 868.664 1969.68 865.68 C 1971.65 862.222 1974.78 861.57 1978.58 860.053 z" fill="rgb(254,254,253)" transform="translate(0,0)"></path>
<path d="M 1901.42 1306.01 C 1917.76 1304.45 1948.79 1296.09 1965.14 1292.05 L 2048 1271.87 L 2048 2048 L 1505.89 2048 C 1504.18 2024.32 1503.32 2007.14 1494.58 1984.26 C 1480.21 1946.67 1446.35 1916.63 1437.68 1876.99 C 1435.81 1868.44 1436.05 1857.53 1436.14 1848.86 C 1466.57 1857.16 1514.39 1855.43 1541.09 1836.86 C 1549.15 1831.25 1555.98 1823.76 1560.13 1814.82 C 1578.23 1775.91 1590.06 1733.95 1603.41 1693.24 C 1624.51 1631.49 1643.9 1569.2 1658.83 1505.72 C 1665.42 1477.7 1670.04 1446.13 1674.56 1417.76 C 1676.67 1404.56 1676.51 1388.53 1678.77 1375.71 L 1678.94 1374.79 C 1678.97 1371.08 1679.41 1367 1679.71 1363.26 C 1687.22 1354.34 1701.49 1325.92 1709.11 1313.72 C 1713.83 1310.63 1716.01 1310.23 1721.54 1309.64 C 1745.33 1302.65 1805.76 1309.74 1833.81 1309.16 C 1858.4 1308.9 1878.18 1306.68 1901.42 1306.01 z" fill="rgb(8,138,61)" transform="translate(0,0)"></path>
<path d="M 1709.11 1313.72 C 1713.83 1310.63 1716.01 1310.23 1721.54 1309.64 C 1698.46 1324.08 1691.43 1356.1 1678.94 1374.79 C 1678.97 1371.08 1679.41 1367 1679.71 1363.26 C 1687.22 1354.34 1701.49 1325.92 1709.11 1313.72 z" fill="rgb(254,254,253)" transform="translate(0,0)"></path>
<path d="M 1833.81 1309.16 C 1858.4 1308.9 1878.18 1306.68 1901.42 1306.01 C 1890.61 1308.71 1841.95 1315.81 1833.81 1309.16 z" fill="rgb(252,223,8)" transform="translate(0,0)"></path>
<path d="M 1912.7 1898.06 C 1919.07 1895.42 1926.38 1896.42 1931.81 1900.67 C 1937.24 1904.93 1939.96 1911.78 1938.92 1918.6 C 1937.88 1925.42 1933.25 1931.16 1926.79 1933.6 C 1917.03 1937.3 1906.1 1932.48 1902.25 1922.77 C 1898.4 1913.06 1903.05 1902.07 1912.7 1898.06 z" fill="rgb(254,254,253)" transform="translate(0,0)"></path>
<path d="M 2008.2 1632.04 C 2030.99 1631.87 2042.21 1658.71 2017.95 1670.03 C 2015.22 1670.11 2013.16 1670.16 2010.47 1669.52 C 2004.73 1668.15 1999.83 1664.43 1996.98 1659.26 C 1994.42 1654.68 1993.95 1649.22 1995.69 1644.27 C 1998.01 1637.8 2002.36 1634.84 2008.2 1632.04 z" fill="rgb(254,254,253)" transform="translate(0,0)"></path>
<path d="M 1522.68 1867.4 C 1526.6 1869.97 1537.06 1894.11 1540.26 1900.51 C 1555.25 1930.24 1569.84 1960.17 1584.02 1990.3 C 1591.51 2005.99 1599.22 2021.93 1606.23 2037.85 C 1608.15 2042.2 1608 2041.98 1607.2 2046.05 C 1602.04 2039.17 1585.13 2003.23 1580.24 1993.44 L 1544.3 1920.75 C 1537.06 1906.09 1529.6 1891.33 1522.79 1876.48 C 1520.65 1871.8 1521.01 1871.59 1522.68 1867.4 z" fill="rgb(254,254,253)" transform="translate(0,0)"></path>
<path d="M 1702.54 1384.16 L 1705.39 1385.08 C 1705.6 1385.7 1705.82 1386.32 1706.03 1386.94 C 1695.57 1423.55 1675.72 1489.11 1665.24 1522.9 L 1663.15 1522.44 L 1662.27 1521.01 C 1671.03 1480.37 1688.99 1423.95 1702.54 1384.16 z" fill="rgb(254,254,253)" transform="translate(0,0)"></path>
<path d="M 1859.13 1407.1 C 1878.48 1405.9 1885.78 1426.92 1867.16 1437.49 C 1859.98 1437.3 1854.46 1435.63 1850.47 1429.05 C 1848.38 1425.56 1847.82 1421.36 1848.93 1417.45 C 1850.54 1411.6 1854.13 1409.89 1859.13 1407.1 z" fill="rgb(254,254,253)" transform="translate(0,0)"></path>
<path d="M 1560.99 1833.59 C 1561.84 1833.98 1563.4 1834.36 1564.21 1836.42 C 1576.23 1866.87 1588.4 1898.01 1598.81 1929.03 C 1598.49 1930.28 1598.16 1931.52 1597.84 1932.77 L 1595.56 1932.68 C 1588.64 1925.5 1566.6 1852.7 1560.28 1838.68 C 1559.73 1837.47 1560.57 1834.84 1560.99 1833.59 z" fill="rgb(254,254,253)" transform="translate(0,0)"></path>
<path d="M 1685.02 1535.1 C 1687.26 1535.79 1687.14 1535.72 1688.99 1537.16 C 1689.08 1542.07 1667.06 1614.96 1664.07 1622.68 L 1660.99 1621.87 C 1659.31 1617.36 1681.72 1546.93 1685.02 1535.1 z" fill="rgb(254,254,253)" transform="translate(0,0)"></path>
<path d="M 1573.99 1803.63 C 1579.34 1806.18 1593.31 1847.79 1592.7 1854.54 C 1591.09 1854.53 1589.91 1854.91 1589.41 1853.91 C 1584.62 1844.25 1573.73 1812.77 1573.99 1803.63 z" fill="rgb(254,254,253)" transform="translate(0,0)"></path>
<path d="M 1870.82 1469.84 C 1872.73 1471.35 1871.89 1470.48 1872.89 1473.04 C 1870.38 1477.89 1858.66 1482.72 1853.02 1485.55 C 1850.91 1482.09 1850.96 1483.63 1851.15 1480.45 C 1856.11 1477.17 1864.76 1473.3 1870.82 1469.84 z" fill="rgb(254,254,253)" transform="translate(0,0)"></path>
<path d="M 1977.67 1924.77 C 1979.17 1925.27 1979.07 1925.45 1980.39 1926.49 L 1980.19 1928.54 C 1975.35 1933.65 1968.01 1936.86 1961.64 1939.8 L 1959.74 1939.5 L 1959.12 1937.59 C 1960.71 1934.72 1973.77 1927.31 1977.67 1924.77 z" fill="rgb(254,254,253)" transform="translate(0,0)"></path>
<path d="M 1966.38 1754.89 L 1968.34 1755.85 L 1968.68 1758.03 C 1966.31 1761.65 1956.77 1766.63 1952.43 1769.2 C 1950.67 1768.29 1950.94 1768.22 1949.49 1766.7 L 1949.64 1764.89 C 1952.59 1762.01 1962.09 1757.29 1966.38 1754.89 z" fill="rgb(254,254,253)" transform="translate(0,0)"></path>
<path d="M 413.96 1519.8 C 452.708 1466.19 524.394 1429.7 583.095 1401.4 C 583.4 1419.19 583.513 1443.96 586.618 1461.33 L 587.504 1467.04 C 589.906 1478.21 592.91 1494.15 596.56 1504.69 L 598.697 1511.35 C 599.558 1521.15 599.732 1529.49 599.898 1539.28 L 599.86 1544.92 C 604.845 1640.64 650.261 1683.16 739.279 1712.16 C 743.442 1718.62 747.613 1724.96 752.708 1730.74 C 757.342 1736 765.165 1741.97 768.407 1747.95 C 780.959 1771.11 801.103 1842.39 818.652 1855.79 C 825.679 1861.16 836.351 1862.71 844.768 1865.18 C 863.684 1874.26 889.235 1882.11 909.492 1887.88 C 951.284 1899.79 997.477 1894.01 1039.42 1883.44 C 1062.45 1909.04 1064.91 1909.49 1101.12 1911.43 L 1106.51 1911.72 C 1112.6 1913.59 1122.81 1916.57 1129.38 1917.55 C 1170.96 1923.75 1216.98 1941.83 1258.72 1933.34 C 1278.35 1929.34 1283.25 1916.5 1288.06 1899.64 C 1292.75 1883.18 1296.79 1867.49 1305.43 1852.48 C 1321.27 1844.89 1347.07 1836.57 1366 1828.02 C 1388.74 1836.98 1412.2 1843.95 1436.14 1848.86 C 1436.05 1857.53 1435.81 1868.44 1437.68 1876.99 C 1446.35 1916.63 1480.21 1946.67 1494.58 1984.26 C 1503.32 2007.14 1504.18 2024.32 1505.89 2048 L 1176.17 2048 L 1167.57 2048 L 1131.18 2048 L 1123.47 2048 L 335.024 2048 L 326.776 2048 L 243.506 2048 C 256.981 2007.27 272.783 1975.86 296.413 1940.27 C 322.927 1899.86 355.558 1861.65 369.385 1814.42 C 379.343 1780.41 376.431 1744.49 376.961 1709.49 C 377.1 1700.3 377.815 1690.6 377.678 1681.55 C 376.818 1624.81 382.672 1568.6 413.96 1519.8 z" fill="rgb(252,223,8)" transform="translate(0,0)"></path>
<path d="M 326.776 2048 L 409.857 1931.86 C 424.634 1910.96 440.186 1890.81 452.162 1868.09 C 468.822 1836.48 466.281 1800.95 464.895 1766.5 C 463.629 1735.04 461.784 1703.6 460.051 1672.16 C 459.833 1668.21 458.936 1666.01 462.03 1664.58 C 469.41 1672.25 470.321 1791.24 471.11 1810.02 C 473.271 1861.47 441.374 1897.53 413.156 1937.78 L 335.024 2048 L 326.776 2048 z" fill="rgb(254,254,253)" transform="translate(0,0)"></path>
<path d="M 586.618 1461.33 L 587.504 1467.04 C 561.689 1475.25 535.955 1483.21 510.62 1492.88 C 505.665 1494.77 498.841 1498.09 493.828 1498.53 L 492.944 1497.52 C 493.083 1497.19 493.187 1496.84 493.36 1496.53 C 498.396 1487.43 573.525 1464.78 586.618 1461.33 z" fill="rgb(254,254,253)" transform="translate(0,0)"></path>
<path d="M 596.56 1504.69 L 598.697 1511.35 C 581.207 1515.02 563.111 1520.49 545.776 1524.95 C 537.947 1526.96 527.224 1530.62 519.523 1531.73 L 518.094 1530.39 L 518.825 1528.38 C 524.893 1523.81 583.966 1508.25 596.56 1504.69 z" fill="rgb(254,254,253)" transform="translate(0,0)"></path>
<path d="M 599.86 1544.92 C 579.736 1550.09 560.058 1556.55 539.982 1561.79 C 539.39 1561.49 538.798 1561.19 538.206 1560.89 C 538.186 1559.7 537.88 1558.45 538.731 1557.99 C 549.627 1552.08 588.784 1541.52 599.898 1539.28 L 599.86 1544.92 z" fill="rgb(254,254,253)" transform="translate(0,0)"></path>
<path d="M 1123.47 2048 C 1122.11 2037.68 1114.33 2006.02 1116.17 1999.3 L 1117.69 1998.35 C 1122.8 2002.05 1127.27 2037.09 1131.18 2048 L 1123.47 2048 z" fill="rgb(254,254,253)" transform="translate(0,0)"></path>
<path d="M 1167.57 2048 C 1164.67 2038.34 1157.64 2022.24 1158.6 2013.52 C 1160.7 2010.64 1159.36 2011.46 1162.59 2010.72 C 1165.84 2013.21 1173.32 2040.87 1176.17 2048 L 1167.57 2048 z" fill="rgb(254,254,253)" transform="translate(0,0)"></path>
<path d="M 423.938 1834.62 C 424.967 1835.22 424.278 1834.75 425.615 1836.49 C 424.692 1840.02 416.67 1850.72 414.214 1854.84 C 388.553 1897.8 359.325 1939.01 329.066 1978.86 C 318.107 1993.3 306.101 2010.71 294.561 2024.38 L 292.978 2023.81 L 292.314 2022.06 C 294.983 2012.62 313.361 1988.16 319.994 1979.48 C 339.43 1954.05 358.287 1928.66 376.786 1902.52 C 385.871 1889.69 394.723 1876.7 403.335 1863.54 C 408.773 1855.34 417.417 1841.43 423.938 1834.62 z" fill="rgb(254,254,253)" transform="translate(0,0)"></path>
<path d="M 861.237 1897.52 C 871.223 1894.69 881.616 1900.5 884.433 1910.49 C 887.25 1920.48 881.421 1930.86 871.423 1933.66 C 861.454 1936.45 851.109 1930.64 848.3 1920.67 C 845.491 1910.71 851.279 1900.35 861.237 1897.52 z" fill="rgb(254,254,253)" transform="translate(0,0)"></path>
<path d="M 415.187 1617.63 C 418.887 1618.29 418.982 1617.72 421.517 1619.76 C 426.151 1653.78 424.829 1692.93 426.897 1727.57 C 427.786 1742.45 429.673 1762.03 428.752 1776.4 L 425.963 1776.13 C 420.204 1768.31 421.636 1689.68 419.907 1675.5 C 417.832 1658.49 418.778 1635.65 415.187 1617.63 z" fill="rgb(254,254,253)" transform="translate(0,0)"></path>
<path d="M 434.516 1993.85 C 443.107 1991.91 451.674 1997.19 453.798 2005.73 C 455.922 2014.28 450.824 2022.96 442.324 2025.26 C 436.663 2026.8 430.614 2025.15 426.513 2020.96 C 422.412 2016.76 420.9 2010.68 422.561 2005.06 C 424.222 1999.43 428.795 1995.14 434.516 1993.85 z" fill="rgb(254,254,253)" transform="translate(0,0)"></path>
<path d="M 1250.71 2015.09 C 1255.78 2015.35 1259.75 2015.56 1263.31 2019.71 C 1265.39 2022.08 1266.3 2025.25 1265.8 2028.36 C 1264.95 2033.71 1261.44 2036.59 1257.22 2039.33 C 1241.53 2041.31 1237.6 2024.47 1250.71 2015.09 z" fill="rgb(254,254,253)" transform="translate(0,0)"></path>
<path d="M 590.078 1777.31 C 594.645 1776.88 602.393 1774.98 605.093 1778.92 L 603.936 1782.6 C 599.478 1783.36 596.695 1784.26 592.515 1782.87 C 589.705 1780.14 590.726 1781.81 590.078 1777.31 z" fill="rgb(254,254,253)" transform="translate(0,0)"></path>
<path d="M 1535.78 964.563 C 1535.14 959.416 1532.88 958.695 1529.84 953.058 L 1530.37 952.256 C 1536.45 955.795 1540.32 958.968 1545.84 963.314 L 1547.14 962.388 C 1562.49 975.131 1579.41 994.784 1592.57 1009.83 C 1649.99 1081.57 1676.71 1166.8 1678.32 1258.1 C 1671.74 1260.08 1667.37 1262.33 1663.74 1268.62 C 1661.13 1273.13 1660.48 1278.51 1661.94 1283.51 C 1663.48 1288.63 1667.02 1293.03 1671.86 1295.35 C 1674.03 1296.39 1676.3 1297.21 1678.63 1297.79 C 1679.77 1313.82 1677.9 1349.95 1679.71 1363.26 C 1679.41 1367 1678.97 1371.08 1678.94 1374.79 L 1678.77 1375.71 C 1676.51 1388.53 1676.67 1404.56 1674.56 1417.76 C 1670.04 1446.13 1665.42 1477.7 1658.83 1505.72 C 1643.9 1569.2 1624.51 1631.49 1603.41 1693.24 C 1590.06 1733.95 1578.23 1775.91 1560.13 1814.82 C 1555.98 1823.76 1549.15 1831.25 1541.09 1836.86 C 1514.39 1855.43 1466.57 1857.16 1436.14 1848.86 C 1412.2 1843.95 1388.74 1836.98 1366 1828.02 C 1347.07 1836.57 1321.27 1844.89 1305.43 1852.48 C 1296.79 1867.49 1292.75 1883.18 1288.06 1899.64 C 1283.25 1916.5 1278.35 1929.34 1258.72 1933.34 C 1216.98 1941.83 1170.96 1923.75 1129.38 1917.55 C 1122.81 1916.57 1112.6 1913.59 1106.51 1911.72 C 1108.6 1911.34 1107.67 1911.44 1109.5 1911.33 C 1139.13 1909.48 1179.83 1903.33 1207.61 1892.81 C 1212.96 1881.23 1218.39 1864.37 1222.51 1852.1 L 1243.48 1789.6 C 1272.16 1780.42 1290.9 1772.18 1317.86 1758.68 C 1318.26 1759.62 1318.67 1760.55 1319.09 1761.47 C 1328.98 1782.84 1341.17 1798.58 1364 1807.44 C 1399.06 1821.05 1463.07 1797.56 1495.08 1782.31 C 1500.02 1755.47 1512.13 1717.3 1520.34 1690.59 C 1535.01 1642.27 1550.32 1594.16 1566.28 1546.25 C 1574.76 1520.19 1587.48 1484.79 1593.88 1459.03 C 1620.12 1353.45 1630.54 1233.21 1606.29 1126.29 C 1601.85 1106.71 1597.45 1085.7 1590.08 1066.97 C 1580.98 1043.87 1570.28 1019.92 1557.84 998.451 C 1551.36 987.286 1542.52 976.326 1536.2 965.321 L 1535.78 964.563 z" fill="rgb(1,29,65)" transform="translate(0,0)"></path>
<path d="M 905.395 1804.16 C 933.353 1811.45 961.885 1816.33 990.677 1818.74 C 1005.51 1837.09 1025.4 1868.01 1039.42 1883.44 C 997.477 1894.01 951.284 1899.79 909.492 1887.88 C 889.235 1882.11 863.684 1874.26 844.768 1865.18 C 859.004 1863.97 928.866 1869.38 935.049 1866.33 C 936.86 1863.28 936.834 1863.54 936.696 1860.01 C 930.719 1856.44 907.319 1855.97 899.7 1855.83 C 901.411 1838.64 903.793 1821.13 905.395 1804.16 z" fill="rgb(1,29,65)" transform="translate(0,0)"></path>
<path d="M 1508.23 929.163 C 1515.94 934.473 1526.79 944.103 1534 950.479 C 1538.19 954.113 1543.45 958.383 1547.14 962.388 L 1545.84 963.314 C 1540.32 958.968 1536.45 955.795 1530.37 952.256 L 1529.84 953.058 C 1532.88 958.695 1535.14 959.416 1535.78 964.563 C 1530.18 957.432 1508.9 934.999 1508.23 929.163 z" fill="rgb(1,10,24)" transform="translate(0,0)"></path>
<path d="M 1166.08 809.947 C 1283.16 808.356 1404.6 843.482 1489.3 926.994 C 1498.3 935.863 1511.65 950.16 1518.89 960.741 C 1523.66 966.4 1528.19 973.232 1532.45 979.364 C 1618.83 1107.08 1618.69 1263.67 1591.99 1410.4 C 1577.26 1491.36 1543.41 1566.72 1522.51 1646.07 C 1516.04 1670.22 1505.71 1694.08 1499.74 1718.5 C 1494.43 1737.26 1490.5 1757.14 1485.28 1775.72 C 1465.01 1784.47 1449.89 1790.26 1427.87 1795.42 C 1417.09 1797.95 1403.71 1799.83 1393.64 1802.48 C 1388.04 1773.45 1384.65 1739.87 1381.79 1710.46 C 1338.26 1739.79 1285.09 1762.28 1235.88 1780.15 L 1211.17 1853.51 C 1208.7 1860.77 1203.27 1878.44 1200.31 1884.99 C 1165.89 1896.07 1124.71 1902.34 1088.72 1899.55 C 1084.82 1868.79 1073.88 1838.67 1065.39 1809.02 C 1018.78 1812.6 973.17 1810.09 927.846 1798.79 C 920.105 1796.86 905.61 1794.03 898.843 1791.59 C 874.114 1782.68 847.907 1770.6 824.368 1759.02 C 815.691 1754.75 783.585 1740.04 777.049 1734.74 C 765.415 1728.68 757.574 1720.58 748.784 1711.13 C 760.961 1713.75 775.309 1717.05 787.575 1718.09 L 791.04 1717.48 L 789.978 1712.86 C 773.823 1711.27 738.825 1700.38 723.741 1694.45 C 697.484 1684.88 661.489 1663.68 643.044 1642.06 C 615.238 1609.46 606.766 1561.55 609.82 1519.77 C 612.711 1480.22 633.564 1453.75 663.424 1429.44 C 673.673 1421.1 685.886 1413.8 695.959 1405.14 L 696.978 1404.26 C 692.2 1406.04 687.648 1408.15 682.994 1410.23 C 650.321 1426.65 623.37 1448.29 607.724 1482.25 C 607.222 1484.13 606.478 1485.62 605.705 1487.4 L 604.761 1487.3 C 578.304 1371.74 617.671 1229.74 668.256 1125.77 C 672.649 1116.74 679.917 1106.31 682.736 1097.05 C 681.018 1091.9 680.77 1086.19 679.201 1080.51 C 675.883 1024.37 663.312 929.719 697.412 878.043 C 700.109 873.955 707.506 870.418 712.039 868.097 C 717.915 870.583 720.258 871.269 726.739 870.995 C 734.146 867.253 760.294 861.991 767.165 863.462 C 771.938 862.566 788.974 863.318 795.813 863.098 L 797.938 860.441 L 800.908 865.836 C 803.973 865.832 805.959 865.07 808.884 864.239 C 835.12 866.885 851.724 876.466 874.235 888.593 C 884.226 893.975 889.335 893.823 898.815 901.611 L 902.416 903.627 L 903.381 902.047 C 899.937 897.046 894.875 893.767 889.894 890.53 C 981.871 839.952 1061.91 816.678 1166.08 809.947 z" fill="rgb(232,63,74)" transform="translate(0,0)"></path>
<path d="M 1200.91 871.466 C 1204.18 878.054 1214.44 890.199 1219.36 897.224 C 1232.86 902.275 1237.43 905.528 1249.43 913.778 L 1246.04 916.332 C 1281.52 952.707 1304.8 1009.81 1311.7 1059.46 C 1314.08 1076.63 1319.93 1104.92 1306.95 1118.66 C 1302.84 1123.01 1270.9 1113 1264.64 1111.35 C 1244.61 1105.99 1224.53 1100.83 1204.39 1095.89 C 1182.04 1090.45 1056.54 1065.02 1048.86 1055.48 C 1045.77 1047.87 1041.23 1039.04 1037.8 1031.02 L 1041.38 1020.1 C 1045.15 1011.19 1053.14 996.722 1058.52 988.547 C 1092.44 937.01 1139.23 886.483 1200.91 871.466 z" fill="rgb(8,138,61)" transform="translate(0,0)"></path>
<path d="M 1200.91 871.466 C 1204.18 878.054 1214.44 890.199 1219.36 897.224 C 1232.86 902.275 1237.43 905.528 1249.43 913.778 L 1246.04 916.332 C 1227.87 900.985 1209.79 893.667 1186.47 903.179 C 1125.79 927.94 1072.36 995.984 1048.86 1055.48 C 1045.77 1047.87 1041.23 1039.04 1037.8 1031.02 L 1041.38 1020.1 C 1045.15 1011.19 1053.14 996.722 1058.52 988.547 C 1092.44 937.01 1139.23 886.483 1200.91 871.466 z" fill="rgb(252,223,8)" transform="translate(0,0)"></path>
<path d="M 1204.38 905.101 C 1210.85 904.497 1218.91 904.418 1224.83 907.487 C 1250.39 920.736 1277.25 972.892 1287.64 999.834 C 1297.86 1026.33 1306.3 1074.9 1305.41 1103.7 C 1305.35 1105.74 1302.9 1111.23 1302 1113.25 C 1280.72 1102.24 1221.27 1088.47 1196.42 1082.43 C 1153.83 1074.56 1104.51 1060.93 1062.32 1050.43 C 1067.59 1038.57 1073.47 1026.98 1079.92 1015.72 C 1097.97 984.352 1137.33 938.534 1168.25 919.757 C 1180.36 912.403 1190.86 908.719 1204.38 905.101 z" fill="rgb(1,29,65)" transform="translate(0,0)"></path>
<path d="M 1162.96 1027.43 C 1165.44 1028.42 1165.34 1028.56 1167.27 1030.48 C 1168.18 1033.79 1167.18 1035.18 1165.88 1038.41 C 1162.79 1037.02 1162.66 1037.28 1160.89 1034.5 C 1160.58 1031.12 1161.33 1030.39 1162.96 1027.43 z" fill="rgb(254,254,253)" transform="translate(0,0)"></path>
<path d="M 797.938 860.441 L 800.908 865.836 C 803.973 865.832 805.959 865.07 808.884 864.239 C 835.12 866.885 851.724 876.466 874.235 888.593 C 884.226 893.975 889.335 893.823 898.815 901.611 L 902.416 903.627 L 903.381 902.047 L 905.65 906.733 C 907.498 921.055 906.889 933.727 903.41 947.858 C 902.337 949.928 901.673 951.3 900.386 953.272 C 896.5 963.683 891.029 975.392 890.379 986.302 C 889.991 992.81 890.803 999.671 890.48 1006.06 C 883.318 1010.64 863.399 1024.3 855.974 1025.8 L 853.919 1024.81 C 841.453 1025.36 779.646 1054.87 765.574 1060.51 C 751.14 1066.3 729.161 1076.52 713.669 1082.37 C 708.408 1084.36 693.812 1092.84 689.515 1093.71 C 687.177 1095.75 686.064 1096.66 682.736 1097.05 C 681.018 1091.9 680.77 1086.19 679.201 1080.51 C 675.883 1024.37 663.312 929.719 697.412 878.043 C 700.109 873.955 707.506 870.418 712.039 868.097 C 717.915 870.583 720.258 871.269 726.739 870.995 C 734.146 867.253 760.294 861.991 767.165 863.462 C 771.938 862.566 788.974 863.318 795.813 863.098 L 797.938 860.441 z" fill="rgb(8,138,61)" transform="translate(0,0)"></path>
<path d="M 797.938 860.441 L 800.908 865.836 C 803.973 865.832 805.959 865.07 808.884 864.239 C 835.12 866.885 851.724 876.466 874.235 888.593 C 884.226 893.975 889.335 893.823 898.815 901.611 L 902.416 903.627 L 903.381 902.047 L 905.65 906.733 C 907.498 921.055 906.889 933.727 903.41 947.858 C 902.337 949.928 901.673 951.3 900.386 953.272 C 896.5 963.683 891.029 975.392 890.379 986.302 C 889.991 992.81 890.803 999.671 890.48 1006.06 C 883.318 1010.64 863.399 1024.3 855.974 1025.8 L 853.919 1024.81 C 850.32 978.102 816.955 948.827 784.581 917.776 C 771.442 905.175 742.335 888.415 724.511 884.139 C 717.635 882.49 707.189 881.718 699.844 880.69 C 676.611 936.852 678.986 984.599 682.893 1043.95 C 683.798 1057.7 685.582 1081.07 689.515 1093.71 C 687.177 1095.75 686.064 1096.66 682.736 1097.05 C 681.018 1091.9 680.77 1086.19 679.201 1080.51 C 675.883 1024.37 663.312 929.719 697.412 878.043 C 700.109 873.955 707.506 870.418 712.039 868.097 C 717.915 870.583 720.258 871.269 726.739 870.995 C 734.146 867.253 760.294 861.991 767.165 863.462 C 771.938 862.566 788.974 863.318 795.813 863.098 L 797.938 860.441 z" fill="rgb(252,223,8)" transform="translate(0,0)"></path>
<path d="M 797.938 860.441 L 800.908 865.836 C 803.973 865.832 805.959 865.07 808.884 864.239 C 835.12 866.885 851.724 876.466 874.235 888.593 C 884.226 893.975 889.335 893.823 898.815 901.611 C 896.648 902.346 896.524 902.094 894.86 903.423 C 891.737 900.959 888.564 898.56 885.344 896.226 L 883.69 894.473 L 882.828 894.69 L 883.37 898.613 L 882.016 900.166 C 882.018 918.673 878.977 931.185 871.152 947.771 L 863.921 957.762 C 860.197 953.666 856.556 949.127 851.792 946.478 L 851.249 946.059 L 847.51 942.878 C 844.661 933.641 802.496 900.195 792.915 892.66 C 786.464 887.587 769.289 877.751 763.505 871.774 C 764.116 868.188 765.159 868.286 768.354 865.064 L 767.165 863.462 C 771.938 862.566 788.974 863.318 795.813 863.098 L 797.938 860.441 z" fill="rgb(1,29,65)" transform="translate(0,0)"></path>
<path d="M 808.884 864.239 C 835.12 866.885 851.724 876.466 874.235 888.593 C 884.226 893.975 889.335 893.823 898.815 901.611 C 896.648 902.346 896.524 902.094 894.86 903.423 C 891.737 900.959 888.564 898.56 885.344 896.226 L 883.69 894.473 L 882.828 894.69 L 883.37 898.613 L 882.016 900.166 C 873.229 899.526 857.163 906.314 851.514 899.958 C 852.156 896.51 855.453 894.121 858.143 891.57 C 856.53 887.728 854.967 884.599 853.091 880.873 C 839.259 872.452 825.012 870.19 809.726 866.315 L 808.884 864.239 z" fill="rgb(241,111,17)" transform="translate(0,0)"></path>
<path d="M 797.938 860.441 L 800.908 865.836 C 800.009 866.83 799.239 867.853 798.446 868.93 C 790.219 872.115 779.792 868.555 771.517 866.688 C 769.56 864.76 770.663 865.082 768.354 865.064 L 767.165 863.462 C 771.938 862.566 788.974 863.318 795.813 863.098 L 797.938 860.441 z" fill="rgb(3,38,69)" transform="translate(0,0)"></path>
<path d="M 789.23 874.513 C 792.649 874.232 798.068 873.697 801.001 875.218 L 800.864 876.598 L 798.023 878.765 C 793.608 879.688 789.254 880.898 785.721 877.5 C 786.869 874.952 786.069 876.132 789.23 874.513 z" fill="rgb(254,254,253)" transform="translate(0,0)"></path>
<path d="M 825.55 898.437 C 830.08 897.696 829.86 897.67 834.33 898.649 C 830.874 900 829.955 900.667 826.24 900.169 L 825.55 898.437 z" fill="rgb(115,22,15)" transform="translate(0,0)"></path>
<path d="M 882.016 900.166 L 883.37 898.613 L 882.828 894.69 L 883.69 894.473 L 885.344 896.226 C 888.564 898.56 891.737 900.959 894.86 903.423 L 895 904.084 L 897.378 906.839 C 902.377 916.225 901.485 921.083 901.009 931.729 C 897.713 951.491 892.243 968.557 881.438 985.54 C 882.684 975.316 882.463 976.261 875.498 968.849 C 872.24 964.729 869.119 962 865.317 958.422 L 863.921 957.762 L 871.152 947.771 C 878.977 931.185 882.018 918.673 882.016 900.166 z" fill="rgb(1,10,24)" transform="translate(0,0)"></path>
<path d="M 882.016 900.166 L 883.37 898.613 L 882.828 894.69 L 883.69 894.473 L 885.344 896.226 L 888.521 901.224 C 891.079 909.411 889.5 914.058 891.15 922.012 L 890.756 923.641 C 887.653 942.319 885.892 946.177 878.704 963.251 C 873.136 959.435 871.801 954.634 865.317 958.422 L 863.921 957.762 L 871.152 947.771 C 878.977 931.185 882.018 918.673 882.016 900.166 z" fill="rgb(112,123,18)" transform="translate(0,0)"></path>
<path d="M 882.016 900.166 L 883.37 898.613 L 882.828 894.69 L 883.69 894.473 L 885.344 896.226 L 888.521 901.224 C 887.75 901.852 886.98 902.48 886.209 903.108 C 882.147 917.624 881.937 934.024 874.753 947.354 C 874.668 947.511 871.814 947.768 871.152 947.771 C 878.977 931.185 882.018 918.673 882.016 900.166 z" fill="rgb(170,160,14)" transform="translate(0,0)"></path>
<path d="M 891.15 922.012 C 894.592 931.936 891.576 959.672 885.203 967.897 L 883.668 968.12 L 881.038 965.787 L 880.515 963.909 L 878.704 963.251 C 885.892 946.177 887.653 942.319 890.756 923.641 L 891.15 922.012 z" fill="rgb(125,184,75)" transform="translate(0,0)"></path>
<path d="M 890.756 923.641 C 891.554 935.745 886.508 955.366 881.038 965.787 L 880.515 963.909 L 878.704 963.251 C 885.892 946.177 887.653 942.319 890.756 923.641 z" fill="rgb(1,10,24)" transform="translate(0,0)"></path>
<path d="M 895 904.084 L 897.378 906.839 C 896.598 916.58 897.941 919.414 895.829 930.776 C 893.515 920.496 890.522 912.989 895 904.084 z" fill="rgb(115,22,15)" transform="translate(0,0)"></path>
<path d="M 726.739 870.995 C 734.146 867.253 760.294 861.991 767.165 863.462 L 768.354 865.064 C 765.159 868.286 764.116 868.188 763.505 871.774 C 769.289 877.751 786.464 887.587 792.915 892.66 C 802.496 900.195 844.661 933.641 847.51 942.878 L 851.249 946.059 C 845.164 945.747 840.394 944.312 834.508 942.82 C 827.712 936.543 822.38 930.276 816.302 923.351 C 785.397 895.183 768.793 881.972 726.739 870.995 z" fill="rgb(8,138,61)" transform="translate(0,0)"></path>
<path d="M 816.302 923.351 C 820.384 925.048 843.068 939.704 847.51 942.878 L 851.249 946.059 C 845.164 945.747 840.394 944.312 834.508 942.82 C 827.712 936.543 822.38 930.276 816.302 923.351 z" fill="rgb(1,10,24)" transform="translate(0,0)"></path>
<path d="M 834.508 942.82 C 840.394 944.312 845.164 945.747 851.249 946.059 L 851.792 946.478 C 856.556 949.127 860.197 953.666 863.921 957.762 L 865.317 958.422 C 869.119 962 872.24 964.729 875.498 968.849 C 882.463 976.261 882.684 975.316 881.438 985.54 C 881.273 989.799 881.353 992.12 880.325 996.211 L 879.022 997.15 L 877.034 996.118 C 872.914 990.643 867.395 984.714 862.886 978.95 C 856.577 971.186 850.392 963.322 844.334 955.361 C 842.177 953.68 836.37 945.433 834.508 942.82 z" fill="rgb(225,40,26)" transform="translate(0,0)"></path>
<path d="M 875.498 968.849 C 882.463 976.261 882.684 975.316 881.438 985.54 C 881.273 989.799 881.353 992.12 880.325 996.211 L 879.022 997.15 L 877.034 996.118 C 880.98 988.278 874.733 982.157 875.498 968.849 z" fill="rgb(161,77,31)" transform="translate(0,0)"></path>
<path d="M 844.334 955.361 C 851.272 957.865 853.012 961.346 857.664 967.125 C 859.588 970.556 862.814 975.273 862.886 978.95 C 856.577 971.186 850.392 963.322 844.334 955.361 z" fill="rgb(161,77,31)" transform="translate(0,0)"></path>
<path d="M 903.381 902.047 L 905.65 906.733 C 907.498 921.055 906.889 933.727 903.41 947.858 C 902.337 949.928 901.673 951.3 900.386 953.272 C 901.515 946.367 903.695 939.756 903.817 932.837 C 905.057 923.116 906.394 912.816 902.416 903.627 L 903.381 902.047 z" fill="rgb(112,123,18)" transform="translate(0,0)"></path>
<path d="M 705.747 890.672 C 707.19 890.903 708.631 891.151 710.068 891.417 C 761.667 901.019 802.634 944.139 832.852 985.076 C 837.869 991.873 844.293 1002.72 842.606 1011.33 C 838.177 1018.3 799.661 1032.71 788.339 1038.28 C 761.991 1049.87 723.228 1068.29 697.41 1077.71 C 694.433 1061.55 693.414 1043.51 692.155 1027.08 C 688.641 981.269 688.734 934.209 705.747 890.672 z" fill="rgb(3,38,69)" transform="translate(0,0)"></path>
<path d="M 718.868 1014.39 L 720.75 1015.68 C 723.77 1021.69 720.508 1031.01 714.837 1034.77 C 712.899 1033.27 713.726 1034.2 712.426 1031.94 C 713.402 1025.23 715.94 1020.51 718.868 1014.39 z" fill="rgb(254,254,253)" transform="translate(0,0)"></path>
<path d="M 1166.08 809.947 C 1283.16 808.356 1404.6 843.482 1489.3 926.994 C 1498.3 935.863 1511.65 950.16 1518.89 960.741 C 1511.31 959.909 1510.39 957.71 1505.09 952.157 L 1502.76 954.111 C 1493.24 944.303 1479.32 934.322 1471.16 924.016 C 1469.97 926.356 1467.92 930.658 1466.57 932.676 C 1459.61 923.352 1452.01 916.24 1443.58 908.379 C 1425.53 892.46 1393.35 876.345 1368.81 877.197 C 1349.26 870.449 1311.74 848.05 1290.15 853.513 C 1285.4 854.715 1282.51 862.605 1280.68 867.169 C 1289.5 885.811 1300.19 872.5 1300.4 901.329 C 1302.87 911.019 1307.1 921.335 1310.67 930.767 C 1300.6 919.963 1295.37 907.854 1282.71 895.74 L 1278.96 897.6 C 1256.5 876.443 1231.25 867.976 1200.91 871.466 C 1139.23 886.483 1092.44 937.01 1058.52 988.547 C 1053.14 996.722 1045.15 1011.19 1041.38 1020.1 C 1041.29 1002.81 1070.15 962.547 1081.31 948.185 C 1029.35 936.561 977.532 936.32 924.765 942.638 C 916.416 943.638 911.039 943.819 903.41 947.858 C 906.889 933.727 907.498 921.055 905.65 906.733 L 903.381 902.047 C 899.937 897.046 894.875 893.767 889.894 890.53 C 981.871 839.952 1061.91 816.678 1166.08 809.947 z" fill="rgb(252,223,8)" transform="translate(0,0)"></path>
<path d="M 1166.08 809.947 C 1283.16 808.356 1404.6 843.482 1489.3 926.994 C 1498.3 935.863 1511.65 950.16 1518.89 960.741 C 1511.31 959.909 1510.39 957.71 1505.09 952.157 L 1502.76 954.111 C 1493.24 944.303 1479.32 934.322 1471.16 924.016 C 1469.97 926.356 1467.92 930.658 1466.57 932.676 C 1459.61 923.352 1452.01 916.24 1443.58 908.379 C 1425.53 892.46 1393.35 876.345 1368.81 877.197 C 1349.26 870.449 1311.74 848.05 1290.15 853.513 C 1285.4 854.715 1282.51 862.605 1280.68 867.169 C 1275.73 865.749 1270.2 865.341 1265.1 864.423 C 1215.72 855.534 1163.03 858.735 1112.87 859.215 L 1112.55 850.34 C 1126.22 842.861 1161.99 830.846 1171.49 823.96 L 1171.61 822.326 C 1169.58 819.7 1167.03 819.062 1163.9 817.738 C 1137.84 809.986 1079.59 848.336 1055.87 858.714 C 1030.02 855.414 958.94 885.619 933.806 895.824 C 927.241 898.489 912.222 905.01 905.65 906.733 L 903.381 902.047 C 899.937 897.046 894.875 893.767 889.894 890.53 C 981.871 839.952 1061.91 816.678 1166.08 809.947 z" fill="rgb(246,232,33)" transform="translate(0,0)"></path>
<path d="M 1471.16 924.016 C 1478.77 926.587 1496.93 946.205 1505.09 952.157 L 1502.76 954.111 C 1493.24 944.303 1479.32 934.322 1471.16 924.016 z" fill="rgb(244,180,10)" transform="translate(0,0)"></path>
<path d="M 1055.87 858.714 C 1079.59 848.336 1137.84 809.986 1163.9 817.738 C 1167.03 819.062 1169.58 819.7 1171.61 822.326 L 1171.49 823.96 C 1161.99 830.846 1126.22 842.861 1112.55 850.34 L 1112.87 859.215 C 1106.76 859.259 1103.82 859.156 1097.69 858.493 C 1079.13 868.836 1061.06 880.873 1043.11 892.246 C 1033.17 898.547 1023.35 905.521 1012.88 910.862 C 1005.76 909.301 997.722 907.733 990.83 905.651 C 1009.24 887.413 1033.64 872.173 1055.87 858.714 z" fill="rgb(1,10,24)" transform="translate(0,0)"></path>
<path d="M 1097.69 858.493 C 1101.76 855.778 1108.08 852.694 1112.55 850.34 L 1112.87 859.215 C 1106.76 859.259 1103.82 859.156 1097.69 858.493 z" fill="rgb(226,238,128)" transform="translate(0,0)"></path>
<path d="M 1081.31 948.185 C 1084.95 943.541 1088.7 938.976 1092.54 934.492 C 1119.91 902.538 1168.21 868.457 1211.41 866.073 C 1241.9 864.39 1260.9 876.631 1282.71 895.74 L 1278.96 897.6 C 1256.5 876.443 1231.25 867.976 1200.91 871.466 C 1139.23 886.483 1092.44 937.01 1058.52 988.547 C 1053.14 996.722 1045.15 1011.19 1041.38 1020.1 C 1041.29 1002.81 1070.15 962.547 1081.31 948.185 z" fill="url(#Gradient1)" transform="translate(0,0)"></path>
<path d="M 813.273 1465.96 C 853.357 1463.74 897.206 1452.16 930.924 1429.81 C 957.905 1459.19 973.116 1484.34 983.284 1522.77 C 1000.53 1587.94 987.345 1660.41 936.483 1707.03 C 932.091 1711.06 927.181 1714.85 921.805 1717.58 L 892.322 1717.54 C 889.266 1717.86 890.486 1717.87 887.359 1716.64 C 879.931 1713.63 830.118 1717.92 815.542 1716.79 C 809.296 1715.93 807.551 1716.85 803.544 1713.31 C 832.51 1700.89 852.81 1670.92 856.195 1640 C 861.808 1588.72 848.849 1504.08 813.273 1465.96 z" fill="rgb(1,29,65)" transform="translate(0,0)"></path>
<path d="M 887.359 1716.64 C 895.439 1706.95 901.174 1695.59 910.028 1687.41 C 906.481 1697.38 899.511 1709.79 892.322 1717.54 C 889.266 1717.86 890.486 1717.87 887.359 1716.64 z" fill="rgb(254,254,253)" transform="translate(0,0)"></path>
<path d="M 892.088 1647.39 C 893.382 1648.22 895.153 1648.94 895.323 1650.08 C 896.609 1658.66 881.876 1684.19 877.847 1691.54 C 874.824 1689.2 875.775 1690.62 874.498 1687.4 C 882.226 1675.64 888.193 1660.86 892.088 1647.39 z" fill="rgb(254,254,253)" transform="translate(0,0)"></path>
<path d="M 855.675 1494.44 C 860.074 1498.69 864.925 1513.56 865.772 1520 C 866.156 1522.92 865.528 1522.64 863.626 1524.92 C 858.627 1518.37 852.485 1502.52 855.675 1494.44 z" fill="rgb(254,254,253)" transform="translate(0,0)"></path>
<path d="M 928.941 1513.58 C 932.226 1516.08 933.632 1526.47 932.033 1530.41 C 927.384 1524.89 925.179 1520.28 928.941 1513.58 z" fill="rgb(254,254,253)" transform="translate(0,0)"></path>
<path d="M 848.607 1691.57 C 850.333 1692.76 849.942 1692.67 851.235 1694.51 C 850.936 1699 850.617 1698.11 847.848 1702.46 L 846.778 1702.56 L 845.597 1701.07 C 845.77 1696.88 846.783 1695.49 848.607 1691.57 z" fill="rgb(254,254,253)" transform="translate(0,0)"></path>
<path d="M 1280.68 867.169 C 1282.51 862.605 1285.4 854.715 1290.15 853.513 C 1311.74 848.05 1349.26 870.449 1368.81 877.197 C 1393.35 876.345 1425.53 892.46 1443.58 908.379 C 1452.01 916.24 1459.61 923.352 1466.57 932.676 C 1467.29 934.56 1468.44 937.017 1468.59 938.899 C 1470.98 950.188 1470.4 962.936 1460.04 969.586 C 1436.46 984.73 1415.04 957.095 1397.55 944.929 C 1391.56 940.764 1347.92 911.662 1345.74 912.618 C 1328.81 920.034 1313.54 911.902 1300.4 901.329 C 1300.19 872.5 1289.5 885.811 1280.68 867.169 z" fill="rgb(254,254,253)" transform="translate(0,0)"></path>
<path d="M 768.616 1358.9 C 772.472 1364.02 775.335 1367.46 779.629 1372.23 C 763.177 1384.13 736.933 1399.46 718.744 1408.17 C 669.914 1431.54 628.362 1455.42 618.939 1513.52 C 613.316 1548.19 622.531 1604.97 645.059 1633.33 C 660.458 1652.72 681.569 1667.66 702.614 1680.7 C 706.959 1683.39 721.267 1691.55 723.741 1694.45 C 697.484 1684.88 661.489 1663.68 643.044 1642.06 C 615.238 1609.46 606.766 1561.55 609.82 1519.77 C 612.711 1480.22 633.564 1453.75 663.424 1429.44 C 673.673 1421.1 685.886 1413.8 695.959 1405.14 L 696.978 1404.26 C 692.2 1406.04 687.648 1408.15 682.994 1410.23 C 650.321 1426.65 623.37 1448.29 607.724 1482.25 C 606.399 1478.21 605.955 1477.53 607.977 1473.22 C 622.544 1442.17 650.318 1420.31 681.263 1408.07 C 700.885 1398.96 716.57 1388.81 734.998 1377.75 C 745.839 1371.24 757.534 1365.19 768.616 1358.9 z" fill="rgb(252,223,8)" transform="translate(0,0)"></path>
<path d="M 1200.91 871.466 C 1231.25 867.976 1256.5 876.443 1278.96 897.6 L 1282.71 895.74 C 1295.37 907.854 1300.6 919.963 1310.67 930.767 C 1315.08 937.631 1322.75 949.088 1325.62 956.3 L 1325.04 957.664 C 1322.91 954.898 1320.7 950.622 1318.6 948.502 L 1317.62 949.807 C 1319.22 956.176 1323.13 960.552 1321.47 966.194 C 1323.4 978.713 1326.9 986.911 1327.73 1000.2 C 1310.18 972.408 1275.5 933.485 1249.43 913.778 C 1237.43 905.528 1232.86 902.275 1219.36 897.224 C 1214.44 890.199 1204.18 878.054 1200.91 871.466 z" fill="rgb(246,232,33)" transform="translate(0,0)"></path>
<path d="M 1282.71 895.74 C 1295.37 907.854 1300.6 919.963 1310.67 930.767 C 1315.08 937.631 1322.75 949.088 1325.62 956.3 L 1325.04 957.664 C 1322.91 954.898 1320.7 950.622 1318.6 948.502 L 1317.62 949.807 C 1319.22 956.176 1323.13 960.552 1321.47 966.194 C 1311.53 933.167 1299.96 921.988 1278.96 897.6 L 1282.71 895.74 z" fill="rgb(55,218,57)" transform="translate(0,0)"></path>
<path d="M 1321.47 966.194 C 1323.13 960.552 1319.22 956.176 1317.62 949.807 L 1318.6 948.502 C 1320.7 950.622 1322.91 954.898 1325.04 957.664 L 1325.62 956.3 C 1344.5 985.702 1368.75 1093.52 1363.41 1130.62 C 1362.8 1134.84 1358.38 1145.83 1354.15 1148.21 C 1352.36 1149.21 1352.2 1149.2 1350.26 1149.56 C 1348.7 1148.9 1346.91 1148.57 1346.59 1146.59 C 1338.64 1097.02 1339.86 1049.65 1327.73 1000.2 C 1326.9 986.911 1323.4 978.713 1321.47 966.194 z" fill="rgb(125,184,75)" transform="translate(0,0)"></path>
<path d="M 779.161 1728.36 C 785.813 1723.98 786.348 1724.46 793.702 1727.76 L 802.477 1731.09 C 854.001 1745.57 899.328 1753.73 952.017 1760.1 C 964.74 1761.64 1018.16 1766.43 1027.12 1769.17 C 1000.1 1776.46 823.689 1747.13 794.82 1733.65 C 791.631 1733.38 782.553 1729.69 779.161 1728.36 z" fill="rgb(254,254,253)" transform="translate(0,0)"></path>
<path d="M 1471.16 924.016 C 1479.32 934.322 1493.24 944.303 1502.76 954.111 C 1506.76 958.286 1524.29 978.151 1527.43 980.134 C 1530.87 982.378 1530.65 981.528 1532.27 984.704 C 1522.69 985.205 1477.24 943.065 1468.59 938.899 C 1468.44 937.017 1467.29 934.56 1466.57 932.676 C 1467.92 930.658 1469.97 926.356 1471.16 924.016 z" fill="rgb(230,171,144)" transform="translate(0,0)"></path>
<path d="M 748.784 1711.13 C 760.961 1713.75 775.309 1717.05 787.575 1718.09 C 789.767 1721.19 792.203 1724.3 793.702 1727.76 C 786.348 1724.46 785.813 1723.98 779.161 1728.36 C 778.666 1729.97 777.739 1733.39 777.049 1734.74 C 765.415 1728.68 757.574 1720.58 748.784 1711.13 z" fill="rgb(252,223,8)" transform="translate(0,0)"></path>
<path d="M 789.978 1712.86 C 794.14 1713.17 799.52 1713.8 803.544 1713.31 C 807.551 1716.85 809.296 1715.93 815.542 1716.79 C 807.371 1716.83 799.201 1717.07 791.04 1717.48 L 789.978 1712.86 z" fill="rgb(3,72,62)" transform="translate(0,0)"></path>
<path d="M 1497.45 992.101 C 1503.72 991.745 1509.78 991.783 1515.63 994.384 C 1534.62 1002.83 1545.31 1035.91 1551.79 1054.15 C 1561.75 1082.21 1587.3 1165.71 1574.3 1191.03 C 1570.94 1197.57 1565.54 1200.83 1558.7 1202.97 C 1544.49 1203.46 1536.2 1198.35 1531.69 1184.91 C 1522.49 1157.45 1519.02 1127.96 1510.24 1100.12 C 1503.67 1076.52 1491.37 1055.68 1481.97 1033.33 C 1473.87 1014.06 1477.3 999.313 1497.45 992.101 z" fill="rgb(254,254,253)" transform="translate(0,0)"></path>
<path d="M 952.69 1235.32 C 976.445 1236.93 984.76 1252.73 988.403 1274.26 C 992.668 1299.68 986.729 1325.77 971.874 1346.84 C 963.073 1359.18 952.911 1367.59 937.595 1370.2 C 880.524 1370.23 894.982 1285.45 918.716 1256.45 C 928.737 1244.2 936.518 1237.55 952.69 1235.32 z" fill="rgb(1,29,65)" transform="translate(0,0)"></path>
<path d="M 937.001 1259.23 L 937.918 1259.09 C 938.364 1262.26 938.784 1261.92 941.154 1264.01 C 939.006 1269.27 931.719 1276.13 929.792 1280.62 C 925.44 1290.75 922.476 1303.02 917.649 1312.99 C 917.018 1314.3 913.439 1315.84 911.821 1316.72 C 904.578 1301.34 917.748 1273.9 928.566 1262.2 C 933.646 1256.7 931.286 1262.41 937.001 1259.23 z" fill="rgb(254,254,253)" transform="translate(0,0)"></path>
<path d="M 940.627 1311.45 L 943.355 1312.34 C 947.438 1317.61 944.662 1321.85 940.915 1326.44 C 936.435 1324.02 935.656 1323.72 935.048 1318.54 C 936.423 1314.51 937.159 1314.29 940.627 1311.45 z" fill="rgb(254,254,253)" transform="translate(0,0)"></path>
<path d="M 721.742 1213.36 C 735.475 1214.53 744.052 1223.23 748.479 1235.92 C 760.396 1270.08 755.19 1313.8 717.716 1328.33 C 668.508 1338.56 685.518 1220.96 721.742 1213.36 z" fill="rgb(1,29,65)" transform="translate(0,0)"></path>
<path d="M 715.536 1235.81 C 717.636 1236.88 722.238 1239.25 720.959 1242.41 C 715.584 1255.66 710.3 1269.66 708.905 1283.98 C 708.484 1288.29 709.5 1287.69 705.262 1289.68 C 704.034 1288.89 701.918 1287.57 701.005 1286.44 C 691.698 1274.89 706.944 1243.43 715.536 1235.81 z" fill="rgb(254,254,253)" transform="translate(0,0)"></path>
<path d="M 723.717 1304.49 C 726.495 1306.29 726.409 1306.07 727.757 1309.07 C 727.595 1312.69 725.716 1314.31 723.43 1317.23 C 718.887 1315.69 719.553 1316.73 717.963 1313.56 C 718.502 1309.85 721.219 1307.41 723.717 1304.49 z" fill="rgb(254,254,253)" transform="translate(0,0)"></path>
<path d="M 727.138 1262.63 C 730.003 1263.9 729.907 1264.29 730.253 1266.94 C 729.012 1270.73 727.223 1272.23 724.542 1275.33 C 722.476 1273.23 722.773 1272.95 722.227 1269.94 C 723.232 1266.04 724.131 1265.61 727.138 1262.63 z" fill="rgb(254,254,253)" transform="translate(0,0)"></path>
<path d="M 776.087 1517.85 C 807.679 1518.14 833.441 1611.37 806.301 1627.68 C 784.438 1627.63 771.393 1588 767.829 1570.49 C 764.225 1552.8 760.007 1530.48 776.087 1517.85 z" fill="rgb(1,29,65)" transform="translate(0,0)"></path>
<path d="M 658.198 1495.68 C 682.758 1495.98 696.518 1563.52 692.695 1583.01 C 691.631 1588.43 690.261 1590.96 686.557 1594.87 C 660.037 1602.04 639.138 1516.19 658.198 1495.68 z" fill="rgb(1,29,65)" transform="translate(0,0)"></path>
<path d="M 1561.47 1260.34 C 1596.09 1264.06 1600.72 1315.19 1561.53 1322.46 C 1556.39 1321.36 1552.64 1320.62 1548.19 1317.64 C 1540.82 1312.76 1535.69 1305.15 1533.94 1296.49 C 1532.22 1288.03 1534.15 1279.23 1539.25 1272.26 C 1545.32 1264.07 1551.88 1261.56 1561.47 1260.34 z" fill="rgb(254,254,253)" transform="translate(0,0)"></path>
<path d="M 1162.13 1439.38 C 1173.04 1437.79 1183.14 1445.41 1184.64 1456.33 C 1186.13 1467.25 1178.43 1477.29 1167.5 1478.69 C 1156.69 1480.07 1146.8 1472.49 1145.32 1461.7 C 1143.85 1450.91 1151.35 1440.95 1162.13 1439.38 z" fill="rgb(254,254,253)" transform="translate(0,0)"></path>
<path d="M 1152.56 1255.78 C 1162.85 1252.43 1173.91 1258.1 1177.18 1268.42 C 1180.46 1278.74 1174.71 1289.75 1164.37 1292.95 C 1154.13 1296.12 1143.25 1290.44 1140.01 1280.23 C 1136.76 1270.01 1142.37 1259.1 1152.56 1255.78 z" fill="rgb(254,254,253)" transform="translate(0,0)"></path>
<path d="M 1404.62 984.24 C 1413.6 982.882 1421.98 989.07 1423.33 998.053 C 1424.67 1007.04 1418.47 1015.41 1409.49 1016.74 C 1400.52 1018.07 1392.17 1011.89 1390.82 1002.92 C 1389.48 993.955 1395.65 985.595 1404.62 984.24 z" fill="rgb(254,254,253)" transform="translate(0,0)"></path>
<path d="M 1115.03 1124.94 C 1123.5 1126.09 1145.39 1136.18 1154.73 1140 C 1176.6 1148.88 1198.39 1157.95 1220.09 1167.22 C 1238.94 1175.23 1258.55 1182.91 1277.29 1191.23 C 1280.94 1192.84 1281.08 1193.49 1282.62 1196.51 C 1269.47 1195.39 1136.55 1136.55 1116.62 1128.87 C 1115.05 1128.27 1115.38 1127.09 1115.03 1124.94 z" fill="rgb(254,254,253)" transform="translate(0,0)"></path>
<path d="M 1480.2 1530.6 L 1482.38 1531.71 L 1482.54 1533.66 C 1472.07 1551.23 1418.04 1598.53 1398.49 1611.85 L 1396.56 1611.99 L 1396.46 1610.84 C 1410.22 1594.66 1430.2 1578.08 1445.86 1563.28 C 1456.46 1553.27 1469.33 1539.46 1480.2 1530.6 z" fill="rgb(254,254,253)" transform="translate(0,0)"></path>
<path d="M 1525.58 1533.81 C 1526.77 1534.99 1526.25 1534.32 1526.48 1536.59 C 1517.26 1553.57 1471.51 1610.32 1455.61 1620.77 C 1454.17 1618.78 1454.71 1619.86 1454.43 1617.32 C 1459.47 1607.32 1487.61 1577.76 1496.2 1567.66 C 1504.31 1558.13 1517.28 1542.56 1525.58 1533.81 z" fill="rgb(254,254,253)" transform="translate(0,0)"></path>
<path d="M 1274.2 1679.29 L 1275.71 1680.61 L 1275.66 1682.81 C 1274.93 1683.48 1274.2 1684.16 1273.46 1684.83 C 1241.94 1691.93 1189.61 1704.83 1159.22 1708.85 L 1157.69 1708.65 L 1157.71 1707.94 C 1198.76 1693.87 1233.54 1689.04 1274.2 1679.29 z" fill="rgb(254,254,253)" transform="translate(0,0)"></path>
<path d="M 715.418 1431.8 C 718.043 1431.94 732.878 1435 735.548 1435.97 C 748.145 1440.57 792.809 1444.71 797.513 1457.18 C 790.542 1456.12 716.077 1437.04 714.925 1435.56 L 715.418 1431.8 z" fill="rgb(254,254,253)" transform="translate(0,0)"></path>
<path d="M 1392.45 1161.73 C 1393.93 1163.19 1393.36 1162.31 1393.62 1164.75 C 1387.98 1177.76 1344.95 1210.47 1331.62 1221.23 C 1330.53 1219.2 1330.8 1220 1330.58 1217.71 C 1335.79 1209.49 1360.21 1190.98 1368.68 1183.67 C 1377.34 1176.19 1384.09 1170.04 1392.45 1161.73 z" fill="rgb(254,254,253)" transform="translate(0,0)"></path>
<path d="M 1009.2 1668.16 C 1024.49 1668.5 1066.29 1676.65 1082.54 1680.11 C 1084.93 1680.62 1084.87 1682.22 1085.53 1684.27 C 1077.04 1685.39 1023.67 1675.33 1012.65 1672.52 C 1010.03 1671.85 1010.14 1670.47 1009.2 1668.16 z" fill="rgb(254,254,253)" transform="translate(0,0)"></path>
<path d="M 838.025 1054.94 L 839.561 1056.27 L 838.817 1057.67 C 822.483 1067.16 778.424 1093.84 762.267 1098.15 L 760.613 1096.5 C 762.593 1092.91 829.344 1058.37 838.025 1054.94 z" fill="rgb(254,254,253)" transform="translate(0,0)"></path>
<path d="M 699.56 1631.97 C 707.271 1632.71 751.687 1645.32 755.608 1650 L 755.189 1653.97 C 750.432 1653.42 710.919 1640.19 704.046 1637.56 C 700.765 1636.3 700.422 1634.63 699.56 1631.97 z" fill="rgb(254,254,253)" transform="translate(0,0)"></path>
<path d="M 1500.35 1661.61 C 1501.29 1662.29 1502.39 1662.73 1502.33 1663.63 C 1501.4 1676.93 1487.2 1725.31 1481.9 1734.6 C 1479.69 1733.55 1480.58 1734.3 1479.19 1732.41 C 1480.21 1727.72 1482.17 1720.84 1483.92 1716.37 C 1490.71 1699.04 1494.08 1678.77 1500.35 1661.61 z" fill="rgb(254,254,253)" transform="translate(0,0)"></path>
<path d="M 1042.03 1627.78 C 1047.51 1628.58 1082.41 1638.2 1085.81 1641.59 L 1085.48 1645.03 C 1075.41 1643.5 1049.45 1637.37 1042.15 1630.89 L 1042.03 1627.78 z" fill="rgb(254,254,253)" transform="translate(0,0)"></path>
<path d="M 1284.16 1364.42 C 1286.71 1363.45 1289.58 1364.64 1290.7 1367.13 C 1291.82 1369.62 1290.8 1372.55 1288.38 1373.81 C 1286.69 1374.69 1284.64 1374.56 1283.07 1373.47 C 1281.5 1372.39 1280.66 1370.52 1280.89 1368.62 C 1281.11 1366.72 1282.38 1365.11 1284.16 1364.42 z" fill="rgb(254,254,253)" transform="translate(0,0)"></path>
<path d="M 1394.74 1292.28 C 1397.07 1291.91 1399.26 1293.47 1399.67 1295.78 C 1400.09 1298.09 1398.59 1300.32 1396.28 1300.79 C 1394.75 1301.1 1393.16 1300.56 1392.14 1299.37 C 1391.12 1298.18 1390.82 1296.53 1391.36 1295.06 C 1391.9 1293.59 1393.19 1292.52 1394.74 1292.28 z" fill="rgb(254,254,253)" transform="translate(0,0)"></path>
<path d="M 793.978 1759.03 C 802.632 1761.85 824.098 1772.36 833.175 1776.52 C 853.603 1786.12 874.405 1794.9 895.531 1802.85 C 891.931 1818.83 891.006 1835.89 889.776 1852.24 L 889.489 1854.17 C 884.661 1856.12 840.862 1852.34 832.17 1851.85 C 821.724 1823.86 807.232 1786.27 793.978 1759.03 z" fill="rgb(1,29,65)" transform="translate(0,0)"></path>
<path d="M 1008.64 1820.19 C 1024.97 1820.41 1041.82 1820.1 1058.18 1819.99 C 1066.86 1847.38 1071.76 1866.25 1076.88 1894.74 C 1056.25 1889.2 1042.5 1866.47 1030.24 1850.34 C 1023.18 1841.06 1014.91 1829.92 1008.64 1820.19 z" fill="rgb(1,29,65)" transform="translate(0,0)"></path>
<path d="M 1371.09 1730.9 L 1372.65 1731.25 C 1375.97 1753.7 1378.59 1776.95 1382 1799.86 C 1368.92 1796.75 1364.12 1795.11 1353.49 1787.31 C 1341.22 1777.05 1336.3 1768.49 1328.51 1754.7 C 1342.2 1746.55 1357.09 1738.55 1371.09 1730.9 z" fill="rgb(1,29,65)" transform="translate(0,0)"></path>
<path d="M 712.039 868.097 C 731.479 854.605 768.158 855.946 790.958 858.445 L 797.938 860.441 L 795.813 863.098 C 788.974 863.318 771.938 862.566 767.165 863.462 C 760.294 861.991 734.146 867.253 726.739 870.995 C 720.258 871.269 717.915 870.583 712.039 868.097 z" fill="rgb(254,254,253)" transform="translate(0,0)"></path>
<path d="M 1131.56 0 L 1933.8 0 L 1940.01 0 L 1966.86 0 L 1972.17 0 L 2048 0 L 2048 300.708 C 2014.45 311.562 1981.43 323.405 1948.17 335.053 C 1905.23 350.093 1861.86 364.039 1819.05 379.493 C 1801.17 385.906 1783.61 393.408 1765.73 399.928 C 1721.16 415.79 1676.49 431.356 1631.72 446.627 C 1617.98 451.314 1583.78 464.813 1571.84 464.854 C 1567.63 462.756 1561.47 460.661 1556.94 458.878 C 1537.54 451.241 1521.74 438.846 1504.34 427.487 C 1492.57 419.945 1480.46 412.957 1468.04 406.548 C 1393.37 367.451 1304.6 325.137 1245.46 263.149 C 1221.95 238.518 1207.91 213.132 1189.83 185.526 C 1156.93 118.75 1144.38 72.0054 1131.56 0 z" fill="rgb(252,223,8)" transform="translate(0,0)"></path>
<path d="M 1933.8 0 L 1940.01 0 C 1940.3 15.0005 1937.19 112.634 1933.84 122.034 L 1932.7 122.421 C 1928.88 109.653 1933.18 20.0485 1933.8 0 z" fill="rgb(254,254,253)" transform="translate(0,0)"></path>
<path d="M 1966.86 0 L 1972.17 0 C 1972.15 15.1221 1971.16 104.869 1966.8 110.389 C 1961.64 102.774 1964.45 74.6015 1964.76 64.3102 C 1965.27 42.8676 1965.97 21.43 1966.86 0 z" fill="rgb(254,254,253)" transform="translate(0,0)"></path>
<path d="M 1612.55 263.571 C 1619.23 261.386 1626.57 263.044 1631.67 267.888 C 1636.76 272.732 1638.78 279.981 1636.93 286.762 C 1635.08 293.544 1629.66 298.763 1622.82 300.353 C 1612.85 302.667 1602.83 296.726 1600.08 286.874 C 1597.33 277.022 1602.83 266.751 1612.55 263.571 z" fill="rgb(254,254,253)" transform="translate(0,0)"></path>
<path d="M 1203.39 60.2925 C 1205.17 60.6876 1207.66 60.6507 1208.16 62.4808 C 1213.49 81.937 1258.26 171.058 1256.93 182.689 C 1254.67 182.216 1252.98 182.397 1252.21 180.996 C 1245.08 167.527 1237.32 149.111 1231.76 135.118 C 1226.85 122.737 1201.47 71.4317 1203.39 60.2925 z" fill="rgb(254,254,253)" transform="translate(0,0)"></path>
<path d="M 1357.52 285.897 C 1365.25 287.678 1399.57 306.548 1409.23 311.543 C 1422.23 318.265 1446.11 329.028 1457.72 336.155 C 1459.18 338.93 1458.49 338.706 1457.62 342.669 C 1443.44 336.4 1361.37 298.274 1356.87 289.941 C 1356.13 288.574 1357.07 287.265 1357.52 285.897 z" fill="rgb(254,254,253)" transform="translate(0,0)"></path>
<path d="M 2011.77 40.32 C 2014.04 40.8767 2013.91 40.7728 2015.69 42.2667 C 2017.28 55.963 2015.63 79.9923 2015.52 94.27 L 2015.15 143.706 C 2015.1 152.531 2015.46 166.644 2014.05 174.781 C 2011.27 175.042 2012.49 175.391 2010.26 173.696 C 2008.94 161.667 2009 46.0016 2011.77 40.32 z" fill="rgb(254,254,253)" transform="translate(0,0)"></path>
<path d="M 1363.68 238.479 C 1376.63 239.375 1437.13 275.286 1453.05 280.325 C 1458.51 282.052 1459.34 285.128 1459.63 290.275 C 1438.98 283.038 1386.66 255.151 1364.19 244.402 C 1363.24 243.949 1363.66 240.129 1363.68 238.479 z" fill="rgb(254,254,253)" transform="translate(0,0)"></path>
<path d="M 1508.68 345.722 C 1517.92 345.841 1549.08 359.208 1557.15 365.524 C 1558.33 366.454 1557.55 368.917 1557.38 370.464 C 1551.95 370.211 1518.87 355.831 1512.4 352.007 C 1508.81 349.885 1509.23 348.995 1508.68 345.722 z" fill="rgb(254,254,253)" transform="translate(0,0)"></path>
<path d="M 1795 306.168 L 1798.11 306.971 L 1798.58 308.743 C 1796.22 313.22 1785.2 315.891 1780.26 317.457 C 1778.12 316.844 1778.62 316.87 1776.7 315.458 L 1776.51 313.788 C 1779.46 309.421 1789.7 307.549 1795 306.168 z" fill="rgb(254,254,253)" transform="translate(0,0)"></path>
<path d="M 1699.65 148.091 C 1701.42 149.47 1700.79 148.838 1701.82 151.035 C 1698.96 156.051 1690.16 157.737 1684.24 159.648 C 1682.11 158.526 1683.06 159.267 1681.77 156.903 C 1683.88 152.585 1694.54 149.913 1699.65 148.091 z" fill="rgb(254,254,253)" transform="translate(0,0)"></path>
<metadata><recraft-signature>{"signed_by": "recraft", "signature_b64": "81iWeahuCJ+Y91cnh1X/QzLlMMGX+RPS2VB0s9K7LEGusoZDsifVAyjAucfQTvTfFGMW1r4DX/JUwoyRmUNYBw==", "signing_algo": "Ed25519", "generation_timestamp": 1771601322, "identifier": "15ea9975-1b03-4022-b6c5-979a4a1b2296"}</recraft-signature></metadata></svg>