<svg xmlns="http://www.w3.org/2000/svg" height="1024" preserveAspectRatio="none" style="display: block;" version="1.1" viewBox="0 0 2048 2048" width="1024">
<defs>
	<linearGradient gradientUnits="userSpaceOnUse" id="Gradient1" x1="633.862" x2="614.5" y1="964.128" y2="1003.44">
		<stop class="stop0" offset="0" stop-color="rgb(4,14,30)" stop-opacity="1"></stop>
		<stop class="stop1" offset="1" stop-color="rgb(2,33,50)" stop-opacity="1"></stop>
	</linearGradient>
	<linearGradient gradientUnits="userSpaceOnUse" id="Gradient2" x1="771.651" x2="756.571" y1="609.05" y2="653.459">
		<stop class="stop0" offset="0" stop-color="rgb(12,13,26)" stop-opacity="1"></stop>
		<stop class="stop1" offset="1" stop-color="rgb(8,43,65)" stop-opacity="1"></stop>
	</linearGradient>
</defs>
<path d="M 1010.63 381.448 C 1026.06 377.724 1057.19 371.84 1072.91 373.089 C 1077.73 373.472 1096.47 378.94 1102.96 380.169 L 1104.88 380.522 C 1107.42 377.949 1108.02 376.944 1111.52 375.865 C 1119.65 374.407 1127.51 374.932 1135.51 376.94 C 1142.4 376.632 1150.05 376.375 1156.7 377.582 C 1172.83 380.512 1220.47 399.492 1231.37 408.804 C 1240.62 413.082 1259.21 424.364 1265.76 426.809 C 1276.2 429.326 1308.23 449.072 1314.45 457.832 C 1314.94 461.205 1315.14 463.402 1315.33 466.807 C 1321.17 470.47 1332.3 477.92 1338.03 480.806 C 1348.75 483.802 1367.68 509.647 1373.09 519.341 L 1375.87 524.422 C 1373.11 530.976 1371.43 534.276 1367.89 540.454 C 1371.58 546.698 1374.8 551.183 1379.07 557.072 L 1389.63 549.492 C 1396.88 564.716 1410.4 591.526 1415.1 606.606 C 1411.21 609.995 1406.86 613.646 1403.1 617.108 C 1405.41 624.353 1408.11 632.247 1410.09 639.52 L 1422.04 637.447 C 1428.12 663.485 1431.25 684.642 1436.24 710.427 L 1423.94 717.247 C 1424.71 731.17 1425.63 741.066 1427.87 755.004 C 1431.19 753.542 1434.48 751.951 1437.97 751.02 C 1438.22 777.424 1438.25 801.969 1436.94 828.407 C 1432.73 829.159 1429.32 829.336 1425.83 831.704 C 1423.25 836.025 1421.87 862.23 1422.48 868.279 C 1426.1 871.081 1433.88 868.393 1433.07 874.523 C 1430.07 897.468 1424.31 932.994 1418.49 954.664 L 1406.45 957.031 C 1403.77 967.984 1401.28 979.637 1397.3 990.131 C 1401.25 992.888 1404.39 994.887 1407.87 998.266 C 1398.71 1016.3 1385.41 1058.64 1377.3 1079.7 L 1365.03 1081.11 C 1361.6 1088.56 1355.5 1100.53 1354.57 1108.15 C 1355.46 1110.49 1355.52 1110.34 1357.32 1112.14 C 1357.62 1116.62 1354.43 1120.83 1352.1 1124.99 C 1451.66 1165.02 1563.39 1219.83 1607.13 1324.53 C 1619.43 1353.97 1620.75 1371.27 1622.05 1402.69 C 1623.71 1466.06 1627.24 1519.49 1589.14 1574.17 C 1578.83 1588.98 1572.34 1598.56 1559.34 1612.35 C 1433.2 1746.06 1209.07 1790.42 1031.69 1795.58 C 857.073 1800.66 623.507 1757.29 490.473 1634.93 C 452.978 1600.44 418.191 1547.59 417.026 1495.09 C 416.488 1471.28 416.472 1447.46 416.979 1423.65 C 408.59 1327.16 473.363 1255.97 546.647 1204.09 C 552.894 1199.67 585.452 1179.59 587.751 1176.01 C 584.079 1158.27 578.941 1129.29 578.493 1111.59 C 583.543 1108.01 585.871 1106.21 590.52 1101.97 C 591.92 1095 592.63 1083.1 593.328 1075.69 C 589.086 1071.9 578.368 1069.22 576.998 1066.01 C 572.523 1055.54 577.881 1006.84 579.313 996.164 L 589.115 990.598 C 595.003 982.071 596.809 962.827 598.763 951.972 C 597.05 949.894 591.832 947.855 589.055 946.519 C 590.536 934.895 601.302 877.498 606.962 870.292 C 610.459 867.682 610.614 867.563 614.744 866.338 C 619.112 862.31 626.079 836.735 629.15 828.537 C 625.794 827.206 622.843 824.567 619.853 822.323 C 624.716 805.275 640.349 768.367 648.426 751.071 C 649.459 748.859 655.037 748.274 657.796 747.798 L 661.244 747.482 C 665.764 739.691 673.452 718.258 676.915 709.178 C 673.481 707.751 673.518 707.892 670.622 705.229 C 669.673 698.452 703.407 642.534 708.832 633.962 C 713.279 635.248 716.304 636.474 720.599 638.236 L 722.341 637.678 C 726.378 629.102 736.971 609.143 739.432 601.005 L 737.947 599.073 C 735.328 596.952 736.065 598.265 735.482 595.109 C 739.917 583.461 774.487 541.401 786.006 532.246 C 792.12 534.176 796.678 535.482 802.449 538.312 L 803.304 536.723 C 807.623 527.789 813.057 521.075 817.298 512.386 C 820.215 506.408 819.946 506.036 818.067 500.786 C 823.409 497.21 828.406 491.547 833.256 487.164 C 848.526 473.362 863.177 457.59 882.073 449.04 L 895.3 455.96 C 904.84 447.205 909.575 435.65 915.453 424.12 C 922.014 422.704 959.309 398.733 969.064 395.654 C 983.222 391.186 986.766 392.918 999.677 398.781 C 1002.59 392.248 1006.47 387.2 1010.63 381.448 z" fill="rgb(96,206,238)" transform="translate(0,0)"></path>
<path d="M 1352.1 1124.99 C 1451.66 1165.02 1563.39 1219.83 1607.13 1324.53 C 1619.43 1353.97 1620.75 1371.27 1622.05 1402.69 C 1623.71 1466.06 1627.24 1519.49 1589.14 1574.17 C 1578.83 1588.98 1572.34 1598.56 1559.34 1612.35 C 1433.2 1746.06 1209.07 1790.42 1031.69 1795.58 C 857.073 1800.66 623.507 1757.29 490.473 1634.93 C 452.978 1600.44 418.191 1547.59 417.026 1495.09 C 416.488 1471.28 416.472 1447.46 416.979 1423.65 C 408.59 1327.16 473.363 1255.97 546.647 1204.09 C 552.894 1199.67 585.452 1179.59 587.751 1176.01 L 594.444 1181.4 C 597.606 1183.92 597.778 1184.08 599.329 1187.77 C 601.066 1197.98 601.26 1202.51 605.831 1211.68 C 605.17 1213.62 604.55 1215.93 603.526 1217.62 C 598.93 1224.42 603.124 1230.8 605.957 1238.01 C 612.23 1252.47 619.711 1266.28 625.809 1280.69 C 631.012 1283.14 636.026 1285.38 640.999 1288.28 L 643.926 1289.67 C 642.616 1297.74 642.571 1308.1 643.878 1316.17 C 643.972 1311.33 643.926 1306.31 644.532 1301.52 C 645.348 1303.55 646.915 1307.4 648.847 1308.6 C 670.51 1322.02 693.02 1334.16 714.851 1347.33 C 716.305 1348.21 719.474 1347.69 720.919 1347.52 C 735.704 1362.95 749.266 1378.42 765.293 1392.65 C 771.827 1387.96 774.582 1385.22 780.347 1379.48 C 784.246 1382.18 791.843 1387.17 795.137 1390.06 C 791.42 1408.32 786.903 1413.33 804.293 1423.74 C 810.281 1426.77 843.618 1443.07 846.688 1445.39 C 854.751 1445.17 859.611 1430.34 862.86 1423.47 C 868.703 1424.44 874.56 1425.37 880.364 1426.55 C 878.716 1436.4 878.203 1442.12 879.26 1452.16 C 885.626 1455.63 930.895 1453.53 941.083 1454.29 C 946.455 1454.69 949.766 1454.33 952.513 1449.62 C 961.016 1449.31 971.235 1450.66 978.696 1450.12 L 980.003 1449.86 C 991.262 1447.62 1048.73 1433.17 1053.44 1426.18 C 1064.76 1419.29 1067.59 1418.35 1080.63 1415.16 C 1089.34 1414.95 1151.23 1376.3 1154.86 1368 C 1162.87 1360.02 1172.39 1354.34 1181.76 1348.03 C 1184.96 1346.85 1187.42 1345.01 1190.7 1342.01 C 1211.34 1323.15 1234.12 1302.22 1250.83 1279.9 C 1250.93 1278.56 1251.03 1277.22 1251.13 1275.87 C 1254.01 1270.1 1266.39 1255.47 1271.2 1250.69 C 1276.84 1246.8 1288.64 1229.33 1293.47 1222.87 C 1307.5 1205.85 1312.61 1196.77 1323.75 1178.23 C 1331.97 1161.54 1343.26 1142.32 1352.1 1124.99 z" fill="rgb(230,74,117)" transform="translate(0,0)"></path>
<path d="M 1293.47 1222.87 C 1361.46 1260.75 1434.46 1322.87 1422.09 1409.27 C 1407.27 1512.81 1283.53 1574.47 1193.99 1599.66 C 1072.4 1633.89 943.851 1634.84 821.766 1602.42 C 787.723 1593.38 743.911 1578.02 713.482 1560.75 C 666.088 1533.85 609.587 1489.27 595.153 1434.36 C 586.215 1400.36 591.529 1362.77 608.873 1332.13 C 618.106 1315.81 629.237 1302.56 640.999 1288.28 L 643.926 1289.67 C 642.616 1297.74 642.571 1308.1 643.878 1316.17 C 643.972 1311.33 643.926 1306.31 644.532 1301.52 C 645.348 1303.55 646.915 1307.4 648.847 1308.6 C 670.51 1322.02 693.02 1334.16 714.851 1347.33 C 716.305 1348.21 719.474 1347.69 720.919 1347.52 C 735.704 1362.95 749.266 1378.42 765.293 1392.65 C 771.827 1387.96 774.582 1385.22 780.347 1379.48 C 784.246 1382.18 791.843 1387.17 795.137 1390.06 C 791.42 1408.32 786.903 1413.33 804.293 1423.74 C 810.281 1426.77 843.618 1443.07 846.688 1445.39 C 854.751 1445.17 859.611 1430.34 862.86 1423.47 C 868.703 1424.44 874.56 1425.37 880.364 1426.55 C 878.716 1436.4 878.203 1442.12 879.26 1452.16 C 885.626 1455.63 930.895 1453.53 941.083 1454.29 C 946.455 1454.69 949.766 1454.33 952.513 1449.62 C 961.016 1449.31 971.235 1450.66 978.696 1450.12 L 980.003 1449.86 C 991.262 1447.62 1048.73 1433.17 1053.44 1426.18 C 1064.76 1419.29 1067.59 1418.35 1080.63 1415.16 C 1089.34 1414.95 1151.23 1376.3 1154.86 1368 C 1162.87 1360.02 1172.39 1354.34 1181.76 1348.03 C 1184.96 1346.85 1187.42 1345.01 1190.7 1342.01 C 1211.34 1323.15 1234.12 1302.22 1250.83 1279.9 C 1250.93 1278.56 1251.03 1277.22 1251.13 1275.87 C 1254.01 1270.1 1266.39 1255.47 1271.2 1250.69 C 1276.84 1246.8 1288.64 1229.33 1293.47 1222.87 z" fill="rgb(117,39,227)" transform="translate(0,0)"></path>
<path d="M 643.878 1316.17 C 643.972 1311.33 643.926 1306.31 644.532 1301.52 C 645.348 1303.55 646.915 1307.4 648.847 1308.6 C 670.51 1322.02 693.02 1334.16 714.851 1347.33 C 716.305 1348.21 719.474 1347.69 720.919 1347.52 C 735.704 1362.95 749.266 1378.42 765.293 1392.65 C 771.827 1387.96 774.582 1385.22 780.347 1379.48 C 784.246 1382.18 791.843 1387.17 795.137 1390.06 C 791.42 1408.32 786.903 1413.33 804.293 1423.74 C 810.281 1426.77 843.618 1443.07 846.688 1445.39 C 854.751 1445.17 859.611 1430.34 862.86 1423.47 C 868.703 1424.44 874.56 1425.37 880.364 1426.55 C 878.716 1436.4 878.203 1442.12 879.26 1452.16 C 867.89 1450.86 861.269 1445.5 846.696 1447.85 C 833.186 1442.19 815.246 1432.02 802.072 1424.89 C 783.611 1413.62 762.126 1402.91 744.487 1390.99 C 711.584 1368.77 679.833 1349.9 645.23 1330.64 C 644.432 1325.61 644.2 1321.23 643.878 1316.17 z" fill="rgb(1,1,1)" transform="translate(0,0)"></path>
<path d="M 1622.05 1402.69 C 1623.71 1466.06 1627.24 1519.49 1589.14 1574.17 C 1578.83 1588.98 1572.34 1598.56 1559.34 1612.35 C 1433.2 1746.06 1209.07 1790.42 1031.69 1795.58 C 857.073 1800.66 623.507 1757.29 490.473 1634.93 C 452.978 1600.44 418.191 1547.59 417.026 1495.09 C 416.488 1471.28 416.472 1447.46 416.979 1423.65 C 425.39 1460.37 426.109 1470.09 446.818 1504.42 C 508.377 1606.45 648.929 1663.2 760.931 1688.76 C 989.083 1740.81 1273.02 1721.09 1476.94 1597.79 C 1537.15 1561.39 1589.13 1510.58 1612.74 1443.12 C 1617.67 1429.03 1618.67 1416.78 1622.05 1402.69 z" fill="rgb(34,37,38)" transform="translate(0,0)"></path>
<path d="M 1323.75 1178.23 C 1384.68 1203.46 1463.15 1262.86 1488.65 1324.68 C 1544.15 1459.23 1417.81 1563 1304.28 1607.79 C 1116.66 1681.79 889.704 1681.83 701.888 1607.18 C 632.115 1579.45 554.395 1526.95 525.132 1456.1 C 509.099 1416.78 510.511 1376.59 526.926 1337.51 C 545.89 1292.36 572.725 1270.35 605.957 1238.01 C 612.23 1252.47 619.711 1266.28 625.809 1280.69 C 631.012 1283.14 636.026 1285.38 640.999 1288.28 C 629.237 1302.56 618.106 1315.81 608.873 1332.13 C 591.529 1362.77 586.215 1400.36 595.153 1434.36 C 609.587 1489.27 666.088 1533.85 713.482 1560.75 C 743.911 1578.02 787.723 1593.38 821.766 1602.42 C 943.851 1634.84 1072.4 1633.89 1193.99 1599.66 C 1283.53 1574.47 1407.27 1512.81 1422.09 1409.27 C 1434.46 1322.87 1361.46 1260.75 1293.47 1222.87 C 1307.5 1205.85 1312.61 1196.77 1323.75 1178.23 z" fill="rgb(254,145,228)" transform="translate(0,0)"></path>
<path d="M 579.313 996.164 L 589.115 990.598 C 594.882 995.621 635.924 1016.94 643.706 1018.21 C 640.534 1035.03 638.48 1082.3 640.419 1099.31 C 646.336 1098.91 650.631 1097 656.224 1095.02 C 660.131 1111.82 656.801 1112.51 648.316 1127.04 C 645.95 1131.09 643.589 1136.21 641.6 1140.52 C 643.79 1151.53 652.504 1204.29 655.065 1210.83 C 661.141 1206.94 667.94 1202.38 674.166 1198.92 C 675.742 1205.74 676.923 1209.38 679.313 1215.98 C 673.111 1221.21 666.985 1237.95 663.409 1246.1 L 664.777 1250.21 C 674.114 1262.36 693.361 1301.48 699.756 1316.09 C 704.119 1310.41 709.169 1304.14 713.06 1298.23 C 716.317 1302.61 721.254 1308.9 724.012 1313.32 C 718.919 1321.54 716.04 1327.08 711.835 1335.82 C 714.379 1340.85 717.055 1343.49 720.919 1347.52 C 719.474 1347.69 716.305 1348.21 714.851 1347.33 C 693.02 1334.16 670.51 1322.02 648.847 1308.6 C 646.915 1307.4 645.348 1303.55 644.532 1301.52 C 643.926 1306.31 643.972 1311.33 643.878 1316.17 C 642.571 1308.1 642.616 1297.74 643.926 1289.67 L 640.999 1288.28 C 636.026 1285.38 631.012 1283.14 625.809 1280.69 C 619.711 1266.28 612.23 1252.47 605.957 1238.01 C 603.124 1230.8 598.93 1224.42 603.526 1217.62 C 604.55 1215.93 605.17 1213.62 605.831 1211.68 C 601.26 1202.51 601.066 1197.98 599.329 1187.77 C 597.778 1184.08 597.606 1183.92 594.444 1181.4 L 587.751 1176.01 C 584.079 1158.27 578.941 1129.29 578.493 1111.59 C 583.543 1108.01 585.871 1106.21 590.52 1101.97 C 591.92 1095 592.63 1083.1 593.328 1075.69 C 589.086 1071.9 578.368 1069.22 576.998 1066.01 C 572.523 1055.54 577.881 1006.84 579.313 996.164 z" fill="rgb(34,37,38)" transform="translate(0,0)"></path>
<path d="M 657.796 747.798 L 661.244 747.482 C 675.006 756.278 699.197 765.089 711.642 773.636 C 710.923 774.773 710.121 775.714 709.865 776.892 C 703.816 797.181 684.278 838.714 682.355 854.309 C 686.37 856.915 688.568 856.461 693.198 857.072 L 689.154 876.582 C 681.2 881.693 674.302 888.999 667.566 895.706 C 660.789 893.427 619.79 871.75 614.744 866.338 C 619.112 862.31 626.079 836.735 629.15 828.537 C 625.794 827.206 622.843 824.567 619.853 822.323 C 624.716 805.275 640.349 768.367 648.426 751.071 C 649.459 748.859 655.037 748.274 657.796 747.798 z" fill="rgb(34,37,38)" transform="translate(0,0)"></path>
<path d="M 657.796 747.798 L 661.244 747.482 C 675.006 756.278 699.197 765.089 711.642 773.636 C 710.923 774.773 710.121 775.714 709.865 776.892 C 706.879 769.208 664.836 757.685 657.796 747.798 z" fill="rgb(10,73,96)" transform="translate(0,0)"></path>
<path d="M 786.006 532.246 C 792.12 534.176 796.678 535.482 802.449 538.312 C 814.205 546.572 839.455 554.09 848.056 563.318 C 825.852 583.355 817.256 605.178 797.908 624.562 C 800.53 627.932 803.128 631.148 805.484 634.714 C 799.062 642.458 792.492 653.513 786.611 659.966 C 777.487 657.892 778.954 657.986 770.05 660.445 C 767.788 659.942 726.408 639.66 722.341 637.678 C 726.378 629.102 736.971 609.143 739.432 601.005 L 737.947 599.073 C 735.328 596.952 736.065 598.265 735.482 595.109 C 739.917 583.461 774.487 541.401 786.006 532.246 z" fill="rgb(16,103,131)" transform="translate(0,0)"></path>
<path d="M 737.947 599.073 C 744.787 593.441 787.712 620.608 797.908 624.562 C 800.53 627.932 803.128 631.148 805.484 634.714 C 799.062 642.458 792.492 653.513 786.611 659.966 C 777.487 657.892 778.954 657.986 770.05 660.445 C 767.788 659.942 726.408 639.66 722.341 637.678 C 726.378 629.102 736.971 609.143 739.432 601.005 L 737.947 599.073 z" fill="url(#Gradient2)" transform="translate(0,0)"></path>
<path d="M 708.832 633.962 C 713.279 635.248 716.304 636.474 720.599 638.236 L 722.341 637.678 C 726.408 639.66 767.788 659.942 770.05 660.445 L 768.009 662.823 C 763.736 680.046 738.355 715.803 730.94 733.958 C 733.966 735.942 738.163 738.508 740.972 740.604 C 736.251 748.83 731.608 757.1 727.041 765.413 L 711.642 773.636 C 699.197 765.089 675.006 756.278 661.244 747.482 C 665.764 739.691 673.452 718.258 676.915 709.178 C 673.481 707.751 673.518 707.892 670.622 705.229 C 669.673 698.452 703.407 642.534 708.832 633.962 z" fill="rgb(10,73,96)" transform="translate(0,0)"></path>
<path d="M 676.915 709.178 C 684.018 706.227 720.062 731.173 730.94 733.958 C 733.966 735.942 738.163 738.508 740.972 740.604 C 736.251 748.83 731.608 757.1 727.041 765.413 L 711.642 773.636 C 699.197 765.089 675.006 756.278 661.244 747.482 C 665.764 739.691 673.452 718.258 676.915 709.178 z" fill="rgb(34,37,38)" transform="translate(0,0)"></path>
<path d="M 720.599 638.236 L 722.341 637.678 C 726.408 639.66 767.788 659.942 770.05 660.445 L 768.009 662.823 C 763.396 661.042 722.876 640.419 720.599 638.236 z" fill="rgb(16,103,131)" transform="translate(0,0)"></path>
<path d="M 818.067 500.786 C 823.409 497.21 828.406 491.547 833.256 487.164 C 848.526 473.362 863.177 457.59 882.073 449.04 L 895.3 455.96 C 911.724 461.462 930.997 471.259 947.359 478.151 C 945.816 480.134 945.794 480.242 943.826 481.765 C 932.325 481.522 892.838 522.422 880.316 530.615 C 879.815 536.725 880.397 537.712 882.101 543.567 C 874.598 550.423 867.267 557.466 860.117 564.69 C 855.771 562.043 857.823 561.49 853.372 558.702 C 851.157 560.475 850.068 561.269 848.056 563.318 C 839.455 554.09 814.205 546.572 802.449 538.312 L 803.304 536.723 C 807.623 527.789 813.057 521.075 817.298 512.386 C 820.215 506.408 819.946 506.036 818.067 500.786 z" fill="rgb(42,155,190)" transform="translate(0,0)"></path>
<path d="M 818.067 500.786 C 823.874 501.043 877.601 527.015 880.316 530.615 C 879.815 536.725 880.397 537.712 882.101 543.567 C 874.598 550.423 867.267 557.466 860.117 564.69 C 855.771 562.043 857.823 561.49 853.372 558.702 C 851.157 560.475 850.068 561.269 848.056 563.318 C 839.455 554.09 814.205 546.572 802.449 538.312 L 803.304 536.723 C 807.623 527.789 813.057 521.075 817.298 512.386 C 820.215 506.408 819.946 506.036 818.067 500.786 z" fill="rgb(34,37,38)" transform="translate(0,0)"></path>
<path d="M 803.304 536.723 C 811.804 540.018 847.939 559.493 853.372 558.702 C 851.157 560.475 850.068 561.269 848.056 563.318 C 839.455 554.09 814.205 546.572 802.449 538.312 L 803.304 536.723 z" fill="rgb(42,155,190)" transform="translate(0,0)"></path>
<path d="M 915.453 424.12 C 922.014 422.704 959.309 398.733 969.064 395.654 C 983.222 391.186 986.766 392.918 999.677 398.781 C 1009.88 403.991 1034.2 414.646 1041.2 420.537 C 1018.08 432.054 994.676 444.97 971.616 456.902 C 967.201 462.866 966.983 469.742 965.969 477.118 C 958.904 481.035 951.321 488.525 946.597 487.87 C 945.228 485.361 944.839 484.446 943.826 481.765 C 945.794 480.242 945.816 480.134 947.359 478.151 C 930.997 471.259 911.724 461.462 895.3 455.96 C 904.84 447.205 909.575 435.65 915.453 424.12 z" fill="rgb(42,155,190)" transform="translate(0,0)"></path>
<path d="M 915.453 424.12 C 925.486 430.062 966.806 451.547 971.616 456.902 C 967.201 462.866 966.983 469.742 965.969 477.118 C 958.904 481.035 951.321 488.525 946.597 487.87 C 945.228 485.361 944.839 484.446 943.826 481.765 C 945.794 480.242 945.816 480.134 947.359 478.151 C 930.997 471.259 911.724 461.462 895.3 455.96 C 904.84 447.205 909.575 435.65 915.453 424.12 z" fill="rgb(34,37,38)" transform="translate(0,0)"></path>
<path d="M 606.962 870.292 C 610.459 867.682 610.614 867.563 614.744 866.338 C 619.79 871.75 660.789 893.427 667.566 895.706 L 666.197 899.292 C 662.238 924.51 653.883 950.094 649.359 977.59 C 642.761 976.906 609.683 951.733 598.763 951.972 C 597.05 949.894 591.832 947.855 589.055 946.519 C 590.536 934.895 601.302 877.498 606.962 870.292 z" fill="rgb(34,37,38)" transform="translate(0,0)"></path>
<path d="M 606.962 870.292 C 610.459 867.682 610.614 867.563 614.744 866.338 C 619.79 871.75 660.789 893.427 667.566 895.706 L 666.197 899.292 C 658.69 893.028 616.805 871.612 606.962 870.292 z" fill="rgb(10,73,96)" transform="translate(0,0)"></path>
<path d="M 598.763 951.972 C 609.683 951.733 642.761 976.906 649.359 977.59 L 664.416 973.953 C 662.644 982.234 662.204 986.196 661.588 994.676 C 649.714 1001.77 652.375 1007.92 643.706 1018.21 C 635.924 1016.94 594.882 995.621 589.115 990.598 C 595.003 982.071 596.809 962.827 598.763 951.972 z" fill="url(#Gradient1)" transform="translate(0,0)"></path>
<path d="M 1010.63 381.448 C 1022.79 382.78 1066.51 401.853 1078.54 408.494 C 1071.27 417 1070.06 419.859 1066.17 430.447 C 1055.85 433.788 1050.52 435.755 1040.88 440.657 C 1041.46 434.147 1042.53 426.887 1041.2 420.537 C 1034.2 414.646 1009.88 403.991 999.677 398.781 C 1002.59 392.248 1006.47 387.2 1010.63 381.448 z" fill="rgb(34,37,38)" transform="translate(0,0)"></path>
<path d="M 1104.88 380.522 C 1107.42 377.949 1108.02 376.944 1111.52 375.865 C 1134.99 382.519 1153.22 390.767 1175.16 401.355 C 1167.8 406.163 1167.87 407.942 1164.5 416.143 C 1156.54 415.817 1149.29 415.114 1141.15 414.983 C 1142.24 409.733 1144.37 404.024 1143.35 399.308 C 1141.53 396.518 1140.17 396.422 1137 395.304 C 1125.14 388.656 1114.23 385.817 1104.88 380.522 z" fill="rgb(34,37,38)" transform="translate(0,0)"></path>
<path d="M 1231.37 408.804 C 1240.62 413.082 1259.21 424.364 1265.76 426.809 C 1257.79 431.555 1257.45 432.539 1253.64 440.938 C 1244.84 436.212 1239.65 433.568 1230.33 430.208 C 1232.52 421.259 1233.9 417.858 1231.37 408.804 z" fill="rgb(34,37,38)" transform="translate(0,0)"></path>
<path d="M 959.484 1429.39 C 965.233 1429.15 970.925 1429.05 976.598 1428.07 C 977.128 1435.83 977.669 1442.42 978.696 1450.12 C 971.235 1450.66 961.016 1449.31 952.513 1449.62 C 954.709 1442.88 956.837 1435.96 959.484 1429.39 z" fill="rgb(1,1,1)" transform="translate(0,0)"></path>
<path d="M 1058.03 1405.89 C 1064.02 1403.64 1069.81 1401.15 1075.7 1398.65 C 1077.21 1404.87 1078.56 1409.1 1080.63 1415.16 C 1067.59 1418.35 1064.76 1419.29 1053.44 1426.18 C 1054.81 1418.22 1055.76 1413.61 1058.03 1405.89 z" fill="rgb(34,37,38)" transform="translate(0,0)"></path>
<path d="M 1156.21 1351.3 C 1161.91 1346.46 1167.68 1341.2 1173.3 1336.22 C 1175.8 1340.36 1178.84 1344.17 1181.76 1348.03 C 1172.39 1354.34 1162.87 1360.02 1154.86 1368 C 1154.82 1361.67 1155.41 1357.57 1156.21 1351.3 z" fill="rgb(34,37,38)" transform="translate(0,0)"></path>
<path d="M 1315.33 466.807 C 1321.17 470.47 1332.3 477.92 1338.03 480.806 C 1335.86 483.369 1330.23 488.239 1327.53 490.72 C 1321.97 486.148 1315.46 479.748 1310.09 474.758 C 1312.71 471.513 1313.38 470.499 1315.33 466.807 z" fill="rgb(34,37,38)" transform="translate(0,0)"></path>
<path d="M 1251.13 1275.87 C 1250.5 1274.41 1248.31 1269.56 1248.61 1268.66 C 1249.95 1264.6 1262.87 1249.86 1265.45 1246.71 C 1268.07 1246.8 1268.66 1248.32 1271.2 1250.69 C 1266.39 1255.47 1254.01 1270.1 1251.13 1275.87 z" fill="rgb(1,1,1)" transform="translate(0,0)"></path>
<path d="M 722.777 1219.04 C 714.3 1206.05 701.476 1162.45 697.806 1145.26 C 680.639 1062.72 691.843 968.975 716.782 888.829 C 736.597 831.313 760.256 769.092 792.408 717.447 C 858.415 611.418 952.7 516.439 1076.6 483.669 C 1110.32 474.751 1188.11 476.268 1217.79 494.928 C 1232.69 501.254 1251.23 508.702 1264.73 518.114 C 1383.09 600.644 1397.48 779.074 1371.76 908.79 C 1335.22 1090.65 1223.72 1276.78 1048.77 1353.43 C 1042.1 1356.35 1034.47 1358.58 1027.48 1360.67 C 886.941 1402.7 783.916 1346.24 722.777 1219.04 z" fill="rgb(245,220,75)" transform="translate(0,0)"></path>
<path d="M 722.777 1219.04 C 714.3 1206.05 701.476 1162.45 697.806 1145.26 C 680.639 1062.72 691.843 968.975 716.782 888.829 C 736.597 831.313 760.256 769.092 792.408 717.447 C 858.415 611.418 952.7 516.439 1076.6 483.669 C 1110.32 474.751 1188.11 476.268 1217.79 494.928 C 1202.36 492.776 1188.38 490.725 1172.65 491.053 C 1108.26 492.394 1033.81 527.08 982.581 565.388 C 880.533 642.6 806.517 752.344 758.937 870.173 C 748.337 896.425 740.546 925.412 732.874 952.541 C 709.276 1035.99 699.521 1134.44 722.777 1219.04 z" fill="rgb(203,149,9)" transform="translate(0,0)"></path>
<path d="M 979.18 643.817 C 986.572 640.268 995.361 634.284 1002.61 630.066 C 1018.75 620.671 1034.86 610.588 1051.56 602.245 C 1051.96 609.551 1051.93 616.556 1051.93 623.871 C 1068.78 618.763 1085.5 613.236 1102.07 607.295 C 1102.43 619.211 1103.28 635.436 1101.95 647.03 C 1111.54 644.352 1135.39 638.158 1144.74 640.091 C 1148.11 642.945 1146.54 644.539 1144.56 648.05 C 1159.15 644.687 1174.24 641.241 1189.1 639.544 L 1189.4 763.526 C 1138.03 772.469 1065.73 794.77 1033.59 839.653 C 1023.17 854.21 1017.21 873.651 1021.48 891.54 C 1033.11 886.338 1073.41 876.005 1086.85 874.441 C 1115.09 871.151 1125.26 872.52 1147.45 889.457 C 1214.61 895.789 1229.06 965.667 1222.34 1021.52 C 1215.34 1079.64 1182.64 1141.5 1137.31 1178.3 C 1128.87 1185.05 1120.03 1191.31 1110.85 1197.03 L 1111.22 1262.37 C 1085.38 1277.01 1051.99 1294.9 1021.84 1296.6 L 1020.9 1264.25 C 1012.45 1267.61 1005.16 1270.33 996.528 1273.17 C 996.117 1264.84 996.27 1255.01 996.188 1246.57 C 970.656 1252.75 953.908 1252.38 927.809 1246.24 C 923.429 1245.21 914.187 1243.03 912.043 1239.41 C 908.806 1240.23 901.916 1240.56 898.297 1240.86 C 896.916 1206.45 897.992 1164.82 897.92 1129.91 C 959.989 1130 1020 1116.68 1065.76 1070.85 C 1081.58 1055.02 1087.79 1030.91 1086.74 1008.96 C 1085.81 1012.25 1086.52 1012.31 1083.68 1013.84 C 1077.12 1017.36 1068.21 1019.12 1061.3 1021.37 C 1032.67 1030.7 1011.92 1033.19 982.613 1024.81 C 976.191 1022.98 966.824 1020.44 961.337 1016.37 L 960.683 1015.14 C 963.302 1014.87 965.545 1014.73 968.127 1014.17 C 897.369 1018.43 872.224 948.778 882.086 889.69 C 891.636 832.473 933.314 753.366 979.753 718.129 C 979.848 693.725 979.137 668.534 979.18 643.817 z" fill="rgb(254,254,254)" transform="translate(0,0)"></path>
<path d="M 1147.45 889.457 C 1214.61 895.789 1229.06 965.667 1222.34 1021.52 C 1215.34 1079.64 1182.64 1141.5 1137.31 1178.3 C 1128.87 1185.05 1120.03 1191.31 1110.85 1197.03 L 1111.22 1262.37 C 1085.38 1277.01 1051.99 1294.9 1021.84 1296.6 L 1020.9 1264.25 C 1036.94 1257.54 1050 1252.16 1065.22 1243.6 C 1065.43 1223.76 1065.9 1191.67 1064.34 1172.32 C 1074.42 1164.79 1084.85 1156.79 1094.36 1148.54 C 1158.65 1092.71 1213.38 962.921 1147.45 889.457 z" fill="rgb(203,149,9)" transform="translate(0,0)"></path>
<path d="M 1144.56 648.05 C 1159.15 644.687 1174.24 641.241 1189.1 639.544 L 1189.4 763.526 C 1138.03 772.469 1065.73 794.77 1033.59 839.653 C 1023.17 854.21 1017.21 873.651 1021.48 891.54 C 1001.97 898.226 973.473 898.263 973.685 871.746 C 974.192 808.317 1047.84 763.084 1103.41 752.776 C 1117.91 750.087 1129.23 749.161 1143.27 748.325 C 1143.74 732.823 1141.44 656.49 1144.56 648.05 z" fill="rgb(203,149,9)" transform="translate(0,0)"></path>
<path d="M 968.127 1014.17 C 997.777 1011.8 1024.07 1000.6 1052.11 992.112 C 1059.09 990.001 1071.75 988.78 1078.28 992.779 C 1084.32 996.477 1085.09 1002.48 1086.74 1008.96 C 1085.81 1012.25 1086.52 1012.31 1083.68 1013.84 C 1077.12 1017.36 1068.21 1019.12 1061.3 1021.37 C 1032.67 1030.7 1011.92 1033.19 982.613 1024.81 C 976.191 1022.98 966.824 1020.44 961.337 1016.37 L 960.683 1015.14 C 963.302 1014.87 965.545 1014.73 968.127 1014.17 z" fill="rgb(203,149,9)" transform="translate(0,0)"></path>
<path d="M 1051.93 623.871 C 1068.78 618.763 1085.5 613.236 1102.07 607.295 C 1102.43 619.211 1103.28 635.436 1101.95 647.03 C 1081.35 653.566 1070.31 656.853 1051.04 666.196 C 1051 653.474 1050.64 636.217 1051.93 623.871 z" fill="rgb(203,149,9)" transform="translate(0,0)"></path>
<path d="M 912.043 1239.41 C 941.133 1234.69 969.381 1225.77 995.903 1212.92 L 996.188 1246.57 C 970.656 1252.75 953.908 1252.38 927.809 1246.24 C 923.429 1245.21 914.187 1243.03 912.043 1239.41 z" fill="rgb(203,149,9)" transform="translate(0,0)"></path>
<metadata><recraft-signature>{"signed_by": "recraft", "signature_b64": "GdlFBWxzTK9JsH6hEUJYz6Y6Q/jHRyxPrcqNVQgwIdEwez2poV6BY36LWXDoxEAd2oVkV4zU51jl5TXrF6YZAQ==", "signing_algo": "Ed25519", "generation_timestamp": 1771752663, "identifier": "545dafe6-b8e0-4ec5-9849-bce532ef3084"}</recraft-signature></metadata></svg>