<svg xmlns="http://www.w3.org/2000/svg" height="1024" preserveAspectRatio="none" style="display: block;" version="1.1" viewBox="0 0 2048 2048" width="1024">
<defs>
	<linearGradient gradientUnits="userSpaceOnUse" id="Gradient1" x1="1789.92" x2="1363.26" y1="1463.71" y2="1258.46">
		<stop class="stop0" offset="0" stop-color="rgb(247,161,33)" stop-opacity="1"></stop>
		<stop class="stop1" offset="1" stop-color="rgb(252,247,52)" stop-opacity="1"></stop>
	</linearGradient>
</defs>
<path d="M 1443.09 463.945 C 1458.29 460.745 1563.85 431.442 1568.06 432.817 C 1569.95 440.167 1569.32 550.111 1566.55 557.011 C 1561.71 560.229 1555.99 552.386 1552.56 548.834 L 1552.02 927.64 L 1552 1045.8 C 1552 1065.56 1551.26 1091.69 1552.48 1110.79 C 1552.68 1114.58 1551.98 1114.8 1554 1116.77 C 1687.2 1101.24 1796.47 1179.62 1827.62 1310 C 1843.26 1382.05 1827.57 1446.36 1789.38 1508.9 C 1778.94 1526 1754.39 1553.8 1738.06 1565.66 C 1730.17 1572.7 1718.78 1579.81 1709.68 1585.41 C 1660.15 1615.92 1616.62 1621.79 1560.02 1620.01 L 212.685 1619.06 L 212.396 463.881 C 288.848 462.971 367.03 464.129 443.75 463.995 L 1064.66 464.177 L 1320.26 464.22 C 1357.59 464.166 1407.11 465.803 1443.09 463.945 z" fill="rgb(96,206,238)" transform="translate(0,0)"></path>
<path d="M 490.666 514.848 L 726.082 514.748 L 745.836 514.847 L 975.357 514.743 L 995.292 514.811 C 995.181 524.168 993.462 572.329 997.007 577.046 L 998.257 577.289 C 996.967 584.888 982.117 605.202 976.854 612.251 C 959.674 638.88 941.287 664.805 924.152 691.481 C 920.532 697.118 916.742 702.703 912.842 708.149 C 911.564 710.104 901.021 726.261 899.945 727.239 C 858.766 791.902 812.248 855.333 770.055 919.886 C 766.697 925.379 761.56 934.334 757.746 939.081 C 753.636 945.76 749.474 952.408 745.261 959.023 C 742.734 962.652 740.187 966.542 737.313 969.873 C 732.986 967.496 729.675 965.905 725.847 962.734 C 711.722 955.059 697.866 946.9 684.302 938.272 C 670.582 929.604 648.992 918.37 636.86 909.733 C 614.415 897.11 592.521 882.733 569.998 869.802 C 560.343 886.301 547.164 902.909 536.521 919.968 C 534.455 923.39 525.093 939.295 522.828 941.201 C 513.104 956.476 501.609 975.471 491.325 989.958 C 486.752 997.153 482.693 1003.19 477.695 1010.09 C 464.842 1030.31 451.562 1049.97 438.119 1069.78 C 425.123 1088.94 412.076 1110 398.486 1128.63 C 396.364 1132.1 390.581 1141.47 387.718 1144.15 C 383.683 1142.42 277.027 1142.09 266.09 1143.24 C 266.485 1120.68 265.394 1093.59 266.834 1071.66 C 266.148 1063.96 266.581 1053.54 266.65 1045.68 C 266.937 1012.87 266.175 979.797 266.837 947.019 C 265.871 937.939 266.192 921.588 266.325 912.262 C 265.067 851.891 266.152 786.698 265.997 725.848 L 266.378 581.258 C 266.053 559.179 265.904 537.097 265.932 515.016 L 472.197 514.864 L 490.666 514.848 z" fill="rgb(234,226,232)" transform="translate(0,0)"></path>
<path d="M 490.666 514.848 L 726.082 514.748 C 726.375 577.69 728.214 645.31 726.422 707.831 C 648.47 708.788 569.156 707.998 491.064 707.942 C 490.424 644.124 492.199 578.389 490.666 514.848 z" fill="rgb(243,245,247)" transform="translate(0,0)"></path>
<path d="M 975.357 514.743 L 995.292 514.811 C 995.181 524.168 993.462 572.329 997.007 577.046 L 998.257 577.289 C 996.967 584.888 982.117 605.202 976.854 612.251 C 959.674 638.88 941.287 664.805 924.152 691.481 C 920.532 697.118 916.742 702.703 912.842 708.149 C 899.965 707.162 878.23 707.902 864.568 707.741 C 824.914 707.246 785.258 707.052 745.602 707.158 C 746.731 644.597 746.277 577.469 745.836 514.847 L 975.357 514.743 z" fill="rgb(243,245,247)" transform="translate(0,0)"></path>
<path d="M 975.357 514.743 L 995.292 514.811 C 995.181 524.168 993.462 572.329 997.007 577.046 L 998.257 577.289 C 996.967 584.888 982.117 605.202 976.854 612.251 C 974.455 586.142 975.691 542.428 975.357 514.743 z" fill="rgb(234,226,232)" transform="translate(0,0)"></path>
<path d="M 491.964 726.093 C 569.947 725.651 647.932 725.646 725.915 726.077 C 725.964 791.081 727.505 855.457 726.939 920.923 C 707.38 921.14 682.683 922.202 663.342 920.359 C 655.821 919.642 646.798 910.29 636.86 909.733 C 614.415 897.11 592.521 882.733 569.998 869.802 C 560.343 886.301 547.164 902.909 536.521 919.968 C 522.714 921.345 504.716 920.965 490.765 920.615 C 489.809 902.363 490.769 876.949 490.887 858.014 L 491.964 726.093 z" fill="rgb(243,245,247)" transform="translate(0,0)"></path>
<path d="M 265.997 725.848 C 333.319 725.729 405.585 724.208 472.349 725.494 C 474.754 786.779 471.846 858.584 471.952 921.004 L 267.454 921.006 C 267.347 917.99 267.736 914.444 266.325 912.262 C 265.067 851.891 266.152 786.698 265.997 725.848 z" fill="rgb(243,245,247)" transform="translate(0,0)"></path>
<path d="M 265.932 515.016 L 472.197 514.864 C 471.384 578.475 472.462 643.276 472.047 707.07 C 403.768 707.623 335.486 707.628 267.207 707.082 C 267.238 694.764 268.229 584.198 266.378 581.258 C 266.053 559.179 265.904 537.097 265.932 515.016 z" fill="rgb(243,245,247)" transform="translate(0,0)"></path>
<path d="M 266.837 947.019 C 267.234 943.264 266.76 941.035 268.718 938.611 C 291.153 937.888 316.881 938.598 339.626 938.622 L 473.694 939.013 C 473.692 951.068 470.961 1002.45 476.848 1009.28 C 477.103 1009.58 477.412 1009.82 477.695 1010.09 C 464.842 1030.31 451.562 1049.97 438.119 1069.78 C 425.123 1088.94 412.076 1110 398.486 1128.63 C 396.364 1132.1 390.581 1141.47 387.718 1144.15 C 383.683 1142.42 277.027 1142.09 266.09 1143.24 C 266.485 1120.68 265.394 1093.59 266.834 1071.66 C 266.148 1063.96 266.581 1053.54 266.65 1045.68 C 266.937 1012.87 266.175 979.797 266.837 947.019 z" fill="rgb(243,245,247)" transform="translate(0,0)"></path>
<path d="M 266.09 1143.24 C 266.485 1120.68 265.394 1093.59 266.834 1071.66 C 268.251 1086.04 267.412 1112.89 267.365 1128.14 L 350.414 1128.05 C 364.484 1128.04 384.7 1127.49 398.486 1128.63 C 396.364 1132.1 390.581 1141.47 387.718 1144.15 C 383.683 1142.42 277.027 1142.09 266.09 1143.24 z" fill="rgb(234,226,232)" transform="translate(0,0)"></path>
<path d="M 745.96 725.873 C 763.212 724.508 792.837 724.956 810.267 725.186 C 823.97 725.367 894.214 723.668 899.945 727.239 C 858.766 791.902 812.248 855.333 770.055 919.886 C 760.749 920.383 753.347 920.312 744.049 920.117 C 746.474 856.112 745.522 790.081 745.96 725.873 z" fill="rgb(243,245,247)" transform="translate(0,0)"></path>
<path d="M 489.904 939.133 C 496.051 939.053 519.45 937.474 522.828 941.201 C 513.104 956.476 501.609 975.471 491.325 989.958 C 488.032 984.809 489.849 947.749 489.904 939.133 z" fill="rgb(243,245,247)" transform="translate(0,0)"></path>
<path d="M 684.302 938.272 C 689.594 936.383 718.653 937.597 726.278 937.651 C 726.168 945.43 726.309 955.12 725.847 962.734 C 711.722 955.059 697.866 946.9 684.302 938.272 z" fill="rgb(243,245,247)" transform="translate(0,0)"></path>
<path d="M 742.035 940.744 C 745.764 939.858 754.352 937.93 757.746 939.081 C 753.636 945.76 749.474 952.408 745.261 959.023 C 742.882 956.626 742.441 944.78 742.035 940.744 z" fill="rgb(243,245,247)" transform="translate(0,0)"></path>
<path d="M 870.409 934.524 C 882.067 938.202 959.95 937.153 975.21 937.128 C 975.284 944.535 974.484 952.748 978.662 958.774 C 981.743 957.629 990.897 958.141 994.683 958.187 L 994.879 937.045 C 1043.75 936.782 1092.61 936.763 1141.48 936.989 C 1163.74 936.993 1192.98 937.748 1214.68 936.433 C 1214.69 947.405 1213.9 1008.19 1215.73 1014.58 C 1215.77 1051.74 1216 1088.91 1216.42 1126.07 C 1216.5 1131.64 1216.78 1138.41 1216.41 1143.89 C 1216.07 1187.8 1215.98 1231.71 1216.16 1275.62 C 1216.2 1289.86 1217.28 1324.98 1216.18 1337.7 C 1216.79 1348.44 1217.17 1372.57 1216.17 1383.22 C 1217.31 1424.17 1215.93 1466.47 1216.32 1507.51 C 1216.49 1525.04 1215.3 1549.35 1216.82 1566.26 L 1216.67 1569.98 C 1201.71 1570.02 1164.83 1570.94 1151.79 1569.22 L 1150.89 1568.98 C 1107.86 1570.05 1064.16 1568.18 1021.07 1569.16 C 1007.43 1569.47 993.629 1569.67 980.002 1569.06 L 899.126 1568.85 L 899.014 1548.83 L 898.899 1364.9 L 898.857 1348.64 L 898.802 1141.26 L 898.911 1126.71 L 899.037 996.274 C 888.42 996.335 877.802 996.3 867.185 996.168 C 856.82 996.041 839.19 996.357 829.463 994.904 C 842.717 974.512 856.368 954.382 870.409 934.524 z" fill="rgb(230,74,117)" transform="translate(0,0)"></path>
<path d="M 870.409 934.524 C 882.067 938.202 959.95 937.153 975.21 937.128 C 975.284 944.535 974.484 952.748 978.662 958.774 C 981.136 1011.02 978.162 1072.53 979.193 1125.99 C 956.259 1127.6 922.224 1127.21 898.911 1126.71 L 899.037 996.274 C 888.42 996.335 877.802 996.3 867.185 996.168 C 856.82 996.041 839.19 996.357 829.463 994.904 C 842.717 974.512 856.368 954.382 870.409 934.524 z" fill="rgb(243,245,247)" transform="translate(0,0)"></path>
<path d="M 898.911 1126.71 C 922.224 1127.21 956.259 1127.6 979.193 1125.99 L 979.296 1141.06 C 978.727 1207.54 977.618 1281.87 979.273 1348.14 C 952.471 1348.64 925.664 1348.81 898.857 1348.64 L 898.802 1141.26 L 898.911 1126.71 z" fill="rgb(243,245,247)" transform="translate(0,0)"></path>
<path d="M 898.911 1126.71 C 922.224 1127.21 956.259 1127.6 979.193 1125.99 L 979.296 1141.06 L 898.802 1141.26 L 898.911 1126.71 z" fill="rgb(234,226,232)" transform="translate(0,0)"></path>
<path d="M 898.857 1348.64 C 925.664 1348.81 952.471 1348.64 979.273 1348.14 C 979.327 1353.2 979.643 1360.62 979.419 1365.49 C 979.158 1426.64 979.287 1487.8 979.806 1548.96 L 980.002 1569.06 L 899.126 1568.85 L 899.014 1548.83 L 898.899 1364.9 L 898.857 1348.64 z" fill="rgb(243,245,247)" transform="translate(0,0)"></path>
<path d="M 898.857 1348.64 C 925.664 1348.81 952.471 1348.64 979.273 1348.14 C 979.327 1353.2 979.643 1360.62 979.419 1365.49 C 954.05 1364.47 924.918 1365.31 898.899 1364.9 L 898.857 1348.64 z" fill="rgb(234,226,232)" transform="translate(0,0)"></path>
<path d="M 994.879 937.045 C 1043.75 936.782 1092.61 936.763 1141.48 936.989 C 1163.74 936.993 1192.98 937.748 1214.68 936.433 C 1214.69 947.405 1213.9 1008.19 1215.73 1014.58 C 1215.77 1051.74 1216 1088.91 1216.42 1126.07 C 1194.87 1126.18 1173.32 1126.12 1151.77 1125.9 C 1152.41 1070.38 1151.82 1014.31 1152.02 958.696 L 994.683 958.187 L 994.879 937.045 z" fill="rgb(243,245,247)" transform="translate(0,0)"></path>
<path d="M 1151.77 1125.9 C 1173.32 1126.12 1194.87 1126.18 1216.42 1126.07 C 1216.5 1131.64 1216.78 1138.41 1216.41 1143.89 C 1216.07 1187.8 1215.98 1231.71 1216.16 1275.62 C 1216.2 1289.86 1217.28 1324.98 1216.18 1337.7 C 1215.91 1341.33 1215.65 1343.35 1215 1346.94 C 1209.89 1348.67 1161.86 1347.18 1153.29 1347.07 C 1153.19 1334.86 1154.24 1288.53 1152.26 1279.43 C 1151.64 1265.73 1152.08 1248.4 1152.04 1234.46 L 1151.58 1144.59 C 1151.5 1138.56 1151.71 1131.98 1151.77 1125.9 z" fill="rgb(243,245,247)" transform="translate(0,0)"></path>
<path d="M 1151.77 1125.9 C 1173.32 1126.12 1194.87 1126.18 1216.42 1126.07 C 1216.5 1131.64 1216.78 1138.41 1216.41 1143.89 C 1195.28 1144.51 1172.83 1144.32 1151.58 1144.59 C 1151.5 1138.56 1151.71 1131.98 1151.77 1125.9 z" fill="rgb(234,226,232)" transform="translate(0,0)"></path>
<path d="M 1153.28 1364.69 C 1172.17 1363.77 1196.19 1364.13 1215.62 1363.87 C 1215.57 1370.9 1215.54 1376.24 1216.17 1383.22 C 1217.31 1424.17 1215.93 1466.47 1216.32 1507.51 C 1216.49 1525.04 1215.3 1549.35 1216.82 1566.26 L 1216.67 1569.98 C 1201.71 1570.02 1164.83 1570.94 1151.79 1569.22 C 1151.25 1544.69 1152.14 1516.56 1152.31 1491.75 C 1154.08 1489.3 1153.29 1377.76 1153.28 1364.69 z" fill="rgb(243,245,247)" transform="translate(0,0)"></path>
<path d="M 979.806 1548.96 C 1036.99 1549.94 1094.18 1550.23 1151.37 1549.83 L 1150.89 1568.98 C 1107.86 1570.05 1064.16 1568.18 1021.07 1569.16 C 1007.43 1569.47 993.629 1569.67 980.002 1569.06 L 979.806 1548.96 z" fill="rgb(159,40,81)" transform="translate(0,0)"></path>
<path d="M 1152.26 1279.43 C 1154.24 1288.53 1153.19 1334.86 1153.29 1347.07 C 1161.86 1347.18 1209.89 1348.67 1215 1346.94 C 1215.65 1343.35 1215.91 1341.33 1216.18 1337.7 C 1216.79 1348.44 1217.17 1372.57 1216.17 1383.22 C 1215.54 1376.24 1215.57 1370.9 1215.62 1363.87 C 1196.19 1364.13 1172.17 1363.77 1153.28 1364.69 C 1153.29 1377.76 1154.08 1489.3 1152.31 1491.75 L 1152.26 1279.43 z" fill="rgb(234,226,232)" transform="translate(0,0)"></path>
<path d="M 1552.48 1110.79 C 1552.68 1114.58 1551.98 1114.8 1554 1116.77 C 1687.2 1101.24 1796.47 1179.62 1827.62 1310 C 1843.26 1382.05 1827.57 1446.36 1789.38 1508.9 C 1778.94 1526 1754.39 1553.8 1738.06 1565.66 C 1730.17 1572.7 1718.78 1579.81 1709.68 1585.41 C 1660.15 1615.92 1616.62 1621.79 1560.02 1620.01 C 1555.07 1618.12 1531.97 1613.94 1525.01 1612.07 C 1491.57 1603.1 1470.08 1590.27 1442.39 1571.1 L 1399.42 1570.82 C 1399.15 1564.67 1399.69 1556.39 1399.93 1550.06 C 1400.15 1544.15 1400.08 1537.64 1400.14 1531.68 C 1372.29 1504.01 1347.04 1444.37 1341.55 1405.75 C 1330.9 1330.82 1347.89 1269.68 1390.89 1208.85 C 1390.98 1186.3 1390.88 1163.76 1390.6 1141.22 C 1400.83 1141.21 1467.24 1140.05 1473.03 1143.52 C 1479.35 1140.55 1491.73 1134.24 1497.96 1132.62 C 1503.76 1131 1510.96 1128.01 1517.28 1126.15 C 1528.7 1122.79 1539.58 1120.42 1551.2 1117.84 C 1552.97 1115.02 1552.35 1114.7 1552.48 1110.79 z" fill="url(#Gradient1)" transform="translate(0,0)"></path>
<path d="M 1772.79 1482.86 C 1775.64 1476.19 1776.23 1472.53 1780.01 1465.5 C 1783.24 1459.5 1793.53 1446.72 1795.05 1442.29 L 1793.18 1441.44 C 1792.23 1438.23 1798.27 1428.29 1799.68 1424.13 C 1804.96 1408.54 1810.21 1391.48 1811 1374.96 C 1811.77 1358.68 1811.39 1343.27 1817.42 1327.69 C 1819.46 1322.44 1821.68 1317.37 1823.18 1311.89 L 1823.46 1310.83 L 1827.62 1310 C 1843.26 1382.05 1827.57 1446.36 1789.38 1508.9 C 1778.94 1526 1754.39 1553.8 1738.06 1565.66 C 1740.99 1558.01 1740.53 1562.08 1746.45 1555.58 L 1744.57 1553.62 C 1750.16 1538.76 1752.84 1523.69 1758.27 1509.18 C 1759.82 1505.02 1771.46 1474.45 1772.63 1473.34 C 1774.05 1477.13 1773.41 1478.68 1772.79 1482.86 z" fill="rgb(244,162,36)" transform="translate(0,0)"></path>
<path d="M 1390.6 1141.22 C 1400.83 1141.21 1467.24 1140.05 1473.03 1143.52 C 1449.56 1156.8 1430.11 1168.94 1410.22 1187.67 C 1403.34 1194.15 1396.93 1203.11 1390.89 1208.85 C 1390.98 1186.3 1390.88 1163.76 1390.6 1141.22 z" fill="rgb(243,245,247)" transform="translate(0,0)"></path>
<path d="M 1400.14 1531.68 C 1410.14 1540.52 1419.88 1550.48 1429.67 1559.65 C 1433.23 1562.99 1439.5 1568.07 1442.39 1571.1 L 1399.42 1570.82 C 1399.15 1564.67 1399.69 1556.39 1399.93 1550.06 C 1400.15 1544.15 1400.08 1537.64 1400.14 1531.68 z" fill="rgb(243,245,247)" transform="translate(0,0)"></path>
<path d="M 1485.89 1210.62 C 1516.32 1185.56 1568.22 1177.86 1606.16 1181.48 C 1708.83 1191.27 1780.87 1284.84 1769.88 1386.58 C 1757.89 1497.63 1652.96 1575.69 1543.33 1550.5 L 1541.71 1551.46 C 1527.22 1551.76 1483.84 1527.46 1472.89 1516.36 C 1468.67 1512.08 1450.48 1497.06 1449.94 1490.84 C 1436.47 1471.39 1425.55 1457.76 1418.53 1434.21 C 1386.99 1354.13 1410.92 1257.16 1485.89 1210.62 z" fill="rgb(245,220,75)" transform="translate(0,0)"></path>
<path d="M 1485.89 1210.62 L 1486.29 1212.25 L 1484.83 1213.21 C 1472.75 1221.29 1450.99 1239.58 1444.3 1252.47 C 1449.52 1274.38 1444.02 1277.34 1438.4 1296.82 C 1435.29 1307.63 1435.98 1327.87 1435.57 1339.53 C 1435.44 1343.21 1443.17 1348.3 1445.23 1356.29 L 1446.91 1357.46 C 1450.86 1347.24 1460.63 1338.42 1465.1 1326.28 C 1468.66 1316.62 1493.29 1291.37 1501.67 1286.22 L 1502.81 1287.09 C 1486.45 1301.82 1480.41 1306.27 1468.67 1324.4 C 1446.37 1358.86 1432.62 1389.58 1420.01 1428.43 L 1419.4 1427.96 C 1418.28 1431.03 1418.97 1431.51 1418.53 1434.21 C 1386.99 1354.13 1410.92 1257.16 1485.89 1210.62 z" fill="rgb(234,226,232)" transform="translate(0,0)"></path>
<path d="M 1449.94 1490.84 L 1451.16 1491.96 C 1457.05 1497.44 1462.77 1504.83 1468.86 1510.36 C 1490.68 1530.17 1515.44 1542.24 1543.33 1550.5 L 1541.71 1551.46 C 1527.22 1551.76 1483.84 1527.46 1472.89 1516.36 C 1468.67 1512.08 1450.48 1497.06 1449.94 1490.84 z" fill="rgb(244,162,36)" transform="translate(0,0)"></path>
<path d="M 1581.09 1241.03 C 1581.47 1222.14 1582.79 1205.77 1606.71 1220.48 C 1609.01 1221.09 1609.76 1220.73 1610.47 1222.25 C 1612.57 1226.78 1610.85 1236.98 1609.69 1241.79 C 1631.37 1244.96 1637.83 1249.3 1655.19 1262.22 C 1680.09 1271.16 1655.28 1292.11 1643.98 1285.45 C 1628.21 1276.75 1628.77 1274.29 1610.49 1268.3 C 1611.61 1295.42 1612.08 1322.57 1611.9 1349.72 C 1626.42 1352.52 1639.35 1359.76 1651.31 1368.24 C 1660.04 1371.01 1669.7 1381.44 1673.42 1389.27 C 1687.73 1419.41 1671.77 1452.22 1642.77 1465.83 C 1632.37 1470.71 1623.38 1472.44 1612.3 1474.41 L 1612.19 1475.65 C 1611.01 1489.58 1617.08 1513.33 1597.18 1510.51 C 1573.25 1510.35 1581.01 1494.32 1581.02 1474.4 C 1558.34 1469.9 1532.51 1461.42 1516.81 1443.64 C 1506.24 1430.53 1523.27 1412.71 1536.72 1423.77 C 1552.69 1436.9 1560.75 1442.93 1580.93 1447.2 C 1581.42 1421.63 1581.57 1396.06 1581.38 1370.5 C 1569.09 1365.87 1559.4 1362.4 1547.89 1355.7 C 1516.98 1337.72 1506.16 1302.53 1526.83 1271.68 C 1540.1 1251.88 1558.36 1245.46 1581.09 1241.03 z" fill="rgb(103,88,1)" transform="translate(0,0)"></path>
<path d="M 1651.31 1368.24 C 1660.04 1371.01 1669.7 1381.44 1673.42 1389.27 C 1687.73 1419.41 1671.77 1452.22 1642.77 1465.83 C 1632.37 1470.71 1623.38 1472.44 1612.3 1474.41 L 1610.57 1472.35 C 1641.72 1468.47 1672.62 1442.41 1672.05 1409.45 C 1671.71 1390.21 1663.85 1380.93 1651.31 1368.24 z" fill="rgb(227,210,5)" transform="translate(0,0)"></path>
<path d="M 1611.9 1349.72 L 1606.61 1347.6 C 1606.21 1347.05 1605.82 1346.5 1605.42 1345.95 C 1605.79 1323.82 1605.27 1288.02 1605.5 1267.22 L 1606.7 1266.46 L 1610.49 1268.3 C 1611.61 1295.42 1612.08 1322.57 1611.9 1349.72 z" fill="rgb(227,210,5)" transform="translate(0,0)"></path>
<path d="M 1597.18 1510.51 C 1611.6 1500.98 1601.63 1490.45 1605.4 1476.57 C 1606.13 1473.91 1608.32 1473.43 1610.57 1472.35 L 1612.3 1474.41 L 1612.19 1475.65 C 1611.01 1489.58 1617.08 1513.33 1597.18 1510.51 z" fill="rgb(227,210,5)" transform="translate(0,0)"></path>
<path d="M 1655.19 1262.22 C 1680.09 1271.16 1655.28 1292.11 1643.98 1285.45 C 1656.92 1281.19 1666.51 1275.34 1655.19 1262.22 z" fill="rgb(227,210,5)" transform="translate(0,0)"></path>
<path d="M 1606.71 1220.48 C 1609.01 1221.09 1609.76 1220.73 1610.47 1222.25 C 1612.57 1226.78 1610.85 1236.98 1609.69 1241.79 C 1604.71 1239.87 1606.98 1226.36 1606.71 1220.48 z" fill="rgb(227,210,5)" transform="translate(0,0)"></path>
<path d="M 1576.97 1267.05 L 1580.01 1267 C 1581.55 1271.47 1580.62 1333.25 1580.65 1343.1 C 1573.29 1340.83 1571.88 1340.11 1565.15 1336.56 C 1546.49 1328.65 1539.56 1307.98 1547.37 1289.71 C 1555.08 1277.8 1563.3 1271.27 1576.97 1267.05 z" fill="rgb(245,220,75)" transform="translate(0,0)"></path>
<path d="M 1611.04 1446.02 C 1608.7 1446.45 1609.49 1446.41 1606.95 1445.99 C 1605.25 1442.29 1605.2 1384.57 1606.62 1379.63 C 1610.21 1378.57 1609.48 1379.07 1613.74 1380.23 C 1624.75 1383.87 1635.47 1389.05 1640.98 1400.04 C 1644.2 1406.37 1644.75 1413.73 1642.49 1420.46 C 1637.72 1434.68 1624.29 1441.6 1611.04 1446.02 z" fill="rgb(245,220,75)" transform="translate(0,0)"></path>
<path d="M 1611.04 1446.02 C 1608.7 1446.45 1609.49 1446.41 1606.95 1445.99 C 1605.25 1442.29 1605.2 1384.57 1606.62 1379.63 C 1610.21 1378.57 1609.48 1379.07 1613.74 1380.23 C 1613.28 1380.81 1612.83 1381.39 1612.38 1381.97 C 1611.52 1401.59 1612.32 1426.98 1611.04 1446.02 z" fill="rgb(227,210,5)" transform="translate(0,0)"></path>
<path d="M 212.396 463.881 C 288.848 462.971 367.03 464.129 443.75 463.995 L 1064.66 464.177 L 1320.26 464.22 C 1357.59 464.166 1407.11 465.803 1443.09 463.945 C 1450.2 472.355 1464.04 482.207 1473.17 489.046 C 1466.14 497.265 1459.23 505.584 1452.44 514.001 C 1402.32 514.693 1351.79 513.595 1301.72 514.204 C 1284.31 514.415 1251.26 513.191 1234.87 514.781 L 1232.07 514.836 C 1227.11 514.453 1219.03 514.634 1213.82 514.588 L 995.292 514.811 L 975.357 514.743 L 745.836 514.847 L 726.082 514.748 L 490.666 514.848 L 472.197 514.864 L 265.932 515.016 C 265.904 537.097 266.053 559.179 266.378 581.258 L 265.997 725.848 C 266.152 786.698 265.067 851.891 266.325 912.262 C 266.192 921.588 265.871 937.939 266.837 947.019 C 266.175 979.797 266.937 1012.87 266.65 1045.68 C 266.581 1053.54 266.148 1063.96 266.834 1071.66 C 265.394 1093.59 266.485 1120.68 266.09 1143.24 C 265.989 1203.77 264.903 1267.13 265.978 1327.42 C 265.68 1362.04 266.463 1396.74 266.177 1431.34 C 265.643 1452.65 266.799 1474.92 266.134 1495.63 L 265.763 1568.1 C 334.122 1567.93 402.482 1568.13 470.84 1568.68 C 471.257 1564.15 470.963 1553.62 470.971 1548.64 C 492.483 1547.88 516.329 1548.44 537.985 1548.53 L 650.254 1548.96 C 650.301 1555.5 650.251 1562.3 650.437 1568.81 C 674.239 1568.98 698.043 1569.02 721.846 1568.93 L 721.873 1549.03 C 779.89 1549.58 841.032 1550.18 899.014 1548.83 L 899.126 1568.85 L 980.002 1569.06 C 993.629 1569.67 1007.43 1569.47 1021.07 1569.16 C 1064.16 1568.18 1107.86 1570.05 1150.89 1568.98 L 1151.79 1569.22 C 1164.83 1570.94 1201.71 1570.02 1216.67 1569.98 C 1276.72 1570.28 1339.67 1569.26 1399.42 1570.82 L 1442.39 1571.1 C 1470.08 1590.27 1491.57 1603.1 1525.01 1612.07 C 1531.97 1613.94 1555.07 1618.12 1560.02 1620.01 L 212.685 1619.06 L 212.396 463.881 z" fill="rgb(34,37,38)" transform="translate(0,0)"></path>
<path d="M 470.971 1548.64 C 492.483 1547.88 516.329 1548.44 537.985 1548.53 L 650.254 1548.96 C 650.301 1555.5 650.251 1562.3 650.437 1568.81 C 590.572 1569.16 530.705 1569.11 470.84 1568.68 C 471.257 1564.15 470.963 1553.62 470.971 1548.64 z" fill="rgb(159,40,81)" transform="translate(0,0)"></path>
<path d="M 721.873 1549.03 C 779.89 1549.58 841.032 1550.18 899.014 1548.83 L 899.126 1568.85 C 840.033 1568.52 780.938 1568.55 721.846 1568.93 L 721.873 1549.03 z" fill="rgb(117,39,227)" transform="translate(0,0)"></path>
<path d="M 1376.2 811.921 L 1390.5 811.839 C 1390.56 819.584 1390.24 833.774 1390.82 840.829 C 1387.88 890.699 1391.6 943.901 1390.15 994.098 C 1389.95 1000.84 1389.86 1010.14 1390.29 1016.75 C 1390.09 1039.25 1390.12 1061.75 1390.37 1084.25 C 1390.23 1103.24 1390.31 1122.23 1390.6 1141.22 C 1390.88 1163.76 1390.98 1186.3 1390.89 1208.85 C 1347.89 1269.68 1330.9 1330.82 1341.55 1405.75 C 1347.04 1444.37 1372.29 1504.01 1400.14 1531.68 C 1400.08 1537.64 1400.15 1544.15 1399.93 1550.06 C 1399.69 1556.39 1399.15 1564.67 1399.42 1570.82 C 1339.67 1569.26 1276.72 1570.28 1216.67 1569.98 L 1216.82 1566.26 C 1215.3 1549.35 1216.49 1525.04 1216.32 1507.51 C 1215.93 1466.47 1217.31 1424.17 1216.17 1383.22 C 1217.17 1372.57 1216.79 1348.44 1216.18 1337.7 C 1217.28 1324.98 1216.2 1289.86 1216.16 1275.62 C 1215.98 1231.71 1216.07 1187.8 1216.41 1143.89 C 1216.78 1138.41 1216.5 1131.64 1216.42 1126.07 C 1216 1088.91 1215.77 1051.74 1215.73 1014.58 C 1216.17 993.218 1215.87 970.869 1215.89 949.431 C 1215.9 932.709 1216.23 911.418 1215.16 894.969 C 1215.49 890.725 1215.18 883.179 1215.11 878.658 C 1214.77 864.481 1214.99 849.425 1214.95 835.178 C 1221.86 840.816 1233.06 846.539 1240.64 852.028 C 1251.31 859.756 1261.31 868.262 1271.46 876.639 C 1285.08 861.977 1309.62 828.923 1322.95 812.116 L 1376.2 811.921 z" fill="rgb(230,74,117)" transform="translate(0,0)"></path>
<path d="M 1322.95 812.116 L 1376.2 811.921 C 1345.47 849.077 1310.59 896.43 1279.48 930.671 C 1260.61 916.657 1242.76 901.362 1224.7 886.352 C 1221.54 883.734 1218.48 880.998 1215.11 878.658 C 1214.77 864.481 1214.99 849.425 1214.95 835.178 C 1221.86 840.816 1233.06 846.539 1240.64 852.028 C 1251.31 859.756 1261.31 868.262 1271.46 876.639 C 1285.08 861.977 1309.62 828.923 1322.95 812.116 z" fill="rgb(159,40,81)" transform="translate(0,0)"></path>
<path d="M 1216.96 1550.57 C 1238.4 1551.55 1264.85 1550.82 1286.49 1550.68 L 1399.93 1550.06 C 1399.69 1556.39 1399.15 1564.67 1399.42 1570.82 C 1339.67 1569.26 1276.72 1570.28 1216.67 1569.98 L 1216.82 1566.26 C 1217.22 1561.76 1216.99 1555.23 1216.96 1550.57 z" fill="rgb(159,40,81)" transform="translate(0,0)"></path>
<path d="M 829.463 994.904 C 839.19 996.357 856.82 996.041 867.185 996.168 C 877.802 996.3 888.42 996.335 899.037 996.274 L 898.911 1126.71 L 898.802 1141.26 L 898.857 1348.64 L 898.899 1364.9 L 899.014 1548.83 C 841.032 1550.18 779.89 1549.58 721.873 1549.03 L 721.846 1568.93 C 698.043 1569.02 674.239 1568.98 650.437 1568.81 C 650.251 1562.3 650.301 1555.5 650.254 1548.96 C 650.79 1487.79 650.097 1425.65 649.888 1364.44 L 649.929 1347.6 C 651.395 1347.81 657.323 1348.28 658.578 1348.14 C 667.427 1347.13 717.868 1350.27 721.979 1346.21 C 721.093 1279.61 721.763 1208.78 722.418 1142.09 C 723.264 1131.19 722.301 1119.25 722.861 1107.89 C 724.166 1099.76 723.323 1074.51 723.193 1065.51 C 737.114 1073.34 750.97 1081.3 764.759 1089.37 C 778.857 1069.88 792.348 1047.77 806.256 1027.96 C 812.044 1019.71 822.659 1001.38 829.463 994.904 z" fill="rgb(190,137,248)" transform="translate(0,0)"></path>
<path d="M 721.979 1346.21 C 721.956 1374.23 723.173 1413.06 721.81 1440.52 L 721.873 1549.03 L 721.846 1568.93 C 698.043 1569.02 674.239 1568.98 650.437 1568.81 C 650.251 1562.3 650.301 1555.5 650.254 1548.96 C 650.79 1487.79 650.097 1425.65 649.888 1364.44 L 649.929 1347.6 C 651.395 1347.81 657.323 1348.28 658.578 1348.14 C 667.427 1347.13 717.868 1350.27 721.979 1346.21 z" fill="rgb(243,245,247)" transform="translate(0,0)"></path>
<path d="M 721.979 1346.21 C 721.956 1374.23 723.173 1413.06 721.81 1440.52 C 719.926 1426.92 720.91 1380.48 720.922 1364.38 C 697.693 1363.72 673.172 1365.16 649.888 1364.44 L 649.929 1347.6 C 651.395 1347.81 657.323 1348.28 658.578 1348.14 C 667.427 1347.13 717.868 1350.27 721.979 1346.21 z" fill="rgb(234,226,232)" transform="translate(0,0)"></path>
<path d="M 829.463 994.904 C 839.19 996.357 856.82 996.041 867.185 996.168 C 868.149 1000.92 853.647 1020.92 850.318 1025.95 L 806.552 1092.74 C 796.4 1108.11 785.025 1124.23 775.604 1139.92 C 768.097 1134.97 729.392 1109.98 722.861 1107.89 C 724.166 1099.76 723.323 1074.51 723.193 1065.51 C 737.114 1073.34 750.97 1081.3 764.759 1089.37 C 778.857 1069.88 792.348 1047.77 806.256 1027.96 C 812.044 1019.71 822.659 1001.38 829.463 994.904 z" fill="rgb(117,39,227)" transform="translate(0,0)"></path>
<path d="M 502.203 1140.61 C 509.014 1142.74 568.477 1141.96 578.732 1141.96 L 722.418 1142.09 C 721.763 1208.78 721.093 1279.61 721.979 1346.21 C 717.868 1350.27 667.427 1347.13 658.578 1348.14 C 657.323 1348.28 651.395 1347.81 649.929 1347.6 L 649.888 1364.44 C 650.097 1425.65 650.79 1487.79 650.254 1548.96 L 537.985 1548.53 C 516.329 1548.44 492.483 1547.88 470.971 1548.64 C 469.959 1496.37 471.667 1442.46 470.179 1390.49 C 471.008 1382.88 470.776 1367.43 470.818 1359.46 C 470.974 1340.79 470.968 1322.12 470.799 1303.45 C 471.354 1278.67 470.752 1253.61 470.984 1228.81 C 471.108 1215.56 470.494 1199.49 472.048 1186.51 C 474.263 1183.78 479.048 1175.98 481.175 1172.69 L 502.203 1140.61 z" fill="rgb(230,74,117)" transform="translate(0,0)"></path>
<path d="M 502.203 1140.61 C 509.014 1142.74 568.477 1141.96 578.732 1141.96 L 722.418 1142.09 C 721.763 1208.78 721.093 1279.61 721.979 1346.21 C 717.868 1350.27 667.427 1347.13 658.578 1348.14 C 657.323 1348.28 651.395 1347.81 649.929 1347.6 L 649.955 1172.31 C 594.292 1172.51 536.7 1173.44 481.175 1172.69 L 502.203 1140.61 z" fill="rgb(243,245,247)" transform="translate(0,0)"></path>
<path d="M 1499.02 587.199 C 1512.24 570.081 1524.45 553.768 1538.39 537.127 C 1543.45 541.098 1547.74 544.575 1552.56 548.834 L 1552.02 927.64 L 1552 1045.8 C 1552 1065.56 1551.26 1091.69 1552.48 1110.79 C 1552.35 1114.7 1552.97 1115.02 1551.2 1117.84 C 1539.58 1120.42 1528.7 1122.79 1517.28 1126.15 C 1510.96 1128.01 1503.76 1131 1497.96 1132.62 C 1491.73 1134.24 1479.35 1140.55 1473.03 1143.52 C 1467.24 1140.05 1400.83 1141.21 1390.6 1141.22 C 1390.31 1122.23 1390.23 1103.24 1390.37 1084.25 C 1390.12 1061.75 1390.09 1039.25 1390.29 1016.75 C 1389.86 1010.14 1389.95 1000.84 1390.15 994.098 C 1391.6 943.901 1387.88 890.699 1390.82 840.829 C 1390.24 833.774 1390.56 819.584 1390.5 811.839 L 1376.2 811.921 L 1322.95 812.116 C 1325.9 806.947 1336.54 792.85 1340.44 787.712 C 1359.02 763.264 1378.58 739.766 1397.37 715.381 C 1400.93 710.51 1403.9 706.213 1408.08 701.818 C 1412.05 703.868 1486.45 702.94 1497.61 702.928 C 1497.61 698.345 1496.86 684.119 1498.69 681.264 C 1499.37 650.562 1498.76 618.107 1499.02 587.199 z" fill="rgb(243,245,247)" transform="translate(0,0)"></path>
<path d="M 1499.02 587.199 C 1512.24 570.081 1524.45 553.768 1538.39 537.127 C 1543.45 541.098 1547.74 544.575 1552.56 548.834 L 1552.02 927.64 L 1552 1045.8 C 1552 1065.56 1551.26 1091.69 1552.48 1110.79 C 1552.35 1114.7 1552.97 1115.02 1551.2 1117.84 C 1539.58 1120.42 1528.7 1122.79 1517.28 1126.15 C 1510.96 1128.01 1503.76 1131 1497.96 1132.62 L 1498.41 1126.27 L 1498.13 1122.32 C 1499.36 1111.81 1498.81 1085.27 1498.84 1073.91 L 1498.91 982.112 L 1498.69 681.264 C 1499.37 650.562 1498.76 618.107 1499.02 587.199 z" fill="rgb(34,37,38)" transform="translate(0,0)"></path>
<path d="M 1391.12 936.119 C 1427.28 936.566 1461.53 937.115 1497.73 935.885 L 1497.65 1062.53 C 1497.63 1073.94 1496.75 1112.26 1498.13 1122.32 L 1498.41 1126.27 L 1497.96 1132.62 C 1491.73 1134.24 1479.35 1140.55 1473.03 1143.52 C 1467.24 1140.05 1400.83 1141.21 1390.6 1141.22 C 1390.31 1122.23 1390.23 1103.24 1390.37 1084.25 C 1390.12 1061.75 1390.09 1039.25 1390.29 1016.75 C 1392.31 1013.21 1391.01 945.213 1391.12 936.119 z" fill="rgb(243,245,247)" transform="translate(0,0)"></path>
<path d="M 1390.37 1084.25 C 1392.17 1087.37 1391.38 1119.22 1391.33 1125.15 C 1423.3 1125.72 1468.5 1124.05 1498.41 1126.27 L 1497.96 1132.62 C 1491.73 1134.24 1479.35 1140.55 1473.03 1143.52 C 1467.24 1140.05 1400.83 1141.21 1390.6 1141.22 C 1390.31 1122.23 1390.23 1103.24 1390.37 1084.25 z" fill="rgb(234,226,232)" transform="translate(0,0)"></path>
<path d="M 1497.61 702.928 C 1497.61 698.345 1496.86 684.119 1498.69 681.264 L 1498.91 982.112 L 1498.84 1073.91 C 1498.81 1085.27 1499.36 1111.81 1498.13 1122.32 C 1496.75 1112.26 1497.63 1073.94 1497.65 1062.53 L 1497.73 935.885 C 1461.53 937.115 1427.28 936.566 1391.12 936.119 C 1391.01 945.213 1392.31 1013.21 1390.29 1016.75 C 1389.86 1010.14 1389.95 1000.84 1390.15 994.098 C 1391.6 943.901 1387.88 890.699 1390.82 840.829 C 1392.55 858.278 1391.35 900.707 1391.32 920 C 1425.15 921.177 1463.64 920.417 1497.83 920.548 L 1497.61 720.675 C 1491.54 720.81 1485.46 720.897 1479.39 720.936 C 1460.74 721.056 1420.12 722.611 1400.89 718.858 C 1399.51 717.497 1398.34 716.338 1397.37 715.381 C 1400.93 710.51 1403.9 706.213 1408.08 701.818 C 1412.05 703.868 1486.45 702.94 1497.61 702.928 z" fill="rgb(234,226,232)" transform="translate(0,0)"></path>
<path d="M 1213.82 514.588 C 1219.03 514.634 1227.11 514.453 1232.07 514.836 L 1234.87 514.781 C 1260.7 515.523 1288.56 514.978 1314.51 514.934 L 1451.17 514.83 C 1425.5 542.44 1396.7 581.196 1373.09 610.966 C 1348.84 641.536 1323.22 671.726 1299.19 702.154 C 1295.94 706.712 1287.99 718.364 1284.09 721.259 C 1274.47 732.71 1264.91 744.332 1256.6 756.79 C 1251.12 752.558 1245.26 748.188 1240.04 743.699 C 1218.51 727.651 1196.7 715.226 1174 697.594 C 1167.07 694.417 1141.9 675.39 1134.73 670.27 L 1057.57 615.752 C 1043.7 605.752 1014.95 583.875 1000.54 576.281 L 998.257 577.289 L 997.007 577.046 C 993.462 572.329 995.181 524.168 995.292 514.811 L 1213.82 514.588 z" fill="rgb(243,245,247)" transform="translate(0,0)"></path>
<path d="M 995.292 514.811 L 1213.82 514.588 C 1213.6 522.719 1213.55 530.999 1213.7 539.133 C 1214.68 592.85 1212.9 647.156 1214.73 700.809 C 1205.56 700.948 1195.84 701.253 1186.75 700.141 C 1182.39 699.607 1178.48 698.207 1174 697.594 C 1167.07 694.417 1141.9 675.39 1134.73 670.27 L 1057.57 615.752 C 1043.7 605.752 1014.95 583.875 1000.54 576.281 L 998.257 577.289 L 997.007 577.046 C 993.462 572.329 995.181 524.168 995.292 514.811 z" fill="rgb(243,245,247)" transform="translate(0,0)"></path>
<path d="M 1213.82 514.588 C 1219.03 514.634 1227.11 514.453 1232.07 514.836 C 1233.02 534.375 1231.79 552.624 1232.23 571.662 C 1233.21 614.555 1231.83 658.377 1232.94 701.099 C 1254.49 701.807 1278.45 701.171 1299.19 702.154 C 1295.94 706.712 1287.99 718.364 1284.09 721.259 C 1274.47 732.71 1264.91 744.332 1256.6 756.79 C 1251.12 752.558 1245.26 748.188 1240.04 743.699 C 1218.51 727.651 1196.7 715.226 1174 697.594 C 1178.48 698.207 1182.39 699.607 1186.75 700.141 C 1195.84 701.253 1205.56 700.948 1214.73 700.809 C 1212.9 647.156 1214.68 592.85 1213.7 539.133 C 1213.55 530.999 1213.6 522.719 1213.82 514.588 z" fill="rgb(234,226,232)" transform="translate(0,0)"></path>
<path d="M 1230.73 720.977 C 1243.62 720.668 1272.89 719.373 1284.09 721.259 C 1274.47 732.71 1264.91 744.332 1256.6 756.79 C 1251.12 752.558 1245.26 748.188 1240.04 743.699 C 1238.02 739.216 1235.25 737.122 1231.71 733.685 C 1231.13 730.031 1230.96 724.786 1230.73 720.977 z" fill="rgb(243,245,247)" transform="translate(0,0)"></path>
<path d="M 1013.98 721.426 C 1022.84 726.094 1050.4 726.986 1059.58 723.463 C 1092.28 745.583 1127.28 772.432 1159.83 795.811 C 1171.71 804.39 1183.65 812.896 1195.65 821.329 C 1200.59 824.801 1211.07 831.698 1214.95 835.178 C 1214.99 849.425 1214.77 864.481 1215.11 878.658 C 1215.18 883.179 1215.49 890.725 1215.16 894.969 C 1216.23 911.418 1215.9 932.709 1215.89 949.431 C 1215.87 970.869 1216.17 993.218 1215.73 1014.58 C 1213.9 1008.19 1214.69 947.405 1214.68 936.433 C 1192.98 937.748 1163.74 936.993 1141.48 936.989 C 1092.61 936.763 1043.75 936.782 994.879 937.045 L 994.683 958.187 C 990.897 958.141 981.743 957.629 978.662 958.774 C 974.484 952.748 975.284 944.535 975.21 937.128 C 959.95 937.153 882.067 938.202 870.409 934.524 C 873.739 930.185 877.929 923.43 881.05 918.712 C 897.326 891.467 916.594 865.723 934.363 839.482 C 947.59 819.949 958.936 801.509 973.552 782.819 C 978.774 774.328 985.791 764.318 991.397 755.916 C 998.466 744.499 1006.54 732.685 1013.98 721.426 z" fill="rgb(243,245,247)" transform="translate(0,0)"></path>
<path d="M 973.552 782.819 C 978.774 774.328 985.791 764.318 991.397 755.916 C 996.253 763.069 994.881 806.03 994.919 817.865 L 995.022 920.285 C 1027.28 921.276 1061.6 920.563 1093.97 920.298 L 1214.63 919.821 C 1214.63 912.933 1214.28 901.433 1215.16 894.969 C 1216.23 911.418 1215.9 932.709 1215.89 949.431 C 1215.87 970.869 1216.17 993.218 1215.73 1014.58 C 1213.9 1008.19 1214.69 947.405 1214.68 936.433 C 1192.98 937.748 1163.74 936.993 1141.48 936.989 C 1092.61 936.763 1043.75 936.782 994.879 937.045 L 994.683 958.187 C 990.897 958.141 981.743 957.629 978.662 958.774 C 974.484 952.748 975.284 944.535 975.21 937.128 C 959.95 937.153 882.067 938.202 870.409 934.524 C 873.739 930.185 877.929 923.43 881.05 918.712 C 897.326 891.467 916.594 865.723 934.363 839.482 C 947.59 819.949 958.936 801.509 973.552 782.819 z" fill="rgb(234,226,232)" transform="translate(0,0)"></path>
<path d="M 973.552 782.819 C 976.271 788.228 974.769 904.781 974.911 919.85 C 965.877 919.859 884.54 920.9 881.05 918.712 C 897.326 891.467 916.594 865.723 934.363 839.482 C 947.59 819.949 958.936 801.509 973.552 782.819 z" fill="rgb(243,245,247)" transform="translate(0,0)"></path>
<path d="M 349.892 1365.12 C 384.242 1362.31 433.05 1365.86 469.682 1364.56 C 469.675 1372.07 469.333 1383.32 470.179 1390.49 C 471.667 1442.46 469.959 1496.37 470.971 1548.64 C 470.963 1553.62 471.257 1564.15 470.84 1568.68 C 402.482 1568.13 334.122 1567.93 265.763 1568.1 L 266.134 1495.63 C 267.776 1483.79 337.716 1383.91 349.892 1365.12 z" fill="rgb(243,245,247)" transform="translate(0,0)"></path>
<path d="M 598.205 992.403 C 623.902 1008.8 651.518 1023.48 677.713 1039.25 C 683.157 1042.53 715.185 1062.2 719.146 1063.12 C 719.081 1070.95 718.035 1102.9 721.594 1108.09 L 722.861 1107.89 C 722.301 1119.25 723.264 1131.19 722.418 1142.09 L 578.732 1141.96 C 568.477 1141.96 509.014 1142.74 502.203 1140.61 C 505.638 1134.92 508.278 1131.2 512.227 1125.85 C 520.325 1111.4 531.749 1096.86 540.708 1082.88 C 559.156 1054.08 581.68 1022.16 598.205 992.403 z" fill="rgb(243,245,247)" transform="translate(0,0)"></path>
<path d="M 722.861 1107.89 C 722.301 1119.25 723.264 1131.19 722.418 1142.09 L 578.732 1141.96 C 568.477 1141.96 509.014 1142.74 502.203 1140.61 C 505.638 1134.92 508.278 1131.2 512.227 1125.85 C 517.459 1128.19 700.258 1126.92 721.773 1126.9 L 721.594 1108.09 L 722.861 1107.89 z" fill="rgb(234,226,232)" transform="translate(0,0)"></path>
<path d="M 266.09 1143.24 C 277.027 1142.09 383.683 1142.42 387.718 1144.15 L 303.252 1272.57 C 294.784 1285.36 275.461 1316.95 265.978 1327.42 C 264.903 1267.13 265.989 1203.77 266.09 1143.24 z" fill="rgb(243,245,247)" transform="translate(0,0)"></path>
<path d="M 472.048 1186.51 C 470.494 1199.49 471.108 1215.56 470.984 1228.81 C 470.752 1253.61 471.354 1278.67 470.799 1303.45 C 470.968 1322.12 470.974 1340.79 470.818 1359.46 C 470.776 1367.43 471.008 1382.88 470.179 1390.49 C 469.333 1383.32 469.675 1372.07 469.682 1364.56 C 433.05 1365.86 384.242 1362.31 349.892 1365.12 C 354.385 1358.51 358.116 1352.93 363.188 1346.77 L 433.639 1243.81 C 441.603 1231.93 464.614 1195.03 472.048 1186.51 z" fill="rgb(243,245,247)" transform="translate(0,0)"></path>
<path d="M 469.806 1348.33 C 469.753 1338.36 469.188 1312.45 470.799 1303.45 C 470.968 1322.12 470.974 1340.79 470.818 1359.46 C 470.776 1367.43 471.008 1382.88 470.179 1390.49 C 469.333 1383.32 469.675 1372.07 469.682 1364.56 C 433.05 1365.86 384.242 1362.31 349.892 1365.12 C 354.385 1358.51 358.116 1352.93 363.188 1346.77 C 371.126 1350.37 456.078 1348.87 469.806 1348.33 z" fill="rgb(234,226,232)" transform="translate(0,0)"></path>
<path d="M 1499.02 587.199 C 1498.76 618.107 1499.37 650.562 1498.69 681.264 C 1496.86 684.119 1497.61 698.345 1497.61 702.928 C 1486.45 702.94 1412.05 703.868 1408.08 701.818 C 1438.66 662.15 1467.84 626.139 1499.02 587.199 z" fill="rgb(243,245,247)" transform="translate(0,0)"></path>
<path d="M 1026.59 701.107 C 1035.47 707.149 1051.87 717.373 1059.58 723.463 C 1050.4 726.986 1022.84 726.094 1013.98 721.426 C 1017.28 716.333 1024.27 706.197 1026.59 701.107 z" fill="rgb(234,226,232)" transform="translate(0,0)"></path>
<metadata><recraft-signature>{"signed_by": "recraft", "signature_b64": "N9pJltyUOXphBsOIzjgI44T3eVHtv96MLVCDC2fi0T9DSp28u2bJsFzH+efD7plf34l6qvLrUfgDOr/zW8ZtDg==", "signing_algo": "Ed25519", "generation_timestamp": 1771752683, "identifier": "275f667d-0dfc-47e7-9c1e-7767b2411e0c"}</recraft-signature></metadata></svg>