<svg xmlns="http://www.w3.org/2000/svg" height="1024" preserveAspectRatio="none" style="display: block;" version="1.1" viewBox="0 0 2048 2048" width="1024">
<path d="M 701.882 216.719 C 770.098 177.626 798.534 184.231 868.708 218.252 C 856.614 223.478 833.174 232.409 824.186 239.858 C 837.396 249.445 857.635 261.884 869.549 271.587 C 884.325 283.621 924.591 324.72 932.194 341.287 C 934.361 344.088 934.269 345.116 936.828 345.509 C 945.489 335.133 954.07 314.584 962.406 303.026 C 1016.2 380.141 1049.76 466.816 1011.09 559.189 C 1053.45 568.073 1102.84 593.596 1136.96 619.885 C 1153.57 599.04 1179.03 574.066 1204.38 564.147 C 1229.66 554.26 1243.43 563.46 1265.88 573.683 C 1272.3 576.88 1281.08 580.84 1282.62 588.223 C 1289.97 623.384 1269.54 676.438 1266.43 710.19 C 1266.46 711.907 1266.43 714.615 1267.47 716.078 C 1319.95 789.709 1341.74 880.265 1341.81 969.769 C 1341.81 976.899 1341.38 983.999 1340.8 991.189 C 1357.71 1008.65 1363.03 1023.83 1363.1 1048.35 C 1363.2 1087.46 1348.01 1135.76 1320.27 1164.38 C 1334.63 1172.22 1350.54 1178.76 1365.23 1186.49 C 1407.41 1208.68 1452.28 1230.62 1493.44 1254.43 C 1498.5 1256.78 1504.01 1259.16 1508.88 1261.86 C 1532.33 1274.87 1565.66 1285.34 1562.17 1318 L 1562.09 1470.97 C 1540.62 1484.64 1507.57 1501.16 1484.03 1514.39 L 1275.28 1630.7 L 1113.1 1722.6 C 1090.29 1735.64 1048.55 1761.58 1026.14 1771.64 C 1025.87 1737.78 1025.77 1703.91 1025.85 1670.05 C 1025.86 1662.37 1026.52 1631.87 1025.31 1626.23 C 1031.65 1624.05 1064.31 1604.92 1071.26 1600.8 C 1078.01 1597.42 1084.9 1593.59 1091.5 1589.9 C 1132.42 1567.01 1173.83 1545.08 1214.27 1521.36 C 1207.9 1520.46 1190.75 1520.89 1183.55 1520.89 C 1166.08 1520.98 1148.61 1520.66 1131.15 1519.94 C 1059.01 1516.65 980.054 1505.95 908.505 1493.63 C 895.548 1491.4 870.238 1472.65 857.532 1464.92 L 784.613 1420.7 C 762.028 1407.18 739.335 1393.83 716.536 1380.67 C 659.363 1348.12 602.006 1315.88 544.469 1283.98 C 528.225 1274.82 511.541 1266.3 495.539 1256.77 C 510.869 1244.91 530.483 1237 547.064 1226.81 C 550.428 1224.74 549.966 1224.31 550.481 1221.21 C 547.591 1177.68 542.391 1129.98 540.61 1087.06 C 536.072 1073.81 525.593 1054.15 519.868 1040.24 C 458.354 890.774 486.648 739.802 599.405 624.058 C 617.995 604.628 656.163 576.817 680.988 565.568 C 687.281 561.853 692.728 558.58 699.318 555.439 C 697.63 549.884 683.948 533.453 680.062 527.089 C 632.199 448.723 598.72 332.814 656.698 251.093 C 668.062 235.075 684.864 225.304 701.882 216.719 z" fill="rgb(230,74,117)" transform="translate(0,0)"></path>
<path d="M 1320.27 1164.38 C 1334.63 1172.22 1350.54 1178.76 1365.23 1186.49 C 1407.41 1208.68 1452.28 1230.62 1493.44 1254.43 C 1498.5 1256.78 1504.01 1259.16 1508.88 1261.86 C 1532.33 1274.87 1565.66 1285.34 1562.17 1318 L 1562.09 1470.97 C 1540.62 1484.64 1507.57 1501.16 1484.03 1514.39 L 1275.28 1630.7 L 1113.1 1722.6 C 1090.29 1735.64 1048.55 1761.58 1026.14 1771.64 C 1025.87 1737.78 1025.77 1703.91 1025.85 1670.05 C 1025.86 1662.37 1026.52 1631.87 1025.31 1626.23 C 1031.65 1624.05 1064.31 1604.92 1071.26 1600.8 C 1078.01 1597.42 1084.9 1593.59 1091.5 1589.9 C 1132.42 1567.01 1173.83 1545.08 1214.27 1521.36 C 1207.9 1520.46 1190.75 1520.89 1183.55 1520.89 C 1166.08 1520.98 1148.61 1520.66 1131.15 1519.94 C 1059.01 1516.65 980.054 1505.95 908.505 1493.63 C 895.548 1491.4 870.238 1472.65 857.532 1464.92 L 784.613 1420.7 C 762.028 1407.18 739.335 1393.83 716.536 1380.67 C 659.363 1348.12 602.006 1315.88 544.469 1283.98 C 528.225 1274.82 511.541 1266.3 495.539 1256.77 C 510.869 1244.91 530.483 1237 547.064 1226.81 C 550.428 1224.74 549.966 1224.31 550.481 1221.21 C 551.586 1238.23 551.561 1246.33 566.175 1258.35 C 604.017 1289.5 676.83 1291.15 719.6 1270.94 C 739.689 1284.62 763.81 1296.22 785.998 1305.93 C 864.139 1338.58 930.772 1347.56 1014.98 1333.24 C 1027.49 1331.74 1052.11 1324.09 1065.3 1320.68 C 1093.2 1308.65 1108.94 1307.34 1138.01 1288.12 C 1156.83 1278.28 1207.28 1239.83 1222.95 1225.45 C 1232.41 1219.67 1239.06 1215.12 1249.14 1209.57 C 1277.28 1194.67 1295.9 1185.21 1320.27 1164.38 z" fill="rgb(96,206,238)" transform="translate(0,0)"></path>
<path d="M 1562.17 1318 L 1562.09 1470.97 C 1540.62 1484.64 1507.57 1501.16 1484.03 1514.39 L 1275.28 1630.7 L 1113.1 1722.6 C 1090.29 1735.64 1048.55 1761.58 1026.14 1771.64 C 1025.87 1737.78 1025.77 1703.91 1025.85 1670.05 C 1025.86 1662.37 1026.52 1631.87 1025.31 1626.23 C 1031.65 1624.05 1064.31 1604.92 1071.26 1600.8 C 1078.01 1597.42 1084.9 1593.59 1091.5 1589.9 C 1132.42 1567.01 1173.83 1545.08 1214.27 1521.36 C 1222.81 1518.29 1258.18 1496.55 1269.24 1490.62 C 1347.73 1448.53 1425.87 1404.61 1503.56 1361.02 C 1512.84 1357.82 1542.59 1338.59 1550.3 1331.51 C 1554.55 1327.6 1558.65 1322.65 1562.17 1318 z" fill="rgb(117,39,227)" transform="translate(0,0)"></path>
<path d="M 785.998 1305.93 C 864.139 1338.58 930.772 1347.56 1014.98 1333.24 C 1015.15 1347.84 1015.2 1362.54 1015.43 1377.11 C 1015.67 1392.44 1014.66 1403.21 1004.01 1415.26 C 983.143 1438.87 947.374 1448.45 916.886 1450.67 C 880.911 1453.3 836.161 1446.78 807.302 1423.36 C 791.002 1410.25 793.823 1389.43 791.809 1370.79 C 789.481 1349.25 787.456 1327.56 785.998 1305.93 z" fill="rgb(34,37,38)" transform="translate(0,0)"></path>
<path d="M 1249.14 1209.57 C 1249.04 1221.71 1249.02 1233.85 1249.09 1245.99 C 1249.24 1270.09 1250.65 1288.24 1231.56 1305.77 C 1189.52 1344.4 1113.4 1343.28 1065.3 1320.68 C 1093.2 1308.65 1108.94 1307.34 1138.01 1288.12 C 1156.83 1278.28 1207.28 1239.83 1222.95 1225.45 C 1232.41 1219.67 1239.06 1215.12 1249.14 1209.57 z" fill="rgb(34,37,38)" transform="translate(0,0)"></path>
<path d="M 1493.44 1254.43 C 1498.5 1256.78 1504.01 1259.16 1508.88 1261.86 C 1532.33 1274.87 1565.66 1285.34 1562.17 1318 C 1558.65 1322.65 1554.55 1327.6 1550.3 1331.51 C 1542.59 1338.59 1512.84 1357.82 1503.56 1361.02 C 1494.16 1354.79 1472.88 1344.01 1462.07 1338.47 C 1441.5 1327.91 1424.8 1318.65 1405.02 1306.57 C 1433.02 1288.18 1464.42 1272.66 1493.44 1254.43 z" fill="rgb(47,133,240)" transform="translate(0,0)"></path>
<path d="M 701.882 216.719 C 770.098 177.626 798.534 184.231 868.708 218.252 C 856.614 223.478 833.174 232.409 824.186 239.858 C 837.396 249.445 857.635 261.884 869.549 271.587 C 884.325 283.621 924.591 324.72 932.194 341.287 C 934.361 344.088 934.269 345.116 936.828 345.509 C 945.489 335.133 954.07 314.584 962.406 303.026 C 1016.2 380.141 1049.76 466.816 1011.09 559.189 C 997.717 581.898 970.193 628.067 943.222 634.807 C 925.742 647.135 905.73 655.404 884.646 659.013 C 824.479 668.862 763.643 623.755 724.552 583.136 C 717.844 576.658 711.978 569.691 705.868 562.662 L 699.318 555.439 C 697.63 549.884 683.948 533.453 680.062 527.089 C 632.199 448.723 598.72 332.814 656.698 251.093 C 668.062 235.075 684.864 225.304 701.882 216.719 z" fill="rgb(245,220,75)" transform="translate(0,0)"></path>
<path d="M 962.406 303.026 C 1016.2 380.141 1049.76 466.816 1011.09 559.189 C 997.717 581.898 970.193 628.067 943.222 634.807 C 950.465 627.326 956.677 621.339 962.497 612.121 C 1002.83 546.246 988.264 460.274 959.835 392.68 C 955.333 381.976 933.11 347.726 932.194 341.287 C 934.361 344.088 934.269 345.116 936.828 345.509 C 945.489 335.133 954.07 314.584 962.406 303.026 z" fill="rgb(246,172,13)" transform="translate(0,0)"></path>
<path d="M 701.882 216.719 C 770.098 177.626 798.534 184.231 868.708 218.252 C 856.614 223.478 833.174 232.409 824.186 239.858 C 818.288 237.8 808.461 232.292 801.436 229.462 C 776.841 219.556 752.836 213.188 726.14 213.813 C 717.258 214.021 710.574 216.354 703.57 216.659 L 701.882 216.719 z" fill="rgb(246,172,13)" transform="translate(0,0)"></path>
<path d="M 860.633 524.681 C 889.053 492.125 846.64 440.15 820.539 421.02 C 810.873 413.936 779.574 390.625 789.353 377.404 C 793.238 375.802 793.061 375.947 797.3 376.607 C 795.593 378.851 794.573 380.649 794.804 383.595 C 796.281 402.366 869.178 436.778 877.063 489.703 C 878.363 498.426 877.835 508.319 872.998 515.964 C 870.583 519.782 866.507 523.427 862.028 524.47 C 861.57 524.577 861.098 524.61 860.633 524.681 z" fill="rgb(246,172,13)" transform="translate(0,0)"></path>
<path d="M 789.787 297.356 C 797.532 297.038 816.616 307.792 822.581 312.288 C 825.155 313.246 827.794 313.571 828.43 316.166 C 830.568 324.89 829.036 336.914 829.049 345.812 C 848.106 362.073 871.675 384.311 875.035 411.009 C 875.38 413.746 875.071 413.882 873.203 416.054 C 870.807 415.15 871.572 415.708 869.815 413.932 C 859.649 381.806 844.165 367.01 821.595 343.991 C 820.018 342.383 820.24 317.099 821.047 313.22 C 814.777 310.89 797.892 301.122 789.787 297.356 z" fill="rgb(246,172,13)" transform="translate(0,0)"></path>
<path d="M 759.929 441.956 C 767.212 439.349 773.724 439.665 781.309 439.811 C 784.151 444.987 784.413 450.597 786.987 456.095 C 793.122 469.195 797.753 474.699 811.232 479.357 L 813.008 479.959 C 817.261 477.543 815.329 474.843 817.305 470.999 C 819.629 474.812 820.86 476.15 820.475 480.517 C 813.509 490.135 793.815 474.471 787.942 468.346 C 780.064 460.131 777.856 453.262 775.098 442.766 C 769.593 441.958 765.436 442.009 759.929 441.956 z" fill="rgb(246,172,13)" transform="translate(0,0)"></path>
<path d="M 819.496 528.728 L 825.106 529.324 C 827.545 533.959 827.496 560.513 821.843 563.627 C 818.735 558.604 819.639 536.105 819.496 528.728 z" fill="rgb(246,172,13)" transform="translate(0,0)"></path>
<path d="M 1139 1237.86 C 1110.66 1213.84 1109.75 1174.13 1118.32 1140.4 C 1138.05 1063.64 1199.07 1006.11 1273.61 982.501 C 1289.71 977.403 1301.29 975.093 1317.8 979.429 C 1321.44 981.245 1338.8 990.738 1340.8 991.189 C 1357.71 1008.65 1363.03 1023.83 1363.1 1048.35 C 1363.2 1087.46 1348.01 1135.76 1320.27 1164.38 C 1295.9 1185.21 1277.28 1194.67 1249.14 1209.57 C 1239.06 1215.12 1232.41 1219.67 1222.95 1225.45 C 1196.74 1233.25 1175.62 1256.5 1144.47 1240.58 C 1142.65 1239.65 1140.84 1238.73 1139 1237.86 z" fill="rgb(253,139,195)" transform="translate(0,0)"></path>
<path d="M 1194.68 1102.12 C 1236.6 1097.68 1221.13 1172.24 1178.69 1185.07 C 1135.39 1187.3 1152.97 1116.29 1194.68 1102.12 z" fill="rgb(230,74,117)" transform="translate(0,0)"></path>
<path d="M 1313.82 1040.18 C 1353.26 1038.62 1334.72 1112.44 1293.44 1125.23 C 1251.41 1128.37 1273.55 1049.56 1313.82 1040.18 z" fill="rgb(230,74,117)" transform="translate(0,0)"></path>
<path d="M 1136.96 619.885 C 1153.57 599.04 1179.03 574.066 1204.38 564.147 C 1229.66 554.26 1243.43 563.46 1265.88 573.683 C 1272.3 576.88 1281.08 580.84 1282.62 588.223 C 1289.97 623.384 1269.54 676.438 1266.43 710.19 C 1266.15 713.418 1266.69 714.846 1264.94 716.574 C 1258.88 715.523 1252.74 714.211 1246.78 712.715 C 1212.48 704.112 1168.88 714.209 1137.45 729.265 C 1131.97 728.86 1101.03 709.885 1093.91 705.705 C 1103.18 671.304 1117.76 648.692 1136.96 619.885 z" fill="rgb(34,37,38)" transform="translate(0,0)"></path>
<path d="M 1136.96 619.885 C 1153.57 599.04 1179.03 574.066 1204.38 564.147 C 1229.66 554.26 1243.43 563.46 1265.88 573.683 C 1265.09 575.698 1265.69 575.836 1263.53 576.538 C 1251.62 580.396 1239.44 585.364 1229.08 592.527 C 1191.03 618.847 1141.24 681.962 1137.45 729.265 C 1131.97 728.86 1101.03 709.885 1093.91 705.705 C 1103.18 671.304 1117.76 648.692 1136.96 619.885 z" fill="rgb(1,1,1)" transform="translate(0,0)"></path>
<path d="M 540.61 1087.06 L 542.053 1087.01 C 550.807 1100.41 558.43 1113.75 567.73 1127.09 C 595.183 1166.45 628.994 1203.33 666.343 1233.5 C 675.124 1240.6 683.643 1246.87 692.755 1253.4 C 700.114 1258.67 713.231 1265.84 719.6 1270.94 C 676.83 1291.15 604.017 1289.5 566.175 1258.35 C 551.561 1246.33 551.586 1238.23 550.481 1221.21 C 547.591 1177.68 542.391 1129.98 540.61 1087.06 z" fill="rgb(34,37,38)" transform="translate(0,0)"></path>
<path d="M 695.301 600.964 C 708.406 594.497 713.642 592.34 724.552 583.136 C 763.643 623.755 824.479 668.862 884.646 659.013 C 894.97 666.108 911.27 674.857 922.28 681.05 C 937.266 689.481 953.634 698.883 968.945 706.537 C 960.51 712.306 938.92 723.251 929.123 728.243 L 695.301 600.964 z" fill="rgb(1,1,1)" transform="translate(0,0)"></path>
<path d="M 813.073 929.923 C 806.683 869.204 814.081 793.454 874.505 757.036 C 891.787 746.621 927.422 763.565 945.826 770.708 C 971.636 779.47 985.781 786.151 997.255 812.845 C 933.026 843.651 897.254 896.913 863.354 956.158 C 862.649 957.39 860.482 956.545 859.726 955.887 C 847.554 950.257 824.798 936.922 813.073 929.923 z" fill="rgb(34,37,38)" transform="translate(0,0)"></path>
<path d="M 813.073 929.923 C 806.683 869.204 814.081 793.454 874.505 757.036 C 891.787 746.621 927.422 763.565 945.826 770.708 C 938.501 774.241 927.06 773.698 919.684 777.139 C 897.275 787.595 878.127 813.021 869.166 835.27 C 861.9 853.802 857.761 873.411 856.916 893.299 C 856.318 904.758 856.601 915.257 857.319 926.65 C 857.669 932.203 861.416 952.275 859.726 955.887 C 847.554 950.257 824.798 936.922 813.073 929.923 z" fill="rgb(1,1,1)" transform="translate(0,0)"></path>
<path d="M 1047.76 922.133 C 1097.39 919.111 1092.32 999.288 1041.21 1013.83 C 991.403 1017.42 997.844 937.716 1047.76 922.133 z" fill="rgb(34,37,38)" transform="translate(0,0)"></path>
<path d="M 1249.35 819.188 C 1286.84 816.182 1287.25 856.105 1276.01 881.355 C 1269.8 895.323 1260.42 905.81 1245.71 911.248 C 1192.62 914.819 1208.12 835.054 1249.35 819.188 z" fill="rgb(34,37,38)" transform="translate(0,0)"></path>
<path d="M 228.79 1226.55 C 242.494 1246.45 255.196 1249.06 275.108 1261.49 C 285.734 1267.22 296.254 1273.07 306.809 1278.93 C 500.21 1386.23 690.904 1499.69 884.901 1605.84 C 914.021 1581.02 935.563 1572.05 974.989 1570.19 C 1009.36 1568.56 1045.41 1577.03 1071.26 1600.8 C 1064.31 1604.92 1031.65 1624.05 1025.31 1626.23 C 1026.52 1631.87 1025.86 1662.37 1025.85 1670.05 C 1025.77 1703.91 1025.87 1737.78 1026.14 1771.64 C 988.383 1787.05 947.947 1788.35 911.846 1767.22 C 903.662 1762.43 894.94 1757.73 886.636 1753.02 L 824.863 1718.3 C 742.347 1673.12 660.288 1627.12 578.695 1580.29 L 368.204 1461.73 C 341.818 1447.1 315.577 1432.21 289.485 1417.07 C 279.709 1411.48 239.392 1390.1 234.858 1382.75 C 226.787 1369.68 229.531 1315.74 229.484 1299.64 L 228.79 1226.55 z" fill="rgb(34,37,38)" transform="translate(0,0)"></path>
<path d="M 884.901 1605.84 C 914.021 1581.02 935.563 1572.05 974.989 1570.19 C 1009.36 1568.56 1045.41 1577.03 1071.26 1600.8 C 1064.31 1604.92 1031.65 1624.05 1025.31 1626.23 C 990 1639.39 950.496 1640.06 916.292 1623.08 C 906.06 1618 895.292 1610.06 884.901 1605.84 z" fill="rgb(96,206,238)" transform="translate(0,0)"></path>
<path d="M 228.79 1226.55 C 228.644 1218 227.705 1205.73 235.292 1199.86 C 265.377 1176.59 303.541 1162.07 336.258 1142.41 C 340.715 1139.73 345.573 1137.26 349.944 1135.06 L 349.97 1219.15 C 332.681 1234.07 291.714 1248.57 275.108 1261.49 C 255.196 1249.06 242.494 1246.45 228.79 1226.55 z" fill="rgb(96,206,238)" transform="translate(0,0)"></path>
<metadata><recraft-signature>{"signed_by": "recraft", "signature_b64": "kNntopFnTWRubykdIxAII+vNl9RZ3/twDjsyy3FiWo0Ejv2XJRE52pmBICI/uiT9DOnxNfIRm7wfcdyhlo/mBw==", "signing_algo": "Ed25519", "generation_timestamp": 1771752697, "identifier": "f3eb609b-d681-4964-a844-efe8f790a0fd"}</recraft-signature></metadata></svg>