<svg xmlns="http://www.w3.org/2000/svg" height="1024" preserveAspectRatio="none" style="display: block;" version="1.1" viewBox="0 0 2048 2048" width="1024">
<defs>
	<linearGradient gradientUnits="userSpaceOnUse" id="Gradient1" x1="734.67" x2="769.732" y1="905.256" y2="676.884">
		<stop class="stop0" offset="0" stop-color="rgb(109,174,110)" stop-opacity="1"></stop>
		<stop class="stop1" offset="1" stop-color="rgb(178,210,153)" stop-opacity="1"></stop>
	</linearGradient>
	<linearGradient gradientUnits="userSpaceOnUse" id="Gradient2" x1="1187.23" x2="1141.12" y1="758.814" y2="503.123">
		<stop class="stop0" offset="0" stop-color="rgb(93,161,94)" stop-opacity="1"></stop>
		<stop class="stop1" offset="1" stop-color="rgb(136,192,134)" stop-opacity="1"></stop>
	</linearGradient>
	<linearGradient gradientUnits="userSpaceOnUse" id="Gradient3" x1="1140.46" x2="909.876" y1="1141.67" y2="613.108">
		<stop class="stop0" offset="0" stop-color="rgb(234,201,132)" stop-opacity="1"></stop>
		<stop class="stop1" offset="1" stop-color="rgb(232,226,174)" stop-opacity="1"></stop>
	</linearGradient>
</defs>
<path d="M 883.285 1354.45 C 879.981 1337.99 874.659 1323.44 868.756 1307.94 C 843.971 1242.84 806.897 1191.85 757.126 1143.6 C 745.397 1132.23 733.228 1123.74 722.913 1114.21 C 713.131 1105.17 695.436 1081.56 687.715 1070.43 C 640.262 1002.88 614.795 922.347 614.787 839.8 C 614.354 617.263 803.318 438.203 1023.57 437.928 C 1044.67 438.206 1063.79 438.752 1084.75 441.76 C 1174.08 455.225 1256.49 497.724 1319.26 562.693 C 1394.36 639.058 1435.28 742.618 1432.66 849.693 C 1430.55 954.335 1387.37 1053.95 1312.45 1127.04 C 1297.06 1141.89 1278.31 1158.26 1263.63 1173.07 C 1221.35 1215.73 1177.05 1293.47 1166.02 1352.94 C 1180.15 1355.85 1193.25 1361.69 1190.98 1379.48 C 1188.78 1396.7 1160.23 1403.06 1170.45 1417.81 C 1178.15 1428.92 1195.52 1431.51 1191.2 1450.2 C 1188.55 1464.8 1155.9 1469.9 1173.65 1486.56 C 1184.8 1497.04 1187.98 1497.81 1191.76 1513.02 C 1182.02 1541.01 1155.6 1533.84 1130.96 1532.96 L 1126.05 1533.04 C 1116.35 1546.31 1106.61 1561.49 1097.44 1575.23 C 1091.17 1584.62 1080.96 1599.39 1075.94 1609.28 C 1041.92 1609.89 1006.81 1608.79 972.667 1608.59 C 954.707 1584.41 938.728 1555.6 922.454 1534.16 C 914.377 1534.46 880.267 1534.96 875.164 1532.67 C 850.423 1521.55 855.134 1499.43 877.331 1489.89 C 884.754 1483.34 882.365 1475.75 881.518 1466.67 C 878.368 1459.4 861.11 1462.37 860.517 1444.32 C 860.324 1438.87 862.492 1433.59 866.466 1429.85 C 871.12 1425.4 875.538 1424.36 881.684 1424.54 C 882.117 1414.63 882.882 1403.92 882.132 1394.09 C 855.915 1399.35 849.729 1354.92 883.285 1354.45 z" fill="url(#Gradient3)" transform="translate(0,0)"></path>
<path d="M 1023.57 437.928 C 1044.67 438.206 1063.79 438.752 1084.75 441.76 C 1174.08 455.225 1256.49 497.724 1319.26 562.693 C 1394.36 639.058 1435.28 742.618 1432.66 849.693 C 1430.55 954.335 1387.37 1053.95 1312.45 1127.04 C 1297.06 1141.89 1278.31 1158.26 1263.63 1173.07 C 1221.35 1215.73 1177.05 1293.47 1166.02 1352.94 C 1180.15 1355.85 1193.25 1361.69 1190.98 1379.48 C 1188.78 1396.7 1160.23 1403.06 1170.45 1417.81 C 1178.15 1428.92 1195.52 1431.51 1191.2 1450.2 C 1188.55 1464.8 1155.9 1469.9 1173.65 1486.56 C 1184.8 1497.04 1187.98 1497.81 1191.76 1513.02 C 1182.02 1541.01 1155.6 1533.84 1130.96 1532.96 L 1126.05 1533.04 C 1116.35 1546.31 1106.61 1561.49 1097.44 1575.23 C 1091.17 1584.62 1080.96 1599.39 1075.94 1609.28 C 1041.92 1609.89 1006.81 1608.79 972.667 1608.59 C 954.707 1584.41 938.728 1555.6 922.454 1534.16 C 914.377 1534.46 880.267 1534.96 875.164 1532.67 C 850.423 1521.55 855.134 1499.43 877.331 1489.89 C 884.754 1483.34 882.365 1475.75 881.518 1466.67 C 878.368 1459.4 861.11 1462.37 860.517 1444.32 C 860.324 1438.87 862.492 1433.59 866.466 1429.85 C 871.12 1425.4 875.538 1424.36 881.684 1424.54 C 882.117 1414.63 882.882 1403.92 882.132 1394.09 C 855.915 1399.35 849.729 1354.92 883.285 1354.45 C 892.674 1356 922.194 1355.4 932.796 1355.35 C 962.621 1355.22 992.959 1355.42 1022.77 1354.98 C 1023.47 1294.66 1023.68 1228.26 1022.27 1168.13 C 1028.47 1168.18 1032.38 1168.4 1038.55 1167.2 C 1074.88 1166.2 1110.64 1157.94 1143.73 1142.92 C 1215.4 1109.9 1271.33 1050.18 1299.58 976.499 C 1319.23 924.322 1323.2 864.499 1310.63 809.955 C 1305.97 789.76 1297.11 768.249 1288.54 749.267 C 1283.14 740.654 1278.95 731.551 1272.79 722.085 C 1250.66 687.972 1221.82 658.724 1188.02 636.122 C 1176.13 628.249 1165.41 623.181 1153.88 615.873 C 1151.97 612.226 1149.23 608.392 1146.74 605.091 C 1122.13 571.878 1089.66 545.293 1052.24 527.719 C 1045.32 524.477 1036.94 520.123 1029.53 519.074 L 1023.48 518.574 C 1023.71 493.008 1021.99 462.97 1023.57 437.928 z" fill="rgb(57,110,71)" transform="translate(0,0)"></path>
<path d="M 922.454 1534.16 C 930.979 1532.43 990.329 1533.02 1002.7 1533 L 1081.64 1532.78 C 1095.41 1532.75 1112.54 1532.26 1126.05 1533.04 C 1116.35 1546.31 1106.61 1561.49 1097.44 1575.23 C 1091.17 1584.62 1080.96 1599.39 1075.94 1609.28 C 1041.92 1609.89 1006.81 1608.79 972.667 1608.59 C 954.707 1584.41 938.728 1555.6 922.454 1534.16 z" fill="rgb(57,110,71)" transform="translate(0,0)"></path>
<path d="M 922.454 1534.16 C 914.377 1534.46 880.267 1534.96 875.164 1532.67 C 850.423 1521.55 855.134 1499.43 877.331 1489.89 C 878.632 1494.07 877.767 1493.39 880.601 1495.91 C 899.596 1497.15 927 1496.34 946.59 1496.31 L 1063.82 1496.09 C 1085.07 1496.05 1107.78 1495.12 1128.79 1496.83 C 1151.82 1498.71 1145.02 1522.27 1130.96 1532.96 L 1126.05 1533.04 C 1112.54 1532.26 1095.41 1532.75 1081.64 1532.78 L 1002.7 1533 C 990.329 1533.02 930.979 1532.43 922.454 1534.16 z" fill="rgb(108,176,128)" transform="translate(0,0)"></path>
<path d="M 881.518 1466.67 C 878.368 1459.4 861.11 1462.37 860.517 1444.32 C 860.324 1438.87 862.492 1433.59 866.466 1429.85 C 871.12 1425.4 875.538 1424.36 881.684 1424.54 C 898.363 1426.95 925.331 1425.15 943.061 1425.16 L 1074.28 1425.1 C 1090.75 1425.04 1110.49 1423.15 1126.45 1425.46 C 1131.45 1426.18 1135.58 1427.64 1138.81 1431.73 C 1142.15 1435.94 1143.49 1441.72 1142.76 1447.01 C 1142.15 1451.43 1140.05 1455.69 1136.47 1458.44 C 1133.17 1460.96 1128.72 1461.72 1124.69 1462.09 C 1096.61 1464.66 887.884 1459.83 881.971 1463.98 L 881.518 1466.67 z" fill="rgb(108,176,128)" transform="translate(0,0)"></path>
<path d="M 882.132 1394.09 C 855.915 1399.35 849.729 1354.92 883.285 1354.45 C 892.674 1356 922.194 1355.4 932.796 1355.35 C 962.621 1355.22 992.959 1355.42 1022.77 1354.98 L 1088.15 1354.7 C 1100.63 1354.59 1118.72 1353.59 1130.42 1355.24 C 1146.77 1368.43 1146.93 1380.7 1128.78 1391.87 C 1106.2 1392.69 886.504 1390.48 882.132 1394.09 z" fill="rgb(108,176,128)" transform="translate(0,0)"></path>
<path d="M 1029.53 519.074 C 1095.65 520.392 1169.48 553.904 1215.53 602.7 C 1249.37 638.562 1283.33 696.911 1288.71 747.115 C 1288.78 747.693 1288.62 748.637 1288.54 749.267 C 1283.14 740.654 1278.95 731.551 1272.79 722.085 C 1250.66 687.972 1221.82 658.724 1188.02 636.122 C 1176.13 628.249 1165.41 623.181 1153.88 615.873 C 1151.97 612.226 1149.23 608.392 1146.74 605.091 C 1122.13 571.878 1089.66 545.293 1052.24 527.719 C 1045.32 524.477 1036.94 520.123 1029.53 519.074 z" fill="url(#Gradient2)" transform="translate(0,0)"></path>
<path d="M 883.285 1354.45 C 879.981 1337.99 874.659 1323.44 868.756 1307.94 C 843.971 1242.84 806.897 1191.85 757.126 1143.6 C 745.397 1132.23 733.228 1123.74 722.913 1114.21 C 713.131 1105.17 695.436 1081.56 687.715 1070.43 C 640.262 1002.88 614.795 922.347 614.787 839.8 C 614.354 617.263 803.318 438.203 1023.57 437.928 C 1021.99 462.97 1023.71 493.008 1023.48 518.574 C 958.402 511.314 881.214 538.271 830.932 579.326 C 812.913 594.038 766.177 639.549 759.626 660.058 C 753.654 668.476 746.126 683.213 741.71 692.794 C 717.288 745.002 709.458 803.443 719.275 860.239 C 721.15 871.091 728.54 905.87 736.196 913.22 C 739.137 933.868 742.787 954.444 749.595 974.237 C 786.808 1082.42 890.44 1158.77 1003.97 1166.76 C 1015.14 1167.55 1027.24 1167.27 1038.55 1167.2 C 1032.38 1168.4 1028.47 1168.18 1022.27 1168.13 C 1023.68 1228.26 1023.47 1294.66 1022.77 1354.98 C 992.959 1355.42 962.621 1355.22 932.796 1355.35 C 922.194 1355.4 892.674 1356 883.285 1354.45 z" fill="rgb(86,153,106)" transform="translate(0,0)"></path>
<path d="M 759.626 660.058 C 766.177 639.549 812.913 594.038 830.932 579.326 C 881.214 538.271 958.402 511.314 1023.48 518.574 L 1029.53 519.074 C 1036.94 520.123 1045.32 524.477 1052.24 527.719 C 1089.66 545.293 1122.13 571.878 1146.74 605.091 C 1149.23 608.392 1151.97 612.226 1153.88 615.873 C 1137.98 609.835 1122.81 602.794 1106.47 598.013 C 1043.07 578.864 974.898 583.156 914.403 610.103 C 900.967 616.077 887.996 623.045 875.598 630.948 C 871.875 633.328 844.59 653.188 844.043 653.352 C 832.149 656.713 815.155 681.128 805.076 688.766 C 804.581 689.141 784.058 679.587 780.808 678.869 C 773.838 677.33 757.777 680.217 752.837 676.335 C 754.315 669.573 758.366 667.497 759.626 660.058 z" fill="rgb(239,229,191)" transform="translate(0,0)"></path>
<path d="M 759.626 660.058 C 758.366 667.497 754.315 669.573 752.837 676.335 C 757.777 680.217 773.838 677.33 780.808 678.869 C 784.058 679.587 804.581 689.141 805.076 688.766 C 815.155 681.128 832.149 656.713 844.043 653.352 C 830.013 667.013 814.776 679.187 802.805 694.916 C 754.06 758.96 731.431 833.078 736.196 913.22 C 728.54 905.87 721.15 871.091 719.275 860.239 C 709.458 803.443 717.288 745.002 741.71 692.794 C 746.126 683.213 753.654 668.476 759.626 660.058 z" fill="url(#Gradient1)" transform="translate(0,0)"></path>
<path d="M 1019.07 620.935 C 1055.91 618.544 1052.08 660.846 1052.06 684.782 C 1100.42 684.722 1141.83 725.714 1141.57 774.814 C 1141.71 790.777 1119.84 803.223 1106.36 798.386 C 1069.98 785.329 1102.96 749.406 1052.06 741.224 C 1052.59 770.262 1052.76 799.306 1052.57 828.348 C 1081.85 830.723 1096.77 835.255 1119.67 855.453 C 1142.81 876.138 1151.64 903.884 1152.89 934.003 C 1155.33 992.708 1111.27 1041.3 1052.05 1043.19 C 1052.09 1075.45 1065.15 1121.64 1023.28 1126.41 C 1000.1 1123.46 996.063 1110.46 996.506 1089.21 C 996.828 1073.79 996.932 1058.46 997.732 1043.01 C 961.359 1042.25 935.797 1028.87 916.65 997.275 C 907.518 982.204 899.683 961.647 904.407 943.892 C 906.441 936.353 911.468 929.973 918.321 926.232 C 924.96 922.569 930.298 922.905 937.197 924.815 C 959.262 930.921 954.891 951.527 963.581 966.965 C 970.451 979.168 983.353 983.632 996.084 986.987 C 997.934 956.023 996.998 916.759 997.129 885.134 C 972.093 885.121 951.264 878.109 932.656 861.216 C 910.953 841.798 898.13 814.354 897.161 785.25 C 895.689 745.728 916.677 710.429 952.218 692.937 C 966.422 685.946 981.19 685.071 996.744 684.56 C 996.421 658.626 991.078 633.406 1019.07 620.935 z" fill="rgb(254,254,254)" transform="translate(0,0)"></path>
<path d="M 1054.32 887.354 C 1098.48 889.166 1111.48 942.353 1082.93 973.451 C 1070.72 982.871 1066.32 983.717 1051.17 986.028 C 1052.48 959.58 1051.59 932.742 1051.86 906.253 C 1051.93 900.344 1051.57 894.496 1052.46 888.633 L 1054.32 887.354 z" fill="rgb(239,229,191)" transform="translate(0,0)"></path>
<path d="M 993.425 741.366 L 996.066 741.53 C 997.602 744.621 996.83 819.591 996.635 827.411 C 984.734 825.927 977.519 824.691 967.398 817.544 C 940.435 790.032 954.234 746.039 993.425 741.366 z" fill="rgb(239,229,191)" transform="translate(0,0)"></path>
<metadata><recraft-signature>{"signed_by": "recraft", "signature_b64": "BYv+klaWikXLi1pKuJN/EDwqxsTr9lBwFGCFNCyfA+WIm6IIQMU2ZtCahd2JnRgsfrIxpCCoKqac4IGeNN/vDg==", "signing_algo": "Ed25519", "generation_timestamp": 1771752725, "identifier": "5079baa6-eb7e-48f0-b162-2fe52c0f6d80"}</recraft-signature></metadata></svg>