<svg xmlns="http://www.w3.org/2000/svg" height="1024" preserveAspectRatio="none" style="display: block;" version="1.1" viewBox="0 0 2048 2048" width="1024">
<path d="M 0 0 L 2048 0 L 2048 1618.71 L 2048 2048 L 0 2048 L 0 1618.21 L 0 0 z" fill="rgb(248,219,104)" transform="translate(0,0)"></path>
<path d="M 625.98 422.687 C 625.08 377.322 647.581 321.602 672.668 284.409 C 723.223 209.461 814.647 155.656 903.028 139.734 C 972.363 127.243 1020.49 133.936 1078.87 174.11 C 1098.27 162.957 1119.04 152.738 1141.82 151.274 C 1242.53 144.801 1299.41 245.429 1321.78 330.061 C 1330.03 361.282 1333.71 388.578 1336.44 421.259 C 1344.63 460.784 1352.63 494.911 1349.21 536.086 C 1348.91 539.632 1348.13 551.89 1347.11 554.812 C 1342.08 613.865 1306.66 690.424 1262.25 728.994 C 1282.2 744.842 1294.04 754.653 1312.27 772.207 C 1372.88 830.919 1435.97 887.02 1501.36 940.359 C 1521.03 956.136 1540.7 971.186 1560.77 986.319 C 1567.98 991.755 1598.24 1012.62 1602.39 1017 C 1617.71 1027.25 1652.24 1047.65 1661.17 1061.89 C 1673.38 1099.57 1655.25 1144.64 1637.95 1178.41 C 1635.16 1183.88 1632.23 1189.27 1629.16 1194.59 C 1620.88 1206.72 1614.87 1216.91 1602.06 1224.76 C 1550.41 1236.31 1440.43 1199.47 1391.89 1179.38 C 1389.57 1184.33 1390.55 1232.98 1388.05 1245.93 C 1386.37 1266.73 1383.93 1285.66 1380.35 1306.14 C 1373.05 1347.92 1365.99 1367.7 1322.93 1379.31 C 1316.85 1390.23 1314.99 1394.31 1305.97 1402.8 C 1299.02 1397.01 1293.38 1391.94 1286.8 1385.71 C 1266.34 1388.24 1246.15 1391.41 1225.61 1393.41 C 1137.61 1401.71 1049.1 1403.33 960.848 1398.26 C 918.894 1395.88 882.359 1390.96 841.674 1387.66 C 825.53 1384.48 805.61 1382.99 788.596 1379.83 C 738.818 1370.59 693.099 1360.72 646.416 1341.1 C 623.33 1330.88 622.266 1306.14 618.926 1284.62 C 616.515 1269.1 614.683 1253.48 613.46 1237.82 C 602.483 1243.24 587.212 1253.32 575.398 1259.68 C 544.168 1276.5 519.545 1286.19 485.616 1295.77 C 478.405 1322.93 463.456 1344.38 440.286 1360.48 C 413.778 1378.71 381.094 1385.62 349.478 1379.67 C 318.408 1373.96 289.084 1353.71 271.339 1327.7 C 254.067 1302.51 247.569 1271.47 253.288 1241.46 C 259.166 1210.8 277.003 1183.74 302.864 1166.24 C 309.987 1158.44 323.723 1155.8 331.938 1151.36 C 336.717 1126.89 348.706 1096.46 359.517 1074.07 C 368.79 1051.94 384.591 1024.61 396.748 1003.62 C 403.11 992.638 413.562 979.092 419.024 968.325 C 321.599 939.389 271.5 822.763 343.011 740.462 C 361.55 719.125 388.177 708.889 416.317 708.08 C 413.943 695.123 413.618 680.689 415.916 667.723 C 420.791 640.116 436.366 615.549 459.255 599.361 C 489.401 578.272 517.888 575.282 553.158 581.7 C 553.887 578.537 548.844 564.23 547.691 558.732 C 543.525 538.128 545.227 516.768 552.603 497.083 C 553.597 494.009 554.764 490.993 556.097 488.049 C 570.007 457.058 594.212 434.63 625.98 422.687 z" fill="rgb(236,128,145)" transform="translate(0,0)"></path>
<path d="M 625.98 422.687 C 625.08 377.322 647.581 321.602 672.668 284.409 C 723.223 209.461 814.647 155.656 903.028 139.734 C 972.363 127.243 1020.49 133.936 1078.87 174.11 C 1098.27 162.957 1119.04 152.738 1141.82 151.274 C 1242.53 144.801 1299.41 245.429 1321.78 330.061 C 1330.03 361.282 1333.71 388.578 1336.44 421.259 C 1344.63 460.784 1352.63 494.911 1349.21 536.086 C 1348.91 539.632 1348.13 551.89 1347.11 554.812 C 1342.08 613.865 1306.66 690.424 1262.25 728.994 C 1259.37 730.766 1253.35 737.174 1250.7 739.7 C 1178.99 808.13 1075.95 840.116 978.346 829.703 C 888.868 819.928 807.025 774.746 751.075 704.237 C 735.613 684.629 726.953 669.102 715.369 647.325 C 664.186 669.364 605.586 652.672 570.957 609.654 C 564.777 601.977 559.198 588.115 553.158 581.7 C 553.887 578.537 548.844 564.23 547.691 558.732 C 543.525 538.128 545.227 516.768 552.603 497.083 C 553.597 494.009 554.764 490.993 556.097 488.049 C 570.007 457.058 594.212 434.63 625.98 422.687 z" fill="rgb(236,139,157)" transform="translate(0,0)"></path>
<path d="M 625.98 422.687 C 625.08 377.322 647.581 321.602 672.668 284.409 C 723.223 209.461 814.647 155.656 903.028 139.734 C 972.363 127.243 1020.49 133.936 1078.87 174.11 C 1098.27 162.957 1119.04 152.738 1141.82 151.274 C 1242.53 144.801 1299.41 245.429 1321.78 330.061 C 1330.03 361.282 1333.71 388.578 1336.44 421.259 L 1335.87 423.907 C 1331.55 425.964 1321.68 424.753 1316.55 424.991 C 1240.64 428.525 1164.46 396.04 1119.32 333.993 C 1110.91 322.431 1103.78 307.139 1095.01 296.161 C 1089.7 304.47 1086.06 315.442 1081.94 324.526 C 1032.55 433.418 934.676 490.562 817.552 494.296 C 798.055 494.236 778.902 492.941 759.452 491.674 C 751.57 465.456 733.827 443.315 709.957 429.909 C 681.262 413.625 656.569 414.264 625.98 422.687 z" fill="rgb(74,49,221)" transform="translate(0,0)"></path>
<path d="M 1003.73 292.002 C 1043.32 292.821 1001.51 337.496 991.722 347.891 C 942.843 399.827 857.591 430.234 787.297 432.448 C 779.019 432.213 772.193 431.458 771.633 421.234 C 770.77 405.507 789.281 407.032 800.237 405.973 C 810.129 405.016 819.544 404.116 829.388 402.548 C 841.459 400.72 853.368 397.942 865.002 394.238 C 906.993 381.297 950.933 356.913 980.242 324.087 C 989.336 313.902 992.771 301.516 1003.73 292.002 z" fill="rgb(185,77,246)" transform="translate(0,0)"></path>
<path d="M 1131.98 548.314 C 1160.05 546.974 1198.66 555.002 1199.42 590.221 C 1199.68 601.911 1195.03 613.176 1186.6 621.278 C 1170.92 636.445 1149.59 636.674 1129.43 635.921 C 1113.88 631.467 1112.39 617.178 1126.2 608.128 C 1137.21 607.96 1166.8 609.745 1170.05 595.557 C 1178.36 559.211 1103.38 596.946 1119.61 556.072 C 1121.24 551.96 1128.1 549.336 1131.98 548.314 z" fill="rgb(234,108,127)" transform="translate(0,0)"></path>
<path d="M 1190.15 491.889 C 1213.81 491.354 1215.28 526.162 1197.3 537.446 C 1175.91 539.244 1171.76 503.724 1190.15 491.889 z" fill="rgb(74,49,221)" transform="translate(0,0)"></path>
<path d="M 1061.04 491.834 C 1083.56 495.34 1083.06 526.371 1066.17 537.413 C 1043.93 537.181 1042.05 502.475 1061.04 491.834 z" fill="rgb(74,49,221)" transform="translate(0,0)"></path>
<path d="M 359.517 1074.07 C 369.764 1077.05 381.209 1082.8 390.9 1087.51 C 436.554 1109.67 479.346 1141.17 511.768 1180.36 C 521.652 1192.3 532.128 1217.93 544.489 1225.2 C 554.987 1231.38 575.063 1224.97 585.787 1219.39 C 669.168 1176.27 741.357 1114.32 796.631 1038.45 C 807.775 1023.04 817.924 1006.94 827.016 990.238 C 830.617 983.542 843.203 950.759 846.909 949.023 C 893.831 927.047 852.92 1034.8 847.393 1050.86 C 823.07 1121.51 772.646 1176.92 733.192 1238.63 C 718.255 1262 747.707 1289.63 769.596 1295.22 C 918.636 1331.52 1081.04 1329.55 1233.2 1315.97 C 1271.8 1312.52 1310.93 1307.07 1346.53 1292.83 C 1370.57 1282.32 1375.84 1263.01 1388.05 1245.93 C 1386.37 1266.73 1383.93 1285.66 1380.35 1306.14 C 1373.05 1347.92 1365.99 1367.7 1322.93 1379.31 C 1316.85 1390.23 1314.99 1394.31 1305.97 1402.8 C 1299.02 1397.01 1293.38 1391.94 1286.8 1385.71 C 1266.34 1388.24 1246.15 1391.41 1225.61 1393.41 C 1137.61 1401.71 1049.1 1403.33 960.848 1398.26 C 918.894 1395.88 882.359 1390.96 841.674 1387.66 C 825.53 1384.48 805.61 1382.99 788.596 1379.83 C 738.818 1370.59 693.099 1360.72 646.416 1341.1 C 623.33 1330.88 622.266 1306.14 618.926 1284.62 C 616.515 1269.1 614.683 1253.48 613.46 1237.82 C 602.483 1243.24 587.212 1253.32 575.398 1259.68 C 544.168 1276.5 519.545 1286.19 485.616 1295.77 C 478.405 1322.93 463.456 1344.38 440.286 1360.48 C 413.778 1378.71 381.094 1385.62 349.478 1379.67 C 318.408 1373.96 289.084 1353.71 271.339 1327.7 C 254.067 1302.51 247.569 1271.47 253.288 1241.46 C 259.166 1210.8 277.003 1183.74 302.864 1166.24 C 309.987 1158.44 323.723 1155.8 331.938 1151.36 C 336.717 1126.89 348.706 1096.46 359.517 1074.07 z" fill="rgb(231,82,106)" transform="translate(0,0)"></path>
<path d="M 331.938 1151.36 C 358.263 1149 407.3 1181.06 426.754 1197.32 C 447.584 1214.73 483.643 1251.5 487.091 1280.02 C 487.437 1282.83 487.301 1285.69 486.687 1288.45 L 485.616 1295.77 C 478.405 1322.93 463.456 1344.38 440.286 1360.48 C 413.778 1378.71 381.094 1385.62 349.478 1379.67 C 318.408 1373.96 289.084 1353.71 271.339 1327.7 C 254.067 1302.51 247.569 1271.47 253.288 1241.46 C 259.166 1210.8 277.003 1183.74 302.864 1166.24 C 309.987 1158.44 323.723 1155.8 331.938 1151.36 z" fill="rgb(236,139,157)" transform="translate(0,0)"></path>
<path d="M 1286.8 1385.71 C 1299.72 1383.58 1309.96 1382.08 1322.93 1379.31 C 1316.85 1390.23 1314.99 1394.31 1305.97 1402.8 C 1299.02 1397.01 1293.38 1391.94 1286.8 1385.71 z" fill="rgb(53,115,154)" transform="translate(0,0)"></path>
<path d="M 751.075 704.237 C 807.025 774.746 888.868 819.928 978.346 829.703 C 1075.95 840.116 1178.99 808.13 1250.7 739.7 C 1253.35 737.174 1259.37 730.766 1262.25 728.994 C 1282.2 744.842 1294.04 754.653 1312.27 772.207 C 1372.88 830.919 1435.97 887.02 1501.36 940.359 C 1521.03 956.136 1540.7 971.186 1560.77 986.319 C 1567.98 991.755 1598.24 1012.62 1602.39 1017 C 1617.71 1027.25 1652.24 1047.65 1661.17 1061.89 C 1673.38 1099.57 1655.25 1144.64 1637.95 1178.41 C 1635.16 1183.88 1632.23 1189.27 1629.16 1194.59 C 1620.88 1206.72 1614.87 1216.91 1602.06 1224.76 C 1550.41 1236.31 1440.43 1199.47 1391.89 1179.38 C 1390.68 1177.03 1387 1115.32 1385.83 1105.61 C 1373.64 1004.29 1325.32 875.363 1253.96 800.723 C 1242.79 816.159 1232.1 830.339 1217.74 843.039 C 1137.53 914.011 1025.12 930.081 924.416 899.586 C 849.408 876.871 789.83 831.783 739.91 772.368 C 726.474 756.376 715.605 739.48 703.483 722.758 C 715.255 716.641 737.902 708.992 751.075 704.237 z" fill="rgb(231,82,106)" transform="translate(0,0)"></path>
<path d="M 1312.27 772.207 C 1372.88 830.919 1435.97 887.02 1501.36 940.359 C 1521.03 956.136 1540.7 971.186 1560.77 986.319 C 1567.98 991.755 1598.24 1012.62 1602.39 1017 C 1603 1021.84 1604.19 1027.38 1605.02 1032.38 C 1612.23 1075.92 1593.48 1145.4 1539.06 1146.21 C 1475.25 1147.17 1452.39 1062.07 1434.98 1013.57 C 1429.03 997.199 1422.62 980.997 1415.76 964.985 C 1401.24 931.412 1378.32 886.295 1359.96 854.457 C 1351.43 839.712 1342.46 825.22 1333.08 811.002 C 1327.03 801.736 1312.36 782.354 1312.27 772.207 z" fill="rgb(236,128,145)" transform="translate(0,0)"></path>
<path d="M 416.317 708.08 C 413.943 695.123 413.618 680.689 415.916 667.723 C 420.791 640.116 436.366 615.549 459.255 599.361 C 489.401 578.272 517.888 575.282 553.158 581.7 C 559.198 588.115 564.777 601.977 570.957 609.654 C 605.586 652.672 664.186 669.364 715.369 647.325 C 726.953 669.102 735.613 684.629 751.075 704.237 C 737.902 708.992 715.255 716.641 703.483 722.758 C 609.907 768.954 543.515 818.146 474.359 897.775 C 462.34 911.828 450.735 926.23 439.558 940.962 C 436.61 944.868 421.525 966.317 419.024 968.325 C 321.599 939.389 271.5 822.763 343.011 740.462 C 361.55 719.125 388.177 708.889 416.317 708.08 z" fill="rgb(74,49,221)" transform="translate(0,0)"></path>
<path d="M 646.416 1341.1 C 693.099 1360.72 738.818 1370.59 788.596 1379.83 C 805.61 1382.99 825.53 1384.48 841.674 1387.66 C 882.359 1390.96 918.894 1395.88 960.848 1398.26 C 1049.1 1403.33 1137.61 1401.71 1225.61 1393.41 C 1246.15 1391.41 1266.34 1388.24 1286.8 1385.71 C 1293.38 1391.94 1299.02 1397.01 1305.97 1402.8 C 1316.39 1412.19 1334.84 1423.54 1346.5 1432.31 C 1368.13 1448.58 1389.94 1464.8 1411.35 1481.36 C 1432.32 1497.59 1453.03 1514.16 1473.45 1531.07 C 1484.06 1539.84 1504.14 1557.32 1514.76 1564.19 C 1493.12 1615.68 1469.64 1656.85 1435.2 1701.27 C 1426.59 1712.36 1416.65 1726.27 1407.24 1736.55 C 1381.75 1767.09 1345.01 1806.34 1315.67 1832.64 C 1327.83 1837.34 1340.05 1841.88 1352.32 1846.26 C 1387.37 1856.54 1410.33 1864.95 1447.49 1861.36 C 1451.22 1877.14 1455.47 1880.39 1469.57 1889.56 C 1474.33 1892.65 1481.73 1896.8 1486.9 1899.15 C 1501.43 1887.72 1514.05 1865.04 1526.23 1851.83 C 1551.49 1855.61 1578.19 1854 1603.72 1854.31 C 1614.65 1854.44 1626.63 1853.65 1637.22 1856.63 C 1646.73 1859.3 1655.15 1864.92 1660.9 1872.99 C 1667.48 1882.22 1671.5 1895.54 1669.49 1906.87 C 1667.46 1918.24 1660.46 1929.8 1650.95 1936.46 C 1634.89 1947.71 1569.13 1947.01 1546.18 1948.42 C 1416.91 1955.65 1287.48 1959.57 1158.01 1960.18 C 1001.35 1962.51 844.658 1960.78 688.09 1954.98 C 631.471 1953.31 574.884 1950.69 518.352 1947.12 C 502.791 1946.16 487.209 1945.32 471.651 1944.23 C 466.08 1943.84 460.516 1943.43 454.976 1942.37 C 445.028 1940.45 436.112 1933.61 430.942 1925 C 414.442 1898.03 427.764 1857.61 461.965 1855.19 C 471.293 1854.53 480.52 1855.17 489.835 1854.99 C 481.412 1836.14 475.267 1817.06 472.425 1796.56 C 470.706 1784.16 465.656 1766.36 471.54 1754.89 C 474.722 1748.69 490.555 1745.9 497.174 1744.26 C 492.471 1732.55 490.411 1717.32 488.945 1704.88 C 472.964 1705.03 448.698 1712.4 445.578 1690.1 C 442.229 1666.16 443.197 1641.16 440.5 1617.18 C 437.344 1574.99 454.987 1589.47 480.282 1581.77 C 488.809 1579.17 510.244 1563.06 521.644 1557.83 C 564.147 1538.34 607.113 1526.23 652.393 1515.28 C 666.22 1513.14 691.69 1506.68 706.073 1503.41 C 705.076 1500.69 686.371 1473.22 682.333 1465.77 C 657.942 1420.75 653.826 1389.6 646.416 1341.1 z" fill="rgb(63,141,132)" transform="translate(0,0)"></path>
<path d="M 1352.32 1846.26 C 1387.37 1856.54 1410.33 1864.95 1447.49 1861.36 C 1451.22 1877.14 1455.47 1880.39 1469.57 1889.56 C 1474.33 1892.65 1481.73 1896.8 1486.9 1899.15 C 1501.43 1887.72 1514.05 1865.04 1526.23 1851.83 C 1551.49 1855.61 1578.19 1854 1603.72 1854.31 C 1614.65 1854.44 1626.63 1853.65 1637.22 1856.63 C 1646.73 1859.3 1655.15 1864.92 1660.9 1872.99 C 1667.48 1882.22 1671.5 1895.54 1669.49 1906.87 C 1667.46 1918.24 1660.46 1929.8 1650.95 1936.46 C 1634.89 1947.71 1569.13 1947.01 1546.18 1948.42 C 1416.91 1955.65 1287.48 1959.57 1158.01 1960.18 C 1001.35 1962.51 844.658 1960.78 688.09 1954.98 C 631.471 1953.31 574.884 1950.69 518.352 1947.12 C 502.791 1946.16 487.209 1945.32 471.651 1944.23 C 466.08 1943.84 460.516 1943.43 454.976 1942.37 C 445.028 1940.45 436.112 1933.61 430.942 1925 C 414.442 1898.03 427.764 1857.61 461.965 1855.19 C 471.293 1854.53 480.52 1855.17 489.835 1854.99 C 502.552 1877.6 519.919 1896.8 545.666 1904.2 C 564.104 1909.49 583.887 1907.22 600.649 1897.89 C 619.092 1887.54 629.368 1872.49 639.637 1854.46 C 752.7 1851.97 866.166 1846.74 979.406 1846.15 C 1056.57 1845.86 1134.21 1845.86 1211.31 1846.2 C 1232.99 1846.3 1344.24 1850.8 1352.32 1846.26 z" fill="rgb(236,139,157)" transform="translate(0,0)"></path>
<path d="M 841.674 1387.66 C 882.359 1390.96 918.894 1395.88 960.848 1398.26 C 1049.1 1403.33 1137.61 1401.71 1225.61 1393.41 C 1246.15 1391.41 1266.34 1388.24 1286.8 1385.71 C 1293.38 1391.94 1299.02 1397.01 1305.97 1402.8 C 1316.39 1412.19 1334.84 1423.54 1346.5 1432.31 C 1368.13 1448.58 1389.94 1464.8 1411.35 1481.36 C 1432.32 1497.59 1453.03 1514.16 1473.45 1531.07 C 1484.06 1539.84 1504.14 1557.32 1514.76 1564.19 C 1493.12 1615.68 1469.64 1656.85 1435.2 1701.27 C 1426.59 1712.36 1416.65 1726.27 1407.24 1736.55 C 1364.64 1703.7 1321.66 1674.61 1278.45 1643.13 C 1246.49 1619.85 1214.38 1596.79 1182.1 1573.96 C 1140.44 1544.36 1085.28 1504.47 1037.7 1487.02 C 952.515 1455.79 892.417 1483.42 841.674 1387.66 z" fill="rgb(110,188,178)" transform="translate(0,0)"></path>
<path d="M 440.5 1617.18 C 437.344 1574.99 454.987 1589.47 480.282 1581.77 C 488.809 1579.17 510.244 1563.06 521.644 1557.83 C 564.147 1538.34 607.113 1526.23 652.393 1515.28 C 623.181 1593.58 623.989 1750.56 658.292 1827.05 C 658.467 1827.44 658.654 1827.83 658.834 1828.22 C 649.114 1839.09 646.067 1841.91 639.637 1854.46 C 629.368 1872.49 619.092 1887.54 600.649 1897.89 C 583.887 1907.22 564.104 1909.49 545.666 1904.2 C 519.919 1896.8 502.552 1877.6 489.835 1854.99 C 481.412 1836.14 475.267 1817.06 472.425 1796.56 C 470.706 1784.16 465.656 1766.36 471.54 1754.89 C 474.722 1748.69 490.555 1745.9 497.174 1744.26 C 492.471 1732.55 490.411 1717.32 488.945 1704.88 C 472.964 1705.03 448.698 1712.4 445.578 1690.1 C 442.229 1666.16 443.197 1641.16 440.5 1617.18 z" fill="rgb(74,49,221)" transform="translate(0,0)"></path>
<path d="M 1043.2 1681.4 C 1110.15 1731.92 1173.76 1771.4 1250.77 1806.06 C 1268.6 1814.09 1297.12 1827.02 1315.67 1832.64 C 1327.83 1837.34 1340.05 1841.88 1352.32 1846.26 C 1344.24 1850.8 1232.99 1846.3 1211.31 1846.2 C 1134.21 1845.86 1056.57 1845.86 979.406 1846.15 C 866.166 1846.74 752.7 1851.97 639.637 1854.46 C 646.067 1841.91 649.114 1839.09 658.834 1828.22 C 670.403 1826.93 704.052 1828.2 718.4 1827.59 C 783.153 1824.83 837.13 1820.15 898.145 1797.98 C 945.436 1780.9 987.57 1752 1020.53 1714.04 C 1028.43 1704.85 1038.05 1692.43 1043.2 1681.4 z" fill="rgb(248,219,104)" transform="translate(0,0)"></path>
<path d="M 1407.24 1736.55 C 1416.65 1726.27 1426.59 1712.36 1435.2 1701.27 C 1469.64 1656.85 1493.12 1615.68 1514.76 1564.19 C 1522.15 1568.48 1529.61 1572.65 1537.14 1576.7 C 1546.08 1574.67 1554.87 1572.64 1563.92 1571.13 C 1600.28 1565.08 1642.71 1582.9 1652.62 1621.04 C 1658.92 1650.44 1646.98 1681.06 1631.23 1705.68 C 1622.37 1719.52 1607.01 1740.31 1589.82 1743.68 C 1584.33 1744.76 1577.33 1743.27 1571.78 1742.21 C 1559.56 1760.02 1550.62 1768.84 1535.7 1784.17 C 1543.17 1788.93 1554.49 1794.9 1558.73 1802.24 C 1559.6 1812.52 1533.71 1841.06 1526.23 1851.83 C 1514.05 1865.04 1501.43 1887.72 1486.9 1899.15 C 1481.73 1896.8 1474.33 1892.65 1469.57 1889.56 C 1455.47 1880.39 1451.22 1877.14 1447.49 1861.36 C 1410.33 1864.95 1387.37 1856.54 1352.32 1846.26 C 1340.05 1841.88 1327.83 1837.34 1315.67 1832.64 C 1345.01 1806.34 1381.75 1767.09 1407.24 1736.55 z" fill="rgb(74,49,221)" transform="translate(0,0)"></path>
<path d="M 1661.17 1061.89 C 1692.06 1048.35 1725.92 1046.79 1757.66 1058.85 C 1786.61 1069.85 1819.64 1099.01 1827.35 1130.1 C 1837.68 1160.01 1835.99 1188.89 1822.11 1217.46 C 1808.21 1246.37 1783.28 1268.48 1752.92 1278.82 C 1701.16 1296.73 1646.76 1279.86 1611.7 1238.89 C 1608.77 1235.46 1603.5 1228.93 1602.06 1224.76 C 1614.87 1216.91 1620.88 1206.72 1629.16 1194.59 C 1632.23 1189.27 1635.16 1183.88 1637.95 1178.41 C 1655.25 1144.64 1673.38 1099.57 1661.17 1061.89 z" fill="rgb(236,139,157)" transform="translate(0,0)"></path>
<metadata><recraft-signature>{"signed_by": "recraft", "signature_b64": "lpdp9WF+VSln+gdfHNIGjeJBDtEAhiJk3XLrBa8MRBQ0w0RpytsrOEItX0a7ptuxWF+/Gmpv0ZpJVKp8kOkKDQ==", "signing_algo": "Ed25519", "generation_timestamp": 1771756633, "identifier": "e8683e95-e5c7-4b2f-ab13-517ca6835346"}</recraft-signature></metadata></svg>