<svg xmlns="http://www.w3.org/2000/svg" height="1024" preserveAspectRatio="none" style="display: block;" version="1.1" viewBox="0 0 2048 2048" width="1024">
<path d="M 0 0 L 2048 0 L 2048 174.279 L 2048 575.803 L 2048 1575.83 L 2048 1787.15 L 2048 1903 L 2048 2048 L 0 2048 L 0 1972.65 L 0 1712.14 L 0 1576.96 L 0 1155.7 L 0 635.76 L 0 0 z" fill="rgb(107,187,248)" transform="translate(0,0)"></path>
<path d="M 2048 575.803 L 2048 1575.83 L 2048 1787.15 L 2048 1903 L 2048 2048 L 0 2048 L 0 1972.65 L 0 1712.14 L 0 1576.96 L 0 1155.7 C 100.732 1161.19 199.906 1166.25 300.928 1164.62 C 341.574 1163.97 379.178 1164.63 419.936 1161.89 C 421.579 1173.74 423.457 1186.89 426.808 1198.34 C 459.896 1150.69 530.197 1127.59 583.731 1151.17 C 604.026 1160.11 613.405 1167.44 629.502 1182.13 L 635.351 1187.98 L 958.744 1188.34 L 1063.47 1188.25 C 1080.92 1188.27 1107.54 1187.57 1124.44 1188.96 C 1119.25 1153.31 1112.43 1117.92 1106.98 1082.31 C 1105.1 1070.03 1103.12 1057.77 1100.77 1045.57 C 1329.88 981.715 1550.42 890.369 1757.59 773.526 C 1804.42 745.891 1850.43 716.875 1895.56 686.519 C 1943.62 654.564 2004.28 613.544 2048 575.803 z" fill="rgb(233,87,110)" transform="translate(0,0)"></path>
<path d="M 2048 575.803 L 2048 1575.83 L 1090.81 1576.56 L 1090.57 1290.68 C 1091.25 1289.92 1091.91 1289.15 1092.57 1288.37 C 1116.28 1260.95 1127.78 1225.05 1124.44 1188.96 C 1119.25 1153.31 1112.43 1117.92 1106.98 1082.31 C 1105.1 1070.03 1103.12 1057.77 1100.77 1045.57 C 1329.88 981.715 1550.42 890.369 1757.59 773.526 C 1804.42 745.891 1850.43 716.875 1895.56 686.519 C 1943.62 654.564 2004.28 613.544 2048 575.803 z" fill="rgb(94,14,175)" transform="translate(0,0)"></path>
<path d="M 426.808 1198.34 C 459.896 1150.69 530.197 1127.59 583.731 1151.17 C 604.026 1160.11 613.405 1167.44 629.502 1182.13 L 635.351 1187.98 L 958.744 1188.34 L 1063.47 1188.25 C 1080.92 1188.27 1107.54 1187.57 1124.44 1188.96 C 1127.78 1225.05 1116.28 1260.95 1092.57 1288.37 C 1091.91 1289.15 1091.25 1289.92 1090.57 1290.68 L 1090.81 1576.56 C 1090.7 1613.87 1090.34 1651.63 1090.75 1688.91 L 1090.8 1706.77 C 1004.9 1704.31 913.748 1707.1 827.03 1706.14 L 827 1683.95 L 792.972 1684.09 L 793.035 1707.01 C 706.88 1705.7 616.44 1706.69 530.122 1707.19 L 530.071 1688.16 C 529.689 1651.3 530.017 1613.99 530.06 1577.09 L 530.109 1399.13 C 509.305 1398.53 488.961 1392.87 470.844 1382.63 C 440.353 1365.57 417.947 1337.03 408.617 1303.36 C 397.593 1262.48 406.72 1233.21 426.808 1198.34 z" fill="rgb(236,129,227)" transform="translate(0,0)"></path>
<path d="M 958.744 1188.34 L 1063.47 1188.25 C 1080.92 1188.27 1107.54 1187.57 1124.44 1188.96 C 1127.78 1225.05 1116.28 1260.95 1092.57 1288.37 C 1091.91 1289.15 1091.25 1289.92 1090.57 1290.68 L 1090.81 1576.56 C 1090.7 1613.87 1090.34 1651.63 1090.75 1688.91 L 1090.8 1706.77 C 1004.9 1704.31 913.748 1707.1 827.03 1706.14 L 827 1683.95 L 792.972 1684.09 L 792.975 1577.84 C 804.307 1577.64 815.641 1577.54 826.974 1577.54 L 827.22 1376.87 C 864.063 1374.97 894.458 1365.62 921.593 1338.83 C 963.952 1297.02 958.664 1242.91 958.744 1188.34 z" fill="rgb(159,129,231)" transform="translate(0,0)"></path>
<path d="M 792.975 1577.84 C 804.307 1577.64 815.641 1577.54 826.974 1577.54 L 827 1683.95 L 792.972 1684.09 L 792.975 1577.84 z" fill="rgb(233,87,110)" transform="translate(0,0)"></path>
<path d="M 793.269 1376.91 L 827.22 1376.87 L 826.974 1577.54 C 815.641 1577.54 804.307 1577.64 792.975 1577.84 C 794.137 1511.88 793.199 1443.11 793.269 1376.91 z" fill="rgb(94,14,175)" transform="translate(0,0)"></path>
<path d="M 0 1155.7 C 100.732 1161.19 199.906 1166.25 300.928 1164.62 C 341.574 1163.97 379.178 1164.63 419.936 1161.89 C 421.579 1173.74 423.457 1186.89 426.808 1198.34 C 406.72 1233.21 397.593 1262.48 408.617 1303.36 C 417.947 1337.03 440.353 1365.57 470.844 1382.63 C 488.961 1392.87 509.305 1398.53 530.109 1399.13 L 530.06 1577.09 L 351.067 1576.88 L 0 1576.96 L 0 1155.7 z" fill="rgb(94,14,175)" transform="translate(0,0)"></path>
<path d="M 1090.81 1576.56 L 2048 1575.83 L 2048 1787.15 C 2012.81 1772.51 1941.45 1759.65 1903.72 1752.75 C 1795.02 1732.85 1682.29 1722 1572.18 1712.94 C 1411.99 1700 1251.44 1691.99 1090.75 1688.91 C 1090.34 1651.63 1090.7 1613.87 1090.81 1576.56 z" fill="rgb(224,68,92)" transform="translate(0,0)"></path>
<path d="M 2048 1903 L 2048 2048 L 0 2048 L 0 1972.65 C 36.9064 1974.6 75.8801 1978.81 113.284 1981.18 C 204.159 1986.28 295.067 1990.76 386.003 1994.63 C 771.089 2009.12 1156.68 2002.76 1541.08 1975.55 C 1611.75 1970.56 1682.31 1964.03 1752.71 1955.98 C 1849.35 1945.35 1954.9 1930.55 2048 1903 z" fill="rgb(224,68,92)" transform="translate(0,0)"></path>
<path d="M 792.972 1684.09 L 827 1683.95 L 827.03 1706.14 C 913.748 1707.1 1004.9 1704.31 1090.8 1706.77 C 1124.61 1709.17 1160.65 1730.19 1182.64 1755.65 C 1200.86 1776.74 1214.78 1807.62 1218.07 1835.37 C 1219.67 1848.93 1218.56 1869.86 1218.16 1884.04 L 924.81 1884.01 L 529.934 1883.27 C 530.2 1824.71 529.412 1765.68 530.122 1707.19 C 616.44 1706.69 706.88 1705.7 793.035 1707.01 L 792.972 1684.09 z" fill="rgb(224,68,92)" transform="translate(0,0)"></path>
<path d="M 792.972 1684.09 L 827 1683.95 L 827.03 1706.14 L 826.92 1715.68 C 815.44 1712.46 804.752 1709.34 793.035 1707.01 L 792.972 1684.09 z" fill="rgb(234,107,127)" transform="translate(0,0)"></path>
<path d="M 0 1576.96 L 351.067 1576.88 L 530.06 1577.09 C 530.017 1613.99 529.689 1651.3 530.071 1688.16 C 429.87 1691.71 327.974 1693.04 227.949 1698.25 C 178.894 1700.41 129.86 1703.05 80.8555 1706.15 C 55.874 1707.8 24.0776 1711.6 0 1712.14 L 0 1576.96 z" fill="rgb(224,68,92)" transform="translate(0,0)"></path>
<path d="M 1408.19 484.504 C 1455.61 470.384 1509.91 449.717 1555.84 431.807 C 1729.42 365.557 1894.61 279.121 2048 174.279 L 2048 575.803 C 2004.28 613.544 1943.62 654.564 1895.56 686.519 C 1850.43 716.875 1804.42 745.891 1757.59 773.526 C 1550.42 890.369 1329.88 981.715 1100.77 1045.57 C 1096.37 1026.16 1092.87 1000.81 1089.72 980.984 C 1084.84 950.393 1079.76 919.834 1074.47 889.31 C 1104.82 883.369 1124.28 879.653 1154.46 869.39 C 1225.02 845.379 1286.81 800.869 1331.94 741.551 C 1384.02 672.387 1420.54 571.501 1408.19 484.504 z" fill="rgb(169,39,245)" transform="translate(0,0)"></path>
<path d="M 598.88 632.325 C 612.209 641.254 623.393 648.802 637.53 656.439 C 648.446 662.337 659.711 667.009 670.426 672.649 C 621.128 674.024 587.823 695.152 554.392 730.504 C 548.473 736.823 542.695 743.272 537.062 749.848 C 524.468 760.244 508.223 780.439 498.892 793.619 C 450.659 861.746 424.419 944.595 416.507 1027.22 C 412.32 1072.09 413.472 1117.29 419.936 1161.89 C 379.178 1164.63 341.574 1163.97 300.928 1164.62 C 199.906 1166.25 100.732 1161.19 0 1155.7 L 0 635.76 C 143.064 650.061 287.002 653.58 430.594 646.286 C 478.708 644.048 551.937 639.793 598.88 632.325 z" fill="rgb(169,39,245)" transform="translate(0,0)"></path>
<path d="M 670.426 672.649 C 732.679 691.9 789.801 698.285 852.793 673.693 C 859.252 686.248 871.959 726.422 876.875 741.805 C 912.986 855.698 937.875 972.849 951.189 1091.59 C 954.215 1118.91 958.61 1160.46 958.744 1188.34 L 635.351 1187.98 L 629.502 1182.13 C 613.405 1167.44 604.026 1160.11 583.731 1151.17 C 530.197 1127.59 459.896 1150.69 426.808 1198.34 C 423.457 1186.89 421.579 1173.74 419.936 1161.89 C 413.472 1117.29 412.32 1072.09 416.507 1027.22 C 424.419 944.595 450.659 861.746 498.892 793.619 C 508.223 780.439 524.468 760.244 537.062 749.848 C 542.695 743.272 548.473 736.823 554.392 730.504 C 587.823 695.152 621.128 674.024 670.426 672.649 z" fill="rgb(115,183,230)" transform="translate(0,0)"></path>
<path d="M 747.395 319.935 C 790.688 321.948 861.553 323.6 903.613 312.876 C 916.735 309.53 923.46 296.939 928.729 285.266 C 939.866 305.17 953.049 318.274 977.341 317.439 C 988.328 317.062 997.419 316.953 1008.09 313.448 C 1049.57 415.091 1040.59 504.068 973.224 591.816 C 949.862 616.273 933.942 632.829 903.795 650.606 C 892.248 657.416 879.997 662.798 869.095 669.019 C 864.301 670.404 857.485 672.611 852.793 673.693 C 789.801 698.285 732.679 691.9 670.426 672.649 C 659.711 667.009 648.446 662.337 637.53 656.439 C 623.393 648.802 612.209 641.254 598.88 632.325 C 572.654 609.737 553.105 589.612 533.866 560.74 C 575.802 554.371 628.873 521.895 660.021 493.466 C 628.573 482.467 605.249 458.285 605.077 423.586 C 604.957 404.438 612.64 386.066 626.357 372.705 C 657.991 341.313 702.108 347.131 731.988 377.633 C 739.765 353.683 742.604 345.083 747.395 319.935 z" fill="rgb(236,129,227)" transform="translate(0,0)"></path>
<path d="M 887.621 488.255 C 901.222 487.571 947.591 485.827 958.385 491.024 C 977.213 500.09 978.127 530.76 951.439 537.863 C 935.152 539.052 893.943 540.343 879.755 534.076 C 860.357 525.506 862.38 493.412 887.621 488.255 z" fill="rgb(234,107,127)" transform="translate(0,0)"></path>
<path d="M 861.33 377.116 C 889.493 375.506 897.96 400.803 890.546 424.936 C 887.757 434.015 881.169 438.804 872.717 442.452 C 845.628 446.628 835.303 415.701 843.308 394.543 C 847.084 384.561 852.268 381.237 861.33 377.116 z" fill="rgb(94,14,175)" transform="translate(0,0)"></path>
<path d="M 966.333 377.128 C 1004.04 373.37 1010.55 429.288 978.176 442 C 946.025 449.587 930.878 393.479 966.333 377.128 z" fill="rgb(94,14,175)" transform="translate(0,0)"></path>
<path d="M 533.866 560.74 C 508.859 519.264 495.514 484.554 489.769 435.967 C 471.624 282.512 580.853 138.147 736.084 121.09 C 802.403 113.534 869.234 129.986 924.468 167.463 C 934.539 174.175 945.146 182.983 954.668 190.623 C 973.094 188.653 990.004 190.544 1000.37 208.007 C 1010.34 224.814 1025.66 248.014 1031.38 266.545 C 1036.98 284.677 1023.02 303.568 1008.09 313.448 C 997.419 316.953 988.328 317.062 977.341 317.439 C 953.049 318.274 939.866 305.17 928.729 285.266 C 923.46 296.939 916.735 309.53 903.613 312.876 C 861.553 323.6 790.688 321.948 747.395 319.935 C 742.604 345.083 739.765 353.683 731.988 377.633 C 702.108 347.131 657.991 341.313 626.357 372.705 C 612.64 386.066 604.957 404.438 605.077 423.586 C 605.249 458.285 628.573 482.467 660.021 493.466 C 628.873 521.895 575.802 554.371 533.866 560.74 z" fill="rgb(94,14,175)" transform="translate(0,0)"></path>
<path d="M 973.224 591.816 C 984.334 592.113 1017.21 585.559 1028.57 583.375 C 1080.75 572.864 1132.76 561.492 1184.57 549.262 C 1174.8 642.989 1100.2 680.818 1015.13 694.669 C 1002.52 696.723 988.569 695.839 976.01 697.607 C 936.193 675.977 915.004 669.382 869.095 669.019 C 879.997 662.798 892.248 657.416 903.795 650.606 C 933.942 632.829 949.862 616.273 973.224 591.816 z" fill="rgb(169,39,245)" transform="translate(0,0)"></path>
<path d="M 1313.9 264.735 C 1317.91 254.152 1339.84 178.843 1369.09 223.446 C 1372.74 228.996 1366.32 252.454 1365.74 261.862 C 1373.32 247.464 1384.77 219.862 1405.63 232.207 C 1423.18 242.595 1413.23 277.265 1409.54 293.449 C 1418.04 285.644 1422.44 281.801 1433.98 278.676 C 1444.41 282.545 1455.29 289.254 1454.86 302.497 C 1454.43 315.946 1449 330.053 1446.52 343.251 C 1439.66 371.117 1433.94 400.11 1424.09 427.034 C 1419.99 438.235 1411.95 447.905 1403.82 456.415 C 1363.31 492.529 1311.71 501.671 1264.77 469.209 C 1246.52 456.59 1238.13 443.746 1227.98 424.272 C 1218.49 399.414 1219.68 378.54 1218.37 351.612 C 1217.53 334.492 1212.72 297.323 1244.06 308.016 C 1250.81 310.32 1254.18 327.12 1255.81 333.457 C 1258.96 312.73 1262.49 292.065 1266.41 271.471 C 1269.24 256.364 1272.3 222.243 1294.67 224.516 C 1313.19 226.398 1312.63 250.502 1313.9 264.735 z" fill="rgb(234,107,127)" transform="translate(0,0)"></path>
<metadata><recraft-signature>{"signed_by": "recraft", "signature_b64": "6M49LvwVum7r/j/px4W6vFoqmbXM78AVid5VmIDJ57+eo1HN/bf4ihh42t0LR5u6j8fXbID9oanQQzJc7IK9Ag==", "signing_algo": "Ed25519", "generation_timestamp": 1771756646, "identifier": "7e91f8a6-7d5b-4178-b99f-43623d737642"}</recraft-signature></metadata></svg>