<svg xmlns="http://www.w3.org/2000/svg" viewBox="0 0 2048 2048" width="1024" height="1024">
  <rect x="0" y="0" width="2048" height="2048" fill="#333333" />
  <path d="M 938.739 602.259 C 960.648 598.433 984.307 596.333 1006.73 592.618 C 1052.39 585.088 1097.4 574.04 1141.35 559.571 C 1146.31 557.924 1169.48 550.234 1173.13 547.745 C 1174.76 551.895 1174.98 552.007 1178.22 555.222 C 1197.94 571.353 1215.35 590.129 1229.94 611.017 C 1260.03 654.948 1283.37 724.664 1289.43 777.349 C 1289.58 778.611 1289.53 778.383 1289.47 779.724 C 1292.92 797.413 1299.18 815.579 1304.48 832.901 C 1309.75 850.471 1314.77 868.114 1319.55 885.824 C 1337.61 952.167 1353.86 1018.99 1368.28 1086.22 C 1387.46 1175.67 1401.02 1263.92 1412.12 1354.67 C 1418.82 1409.44 1422.48 1465.26 1429.21 1519.48 C 1393.44 1526.21 1357.5 1532 1321.42 1536.83 C 1303.92 1539.09 1286.41 1540.29 1269.04 1542.39 C 1242.15 1546.46 1203.46 1548.81 1175.91 1550.82 C 1069.38 1558.66 962.426 1559.09 855.832 1552.11 C 793.424 1546.76 709.805 1541.78 660.995 1498.82 C 611.888 1455.61 596.656 1380.95 593.09 1317.77 C 585.407 1181.65 623.352 1035.28 698.51 921.181 C 720.023 888.521 738.183 870.18 763.497 842.016 C 763.313 836.361 763.404 830.7 763.771 825.053 C 769.298 749.329 883.602 649.931 938.739 602.259 z" fill="#FF0000" stroke="white" stroke-width="2" opacity="0.8" />
  <path d="M 1289.47 779.724 C 1287.81 777.487 1283.54 760.198 1282.49 756.35 C 1277.5 738.34 1271.67 720.574 1265.02 703.109 C 1252.99 670.654 1237.81 639.45 1219.72 609.942 C 1213.4 599.759 1207.03 590.807 1199.45 581.498 C 1195.42 576.544 1178.66 559.908 1178.22 555.222 C 1197.94 571.353 1215.35 590.129 1229.94 611.017 C 1260.03 654.948 1283.37 724.664 1289.43 777.349 C 1289.58 778.611 1289.53 778.383 1289.47 779.724 z" fill="#00FF00" stroke="white" stroke-width="2" opacity="0.8" />
  <path d="M 1157.99 1256.33 C 1157.19 1212.96 1151.05 1170.77 1144.12 1128.26 C 1131.95 1053.52 1114.16 981.247 1090.36 909.379 C 1084.15 890.613 1079.26 871.72 1072.56 852.776 C 1063.02 826.271 1053.23 799.858 1043.19 773.539 C 1035.41 753.472 1022.9 729.614 1020.78 708.474 C 1012.5 625.78 1111.78 587.94 1167.53 644.996 C 1192.09 670.128 1205.93 702.699 1222.34 733.318 C 1290.35 872.529 1344.66 1031.52 1367.2 1184.9 C 1370.68 1208.53 1373.77 1231.85 1374.99 1255.53 C 1371.19 1255.65 1347.08 1255.48 1345 1256.64 L 1344.34 1257.7 C 1346.43 1265.08 1348.35 1277.37 1351.95 1283.5 C 1363.36 1302.67 1377.75 1314.06 1379.98 1337.51 C 1384.13 1374.75 1355.32 1393.65 1321.93 1395.7 C 1260.13 1399.5 1204.51 1353.69 1189.6 1294.77 C 1186.04 1280.72 1184.95 1270.03 1183.89 1255.85 C 1175.26 1256.2 1166.62 1256.36 1157.99 1256.33 z" fill="#0000FF" stroke="white" stroke-width="2" opacity="0.8" />
  <path d="M 791.61 183.109 C 784.565 163.706 785.729 148.59 794.49 129.972 C 801.696 114.847 812.724 101.863 826.485 92.3056 C 829.655 90.0853 840.97 83.3019 843.086 81.0557 C 864.788 58.0213 884.997 40.8987 916.542 30.758 C 998.608 4.37615 1098.26 20.1398 1175.55 55.8199 C 1239.74 86.513 1296.19 132.531 1318.66 201.834 C 1341.41 271.986 1325.45 326.03 1299.18 390.051 C 1308.86 393.725 1317.63 397.005 1326.26 402.795 C 1363.31 427.638 1380.36 472.037 1363.96 514.278 C 1354.4 538.27 1335.67 557.459 1311.91 567.591 C 1259.52 590.35 1213.61 568.283 1179.33 526.961 C 1177.49 533.573 1175.51 541.432 1173.13 547.745 C 1169.48 550.234 1146.31 557.924 1141.35 559.571 C 1097.4 574.04 1052.39 585.088 1006.73 592.618 C 984.307 596.333 960.648 598.433 938.739 602.259 C 936.041 593.096 934.163 576.608 932.826 566.776 C 903.72 569.172 848.769 554.277 824.869 536.926 C 777.736 502.708 755.049 454.205 744.268 399.039 C 741.665 399.556 739.031 399.896 736.382 400.057 C 716.605 401.404 697.974 384.899 697.844 364.881 C 697.829 355.347 701.806 346.243 708.81 339.775 C 718.915 330.502 728.432 330.461 740.926 331.056 C 746.002 274.131 760.084 231.052 791.61 183.109 z" fill="#FFFF00" stroke="white" stroke-width="2" opacity="0.8" />
  <path d="M 837.732 133.107 C 846.46 148.088 852.599 161.783 862.66 176.425 C 909.798 245.023 971.643 295.77 1042.95 337.101 C 1052.77 292.37 1092.06 254.729 1139.94 265.481 C 1160.07 269.961 1177.56 282.311 1188.52 299.777 C 1200.09 318.367 1203.71 339.127 1198.55 360.58 C 1192.83 384.373 1176.3 402.966 1155.77 415.915 C 1145.52 422.377 1130.42 427.642 1118.83 432.074 C 1118.61 432.685 1118.39 433.297 1118.17 433.909 C 1122.36 444.947 1168.44 446.961 1156.5 473.402 C 1161.49 486.736 1171.64 516.587 1179.33 526.961 C 1177.49 533.573 1175.51 541.432 1173.13 547.745 C 1169.48 550.234 1146.31 557.924 1141.35 559.571 C 1097.4 574.04 1052.39 585.088 1006.73 592.618 C 984.307 596.333 960.648 598.433 938.739 602.259 C 936.041 593.096 934.163 576.608 932.826 566.776 C 903.72 569.172 848.769 554.277 824.869 536.926 C 777.736 502.708 755.049 454.205 744.268 399.039 C 741.665 399.556 739.031 399.896 736.382 400.057 C 716.605 401.404 697.974 384.899 697.844 364.881 C 697.829 355.347 701.806 346.243 708.81 339.775 C 718.915 330.502 728.432 330.461 740.926 331.056 C 746.002 274.131 760.084 231.052 791.61 183.109 L 792.89 181.591 C 807.461 164.044 815.133 145.722 837.732 133.107 z" fill="#FF00FF" stroke="white" stroke-width="2" opacity="0.8" />
  <path d="M 932.826 566.776 C 938.269 566.203 944.616 566.159 950.072 566.189 C 1010.86 566.513 1074.62 547.733 1121.69 508.411 C 1133.89 498.211 1144.95 484.689 1156.5 473.402 C 1161.49 486.736 1171.64 516.587 1179.33 526.961 C 1177.49 533.573 1175.51 541.432 1173.13 547.745 C 1169.48 550.234 1146.31 557.924 1141.35 559.571 C 1097.4 574.04 1052.39 585.088 1006.73 592.618 C 984.307 596.333 960.648 598.433 938.739 602.259 C 936.041 593.096 934.163 576.608 932.826 566.776 z" fill="#00FFFF" stroke="white" stroke-width="2" opacity="0.8" />
  <path d="M 805.235 311.157 C 829.622 309.935 833.684 335.084 827.851 354.257 C 825.256 362.783 819.78 367.201 811.935 370.937 C 782.645 371.922 777.754 325.232 805.235 311.157 z" fill="#FF8800" stroke="white" stroke-width="2" opacity="0.8" />
  <path d="M 802.798 264.205 C 815.348 263.233 827.042 264.263 837.271 272.605 C 842.63 276.975 849.373 287.021 842.296 293.132 C 835.584 298.927 825.491 296.477 817.438 295.398 C 806.311 293.34 793.612 300.931 783.641 296.371 C 776.009 292.881 776.152 281.869 781.356 276.228 C 788.337 268.66 793.193 266.392 802.798 264.205 z" fill="#8800FF" stroke="white" stroke-width="2" opacity="0.8" />
  <path d="M 1116.65 320.258 C 1147.72 318.872 1148.56 351.659 1120.92 361.162 C 1090.19 362.141 1086.51 327.195 1116.65 320.258 z" fill="#00FF88" stroke="white" stroke-width="2" opacity="0.8" />
  <path d="M 855.832 1552.11 C 962.426 1559.09 1069.38 1558.66 1175.91 1550.82 C 1203.46 1548.81 1242.15 1546.46 1269.04 1542.39 C 1269.12 1572.64 1269.58 1603.82 1269.17 1633.99 L 1269.77 1875.82 C 1279.37 1877.07 1295.07 1880.15 1291.07 1893.84 C 1287.68 1905.43 1274.44 1913.06 1267.24 1922.43 C 1272.63 1928.47 1277.71 1934.17 1283.4 1939.92 C 1287.85 1945.74 1291.52 1952.11 1294.31 1958.89 C 1297.69 1967.21 1299.44 1976.64 1295.52 1985.1 C 1291.39 1994.01 1283.07 1998.75 1274.15 2001.81 C 1202.58 2026.39 767.338 2024.81 706.511 1993.35 C 700.448 1990.21 694.178 1985.93 692.264 1978.98 C 690.858 1973.87 692.189 1968.46 694.802 1963.97 C 702.656 1950.5 719.159 1944.32 733.316 1940.19 C 762.085 1931.85 816.821 1923.95 846.665 1921.84 L 851.268 1910.83 C 841.657 1906.03 828.193 1895.25 836.678 1882.68 C 840.202 1877.46 848.791 1876.64 854.728 1875.83 C 856.208 1842.59 855.068 1800.79 855.075 1766.85 C 854.886 1695.27 855.138 1623.69 855.832 1552.11 z" fill="#FF0088" stroke="white" stroke-width="2" opacity="0.8" />
  <path d="M 1269.77 1875.82 C 1279.37 1877.07 1295.07 1880.15 1291.07 1893.84 C 1287.68 1905.43 1274.44 1913.06 1267.24 1922.43 C 1272.63 1928.47 1277.71 1934.17 1283.4 1939.92 C 1287.85 1945.74 1291.52 1952.11 1294.31 1958.89 C 1297.69 1967.21 1299.44 1976.64 1295.52 1985.1 C 1291.39 1994.01 1283.07 1998.75 1274.15 2001.81 C 1202.58 2026.39 767.338 2024.81 706.511 1993.35 C 700.448 1990.21 694.178 1985.93 692.264 1978.98 C 690.858 1973.87 692.189 1968.46 694.802 1963.97 C 702.656 1950.5 719.159 1944.32 733.316 1940.19 C 762.085 1931.85 816.821 1923.95 846.665 1921.84 L 851.268 1910.83 C 841.657 1906.03 828.193 1895.25 836.678 1882.68 C 840.202 1877.46 848.791 1876.64 854.728 1875.83 C 884.647 1877.21 923.066 1876.06 953.623 1876.03 L 1269.77 1875.82 z" fill="#0088FF" stroke="white" stroke-width="2" opacity="0.8" />
  <text x="1007.3085000000001" y="1053.4175" font-size="68.26666666666667" font-weight="bold" fill="white" stroke="black" stroke-width="3" text-anchor="middle" dominant-baseline="middle" paint-order="stroke">0</text>
  <text x="1233.9" y="667.473" font-size="68.26666666666667" font-weight="bold" fill="white" stroke="black" stroke-width="3" text-anchor="middle" dominant-baseline="middle" paint-order="stroke">1</text>
  <text x="1198.315" y="993.72" font-size="68.26666666666667" font-weight="bold" fill="white" stroke="black" stroke-width="3" text-anchor="middle" dominant-baseline="middle" paint-order="stroke">2</text>
  <text x="1039.0945" y="303.31757500000003" font-size="68.26666666666667" font-weight="bold" fill="white" stroke="black" stroke-width="3" text-anchor="middle" dominant-baseline="middle" paint-order="stroke">3</text>
  <text x="950.7695" y="367.683" font-size="68.26666666666667" font-weight="bold" fill="white" stroke="black" stroke-width="3" text-anchor="middle" dominant-baseline="middle" paint-order="stroke">4</text>
  <text x="1056.078" y="537.8305" font-size="68.26666666666667" font-weight="bold" fill="white" stroke="black" stroke-width="3" text-anchor="middle" dominant-baseline="middle" paint-order="stroke">5</text>
  <text x="805.719" y="340.9285" font-size="68.26666666666667" font-weight="bold" fill="white" stroke="black" stroke-width="3" text-anchor="middle" dominant-baseline="middle" paint-order="stroke">6</text>
  <text x="812.691" y="282.082" font-size="68.26666666666667" font-weight="bold" fill="white" stroke="black" stroke-width="3" text-anchor="middle" dominant-baseline="middle" paint-order="stroke">7</text>
  <text x="1117.5349999999999" y="340.5065" font-size="68.26666666666667" font-weight="bold" fill="white" stroke="black" stroke-width="3" text-anchor="middle" dominant-baseline="middle" paint-order="stroke">8</text>
  <text x="995.149" y="1784.39" font-size="68.26666666666667" font-weight="bold" fill="white" stroke="black" stroke-width="3" text-anchor="middle" dominant-baseline="middle" paint-order="stroke">9</text>
  <text x="995.149" y="1951.105" font-size="68.26666666666667" font-weight="bold" fill="white" stroke="black" stroke-width="3" text-anchor="middle" dominant-baseline="middle" paint-order="stroke">10</text>
</svg>