<svg xmlns="http://www.w3.org/2000/svg" viewBox="0 0 1080 1080" width="1080" height="1080">
  <path d="M41.97,0.00 C41.97,33.86 23.18,61.31 0.00,61.31 C-23.18,61.31 -41.97,33.86 -41.97,0.00 C-41.97,-33.86 -23.18,-61.31 0.00,-61.31 C23.18,-61.31 41.97,-33.86 41.97,0.00Z" fill="rgb(251,160,159)" opacity="1" />
  <path d="M-1.64,118.98 C-1.64,118.98 41.97,23.85 41.97,-124.67 C14.92,-124.67 -41.97,-124.67 -41.97,-124.67 C-41.97,-124.67 -35.30,92.83 -14.78,120.55 C-2.33,130.65 -1.64,118.98 -1.64,118.98Z" fill="rgb(251,160,159)" opacity="1" />
  <path d="M-11.61,-22.36 C-11.61,-22.36 -25.28,13.65 -19.61,18.98 C-13.94,24.31 -12.70,18.98 -12.70,18.98 C-12.70,18.98 -13.20,24.81 -7.45,23.81 C-1.70,22.81 -2.70,21.06 -2.70,21.06 C-2.70,21.06 -3.95,24.54 2.05,23.93 C8.05,23.31 6.30,19.56 6.30,19.56 C6.30,19.56 7.55,23.56 12.80,22.31 C18.05,21.06 15.30,10.83 12.80,0.82 C14.07,2.89 15.27,2.31 14.10,5.41 C14.04,5.57 14.01,5.76 14.03,5.94 C14.32,9.42 15.57,13.56 15.57,13.56 C15.57,13.56 22.80,9.81 20.55,0.88 C18.30,-8.06 9.18,-24.00 9.18,-24.00 Z" fill="rgb(251,160,159)" opacity="1" />
</svg>