<svg xmlns="http://www.w3.org/2000/svg" viewBox="0 0 1080 1080" width="1080" height="1080">
  <path d="M-59.92,42.49 C-59.92,42.49 -57.57,51.45 -43.91,47.10 C-30.24,42.75 -38.31,36.40 -30.94,34.18 C-23.58,31.97 23.90,31.34 39.82,14.95 C55.73,-1.44 81.30,-25.09 34.67,-48.25 C34.67,-48.25 16.25,-49.44 2.53,-39.16 C-11.19,-28.88 -10.06,-14.96 -22.05,-9.94 C-34.04,-4.92 -56.06,20.26 -59.63,29.51 C-63.19,38.76 -59.92,42.49 -59.92,42.49Z" fill="rgb(119,65,51)" opacity="1" />
  <path d="M16.38,-10.74 C16.38,-10.74 16.36,-5.23 8.79,4.99 C1.23,15.21 -8.74,20.52 -8.71,25.87 C-11.53,20.65 -14.12,8.46 -15.37,2.96 C-16.62,-2.54 -18.29,-13.20 -9.57,-19.11 C-0.85,-25.02 13.97,-25.87 13.97,-25.87 Z" fill="rgb(114,61,48)" opacity="1" />
  <path d="M-38.00,-98.34 C-38.00,-98.34 -14.68,-8.52 50.78,-19.79 C53.71,-9.69 62.37,-2.13 64.74,7.66 C73.85,45.36 71.43,81.20 58.81,94.65 C39.33,100.56 6.72,102.03 -15.70,78.49 C-38.12,54.95 -72.63,56.25 -70.09,8.44 C-67.55,-39.37 -57.01,-13.69 -57.63,-56.45 C-57.83,-70.68 -62.39,-91.99 -62.39,-91.99 C-62.39,-91.99 -54.41,-87.83 -48.60,-89.39 C-42.79,-90.94 -38.00,-98.34 -38.00,-98.34Z" fill="rgb(179,96,75)" opacity="1" />
</svg>