<svg xmlns="http://www.w3.org/2000/svg" viewBox="0 0 1080 1080" width="1080" height="1080">
  <rect width="1080" height="1080" fill="#1a1a2e" />
  <path d="M506.95,-203.55 C506.95,-203.55 464.71,-174.25 464.71,-25.74 C504.23,-25.74 587.34,-25.74 587.34,-25.74 C587.34,-25.74 587.34,-175.15 557.36,-202.87 C531.37,-226.91 506.95,-203.55 506.95,-203.55Z" fill="rgb(150,221,223)" opacity="1" />
  <path d="M41.97,0.00 C41.97,33.86 23.18,61.31 0.00,61.31 C-23.18,61.31 -41.97,33.86 -41.97,0.00 C-41.97,-33.86 -23.18,-61.31 0.00,-61.31 C23.18,-61.31 41.97,-33.86 41.97,0.00Z" fill="rgb(251,160,159)" opacity="1" />
  <path d="M-1.64,118.98 C-1.64,118.98 41.97,23.85 41.97,-124.67 C14.92,-124.67 -41.97,-124.67 -41.97,-124.67 C-41.97,-124.67 -35.30,92.83 -14.78,120.55 C-2.33,130.65 -1.64,118.98 -1.64,118.98Z" fill="rgb(251,160,159)" opacity="1" />
  <path d="M-11.61,-22.36 C-11.61,-22.36 -25.28,13.65 -19.61,18.98 C-13.94,24.31 -12.70,18.98 -12.70,18.98 C-12.70,18.98 -13.20,24.81 -7.45,23.81 C-1.70,22.81 -2.70,21.06 -2.70,21.06 C-2.70,21.06 -3.95,24.54 2.05,23.93 C8.05,23.31 6.30,19.56 6.30,19.56 C6.30,19.56 7.55,23.56 12.80,22.31 C18.05,21.06 15.30,10.83 12.80,0.82 C14.07,2.89 15.27,2.31 14.10,5.41 C14.04,5.57 14.01,5.76 14.03,5.94 C14.32,9.42 15.57,13.56 15.57,13.56 C15.57,13.56 22.80,9.81 20.55,0.88 C18.30,-8.06 9.18,-24.00 9.18,-24.00 Z" fill="rgb(251,160,159)" opacity="1" />
  <path d="M-59.92,42.49 C-59.92,42.49 -57.57,51.45 -43.91,47.10 C-30.24,42.75 -38.31,36.40 -30.94,34.18 C-23.58,31.97 23.90,31.34 39.82,14.95 C55.73,-1.44 81.30,-25.09 34.67,-48.25 C34.67,-48.25 16.25,-49.44 2.53,-39.16 C-11.19,-28.88 -10.06,-14.96 -22.05,-9.94 C-34.04,-4.92 -56.06,20.26 -59.63,29.51 C-63.19,38.76 -59.92,42.49 -59.92,42.49Z" fill="rgb(119,65,51)" opacity="1" />
  <path d="M16.38,-10.74 C16.38,-10.74 16.36,-5.23 8.79,4.99 C1.23,15.21 -8.74,20.52 -8.71,25.87 C-11.53,20.65 -14.12,8.46 -15.37,2.96 C-16.62,-2.54 -18.29,-13.20 -9.57,-19.11 C-0.85,-25.02 13.97,-25.87 13.97,-25.87 Z" fill="rgb(114,61,48)" opacity="1" />
  <path d="M-38.00,-98.34 C-38.00,-98.34 -14.68,-8.52 50.78,-19.79 C53.71,-9.69 62.37,-2.13 64.74,7.66 C73.85,45.36 71.43,81.20 58.81,94.65 C39.33,100.56 6.72,102.03 -15.70,78.49 C-38.12,54.95 -72.63,56.25 -70.09,8.44 C-67.55,-39.37 -57.01,-13.69 -57.63,-56.45 C-57.83,-70.68 -62.39,-91.99 -62.39,-91.99 C-62.39,-91.99 -54.41,-87.83 -48.60,-89.39 C-42.79,-90.94 -38.00,-98.34 -38.00,-98.34Z" fill="rgb(179,96,75)" opacity="1" />
  <path d="M506.95,-203.55 C506.95,-203.55 464.71,-174.25 464.71,-25.74 C504.23,-25.74 587.34,-25.74 587.34,-25.74 C587.34,-25.74 587.34,-175.15 557.36,-202.87 C531.37,-226.91 506.95,-203.55 506.95,-203.55Z" fill="rgb(150,221,223)" opacity="1" />
  <path d="M41.97,0.00 C41.97,33.86 23.18,61.31 0.00,61.31 C-23.18,61.31 -41.97,33.86 -41.97,0.00 C-41.97,-33.86 -23.18,-61.31 0.00,-61.31 C23.18,-61.31 41.97,-33.86 41.97,0.00Z" fill="rgb(228,145,144)" opacity="1" />
  <path d="M-1.64,118.98 C-1.64,118.98 41.97,23.85 41.97,-124.67 C14.92,-124.67 -41.97,-124.67 -41.97,-124.67 C-41.97,-124.67 -35.30,92.83 -14.78,120.55 C-2.33,130.65 -1.64,118.98 -1.64,118.98Z" fill="rgb(228,145,144)" opacity="1" />
  <path d="M-11.61,-22.36 C-11.61,-22.36 -25.28,13.65 -19.61,18.98 C-13.94,24.31 -12.70,18.98 -12.70,18.98 C-12.70,18.98 -13.20,24.81 -7.45,23.81 C-1.70,22.81 -2.70,21.06 -2.70,21.06 C-2.70,21.06 -3.95,24.54 2.05,23.93 C8.05,23.31 6.30,19.56 6.30,19.56 C6.30,19.56 7.55,23.56 12.80,22.31 C18.05,21.06 15.30,10.83 12.80,0.82 C14.07,2.89 15.27,2.31 14.10,5.41 C14.04,5.57 14.01,5.76 14.03,5.94 C14.32,9.42 15.57,13.56 15.57,13.56 C15.57,13.56 22.80,9.81 20.55,0.88 C18.30,-8.06 9.18,-24.00 9.18,-24.00 Z" fill="rgb(228,145,144)" opacity="1" />
  <path d="M102.31,-42.92 C102.31,-4.08 88.59,81.84 56.70,131.01 C42.20,153.35 32.36,134.20 0.00,135.67 C-29.23,137.01 -40.23,156.08 -53.97,136.34 C-87.57,88.05 -102.31,-2.81 -102.31,-42.92 C-102.31,-99.43 -56.51,-145.24 0.00,-145.24 C56.51,-145.24 102.31,-99.43 102.31,-42.92Z" fill="rgb(49,84,84)" opacity="1" />
  <path d="M48.77,-87.48 L16.99,116.14 L-24.52,115.01 L-48.77,-82.09 Z" fill="rgb(251,160,159)" opacity="1" />
  <path d="M50.68,0.00 C50.68,27.99 27.99,50.68 0.00,50.68 C-27.99,50.68 -50.68,27.99 -50.68,0.00 C-50.68,-27.99 -27.99,-50.68 0.00,-50.68 C27.99,-50.68 50.68,-27.99 50.68,0.00Z" fill="rgb(251,160,159)" opacity="1" />
  <path d="M510.00,468.25 C510.00,468.25 494.73,448.86 494.42,467.50 C494.24,477.90 495.27,486.00 498.88,486.00 C508.95,486.00 610.45,486.00 610.45,486.00 C610.45,486.00 614.45,466.00 564.45,466.50 C553.39,464.55 551.22,463.44 550.64,459.19 C550.32,456.91 551.34,454.46 546.75,453.25 C533.50,449.76 533.50,466.25 533.50,466.25 Z" fill="rgb(102,2,8)" opacity="1" />
  <path d="M510.00,468.25 C510.00,468.25 494.73,448.86 494.42,467.50 C494.24,477.90 495.27,486.00 498.88,486.00 C508.95,486.00 610.45,486.00 610.45,486.00 C610.45,486.00 614.45,466.00 564.45,466.50 C553.39,464.55 551.22,463.44 550.64,459.19 C550.32,456.91 551.34,454.46 546.75,453.25 C533.50,449.76 533.50,466.25 533.50,466.25 Z" fill="rgb(102,2,8)" opacity="1" />
  <path d="M102.31,-42.92 C102.31,-4.08 88.59,81.84 56.70,131.01 C42.20,153.35 32.36,134.20 0.00,135.67 C-29.23,137.01 -40.23,156.08 -53.97,136.34 C-87.57,88.05 -102.31,-2.81 -102.31,-42.92 C-102.31,-99.43 -56.51,-145.24 0.00,-145.24 C56.51,-145.24 102.31,-99.43 102.31,-42.92Z" fill="rgb(40,68,68)" opacity="1" />
  <path d="M48.77,-87.48 L16.99,116.14 L-24.52,115.01 L-48.77,-82.09 Z" fill="rgb(228,145,144)" opacity="1" />
  <path d="M50.68,0.00 C50.68,27.99 27.99,50.68 0.00,50.68 C-27.99,50.68 -50.68,27.99 -50.68,0.00 C-50.68,-27.99 -27.99,-50.68 0.00,-50.68 C27.99,-50.68 50.68,-27.99 50.68,0.00Z" fill="rgb(228,145,144)" opacity="1" />
</svg>