<svg viewBox="0 0 512 512" xmlns="http://www.w3.org/2000/svg">
  <defs>
    <filter id="glow">
      <feGaussianBlur stdDeviation="8" result="coloredBlur"/>
      <feMerge> 
        <feMergeNode in="coloredBlur"/>
        <feMergeNode in="SourceGraphic"/>
      </feMerge>
    </filter>
    <radialGradient id="bagGradient" cx="0.3" cy="0.3">
      <stop offset="0%" stop-color="#A1887F"/>
      <stop offset="100%" stop-color="#5D4037"/>
    </radialGradient>
    <radialGradient id="dollarGradient" cx="0.3" cy="0.3">
      <stop offset="0%" stop-color="#FFF176"/>
      <stop offset="100%" stop-color="#F57F17"/>
    </radialGradient>
  </defs>
  
  <rect width="512" height="512" fill="#1B2838"/>
  
  <g filter="url(#glow)">
    <ellipse cx="256" cy="340" rx="120" ry="110" fill="url(#bagGradient)"/>
    <ellipse cx="256" cy="200" rx="40" ry="30" fill="#6D4C41"/>
    <rect x="236" y="185" width="40" height="30" rx="8" fill="#6D4C41"/>
    <ellipse cx="236" cy="200" rx="8" ry="12" fill="#8D6E63"/>
    <ellipse cx="276" cy="200" rx="8" ry="12" fill="#8D6E63"/>
    <rect x="240" y="280" width="8" height="80" rx="4" fill="url(#dollarGradient)"/>
    <ellipse cx="244" cy="300" rx="25" ry="15" fill="none"/>
    <path d="M 219 300 Q 219 285 244 285 Q 269 285 269 300 Q 269 315 244 315 Q 219 315 219 300" fill="url(#dollarGradient)"/>
    <path d="M 219 340 Q 219 325 244 325 Q 269 325 269 340 Q 269 355 244 355 Q 219 355 219 340" fill="url(#dollarGradient)"/>
    <ellipse cx="220" cy="320" rx="15" ry="8" fill="url(#dollarGradient)"/>
    <ellipse cx="268" cy="320" rx="15" ry="8" fill="url(#dollarGradient)"/>
  </g>
</svg>